M48
; DRILL file KiCad 10.0.4 date 2026-07-12T12:36:48
; FORMAT={-:-/ absolute / metric / decimal}
; #@! TF.CreationDate,2026-07-12T12:36:48+09:00
; #@! TF.GenerationSoftware,Kicad,Pcbnew,10.0.4
; #@! TF.FileFunction,Plated,1,2,PTH
FMAT,2
METRIC
; #@! TA.AperFunction,Plated,PTH,ViaDrill
T1C0.300
; #@! TA.AperFunction,Plated,PTH,ComponentDrill
T2C0.950
; #@! TA.AperFunction,Plated,PTH,ComponentDrill
T3C1.100
%
G90
G05
T1
X85.0Y-105.0
X85.0Y-115.0
X85.0Y-125.0
X90.0Y-95.0
X90.0Y-130.0
X99.5Y-108.0
X105.0Y-95.0
X105.0Y-130.0
X107.0Y-104.0
X107.0Y-119.5
X111.0Y-109.0
X113.5Y-104.0
X120.0Y-95.0
X120.0Y-130.0
X126.0Y-120.0
X131.5Y-100.0
X135.0Y-95.0
X135.0Y-130.0
X136.5Y-109.5
X139.0Y-104.5
X150.0Y-95.0
X150.0Y-130.0
X155.0Y-105.0
X155.0Y-115.0
X155.0Y-125.0
T2
X101.5Y-123.0
X104.0Y-123.0
X106.5Y-123.0
X109.0Y-123.0
X111.5Y-123.0
X114.0Y-123.0
X123.25Y-123.055
X125.75Y-123.055
X128.25Y-123.055
X130.75Y-123.055
X133.25Y-123.055
X135.75Y-123.055
T3
X95.5Y-97.0
X95.5Y-101.5
X102.0Y-97.0
X102.0Y-101.5
X108.5Y-97.0
X108.5Y-101.5
X115.0Y-97.0
X115.0Y-101.5
X120.75Y-97.25
X120.75Y-101.75
X127.25Y-97.25
X127.25Y-101.75
X135.18Y-97.1
X135.18Y-101.6
X141.68Y-97.1
X141.68Y-101.6
M30
