%TF.GenerationSoftware,KiCad,Pcbnew,10.0.4*%
%TF.CreationDate,2026-07-12T12:36:35+09:00*%
%TF.ProjectId,administrator-board,61646d69-6e69-4737-9472-61746f722d62,rev?*%
%TF.SameCoordinates,Original*%
%TF.FileFunction,Legend,Top*%
%TF.FilePolarity,Positive*%
%FSLAX46Y46*%
G04 Gerber Fmt 4.6, Leading zero omitted, Abs format (unit mm)*
G04 Created by KiCad (PCBNEW 10.0.4) date 2026-07-12 12:36:35*
%MOMM*%
%LPD*%
G01*
G04 APERTURE LIST*
%ADD10C,0.100000*%
%ADD11C,0.150000*%
%ADD12C,0.120000*%
G04 APERTURE END LIST*
D10*
X120756265Y-117824800D02*
X120899122Y-117872419D01*
X120899122Y-117872419D02*
X121137217Y-117872419D01*
X121137217Y-117872419D02*
X121232455Y-117824800D01*
X121232455Y-117824800D02*
X121280074Y-117777180D01*
X121280074Y-117777180D02*
X121327693Y-117681942D01*
X121327693Y-117681942D02*
X121327693Y-117586704D01*
X121327693Y-117586704D02*
X121280074Y-117491466D01*
X121280074Y-117491466D02*
X121232455Y-117443847D01*
X121232455Y-117443847D02*
X121137217Y-117396228D01*
X121137217Y-117396228D02*
X120946741Y-117348609D01*
X120946741Y-117348609D02*
X120851503Y-117300990D01*
X120851503Y-117300990D02*
X120803884Y-117253371D01*
X120803884Y-117253371D02*
X120756265Y-117158133D01*
X120756265Y-117158133D02*
X120756265Y-117062895D01*
X120756265Y-117062895D02*
X120803884Y-116967657D01*
X120803884Y-116967657D02*
X120851503Y-116920038D01*
X120851503Y-116920038D02*
X120946741Y-116872419D01*
X120946741Y-116872419D02*
X121184836Y-116872419D01*
X121184836Y-116872419D02*
X121327693Y-116920038D01*
X121661027Y-116872419D02*
X121899122Y-117872419D01*
X121899122Y-117872419D02*
X122089598Y-117158133D01*
X122089598Y-117158133D02*
X122280074Y-117872419D01*
X122280074Y-117872419D02*
X122518170Y-116872419D01*
X122803884Y-116872419D02*
X123422931Y-116872419D01*
X123422931Y-116872419D02*
X123089598Y-117253371D01*
X123089598Y-117253371D02*
X123232455Y-117253371D01*
X123232455Y-117253371D02*
X123327693Y-117300990D01*
X123327693Y-117300990D02*
X123375312Y-117348609D01*
X123375312Y-117348609D02*
X123422931Y-117443847D01*
X123422931Y-117443847D02*
X123422931Y-117681942D01*
X123422931Y-117681942D02*
X123375312Y-117777180D01*
X123375312Y-117777180D02*
X123327693Y-117824800D01*
X123327693Y-117824800D02*
X123232455Y-117872419D01*
X123232455Y-117872419D02*
X122946741Y-117872419D01*
X122946741Y-117872419D02*
X122851503Y-117824800D01*
X122851503Y-117824800D02*
X122803884Y-117777180D01*
X124518170Y-116872419D02*
X125137217Y-116872419D01*
X125137217Y-116872419D02*
X124803884Y-117253371D01*
X124803884Y-117253371D02*
X124946741Y-117253371D01*
X124946741Y-117253371D02*
X125041979Y-117300990D01*
X125041979Y-117300990D02*
X125089598Y-117348609D01*
X125089598Y-117348609D02*
X125137217Y-117443847D01*
X125137217Y-117443847D02*
X125137217Y-117681942D01*
X125137217Y-117681942D02*
X125089598Y-117777180D01*
X125089598Y-117777180D02*
X125041979Y-117824800D01*
X125041979Y-117824800D02*
X124946741Y-117872419D01*
X124946741Y-117872419D02*
X124661027Y-117872419D01*
X124661027Y-117872419D02*
X124565789Y-117824800D01*
X124565789Y-117824800D02*
X124518170Y-117777180D01*
X125565789Y-117777180D02*
X125613408Y-117824800D01*
X125613408Y-117824800D02*
X125565789Y-117872419D01*
X125565789Y-117872419D02*
X125518170Y-117824800D01*
X125518170Y-117824800D02*
X125565789Y-117777180D01*
X125565789Y-117777180D02*
X125565789Y-117872419D01*
X125946741Y-116872419D02*
X126565788Y-116872419D01*
X126565788Y-116872419D02*
X126232455Y-117253371D01*
X126232455Y-117253371D02*
X126375312Y-117253371D01*
X126375312Y-117253371D02*
X126470550Y-117300990D01*
X126470550Y-117300990D02*
X126518169Y-117348609D01*
X126518169Y-117348609D02*
X126565788Y-117443847D01*
X126565788Y-117443847D02*
X126565788Y-117681942D01*
X126565788Y-117681942D02*
X126518169Y-117777180D01*
X126518169Y-117777180D02*
X126470550Y-117824800D01*
X126470550Y-117824800D02*
X126375312Y-117872419D01*
X126375312Y-117872419D02*
X126089598Y-117872419D01*
X126089598Y-117872419D02*
X125994360Y-117824800D01*
X125994360Y-117824800D02*
X125946741Y-117777180D01*
X126851503Y-116872419D02*
X127184836Y-117872419D01*
X127184836Y-117872419D02*
X127518169Y-116872419D01*
X128565789Y-117824800D02*
X128708646Y-117872419D01*
X128708646Y-117872419D02*
X128946741Y-117872419D01*
X128946741Y-117872419D02*
X129041979Y-117824800D01*
X129041979Y-117824800D02*
X129089598Y-117777180D01*
X129089598Y-117777180D02*
X129137217Y-117681942D01*
X129137217Y-117681942D02*
X129137217Y-117586704D01*
X129137217Y-117586704D02*
X129089598Y-117491466D01*
X129089598Y-117491466D02*
X129041979Y-117443847D01*
X129041979Y-117443847D02*
X128946741Y-117396228D01*
X128946741Y-117396228D02*
X128756265Y-117348609D01*
X128756265Y-117348609D02*
X128661027Y-117300990D01*
X128661027Y-117300990D02*
X128613408Y-117253371D01*
X128613408Y-117253371D02*
X128565789Y-117158133D01*
X128565789Y-117158133D02*
X128565789Y-117062895D01*
X128565789Y-117062895D02*
X128613408Y-116967657D01*
X128613408Y-116967657D02*
X128661027Y-116920038D01*
X128661027Y-116920038D02*
X128756265Y-116872419D01*
X128756265Y-116872419D02*
X128994360Y-116872419D01*
X128994360Y-116872419D02*
X129137217Y-116920038D01*
X129470551Y-116872419D02*
X129708646Y-117872419D01*
X129708646Y-117872419D02*
X129899122Y-117158133D01*
X129899122Y-117158133D02*
X130089598Y-117872419D01*
X130089598Y-117872419D02*
X130327694Y-116872419D01*
X131137217Y-117205752D02*
X131137217Y-117872419D01*
X130899122Y-116824800D02*
X130661027Y-117539085D01*
X130661027Y-117539085D02*
X131280074Y-117539085D01*
X132946741Y-116920038D02*
X132851503Y-116872419D01*
X132851503Y-116872419D02*
X132708646Y-116872419D01*
X132708646Y-116872419D02*
X132565789Y-116920038D01*
X132565789Y-116920038D02*
X132470551Y-117015276D01*
X132470551Y-117015276D02*
X132422932Y-117110514D01*
X132422932Y-117110514D02*
X132375313Y-117300990D01*
X132375313Y-117300990D02*
X132375313Y-117443847D01*
X132375313Y-117443847D02*
X132422932Y-117634323D01*
X132422932Y-117634323D02*
X132470551Y-117729561D01*
X132470551Y-117729561D02*
X132565789Y-117824800D01*
X132565789Y-117824800D02*
X132708646Y-117872419D01*
X132708646Y-117872419D02*
X132803884Y-117872419D01*
X132803884Y-117872419D02*
X132946741Y-117824800D01*
X132946741Y-117824800D02*
X132994360Y-117777180D01*
X132994360Y-117777180D02*
X132994360Y-117443847D01*
X132994360Y-117443847D02*
X132803884Y-117443847D01*
X133422932Y-117872419D02*
X133422932Y-116872419D01*
X133422932Y-116872419D02*
X133994360Y-117872419D01*
X133994360Y-117872419D02*
X133994360Y-116872419D01*
X134470551Y-117872419D02*
X134470551Y-116872419D01*
X134470551Y-116872419D02*
X134708646Y-116872419D01*
X134708646Y-116872419D02*
X134851503Y-116920038D01*
X134851503Y-116920038D02*
X134946741Y-117015276D01*
X134946741Y-117015276D02*
X134994360Y-117110514D01*
X134994360Y-117110514D02*
X135041979Y-117300990D01*
X135041979Y-117300990D02*
X135041979Y-117443847D01*
X135041979Y-117443847D02*
X134994360Y-117634323D01*
X134994360Y-117634323D02*
X134946741Y-117729561D01*
X134946741Y-117729561D02*
X134851503Y-117824800D01*
X134851503Y-117824800D02*
X134708646Y-117872419D01*
X134708646Y-117872419D02*
X134470551Y-117872419D01*
X98756265Y-118324800D02*
X98899122Y-118372419D01*
X98899122Y-118372419D02*
X99137217Y-118372419D01*
X99137217Y-118372419D02*
X99232455Y-118324800D01*
X99232455Y-118324800D02*
X99280074Y-118277180D01*
X99280074Y-118277180D02*
X99327693Y-118181942D01*
X99327693Y-118181942D02*
X99327693Y-118086704D01*
X99327693Y-118086704D02*
X99280074Y-117991466D01*
X99280074Y-117991466D02*
X99232455Y-117943847D01*
X99232455Y-117943847D02*
X99137217Y-117896228D01*
X99137217Y-117896228D02*
X98946741Y-117848609D01*
X98946741Y-117848609D02*
X98851503Y-117800990D01*
X98851503Y-117800990D02*
X98803884Y-117753371D01*
X98803884Y-117753371D02*
X98756265Y-117658133D01*
X98756265Y-117658133D02*
X98756265Y-117562895D01*
X98756265Y-117562895D02*
X98803884Y-117467657D01*
X98803884Y-117467657D02*
X98851503Y-117420038D01*
X98851503Y-117420038D02*
X98946741Y-117372419D01*
X98946741Y-117372419D02*
X99184836Y-117372419D01*
X99184836Y-117372419D02*
X99327693Y-117420038D01*
X99661027Y-117372419D02*
X99899122Y-118372419D01*
X99899122Y-118372419D02*
X100089598Y-117658133D01*
X100089598Y-117658133D02*
X100280074Y-118372419D01*
X100280074Y-118372419D02*
X100518170Y-117372419D01*
X101422931Y-118372419D02*
X100851503Y-118372419D01*
X101137217Y-118372419D02*
X101137217Y-117372419D01*
X101137217Y-117372419D02*
X101041979Y-117515276D01*
X101041979Y-117515276D02*
X100946741Y-117610514D01*
X100946741Y-117610514D02*
X100851503Y-117658133D01*
X102518170Y-117372419D02*
X103137217Y-117372419D01*
X103137217Y-117372419D02*
X102803884Y-117753371D01*
X102803884Y-117753371D02*
X102946741Y-117753371D01*
X102946741Y-117753371D02*
X103041979Y-117800990D01*
X103041979Y-117800990D02*
X103089598Y-117848609D01*
X103089598Y-117848609D02*
X103137217Y-117943847D01*
X103137217Y-117943847D02*
X103137217Y-118181942D01*
X103137217Y-118181942D02*
X103089598Y-118277180D01*
X103089598Y-118277180D02*
X103041979Y-118324800D01*
X103041979Y-118324800D02*
X102946741Y-118372419D01*
X102946741Y-118372419D02*
X102661027Y-118372419D01*
X102661027Y-118372419D02*
X102565789Y-118324800D01*
X102565789Y-118324800D02*
X102518170Y-118277180D01*
X103565789Y-118277180D02*
X103613408Y-118324800D01*
X103613408Y-118324800D02*
X103565789Y-118372419D01*
X103565789Y-118372419D02*
X103518170Y-118324800D01*
X103518170Y-118324800D02*
X103565789Y-118277180D01*
X103565789Y-118277180D02*
X103565789Y-118372419D01*
X103946741Y-117372419D02*
X104565788Y-117372419D01*
X104565788Y-117372419D02*
X104232455Y-117753371D01*
X104232455Y-117753371D02*
X104375312Y-117753371D01*
X104375312Y-117753371D02*
X104470550Y-117800990D01*
X104470550Y-117800990D02*
X104518169Y-117848609D01*
X104518169Y-117848609D02*
X104565788Y-117943847D01*
X104565788Y-117943847D02*
X104565788Y-118181942D01*
X104565788Y-118181942D02*
X104518169Y-118277180D01*
X104518169Y-118277180D02*
X104470550Y-118324800D01*
X104470550Y-118324800D02*
X104375312Y-118372419D01*
X104375312Y-118372419D02*
X104089598Y-118372419D01*
X104089598Y-118372419D02*
X103994360Y-118324800D01*
X103994360Y-118324800D02*
X103946741Y-118277180D01*
X104851503Y-117372419D02*
X105184836Y-118372419D01*
X105184836Y-118372419D02*
X105518169Y-117372419D01*
X106565789Y-118324800D02*
X106708646Y-118372419D01*
X106708646Y-118372419D02*
X106946741Y-118372419D01*
X106946741Y-118372419D02*
X107041979Y-118324800D01*
X107041979Y-118324800D02*
X107089598Y-118277180D01*
X107089598Y-118277180D02*
X107137217Y-118181942D01*
X107137217Y-118181942D02*
X107137217Y-118086704D01*
X107137217Y-118086704D02*
X107089598Y-117991466D01*
X107089598Y-117991466D02*
X107041979Y-117943847D01*
X107041979Y-117943847D02*
X106946741Y-117896228D01*
X106946741Y-117896228D02*
X106756265Y-117848609D01*
X106756265Y-117848609D02*
X106661027Y-117800990D01*
X106661027Y-117800990D02*
X106613408Y-117753371D01*
X106613408Y-117753371D02*
X106565789Y-117658133D01*
X106565789Y-117658133D02*
X106565789Y-117562895D01*
X106565789Y-117562895D02*
X106613408Y-117467657D01*
X106613408Y-117467657D02*
X106661027Y-117420038D01*
X106661027Y-117420038D02*
X106756265Y-117372419D01*
X106756265Y-117372419D02*
X106994360Y-117372419D01*
X106994360Y-117372419D02*
X107137217Y-117420038D01*
X107470551Y-117372419D02*
X107708646Y-118372419D01*
X107708646Y-118372419D02*
X107899122Y-117658133D01*
X107899122Y-117658133D02*
X108089598Y-118372419D01*
X108089598Y-118372419D02*
X108327694Y-117372419D01*
X108661027Y-117467657D02*
X108708646Y-117420038D01*
X108708646Y-117420038D02*
X108803884Y-117372419D01*
X108803884Y-117372419D02*
X109041979Y-117372419D01*
X109041979Y-117372419D02*
X109137217Y-117420038D01*
X109137217Y-117420038D02*
X109184836Y-117467657D01*
X109184836Y-117467657D02*
X109232455Y-117562895D01*
X109232455Y-117562895D02*
X109232455Y-117658133D01*
X109232455Y-117658133D02*
X109184836Y-117800990D01*
X109184836Y-117800990D02*
X108613408Y-118372419D01*
X108613408Y-118372419D02*
X109232455Y-118372419D01*
X110946741Y-117420038D02*
X110851503Y-117372419D01*
X110851503Y-117372419D02*
X110708646Y-117372419D01*
X110708646Y-117372419D02*
X110565789Y-117420038D01*
X110565789Y-117420038D02*
X110470551Y-117515276D01*
X110470551Y-117515276D02*
X110422932Y-117610514D01*
X110422932Y-117610514D02*
X110375313Y-117800990D01*
X110375313Y-117800990D02*
X110375313Y-117943847D01*
X110375313Y-117943847D02*
X110422932Y-118134323D01*
X110422932Y-118134323D02*
X110470551Y-118229561D01*
X110470551Y-118229561D02*
X110565789Y-118324800D01*
X110565789Y-118324800D02*
X110708646Y-118372419D01*
X110708646Y-118372419D02*
X110803884Y-118372419D01*
X110803884Y-118372419D02*
X110946741Y-118324800D01*
X110946741Y-118324800D02*
X110994360Y-118277180D01*
X110994360Y-118277180D02*
X110994360Y-117943847D01*
X110994360Y-117943847D02*
X110803884Y-117943847D01*
X111422932Y-118372419D02*
X111422932Y-117372419D01*
X111422932Y-117372419D02*
X111994360Y-118372419D01*
X111994360Y-118372419D02*
X111994360Y-117372419D01*
X112470551Y-118372419D02*
X112470551Y-117372419D01*
X112470551Y-117372419D02*
X112708646Y-117372419D01*
X112708646Y-117372419D02*
X112851503Y-117420038D01*
X112851503Y-117420038D02*
X112946741Y-117515276D01*
X112946741Y-117515276D02*
X112994360Y-117610514D01*
X112994360Y-117610514D02*
X113041979Y-117800990D01*
X113041979Y-117800990D02*
X113041979Y-117943847D01*
X113041979Y-117943847D02*
X112994360Y-118134323D01*
X112994360Y-118134323D02*
X112946741Y-118229561D01*
X112946741Y-118229561D02*
X112851503Y-118324800D01*
X112851503Y-118324800D02*
X112708646Y-118372419D01*
X112708646Y-118372419D02*
X112470551Y-118372419D01*
X92756265Y-92586704D02*
X93232455Y-92586704D01*
X92661027Y-92872419D02*
X92994360Y-91872419D01*
X92994360Y-91872419D02*
X93327693Y-92872419D01*
X94089598Y-92872419D02*
X94089598Y-91872419D01*
X94089598Y-92824800D02*
X93994360Y-92872419D01*
X93994360Y-92872419D02*
X93803884Y-92872419D01*
X93803884Y-92872419D02*
X93708646Y-92824800D01*
X93708646Y-92824800D02*
X93661027Y-92777180D01*
X93661027Y-92777180D02*
X93613408Y-92681942D01*
X93613408Y-92681942D02*
X93613408Y-92396228D01*
X93613408Y-92396228D02*
X93661027Y-92300990D01*
X93661027Y-92300990D02*
X93708646Y-92253371D01*
X93708646Y-92253371D02*
X93803884Y-92205752D01*
X93803884Y-92205752D02*
X93994360Y-92205752D01*
X93994360Y-92205752D02*
X94089598Y-92253371D01*
X94565789Y-92872419D02*
X94565789Y-92205752D01*
X94565789Y-92300990D02*
X94613408Y-92253371D01*
X94613408Y-92253371D02*
X94708646Y-92205752D01*
X94708646Y-92205752D02*
X94851503Y-92205752D01*
X94851503Y-92205752D02*
X94946741Y-92253371D01*
X94946741Y-92253371D02*
X94994360Y-92348609D01*
X94994360Y-92348609D02*
X94994360Y-92872419D01*
X94994360Y-92348609D02*
X95041979Y-92253371D01*
X95041979Y-92253371D02*
X95137217Y-92205752D01*
X95137217Y-92205752D02*
X95280074Y-92205752D01*
X95280074Y-92205752D02*
X95375313Y-92253371D01*
X95375313Y-92253371D02*
X95422932Y-92348609D01*
X95422932Y-92348609D02*
X95422932Y-92872419D01*
X95899122Y-92872419D02*
X95899122Y-92205752D01*
X95899122Y-91872419D02*
X95851503Y-91920038D01*
X95851503Y-91920038D02*
X95899122Y-91967657D01*
X95899122Y-91967657D02*
X95946741Y-91920038D01*
X95946741Y-91920038D02*
X95899122Y-91872419D01*
X95899122Y-91872419D02*
X95899122Y-91967657D01*
X96375312Y-92205752D02*
X96375312Y-92872419D01*
X96375312Y-92300990D02*
X96422931Y-92253371D01*
X96422931Y-92253371D02*
X96518169Y-92205752D01*
X96518169Y-92205752D02*
X96661026Y-92205752D01*
X96661026Y-92205752D02*
X96756264Y-92253371D01*
X96756264Y-92253371D02*
X96803883Y-92348609D01*
X96803883Y-92348609D02*
X96803883Y-92872419D01*
X97232455Y-92824800D02*
X97327693Y-92872419D01*
X97327693Y-92872419D02*
X97518169Y-92872419D01*
X97518169Y-92872419D02*
X97613407Y-92824800D01*
X97613407Y-92824800D02*
X97661026Y-92729561D01*
X97661026Y-92729561D02*
X97661026Y-92681942D01*
X97661026Y-92681942D02*
X97613407Y-92586704D01*
X97613407Y-92586704D02*
X97518169Y-92539085D01*
X97518169Y-92539085D02*
X97375312Y-92539085D01*
X97375312Y-92539085D02*
X97280074Y-92491466D01*
X97280074Y-92491466D02*
X97232455Y-92396228D01*
X97232455Y-92396228D02*
X97232455Y-92348609D01*
X97232455Y-92348609D02*
X97280074Y-92253371D01*
X97280074Y-92253371D02*
X97375312Y-92205752D01*
X97375312Y-92205752D02*
X97518169Y-92205752D01*
X97518169Y-92205752D02*
X97613407Y-92253371D01*
X97946741Y-92205752D02*
X98327693Y-92205752D01*
X98089598Y-91872419D02*
X98089598Y-92729561D01*
X98089598Y-92729561D02*
X98137217Y-92824800D01*
X98137217Y-92824800D02*
X98232455Y-92872419D01*
X98232455Y-92872419D02*
X98327693Y-92872419D01*
X98661027Y-92872419D02*
X98661027Y-92205752D01*
X98661027Y-92396228D02*
X98708646Y-92300990D01*
X98708646Y-92300990D02*
X98756265Y-92253371D01*
X98756265Y-92253371D02*
X98851503Y-92205752D01*
X98851503Y-92205752D02*
X98946741Y-92205752D01*
X99708646Y-92872419D02*
X99708646Y-92348609D01*
X99708646Y-92348609D02*
X99661027Y-92253371D01*
X99661027Y-92253371D02*
X99565789Y-92205752D01*
X99565789Y-92205752D02*
X99375313Y-92205752D01*
X99375313Y-92205752D02*
X99280075Y-92253371D01*
X99708646Y-92824800D02*
X99613408Y-92872419D01*
X99613408Y-92872419D02*
X99375313Y-92872419D01*
X99375313Y-92872419D02*
X99280075Y-92824800D01*
X99280075Y-92824800D02*
X99232456Y-92729561D01*
X99232456Y-92729561D02*
X99232456Y-92634323D01*
X99232456Y-92634323D02*
X99280075Y-92539085D01*
X99280075Y-92539085D02*
X99375313Y-92491466D01*
X99375313Y-92491466D02*
X99613408Y-92491466D01*
X99613408Y-92491466D02*
X99708646Y-92443847D01*
X100041980Y-92205752D02*
X100422932Y-92205752D01*
X100184837Y-91872419D02*
X100184837Y-92729561D01*
X100184837Y-92729561D02*
X100232456Y-92824800D01*
X100232456Y-92824800D02*
X100327694Y-92872419D01*
X100327694Y-92872419D02*
X100422932Y-92872419D01*
X100899123Y-92872419D02*
X100803885Y-92824800D01*
X100803885Y-92824800D02*
X100756266Y-92777180D01*
X100756266Y-92777180D02*
X100708647Y-92681942D01*
X100708647Y-92681942D02*
X100708647Y-92396228D01*
X100708647Y-92396228D02*
X100756266Y-92300990D01*
X100756266Y-92300990D02*
X100803885Y-92253371D01*
X100803885Y-92253371D02*
X100899123Y-92205752D01*
X100899123Y-92205752D02*
X101041980Y-92205752D01*
X101041980Y-92205752D02*
X101137218Y-92253371D01*
X101137218Y-92253371D02*
X101184837Y-92300990D01*
X101184837Y-92300990D02*
X101232456Y-92396228D01*
X101232456Y-92396228D02*
X101232456Y-92681942D01*
X101232456Y-92681942D02*
X101184837Y-92777180D01*
X101184837Y-92777180D02*
X101137218Y-92824800D01*
X101137218Y-92824800D02*
X101041980Y-92872419D01*
X101041980Y-92872419D02*
X100899123Y-92872419D01*
X101661028Y-92872419D02*
X101661028Y-92205752D01*
X101661028Y-92396228D02*
X101708647Y-92300990D01*
X101708647Y-92300990D02*
X101756266Y-92253371D01*
X101756266Y-92253371D02*
X101851504Y-92205752D01*
X101851504Y-92205752D02*
X101946742Y-92205752D01*
X103375314Y-92348609D02*
X103518171Y-92396228D01*
X103518171Y-92396228D02*
X103565790Y-92443847D01*
X103565790Y-92443847D02*
X103613409Y-92539085D01*
X103613409Y-92539085D02*
X103613409Y-92681942D01*
X103613409Y-92681942D02*
X103565790Y-92777180D01*
X103565790Y-92777180D02*
X103518171Y-92824800D01*
X103518171Y-92824800D02*
X103422933Y-92872419D01*
X103422933Y-92872419D02*
X103041981Y-92872419D01*
X103041981Y-92872419D02*
X103041981Y-91872419D01*
X103041981Y-91872419D02*
X103375314Y-91872419D01*
X103375314Y-91872419D02*
X103470552Y-91920038D01*
X103470552Y-91920038D02*
X103518171Y-91967657D01*
X103518171Y-91967657D02*
X103565790Y-92062895D01*
X103565790Y-92062895D02*
X103565790Y-92158133D01*
X103565790Y-92158133D02*
X103518171Y-92253371D01*
X103518171Y-92253371D02*
X103470552Y-92300990D01*
X103470552Y-92300990D02*
X103375314Y-92348609D01*
X103375314Y-92348609D02*
X103041981Y-92348609D01*
X104184838Y-92872419D02*
X104089600Y-92824800D01*
X104089600Y-92824800D02*
X104041981Y-92777180D01*
X104041981Y-92777180D02*
X103994362Y-92681942D01*
X103994362Y-92681942D02*
X103994362Y-92396228D01*
X103994362Y-92396228D02*
X104041981Y-92300990D01*
X104041981Y-92300990D02*
X104089600Y-92253371D01*
X104089600Y-92253371D02*
X104184838Y-92205752D01*
X104184838Y-92205752D02*
X104327695Y-92205752D01*
X104327695Y-92205752D02*
X104422933Y-92253371D01*
X104422933Y-92253371D02*
X104470552Y-92300990D01*
X104470552Y-92300990D02*
X104518171Y-92396228D01*
X104518171Y-92396228D02*
X104518171Y-92681942D01*
X104518171Y-92681942D02*
X104470552Y-92777180D01*
X104470552Y-92777180D02*
X104422933Y-92824800D01*
X104422933Y-92824800D02*
X104327695Y-92872419D01*
X104327695Y-92872419D02*
X104184838Y-92872419D01*
X105375314Y-92872419D02*
X105375314Y-92348609D01*
X105375314Y-92348609D02*
X105327695Y-92253371D01*
X105327695Y-92253371D02*
X105232457Y-92205752D01*
X105232457Y-92205752D02*
X105041981Y-92205752D01*
X105041981Y-92205752D02*
X104946743Y-92253371D01*
X105375314Y-92824800D02*
X105280076Y-92872419D01*
X105280076Y-92872419D02*
X105041981Y-92872419D01*
X105041981Y-92872419D02*
X104946743Y-92824800D01*
X104946743Y-92824800D02*
X104899124Y-92729561D01*
X104899124Y-92729561D02*
X104899124Y-92634323D01*
X104899124Y-92634323D02*
X104946743Y-92539085D01*
X104946743Y-92539085D02*
X105041981Y-92491466D01*
X105041981Y-92491466D02*
X105280076Y-92491466D01*
X105280076Y-92491466D02*
X105375314Y-92443847D01*
X105851505Y-92872419D02*
X105851505Y-92205752D01*
X105851505Y-92396228D02*
X105899124Y-92300990D01*
X105899124Y-92300990D02*
X105946743Y-92253371D01*
X105946743Y-92253371D02*
X106041981Y-92205752D01*
X106041981Y-92205752D02*
X106137219Y-92205752D01*
X106899124Y-92872419D02*
X106899124Y-91872419D01*
X106899124Y-92824800D02*
X106803886Y-92872419D01*
X106803886Y-92872419D02*
X106613410Y-92872419D01*
X106613410Y-92872419D02*
X106518172Y-92824800D01*
X106518172Y-92824800D02*
X106470553Y-92777180D01*
X106470553Y-92777180D02*
X106422934Y-92681942D01*
X106422934Y-92681942D02*
X106422934Y-92396228D01*
X106422934Y-92396228D02*
X106470553Y-92300990D01*
X106470553Y-92300990D02*
X106518172Y-92253371D01*
X106518172Y-92253371D02*
X106613410Y-92205752D01*
X106613410Y-92205752D02*
X106803886Y-92205752D01*
X106803886Y-92205752D02*
X106899124Y-92253371D01*
D11*
X115760833Y-105524819D02*
X115427500Y-105048628D01*
X115189405Y-105524819D02*
X115189405Y-104524819D01*
X115189405Y-104524819D02*
X115570357Y-104524819D01*
X115570357Y-104524819D02*
X115665595Y-104572438D01*
X115665595Y-104572438D02*
X115713214Y-104620057D01*
X115713214Y-104620057D02*
X115760833Y-104715295D01*
X115760833Y-104715295D02*
X115760833Y-104858152D01*
X115760833Y-104858152D02*
X115713214Y-104953390D01*
X115713214Y-104953390D02*
X115665595Y-105001009D01*
X115665595Y-105001009D02*
X115570357Y-105048628D01*
X115570357Y-105048628D02*
X115189405Y-105048628D01*
X116094167Y-104524819D02*
X116760833Y-104524819D01*
X116760833Y-104524819D02*
X116332262Y-105524819D01*
X97416667Y-95407200D02*
X97559524Y-95454819D01*
X97559524Y-95454819D02*
X97797619Y-95454819D01*
X97797619Y-95454819D02*
X97892857Y-95407200D01*
X97892857Y-95407200D02*
X97940476Y-95359580D01*
X97940476Y-95359580D02*
X97988095Y-95264342D01*
X97988095Y-95264342D02*
X97988095Y-95169104D01*
X97988095Y-95169104D02*
X97940476Y-95073866D01*
X97940476Y-95073866D02*
X97892857Y-95026247D01*
X97892857Y-95026247D02*
X97797619Y-94978628D01*
X97797619Y-94978628D02*
X97607143Y-94931009D01*
X97607143Y-94931009D02*
X97511905Y-94883390D01*
X97511905Y-94883390D02*
X97464286Y-94835771D01*
X97464286Y-94835771D02*
X97416667Y-94740533D01*
X97416667Y-94740533D02*
X97416667Y-94645295D01*
X97416667Y-94645295D02*
X97464286Y-94550057D01*
X97464286Y-94550057D02*
X97511905Y-94502438D01*
X97511905Y-94502438D02*
X97607143Y-94454819D01*
X97607143Y-94454819D02*
X97845238Y-94454819D01*
X97845238Y-94454819D02*
X97988095Y-94502438D01*
X98321429Y-94454819D02*
X98559524Y-95454819D01*
X98559524Y-95454819D02*
X98750000Y-94740533D01*
X98750000Y-94740533D02*
X98940476Y-95454819D01*
X98940476Y-95454819D02*
X99178572Y-94454819D01*
X99511905Y-94550057D02*
X99559524Y-94502438D01*
X99559524Y-94502438D02*
X99654762Y-94454819D01*
X99654762Y-94454819D02*
X99892857Y-94454819D01*
X99892857Y-94454819D02*
X99988095Y-94502438D01*
X99988095Y-94502438D02*
X100035714Y-94550057D01*
X100035714Y-94550057D02*
X100083333Y-94645295D01*
X100083333Y-94645295D02*
X100083333Y-94740533D01*
X100083333Y-94740533D02*
X100035714Y-94883390D01*
X100035714Y-94883390D02*
X99464286Y-95454819D01*
X99464286Y-95454819D02*
X100083333Y-95454819D01*
X137096667Y-95507200D02*
X137239524Y-95554819D01*
X137239524Y-95554819D02*
X137477619Y-95554819D01*
X137477619Y-95554819D02*
X137572857Y-95507200D01*
X137572857Y-95507200D02*
X137620476Y-95459580D01*
X137620476Y-95459580D02*
X137668095Y-95364342D01*
X137668095Y-95364342D02*
X137668095Y-95269104D01*
X137668095Y-95269104D02*
X137620476Y-95173866D01*
X137620476Y-95173866D02*
X137572857Y-95126247D01*
X137572857Y-95126247D02*
X137477619Y-95078628D01*
X137477619Y-95078628D02*
X137287143Y-95031009D01*
X137287143Y-95031009D02*
X137191905Y-94983390D01*
X137191905Y-94983390D02*
X137144286Y-94935771D01*
X137144286Y-94935771D02*
X137096667Y-94840533D01*
X137096667Y-94840533D02*
X137096667Y-94745295D01*
X137096667Y-94745295D02*
X137144286Y-94650057D01*
X137144286Y-94650057D02*
X137191905Y-94602438D01*
X137191905Y-94602438D02*
X137287143Y-94554819D01*
X137287143Y-94554819D02*
X137525238Y-94554819D01*
X137525238Y-94554819D02*
X137668095Y-94602438D01*
X138001429Y-94554819D02*
X138239524Y-95554819D01*
X138239524Y-95554819D02*
X138430000Y-94840533D01*
X138430000Y-94840533D02*
X138620476Y-95554819D01*
X138620476Y-95554819D02*
X138858572Y-94554819D01*
X139715714Y-94554819D02*
X139239524Y-94554819D01*
X139239524Y-94554819D02*
X139191905Y-95031009D01*
X139191905Y-95031009D02*
X139239524Y-94983390D01*
X139239524Y-94983390D02*
X139334762Y-94935771D01*
X139334762Y-94935771D02*
X139572857Y-94935771D01*
X139572857Y-94935771D02*
X139668095Y-94983390D01*
X139668095Y-94983390D02*
X139715714Y-95031009D01*
X139715714Y-95031009D02*
X139763333Y-95126247D01*
X139763333Y-95126247D02*
X139763333Y-95364342D01*
X139763333Y-95364342D02*
X139715714Y-95459580D01*
X139715714Y-95459580D02*
X139668095Y-95507200D01*
X139668095Y-95507200D02*
X139572857Y-95554819D01*
X139572857Y-95554819D02*
X139334762Y-95554819D01*
X139334762Y-95554819D02*
X139239524Y-95507200D01*
X139239524Y-95507200D02*
X139191905Y-95459580D01*
X102420833Y-105524819D02*
X102087500Y-105048628D01*
X101849405Y-105524819D02*
X101849405Y-104524819D01*
X101849405Y-104524819D02*
X102230357Y-104524819D01*
X102230357Y-104524819D02*
X102325595Y-104572438D01*
X102325595Y-104572438D02*
X102373214Y-104620057D01*
X102373214Y-104620057D02*
X102420833Y-104715295D01*
X102420833Y-104715295D02*
X102420833Y-104858152D01*
X102420833Y-104858152D02*
X102373214Y-104953390D01*
X102373214Y-104953390D02*
X102325595Y-105001009D01*
X102325595Y-105001009D02*
X102230357Y-105048628D01*
X102230357Y-105048628D02*
X101849405Y-105048628D01*
X103277976Y-104524819D02*
X103087500Y-104524819D01*
X103087500Y-104524819D02*
X102992262Y-104572438D01*
X102992262Y-104572438D02*
X102944643Y-104620057D01*
X102944643Y-104620057D02*
X102849405Y-104762914D01*
X102849405Y-104762914D02*
X102801786Y-104953390D01*
X102801786Y-104953390D02*
X102801786Y-105334342D01*
X102801786Y-105334342D02*
X102849405Y-105429580D01*
X102849405Y-105429580D02*
X102897024Y-105477200D01*
X102897024Y-105477200D02*
X102992262Y-105524819D01*
X102992262Y-105524819D02*
X103182738Y-105524819D01*
X103182738Y-105524819D02*
X103277976Y-105477200D01*
X103277976Y-105477200D02*
X103325595Y-105429580D01*
X103325595Y-105429580D02*
X103373214Y-105334342D01*
X103373214Y-105334342D02*
X103373214Y-105096247D01*
X103373214Y-105096247D02*
X103325595Y-105001009D01*
X103325595Y-105001009D02*
X103277976Y-104953390D01*
X103277976Y-104953390D02*
X103182738Y-104905771D01*
X103182738Y-104905771D02*
X102992262Y-104905771D01*
X102992262Y-104905771D02*
X102897024Y-104953390D01*
X102897024Y-104953390D02*
X102849405Y-105001009D01*
X102849405Y-105001009D02*
X102801786Y-105096247D01*
X121395833Y-110024819D02*
X121062500Y-109548628D01*
X120824405Y-110024819D02*
X120824405Y-109024819D01*
X120824405Y-109024819D02*
X121205357Y-109024819D01*
X121205357Y-109024819D02*
X121300595Y-109072438D01*
X121300595Y-109072438D02*
X121348214Y-109120057D01*
X121348214Y-109120057D02*
X121395833Y-109215295D01*
X121395833Y-109215295D02*
X121395833Y-109358152D01*
X121395833Y-109358152D02*
X121348214Y-109453390D01*
X121348214Y-109453390D02*
X121300595Y-109501009D01*
X121300595Y-109501009D02*
X121205357Y-109548628D01*
X121205357Y-109548628D02*
X120824405Y-109548628D01*
X122252976Y-109358152D02*
X122252976Y-110024819D01*
X122014881Y-108977200D02*
X121776786Y-109691485D01*
X121776786Y-109691485D02*
X122395833Y-109691485D01*
X109965833Y-110024819D02*
X109632500Y-109548628D01*
X109394405Y-110024819D02*
X109394405Y-109024819D01*
X109394405Y-109024819D02*
X109775357Y-109024819D01*
X109775357Y-109024819D02*
X109870595Y-109072438D01*
X109870595Y-109072438D02*
X109918214Y-109120057D01*
X109918214Y-109120057D02*
X109965833Y-109215295D01*
X109965833Y-109215295D02*
X109965833Y-109358152D01*
X109965833Y-109358152D02*
X109918214Y-109453390D01*
X109918214Y-109453390D02*
X109870595Y-109501009D01*
X109870595Y-109501009D02*
X109775357Y-109548628D01*
X109775357Y-109548628D02*
X109394405Y-109548628D01*
X110299167Y-109024819D02*
X110918214Y-109024819D01*
X110918214Y-109024819D02*
X110584881Y-109405771D01*
X110584881Y-109405771D02*
X110727738Y-109405771D01*
X110727738Y-109405771D02*
X110822976Y-109453390D01*
X110822976Y-109453390D02*
X110870595Y-109501009D01*
X110870595Y-109501009D02*
X110918214Y-109596247D01*
X110918214Y-109596247D02*
X110918214Y-109834342D01*
X110918214Y-109834342D02*
X110870595Y-109929580D01*
X110870595Y-109929580D02*
X110822976Y-109977200D01*
X110822976Y-109977200D02*
X110727738Y-110024819D01*
X110727738Y-110024819D02*
X110442024Y-110024819D01*
X110442024Y-110024819D02*
X110346786Y-109977200D01*
X110346786Y-109977200D02*
X110299167Y-109929580D01*
X142073333Y-106024819D02*
X141740000Y-105548628D01*
X141501905Y-106024819D02*
X141501905Y-105024819D01*
X141501905Y-105024819D02*
X141882857Y-105024819D01*
X141882857Y-105024819D02*
X141978095Y-105072438D01*
X141978095Y-105072438D02*
X142025714Y-105120057D01*
X142025714Y-105120057D02*
X142073333Y-105215295D01*
X142073333Y-105215295D02*
X142073333Y-105358152D01*
X142073333Y-105358152D02*
X142025714Y-105453390D01*
X142025714Y-105453390D02*
X141978095Y-105501009D01*
X141978095Y-105501009D02*
X141882857Y-105548628D01*
X141882857Y-105548628D02*
X141501905Y-105548628D01*
X142549524Y-106024819D02*
X142740000Y-106024819D01*
X142740000Y-106024819D02*
X142835238Y-105977200D01*
X142835238Y-105977200D02*
X142882857Y-105929580D01*
X142882857Y-105929580D02*
X142978095Y-105786723D01*
X142978095Y-105786723D02*
X143025714Y-105596247D01*
X143025714Y-105596247D02*
X143025714Y-105215295D01*
X143025714Y-105215295D02*
X142978095Y-105120057D01*
X142978095Y-105120057D02*
X142930476Y-105072438D01*
X142930476Y-105072438D02*
X142835238Y-105024819D01*
X142835238Y-105024819D02*
X142644762Y-105024819D01*
X142644762Y-105024819D02*
X142549524Y-105072438D01*
X142549524Y-105072438D02*
X142501905Y-105120057D01*
X142501905Y-105120057D02*
X142454286Y-105215295D01*
X142454286Y-105215295D02*
X142454286Y-105453390D01*
X142454286Y-105453390D02*
X142501905Y-105548628D01*
X142501905Y-105548628D02*
X142549524Y-105596247D01*
X142549524Y-105596247D02*
X142644762Y-105643866D01*
X142644762Y-105643866D02*
X142835238Y-105643866D01*
X142835238Y-105643866D02*
X142930476Y-105596247D01*
X142930476Y-105596247D02*
X142978095Y-105548628D01*
X142978095Y-105548628D02*
X143025714Y-105453390D01*
X120786905Y-105704819D02*
X120786905Y-104704819D01*
X120786905Y-104704819D02*
X121025000Y-104704819D01*
X121025000Y-104704819D02*
X121167857Y-104752438D01*
X121167857Y-104752438D02*
X121263095Y-104847676D01*
X121263095Y-104847676D02*
X121310714Y-104942914D01*
X121310714Y-104942914D02*
X121358333Y-105133390D01*
X121358333Y-105133390D02*
X121358333Y-105276247D01*
X121358333Y-105276247D02*
X121310714Y-105466723D01*
X121310714Y-105466723D02*
X121263095Y-105561961D01*
X121263095Y-105561961D02*
X121167857Y-105657200D01*
X121167857Y-105657200D02*
X121025000Y-105704819D01*
X121025000Y-105704819D02*
X120786905Y-105704819D01*
X122215476Y-105038152D02*
X122215476Y-105704819D01*
X121977381Y-104657200D02*
X121739286Y-105371485D01*
X121739286Y-105371485D02*
X122358333Y-105371485D01*
X98295833Y-109524819D02*
X97962500Y-109048628D01*
X97724405Y-109524819D02*
X97724405Y-108524819D01*
X97724405Y-108524819D02*
X98105357Y-108524819D01*
X98105357Y-108524819D02*
X98200595Y-108572438D01*
X98200595Y-108572438D02*
X98248214Y-108620057D01*
X98248214Y-108620057D02*
X98295833Y-108715295D01*
X98295833Y-108715295D02*
X98295833Y-108858152D01*
X98295833Y-108858152D02*
X98248214Y-108953390D01*
X98248214Y-108953390D02*
X98200595Y-109001009D01*
X98200595Y-109001009D02*
X98105357Y-109048628D01*
X98105357Y-109048628D02*
X97724405Y-109048628D01*
X98676786Y-108620057D02*
X98724405Y-108572438D01*
X98724405Y-108572438D02*
X98819643Y-108524819D01*
X98819643Y-108524819D02*
X99057738Y-108524819D01*
X99057738Y-108524819D02*
X99152976Y-108572438D01*
X99152976Y-108572438D02*
X99200595Y-108620057D01*
X99200595Y-108620057D02*
X99248214Y-108715295D01*
X99248214Y-108715295D02*
X99248214Y-108810533D01*
X99248214Y-108810533D02*
X99200595Y-108953390D01*
X99200595Y-108953390D02*
X98629167Y-109524819D01*
X98629167Y-109524819D02*
X99248214Y-109524819D01*
X135365833Y-110784819D02*
X135032500Y-110308628D01*
X134794405Y-110784819D02*
X134794405Y-109784819D01*
X134794405Y-109784819D02*
X135175357Y-109784819D01*
X135175357Y-109784819D02*
X135270595Y-109832438D01*
X135270595Y-109832438D02*
X135318214Y-109880057D01*
X135318214Y-109880057D02*
X135365833Y-109975295D01*
X135365833Y-109975295D02*
X135365833Y-110118152D01*
X135365833Y-110118152D02*
X135318214Y-110213390D01*
X135318214Y-110213390D02*
X135270595Y-110261009D01*
X135270595Y-110261009D02*
X135175357Y-110308628D01*
X135175357Y-110308628D02*
X134794405Y-110308628D01*
X136270595Y-109784819D02*
X135794405Y-109784819D01*
X135794405Y-109784819D02*
X135746786Y-110261009D01*
X135746786Y-110261009D02*
X135794405Y-110213390D01*
X135794405Y-110213390D02*
X135889643Y-110165771D01*
X135889643Y-110165771D02*
X136127738Y-110165771D01*
X136127738Y-110165771D02*
X136222976Y-110213390D01*
X136222976Y-110213390D02*
X136270595Y-110261009D01*
X136270595Y-110261009D02*
X136318214Y-110356247D01*
X136318214Y-110356247D02*
X136318214Y-110594342D01*
X136318214Y-110594342D02*
X136270595Y-110689580D01*
X136270595Y-110689580D02*
X136222976Y-110737200D01*
X136222976Y-110737200D02*
X136127738Y-110784819D01*
X136127738Y-110784819D02*
X135889643Y-110784819D01*
X135889643Y-110784819D02*
X135794405Y-110737200D01*
X135794405Y-110737200D02*
X135746786Y-110689580D01*
X97636905Y-105524819D02*
X97636905Y-104524819D01*
X97636905Y-104524819D02*
X97875000Y-104524819D01*
X97875000Y-104524819D02*
X98017857Y-104572438D01*
X98017857Y-104572438D02*
X98113095Y-104667676D01*
X98113095Y-104667676D02*
X98160714Y-104762914D01*
X98160714Y-104762914D02*
X98208333Y-104953390D01*
X98208333Y-104953390D02*
X98208333Y-105096247D01*
X98208333Y-105096247D02*
X98160714Y-105286723D01*
X98160714Y-105286723D02*
X98113095Y-105381961D01*
X98113095Y-105381961D02*
X98017857Y-105477200D01*
X98017857Y-105477200D02*
X97875000Y-105524819D01*
X97875000Y-105524819D02*
X97636905Y-105524819D01*
X98589286Y-104620057D02*
X98636905Y-104572438D01*
X98636905Y-104572438D02*
X98732143Y-104524819D01*
X98732143Y-104524819D02*
X98970238Y-104524819D01*
X98970238Y-104524819D02*
X99065476Y-104572438D01*
X99065476Y-104572438D02*
X99113095Y-104620057D01*
X99113095Y-104620057D02*
X99160714Y-104715295D01*
X99160714Y-104715295D02*
X99160714Y-104810533D01*
X99160714Y-104810533D02*
X99113095Y-104953390D01*
X99113095Y-104953390D02*
X98541667Y-105524819D01*
X98541667Y-105524819D02*
X99160714Y-105524819D01*
X129166666Y-118999819D02*
X129166666Y-119714104D01*
X129166666Y-119714104D02*
X129119047Y-119856961D01*
X129119047Y-119856961D02*
X129023809Y-119952200D01*
X129023809Y-119952200D02*
X128880952Y-119999819D01*
X128880952Y-119999819D02*
X128785714Y-119999819D01*
X129595238Y-119095057D02*
X129642857Y-119047438D01*
X129642857Y-119047438D02*
X129738095Y-118999819D01*
X129738095Y-118999819D02*
X129976190Y-118999819D01*
X129976190Y-118999819D02*
X130071428Y-119047438D01*
X130071428Y-119047438D02*
X130119047Y-119095057D01*
X130119047Y-119095057D02*
X130166666Y-119190295D01*
X130166666Y-119190295D02*
X130166666Y-119285533D01*
X130166666Y-119285533D02*
X130119047Y-119428390D01*
X130119047Y-119428390D02*
X129547619Y-119999819D01*
X129547619Y-119999819D02*
X130166666Y-119999819D01*
X122666667Y-95657200D02*
X122809524Y-95704819D01*
X122809524Y-95704819D02*
X123047619Y-95704819D01*
X123047619Y-95704819D02*
X123142857Y-95657200D01*
X123142857Y-95657200D02*
X123190476Y-95609580D01*
X123190476Y-95609580D02*
X123238095Y-95514342D01*
X123238095Y-95514342D02*
X123238095Y-95419104D01*
X123238095Y-95419104D02*
X123190476Y-95323866D01*
X123190476Y-95323866D02*
X123142857Y-95276247D01*
X123142857Y-95276247D02*
X123047619Y-95228628D01*
X123047619Y-95228628D02*
X122857143Y-95181009D01*
X122857143Y-95181009D02*
X122761905Y-95133390D01*
X122761905Y-95133390D02*
X122714286Y-95085771D01*
X122714286Y-95085771D02*
X122666667Y-94990533D01*
X122666667Y-94990533D02*
X122666667Y-94895295D01*
X122666667Y-94895295D02*
X122714286Y-94800057D01*
X122714286Y-94800057D02*
X122761905Y-94752438D01*
X122761905Y-94752438D02*
X122857143Y-94704819D01*
X122857143Y-94704819D02*
X123095238Y-94704819D01*
X123095238Y-94704819D02*
X123238095Y-94752438D01*
X123571429Y-94704819D02*
X123809524Y-95704819D01*
X123809524Y-95704819D02*
X124000000Y-94990533D01*
X124000000Y-94990533D02*
X124190476Y-95704819D01*
X124190476Y-95704819D02*
X124428572Y-94704819D01*
X125238095Y-95038152D02*
X125238095Y-95704819D01*
X125000000Y-94657200D02*
X124761905Y-95371485D01*
X124761905Y-95371485D02*
X125380952Y-95371485D01*
X109356905Y-105524819D02*
X109356905Y-104524819D01*
X109356905Y-104524819D02*
X109595000Y-104524819D01*
X109595000Y-104524819D02*
X109737857Y-104572438D01*
X109737857Y-104572438D02*
X109833095Y-104667676D01*
X109833095Y-104667676D02*
X109880714Y-104762914D01*
X109880714Y-104762914D02*
X109928333Y-104953390D01*
X109928333Y-104953390D02*
X109928333Y-105096247D01*
X109928333Y-105096247D02*
X109880714Y-105286723D01*
X109880714Y-105286723D02*
X109833095Y-105381961D01*
X109833095Y-105381961D02*
X109737857Y-105477200D01*
X109737857Y-105477200D02*
X109595000Y-105524819D01*
X109595000Y-105524819D02*
X109356905Y-105524819D01*
X110261667Y-104524819D02*
X110880714Y-104524819D01*
X110880714Y-104524819D02*
X110547381Y-104905771D01*
X110547381Y-104905771D02*
X110690238Y-104905771D01*
X110690238Y-104905771D02*
X110785476Y-104953390D01*
X110785476Y-104953390D02*
X110833095Y-105001009D01*
X110833095Y-105001009D02*
X110880714Y-105096247D01*
X110880714Y-105096247D02*
X110880714Y-105334342D01*
X110880714Y-105334342D02*
X110833095Y-105429580D01*
X110833095Y-105429580D02*
X110785476Y-105477200D01*
X110785476Y-105477200D02*
X110690238Y-105524819D01*
X110690238Y-105524819D02*
X110404524Y-105524819D01*
X110404524Y-105524819D02*
X110309286Y-105477200D01*
X110309286Y-105477200D02*
X110261667Y-105429580D01*
X96884819Y-130238094D02*
X95884819Y-130238094D01*
X95884819Y-130238094D02*
X95884819Y-129999999D01*
X95884819Y-129999999D02*
X95932438Y-129857142D01*
X95932438Y-129857142D02*
X96027676Y-129761904D01*
X96027676Y-129761904D02*
X96122914Y-129714285D01*
X96122914Y-129714285D02*
X96313390Y-129666666D01*
X96313390Y-129666666D02*
X96456247Y-129666666D01*
X96456247Y-129666666D02*
X96646723Y-129714285D01*
X96646723Y-129714285D02*
X96741961Y-129761904D01*
X96741961Y-129761904D02*
X96837200Y-129857142D01*
X96837200Y-129857142D02*
X96884819Y-129999999D01*
X96884819Y-129999999D02*
X96884819Y-130238094D01*
X96884819Y-128714285D02*
X96884819Y-129285713D01*
X96884819Y-128999999D02*
X95884819Y-128999999D01*
X95884819Y-128999999D02*
X96027676Y-129095237D01*
X96027676Y-129095237D02*
X96122914Y-129190475D01*
X96122914Y-129190475D02*
X96170533Y-129285713D01*
X107416666Y-118944819D02*
X107416666Y-119659104D01*
X107416666Y-119659104D02*
X107369047Y-119801961D01*
X107369047Y-119801961D02*
X107273809Y-119897200D01*
X107273809Y-119897200D02*
X107130952Y-119944819D01*
X107130952Y-119944819D02*
X107035714Y-119944819D01*
X107797619Y-118944819D02*
X108416666Y-118944819D01*
X108416666Y-118944819D02*
X108083333Y-119325771D01*
X108083333Y-119325771D02*
X108226190Y-119325771D01*
X108226190Y-119325771D02*
X108321428Y-119373390D01*
X108321428Y-119373390D02*
X108369047Y-119421009D01*
X108369047Y-119421009D02*
X108416666Y-119516247D01*
X108416666Y-119516247D02*
X108416666Y-119754342D01*
X108416666Y-119754342D02*
X108369047Y-119849580D01*
X108369047Y-119849580D02*
X108321428Y-119897200D01*
X108321428Y-119897200D02*
X108226190Y-119944819D01*
X108226190Y-119944819D02*
X107940476Y-119944819D01*
X107940476Y-119944819D02*
X107845238Y-119897200D01*
X107845238Y-119897200D02*
X107797619Y-119849580D01*
X128103333Y-105704819D02*
X127770000Y-105228628D01*
X127531905Y-105704819D02*
X127531905Y-104704819D01*
X127531905Y-104704819D02*
X127912857Y-104704819D01*
X127912857Y-104704819D02*
X128008095Y-104752438D01*
X128008095Y-104752438D02*
X128055714Y-104800057D01*
X128055714Y-104800057D02*
X128103333Y-104895295D01*
X128103333Y-104895295D02*
X128103333Y-105038152D01*
X128103333Y-105038152D02*
X128055714Y-105133390D01*
X128055714Y-105133390D02*
X128008095Y-105181009D01*
X128008095Y-105181009D02*
X127912857Y-105228628D01*
X127912857Y-105228628D02*
X127531905Y-105228628D01*
X128674762Y-105133390D02*
X128579524Y-105085771D01*
X128579524Y-105085771D02*
X128531905Y-105038152D01*
X128531905Y-105038152D02*
X128484286Y-104942914D01*
X128484286Y-104942914D02*
X128484286Y-104895295D01*
X128484286Y-104895295D02*
X128531905Y-104800057D01*
X128531905Y-104800057D02*
X128579524Y-104752438D01*
X128579524Y-104752438D02*
X128674762Y-104704819D01*
X128674762Y-104704819D02*
X128865238Y-104704819D01*
X128865238Y-104704819D02*
X128960476Y-104752438D01*
X128960476Y-104752438D02*
X129008095Y-104800057D01*
X129008095Y-104800057D02*
X129055714Y-104895295D01*
X129055714Y-104895295D02*
X129055714Y-104942914D01*
X129055714Y-104942914D02*
X129008095Y-105038152D01*
X129008095Y-105038152D02*
X128960476Y-105085771D01*
X128960476Y-105085771D02*
X128865238Y-105133390D01*
X128865238Y-105133390D02*
X128674762Y-105133390D01*
X128674762Y-105133390D02*
X128579524Y-105181009D01*
X128579524Y-105181009D02*
X128531905Y-105228628D01*
X128531905Y-105228628D02*
X128484286Y-105323866D01*
X128484286Y-105323866D02*
X128484286Y-105514342D01*
X128484286Y-105514342D02*
X128531905Y-105609580D01*
X128531905Y-105609580D02*
X128579524Y-105657200D01*
X128579524Y-105657200D02*
X128674762Y-105704819D01*
X128674762Y-105704819D02*
X128865238Y-105704819D01*
X128865238Y-105704819D02*
X128960476Y-105657200D01*
X128960476Y-105657200D02*
X129008095Y-105609580D01*
X129008095Y-105609580D02*
X129055714Y-105514342D01*
X129055714Y-105514342D02*
X129055714Y-105323866D01*
X129055714Y-105323866D02*
X129008095Y-105228628D01*
X129008095Y-105228628D02*
X128960476Y-105181009D01*
X128960476Y-105181009D02*
X128865238Y-105133390D01*
X110416667Y-95407200D02*
X110559524Y-95454819D01*
X110559524Y-95454819D02*
X110797619Y-95454819D01*
X110797619Y-95454819D02*
X110892857Y-95407200D01*
X110892857Y-95407200D02*
X110940476Y-95359580D01*
X110940476Y-95359580D02*
X110988095Y-95264342D01*
X110988095Y-95264342D02*
X110988095Y-95169104D01*
X110988095Y-95169104D02*
X110940476Y-95073866D01*
X110940476Y-95073866D02*
X110892857Y-95026247D01*
X110892857Y-95026247D02*
X110797619Y-94978628D01*
X110797619Y-94978628D02*
X110607143Y-94931009D01*
X110607143Y-94931009D02*
X110511905Y-94883390D01*
X110511905Y-94883390D02*
X110464286Y-94835771D01*
X110464286Y-94835771D02*
X110416667Y-94740533D01*
X110416667Y-94740533D02*
X110416667Y-94645295D01*
X110416667Y-94645295D02*
X110464286Y-94550057D01*
X110464286Y-94550057D02*
X110511905Y-94502438D01*
X110511905Y-94502438D02*
X110607143Y-94454819D01*
X110607143Y-94454819D02*
X110845238Y-94454819D01*
X110845238Y-94454819D02*
X110988095Y-94502438D01*
X111321429Y-94454819D02*
X111559524Y-95454819D01*
X111559524Y-95454819D02*
X111750000Y-94740533D01*
X111750000Y-94740533D02*
X111940476Y-95454819D01*
X111940476Y-95454819D02*
X112178572Y-94454819D01*
X112464286Y-94454819D02*
X113083333Y-94454819D01*
X113083333Y-94454819D02*
X112750000Y-94835771D01*
X112750000Y-94835771D02*
X112892857Y-94835771D01*
X112892857Y-94835771D02*
X112988095Y-94883390D01*
X112988095Y-94883390D02*
X113035714Y-94931009D01*
X113035714Y-94931009D02*
X113083333Y-95026247D01*
X113083333Y-95026247D02*
X113083333Y-95264342D01*
X113083333Y-95264342D02*
X113035714Y-95359580D01*
X113035714Y-95359580D02*
X112988095Y-95407200D01*
X112988095Y-95407200D02*
X112892857Y-95454819D01*
X112892857Y-95454819D02*
X112607143Y-95454819D01*
X112607143Y-95454819D02*
X112511905Y-95407200D01*
X112511905Y-95407200D02*
X112464286Y-95359580D01*
X96384819Y-123579166D02*
X95908628Y-123912499D01*
X96384819Y-124150594D02*
X95384819Y-124150594D01*
X95384819Y-124150594D02*
X95384819Y-123769642D01*
X95384819Y-123769642D02*
X95432438Y-123674404D01*
X95432438Y-123674404D02*
X95480057Y-123626785D01*
X95480057Y-123626785D02*
X95575295Y-123579166D01*
X95575295Y-123579166D02*
X95718152Y-123579166D01*
X95718152Y-123579166D02*
X95813390Y-123626785D01*
X95813390Y-123626785D02*
X95861009Y-123674404D01*
X95861009Y-123674404D02*
X95908628Y-123769642D01*
X95908628Y-123769642D02*
X95908628Y-124150594D01*
X96384819Y-122626785D02*
X96384819Y-123198213D01*
X96384819Y-122912499D02*
X95384819Y-122912499D01*
X95384819Y-122912499D02*
X95527676Y-123007737D01*
X95527676Y-123007737D02*
X95622914Y-123102975D01*
X95622914Y-123102975D02*
X95670533Y-123198213D01*
X134756905Y-106024819D02*
X134756905Y-105024819D01*
X134756905Y-105024819D02*
X134995000Y-105024819D01*
X134995000Y-105024819D02*
X135137857Y-105072438D01*
X135137857Y-105072438D02*
X135233095Y-105167676D01*
X135233095Y-105167676D02*
X135280714Y-105262914D01*
X135280714Y-105262914D02*
X135328333Y-105453390D01*
X135328333Y-105453390D02*
X135328333Y-105596247D01*
X135328333Y-105596247D02*
X135280714Y-105786723D01*
X135280714Y-105786723D02*
X135233095Y-105881961D01*
X135233095Y-105881961D02*
X135137857Y-105977200D01*
X135137857Y-105977200D02*
X134995000Y-106024819D01*
X134995000Y-106024819D02*
X134756905Y-106024819D01*
X136233095Y-105024819D02*
X135756905Y-105024819D01*
X135756905Y-105024819D02*
X135709286Y-105501009D01*
X135709286Y-105501009D02*
X135756905Y-105453390D01*
X135756905Y-105453390D02*
X135852143Y-105405771D01*
X135852143Y-105405771D02*
X136090238Y-105405771D01*
X136090238Y-105405771D02*
X136185476Y-105453390D01*
X136185476Y-105453390D02*
X136233095Y-105501009D01*
X136233095Y-105501009D02*
X136280714Y-105596247D01*
X136280714Y-105596247D02*
X136280714Y-105834342D01*
X136280714Y-105834342D02*
X136233095Y-105929580D01*
X136233095Y-105929580D02*
X136185476Y-105977200D01*
X136185476Y-105977200D02*
X136090238Y-106024819D01*
X136090238Y-106024819D02*
X135852143Y-106024819D01*
X135852143Y-106024819D02*
X135756905Y-105977200D01*
X135756905Y-105977200D02*
X135709286Y-105929580D01*
%TO.C,R7*%
D12*
X115672776Y-105977500D02*
X116182224Y-105977500D01*
X115672776Y-107022500D02*
X116182224Y-107022500D01*
%TO.C,SW2*%
X95250000Y-98500000D02*
X95250000Y-100000000D01*
X96500000Y-102500000D02*
X101000000Y-102500000D01*
X101000000Y-96000000D02*
X96500000Y-96000000D01*
X102250000Y-100000000D02*
X102250000Y-98500000D01*
%TO.C,SW5*%
X134930000Y-98600000D02*
X134930000Y-100100000D01*
X136180000Y-102600000D02*
X140680000Y-102600000D01*
X140680000Y-96100000D02*
X136180000Y-96100000D01*
X141930000Y-100100000D02*
X141930000Y-98600000D01*
%TO.C,R6*%
X102332776Y-105977500D02*
X102842224Y-105977500D01*
X102332776Y-107022500D02*
X102842224Y-107022500D01*
%TO.C,R4*%
X121307776Y-110477500D02*
X121817224Y-110477500D01*
X121307776Y-111522500D02*
X121817224Y-111522500D01*
%TO.C,R3*%
X109877776Y-110477500D02*
X110387224Y-110477500D01*
X109877776Y-111522500D02*
X110387224Y-111522500D01*
%TO.C,R9*%
X141985276Y-106477500D02*
X142494724Y-106477500D01*
X141985276Y-107522500D02*
X142494724Y-107522500D01*
%TO.C,D4*%
X119865000Y-105945000D02*
X119865000Y-107415000D01*
X119865000Y-107415000D02*
X122325000Y-107415000D01*
X122325000Y-105945000D02*
X119865000Y-105945000D01*
%TO.C,R2*%
X98207776Y-109977500D02*
X98717224Y-109977500D01*
X98207776Y-111022500D02*
X98717224Y-111022500D01*
%TO.C,R5*%
X135277776Y-111237500D02*
X135787224Y-111237500D01*
X135277776Y-112282500D02*
X135787224Y-112282500D01*
%TO.C,D2*%
X96715000Y-105765000D02*
X96715000Y-107235000D01*
X96715000Y-107235000D02*
X99175000Y-107235000D01*
X99175000Y-105765000D02*
X96715000Y-105765000D01*
%TO.C,J2*%
X120690000Y-120645000D02*
X122110000Y-120645000D01*
X120690000Y-132365000D02*
X120690000Y-120645000D01*
X122110000Y-120645000D02*
X122110000Y-125145000D01*
X122110000Y-125145000D02*
X129500000Y-125145000D01*
X122950000Y-120955000D02*
X123550000Y-120955000D01*
X123250000Y-121555000D02*
X122950000Y-120955000D01*
X123550000Y-120955000D02*
X123250000Y-121555000D01*
X129500000Y-132365000D02*
X120690000Y-132365000D01*
X129500000Y-132365000D02*
X138310000Y-132365000D01*
X136890000Y-120645000D02*
X136890000Y-125145000D01*
X136890000Y-125145000D02*
X129500000Y-125145000D01*
X138310000Y-120645000D02*
X136890000Y-120645000D01*
X138310000Y-132365000D02*
X138310000Y-120645000D01*
X123000000Y-126255000D02*
X123500000Y-126255000D01*
X123500000Y-131755000D01*
X123000000Y-131755000D01*
X123000000Y-126255000D01*
X125500000Y-126255000D02*
X126000000Y-126255000D01*
X126000000Y-131755000D01*
X125500000Y-131755000D01*
X125500000Y-126255000D01*
X128000000Y-126255000D02*
X128500000Y-126255000D01*
X128500000Y-131755000D01*
X128000000Y-131755000D01*
X128000000Y-126255000D01*
X130500000Y-126255000D02*
X131000000Y-126255000D01*
X131000000Y-131755000D01*
X130500000Y-131755000D01*
X130500000Y-126255000D01*
X133000000Y-126255000D02*
X133500000Y-126255000D01*
X133500000Y-131755000D01*
X133000000Y-131755000D01*
X133000000Y-126255000D01*
X135500000Y-126255000D02*
X136000000Y-126255000D01*
X136000000Y-131755000D01*
X135500000Y-131755000D01*
X135500000Y-126255000D01*
%TO.C,SW4*%
X120500000Y-98750000D02*
X120500000Y-100250000D01*
X121750000Y-102750000D02*
X126250000Y-102750000D01*
X126250000Y-96250000D02*
X121750000Y-96250000D01*
X127500000Y-100250000D02*
X127500000Y-98750000D01*
%TO.C,D3*%
X108435000Y-105765000D02*
X108435000Y-107235000D01*
X108435000Y-107235000D02*
X110895000Y-107235000D01*
X110895000Y-105765000D02*
X108435000Y-105765000D01*
%TO.C,D1*%
X94265000Y-127840000D02*
X94265000Y-130300000D01*
X95735000Y-127840000D02*
X94265000Y-127840000D01*
X95735000Y-130300000D02*
X95735000Y-127840000D01*
%TO.C,J3*%
X98940000Y-120590000D02*
X100360000Y-120590000D01*
X98940000Y-132310000D02*
X98940000Y-120590000D01*
X100360000Y-120590000D02*
X100360000Y-125090000D01*
X100360000Y-125090000D02*
X107750000Y-125090000D01*
X101200000Y-120900000D02*
X101800000Y-120900000D01*
X101500000Y-121500000D02*
X101200000Y-120900000D01*
X101800000Y-120900000D02*
X101500000Y-121500000D01*
X107750000Y-132310000D02*
X98940000Y-132310000D01*
X107750000Y-132310000D02*
X116560000Y-132310000D01*
X115140000Y-120590000D02*
X115140000Y-125090000D01*
X115140000Y-125090000D02*
X107750000Y-125090000D01*
X116560000Y-120590000D02*
X115140000Y-120590000D01*
X116560000Y-132310000D02*
X116560000Y-120590000D01*
X101250000Y-126200000D02*
X101750000Y-126200000D01*
X101750000Y-131700000D01*
X101250000Y-131700000D01*
X101250000Y-126200000D01*
X103750000Y-126200000D02*
X104250000Y-126200000D01*
X104250000Y-131700000D01*
X103750000Y-131700000D01*
X103750000Y-126200000D01*
X106250000Y-126200000D02*
X106750000Y-126200000D01*
X106750000Y-131700000D01*
X106250000Y-131700000D01*
X106250000Y-126200000D01*
X108750000Y-126200000D02*
X109250000Y-126200000D01*
X109250000Y-131700000D01*
X108750000Y-131700000D01*
X108750000Y-126200000D01*
X111250000Y-126200000D02*
X111750000Y-126200000D01*
X111750000Y-131700000D01*
X111250000Y-131700000D01*
X111250000Y-126200000D01*
X113750000Y-126200000D02*
X114250000Y-126200000D01*
X114250000Y-131700000D01*
X113750000Y-131700000D01*
X113750000Y-126200000D01*
%TO.C,R8*%
X128015276Y-106157500D02*
X128524724Y-106157500D01*
X128015276Y-107202500D02*
X128524724Y-107202500D01*
%TO.C,SW3*%
X108250000Y-98500000D02*
X108250000Y-100000000D01*
X109500000Y-102500000D02*
X114000000Y-102500000D01*
X114000000Y-96000000D02*
X109500000Y-96000000D01*
X115250000Y-100000000D02*
X115250000Y-98500000D01*
%TO.C,R1*%
X93977500Y-123157776D02*
X93977500Y-123667224D01*
X95022500Y-123157776D02*
X95022500Y-123667224D01*
%TO.C,D5*%
X133835000Y-106265000D02*
X133835000Y-107735000D01*
X133835000Y-107735000D02*
X136295000Y-107735000D01*
X136295000Y-106265000D02*
X133835000Y-106265000D01*
%TD*%
M02*
