%TF.GenerationSoftware,KiCad,Pcbnew,10.0.4*%
%TF.CreationDate,2026-07-12T12:36:35+09:00*%
%TF.ProjectId,administrator-board,61646d69-6e69-4737-9472-61746f722d62,rev?*%
%TF.SameCoordinates,Original*%
%TF.FileFunction,Copper,L1,Top*%
%TF.FilePolarity,Positive*%
%FSLAX46Y46*%
G04 Gerber Fmt 4.6, Leading zero omitted, Abs format (unit mm)*
G04 Created by KiCad (PCBNEW 10.0.4) date 2026-07-12 12:36:35*
%MOMM*%
%LPD*%
G01*
G04 APERTURE LIST*
G04 Aperture macros list*
%AMRoundRect*
0 Rectangle with rounded corners*
0 $1 Rounding radius*
0 $2 $3 $4 $5 $6 $7 $8 $9 X,Y pos of 4 corners*
0 Add a 4 corners polygon primitive as box body*
4,1,4,$2,$3,$4,$5,$6,$7,$8,$9,$2,$3,0*
0 Add four circle primitives for the rounded corners*
1,1,$1+$1,$2,$3*
1,1,$1+$1,$4,$5*
1,1,$1+$1,$6,$7*
1,1,$1+$1,$8,$9*
0 Add four rect primitives between the rounded corners*
20,1,$1+$1,$2,$3,$4,$5,0*
20,1,$1+$1,$4,$5,$6,$7,0*
20,1,$1+$1,$6,$7,$8,$9,0*
20,1,$1+$1,$8,$9,$2,$3,0*%
G04 Aperture macros list end*
%TA.AperFunction,SMDPad,CuDef*%
%ADD10RoundRect,0.237500X-0.250000X-0.237500X0.250000X-0.237500X0.250000X0.237500X-0.250000X0.237500X0*%
%TD*%
%TA.AperFunction,ComponentPad*%
%ADD11C,2.000000*%
%TD*%
%TA.AperFunction,SMDPad,CuDef*%
%ADD12RoundRect,0.237500X-0.287500X-0.237500X0.287500X-0.237500X0.287500X0.237500X-0.287500X0.237500X0*%
%TD*%
%TA.AperFunction,ComponentPad*%
%ADD13RoundRect,0.250000X-0.600000X-0.725000X0.600000X-0.725000X0.600000X0.725000X-0.600000X0.725000X0*%
%TD*%
%TA.AperFunction,ComponentPad*%
%ADD14O,1.700000X1.950000*%
%TD*%
%TA.AperFunction,SMDPad,CuDef*%
%ADD15RoundRect,0.237500X-0.237500X0.287500X-0.237500X-0.287500X0.237500X-0.287500X0.237500X0.287500X0*%
%TD*%
%TA.AperFunction,SMDPad,CuDef*%
%ADD16RoundRect,0.237500X-0.237500X0.250000X-0.237500X-0.250000X0.237500X-0.250000X0.237500X0.250000X0*%
%TD*%
%TA.AperFunction,ViaPad*%
%ADD17C,0.600000*%
%TD*%
%TA.AperFunction,Conductor*%
%ADD18C,0.400000*%
%TD*%
G04 APERTURE END LIST*
D10*
%TO.P,R7,1*%
%TO.N,SW2*%
X115015000Y-106500000D03*
%TO.P,R7,2*%
%TO.N,GND*%
X116840000Y-106500000D03*
%TD*%
D11*
%TO.P,SW2,1,1_1*%
%TO.N,+3.3V*%
X95500000Y-97000000D03*
X102000000Y-97000000D03*
%TO.P,SW2,2,2_2*%
%TO.N,SW1*%
X95500000Y-101500000D03*
X102000000Y-101500000D03*
%TD*%
%TO.P,SW5,1,1_1*%
%TO.N,+3.3V*%
X135180000Y-97100000D03*
X141680000Y-97100000D03*
%TO.P,SW5,2,2_2*%
%TO.N,SW4*%
X135180000Y-101600000D03*
X141680000Y-101600000D03*
%TD*%
D10*
%TO.P,R6,1*%
%TO.N,SW1*%
X101675000Y-106500000D03*
%TO.P,R6,2*%
%TO.N,GND*%
X103500000Y-106500000D03*
%TD*%
%TO.P,R4,1*%
%TO.N,Net-(D4-K)*%
X120650000Y-111000000D03*
%TO.P,R4,2*%
%TO.N,GND*%
X122475000Y-111000000D03*
%TD*%
%TO.P,R3,1*%
%TO.N,Net-(D3-K)*%
X109220000Y-111000000D03*
%TO.P,R3,2*%
%TO.N,GND*%
X111045000Y-111000000D03*
%TD*%
%TO.P,R9,1*%
%TO.N,SW4*%
X141327500Y-107000000D03*
%TO.P,R9,2*%
%TO.N,GND*%
X143152500Y-107000000D03*
%TD*%
D12*
%TO.P,D4,1,K_1*%
%TO.N,Net-(D4-K)*%
X120650000Y-106680000D03*
%TO.P,D4,2,A_2*%
%TO.N,SW3*%
X122400000Y-106680000D03*
%TD*%
D10*
%TO.P,R2,1*%
%TO.N,Net-(D2-K)*%
X97550000Y-110500000D03*
%TO.P,R2,2*%
%TO.N,GND*%
X99375000Y-110500000D03*
%TD*%
%TO.P,R5,1*%
%TO.N,Net-(D5-K)*%
X134620000Y-111760000D03*
%TO.P,R5,2*%
%TO.N,GND*%
X136445000Y-111760000D03*
%TD*%
D12*
%TO.P,D2,1,K_1*%
%TO.N,Net-(D2-K)*%
X97500000Y-106500000D03*
%TO.P,D2,2,A_2*%
%TO.N,SW1*%
X99250000Y-106500000D03*
%TD*%
D13*
%TO.P,J2,1,Pin_1_1*%
%TO.N,SW3*%
X123250000Y-123055000D03*
D14*
%TO.P,J2,2,Pin_2_2*%
%TO.N,unconnected-(J2-Pin_2-Pad2)*%
X125750000Y-123055000D03*
%TO.P,J2,3,Pin_3_3*%
%TO.N,SW4*%
X128250000Y-123055000D03*
%TO.P,J2,4,Pin_4_4*%
%TO.N,GND*%
X130750000Y-123055000D03*
%TO.P,J2,5,Pin_5_5*%
%TO.N,unconnected-(J2-Pin_5-Pad5)*%
X133250000Y-123055000D03*
%TO.P,J2,6,Pin_6_6*%
%TO.N,unconnected-(J2-Pin_6-Pad6)*%
X135750000Y-123055000D03*
%TD*%
D11*
%TO.P,SW4,1,1_1*%
%TO.N,+3.3V*%
X120750000Y-97250000D03*
X127250000Y-97250000D03*
%TO.P,SW4,2,2_2*%
%TO.N,SW3*%
X120750000Y-101750000D03*
X127250000Y-101750000D03*
%TD*%
D12*
%TO.P,D3,1,K_1*%
%TO.N,Net-(D3-K)*%
X109220000Y-106500000D03*
%TO.P,D3,2,A_2*%
%TO.N,SW2*%
X110970000Y-106500000D03*
%TD*%
D15*
%TO.P,D1,1,K_1*%
%TO.N,Net-(D1-K)*%
X95000000Y-128625000D03*
%TO.P,D1,2,A_2*%
%TO.N,+3.3V*%
X95000000Y-130375000D03*
%TD*%
D13*
%TO.P,J3,1,Pin_1_1*%
%TO.N,SW1*%
X101500000Y-123000000D03*
D14*
%TO.P,J3,2,Pin_2_2*%
%TO.N,+3.3V*%
X104000000Y-123000000D03*
%TO.P,J3,3,Pin_3_3*%
%TO.N,SW2*%
X106500000Y-123000000D03*
%TO.P,J3,4,Pin_4_4*%
%TO.N,GND*%
X109000000Y-123000000D03*
%TO.P,J3,5,Pin_5_5*%
%TO.N,unconnected-(J3-Pin_5-Pad5)*%
X111500000Y-123000000D03*
%TO.P,J3,6,Pin_6_6*%
%TO.N,unconnected-(J3-Pin_6-Pad6)*%
X114000000Y-123000000D03*
%TD*%
D10*
%TO.P,R8,1*%
%TO.N,SW3*%
X127357500Y-106680000D03*
%TO.P,R8,2*%
%TO.N,GND*%
X129182500Y-106680000D03*
%TD*%
D11*
%TO.P,SW3,1,1_1*%
%TO.N,+3.3V*%
X108500000Y-97000000D03*
X115000000Y-97000000D03*
%TO.P,SW3,2,2_2*%
%TO.N,SW2*%
X108500000Y-101500000D03*
X115000000Y-101500000D03*
%TD*%
D16*
%TO.P,R1,1*%
%TO.N,Net-(D1-K)*%
X94500000Y-122500000D03*
%TO.P,R1,2*%
%TO.N,GND*%
X94500000Y-124325000D03*
%TD*%
D12*
%TO.P,D5,1,K_1*%
%TO.N,Net-(D5-K)*%
X134620000Y-107000000D03*
%TO.P,D5,2,A_2*%
%TO.N,SW4*%
X136370000Y-107000000D03*
%TD*%
D17*
%TO.N,GND*%
X107000000Y-104000000D03*
X126000000Y-120000000D03*
X139000000Y-104500000D03*
X131500000Y-100000000D03*
X155000000Y-105000000D03*
X155000000Y-115000000D03*
X155000000Y-125000000D03*
X150000000Y-95000000D03*
X150000000Y-130000000D03*
X135000000Y-130000000D03*
X120000000Y-130000000D03*
X105000000Y-130000000D03*
X85000000Y-125000000D03*
X85000000Y-115000000D03*
X85000000Y-105000000D03*
X135000000Y-95000000D03*
X120000000Y-95000000D03*
X105000000Y-95000000D03*
X136500000Y-109500000D03*
X99500000Y-108000000D03*
X111000000Y-109000000D03*
X113500000Y-104000000D03*
X107000000Y-119500000D03*
X90000000Y-130000000D03*
X90000000Y-95000000D03*
%TD*%
%TO.N,SW2*%
D18*
X115015000Y-106500000D02*
X110970000Y-106500000D01*
X113030000Y-116470000D02*
X106500000Y-123000000D01*
X108500000Y-101500000D02*
X115000000Y-101500000D01*
X115000000Y-101500000D02*
X115000000Y-103570000D01*
X115000000Y-103570000D02*
X115015000Y-103585000D01*
X113030000Y-108560000D02*
X113030000Y-116470000D01*
X110970000Y-106500000D02*
X113030000Y-108560000D01*
X115015000Y-103585000D02*
X115015000Y-106500000D01*
%TO.N,GND*%
X116840000Y-106500000D02*
X116840000Y-106680000D01*
%TO.N,+3.3V*%
X130080000Y-97250000D02*
X130230000Y-97100000D01*
X96625000Y-130375000D02*
X104000000Y-123000000D01*
X102000000Y-97000000D02*
X105410000Y-100410000D01*
X108990000Y-97250000D02*
X127250000Y-97250000D01*
X95500000Y-97000000D02*
X102000000Y-97000000D01*
X95000000Y-130375000D02*
X96625000Y-130375000D01*
X102000000Y-97000000D02*
X108500000Y-97000000D01*
X130230000Y-97100000D02*
X141680000Y-97100000D01*
X105410000Y-121590000D02*
X104000000Y-123000000D01*
X105410000Y-100410000D02*
X105410000Y-121590000D01*
X108500000Y-97000000D02*
X108740000Y-97000000D01*
X108740000Y-97000000D02*
X108990000Y-97250000D01*
X127250000Y-97250000D02*
X130080000Y-97250000D01*
%TO.N,SW1*%
X102000000Y-101500000D02*
X102000000Y-110890000D01*
X102000000Y-106175000D02*
X101675000Y-106500000D01*
X101500000Y-111390000D02*
X101500000Y-123000000D01*
X102000000Y-110890000D02*
X101500000Y-111390000D01*
X102000000Y-101500000D02*
X102000000Y-106175000D01*
X101675000Y-106500000D02*
X99250000Y-106500000D01*
X95500000Y-101500000D02*
X102000000Y-101500000D01*
%TO.N,SW4*%
X141680000Y-106647500D02*
X141327500Y-107000000D01*
X138430000Y-109060000D02*
X138430000Y-112875000D01*
X141680000Y-101600000D02*
X141680000Y-106647500D01*
X138430000Y-112875000D02*
X128250000Y-123055000D01*
X136370000Y-107000000D02*
X138430000Y-109060000D01*
X135180000Y-101600000D02*
X141680000Y-101600000D01*
X141327500Y-107000000D02*
X136370000Y-107000000D01*
%TO.N,Net-(D4-K)*%
X120650000Y-106680000D02*
X120650000Y-111000000D01*
%TO.N,Net-(D3-K)*%
X109220000Y-106500000D02*
X109220000Y-111000000D01*
%TO.N,SW3*%
X123362500Y-122942500D02*
X123250000Y-123055000D01*
X127250000Y-101750000D02*
X127250000Y-103890000D01*
X120750000Y-101750000D02*
X127250000Y-101750000D01*
X123362500Y-107642500D02*
X123362500Y-122942500D01*
X127357500Y-106680000D02*
X122400000Y-106680000D01*
X127250000Y-103890000D02*
X127357500Y-103997500D01*
X122400000Y-106680000D02*
X123362500Y-107642500D01*
X127357500Y-103997500D02*
X127357500Y-106680000D01*
%TO.N,Net-(D2-K)*%
X97500000Y-110450000D02*
X97550000Y-110500000D01*
X97500000Y-106500000D02*
X97500000Y-110450000D01*
%TO.N,Net-(D5-K)*%
X134620000Y-107000000D02*
X134620000Y-111760000D01*
%TO.N,Net-(D1-K)*%
X95000000Y-128020000D02*
X95000000Y-128625000D01*
X92710000Y-124290000D02*
X92710000Y-125730000D01*
X94500000Y-122500000D02*
X92710000Y-124290000D01*
X92710000Y-125730000D02*
X95000000Y-128020000D01*
%TD*%
%TA.AperFunction,Conductor*%
%TO.N,GND*%
G36*
X155003736Y-90500726D02*
G01*
X155293796Y-90518271D01*
X155308659Y-90520076D01*
X155590797Y-90571780D01*
X155605334Y-90575363D01*
X155879182Y-90660698D01*
X155893163Y-90666000D01*
X156154734Y-90783724D01*
X156167987Y-90790680D01*
X156413458Y-90939071D01*
X156425776Y-90947573D01*
X156651573Y-91124474D01*
X156662781Y-91134404D01*
X156865595Y-91337218D01*
X156875525Y-91348426D01*
X157052422Y-91574217D01*
X157060928Y-91586541D01*
X157209319Y-91832012D01*
X157216277Y-91845269D01*
X157333994Y-92106823D01*
X157339304Y-92120825D01*
X157424635Y-92394664D01*
X157428219Y-92409202D01*
X157479923Y-92691340D01*
X157481728Y-92706205D01*
X157499274Y-92996263D01*
X157499500Y-93003750D01*
X157499500Y-129996249D01*
X157499274Y-130003736D01*
X157481728Y-130293794D01*
X157479923Y-130308659D01*
X157428219Y-130590797D01*
X157424635Y-130605335D01*
X157339304Y-130879174D01*
X157333994Y-130893176D01*
X157216277Y-131154730D01*
X157209319Y-131167987D01*
X157060928Y-131413458D01*
X157052422Y-131425782D01*
X156875525Y-131651573D01*
X156865595Y-131662781D01*
X156662781Y-131865595D01*
X156651573Y-131875525D01*
X156425782Y-132052422D01*
X156413458Y-132060928D01*
X156167987Y-132209319D01*
X156154730Y-132216277D01*
X155893176Y-132333994D01*
X155879174Y-132339304D01*
X155605335Y-132424635D01*
X155590797Y-132428219D01*
X155308659Y-132479923D01*
X155293794Y-132481728D01*
X155003736Y-132499274D01*
X154996249Y-132499500D01*
X86003751Y-132499500D01*
X85996264Y-132499274D01*
X85706205Y-132481728D01*
X85691340Y-132479923D01*
X85409202Y-132428219D01*
X85394664Y-132424635D01*
X85120825Y-132339304D01*
X85106827Y-132333995D01*
X84954096Y-132265256D01*
X84845269Y-132216277D01*
X84832012Y-132209319D01*
X84586541Y-132060928D01*
X84574217Y-132052422D01*
X84348426Y-131875525D01*
X84337218Y-131865595D01*
X84134404Y-131662781D01*
X84124474Y-131651573D01*
X83947573Y-131425776D01*
X83939071Y-131413458D01*
X83790680Y-131167987D01*
X83783722Y-131154730D01*
X83666000Y-130893163D01*
X83660698Y-130879182D01*
X83575363Y-130605334D01*
X83571780Y-130590797D01*
X83520076Y-130308659D01*
X83518271Y-130293794D01*
X83500726Y-130003736D01*
X83500500Y-129996249D01*
X83500500Y-128878711D01*
X85149500Y-128878711D01*
X85149500Y-129121288D01*
X85181161Y-129361785D01*
X85243947Y-129596104D01*
X85336773Y-129820205D01*
X85336776Y-129820212D01*
X85458064Y-130030289D01*
X85458066Y-130030292D01*
X85458067Y-130030293D01*
X85605733Y-130222736D01*
X85605739Y-130222743D01*
X85777256Y-130394260D01*
X85777262Y-130394265D01*
X85969711Y-130541936D01*
X86179788Y-130663224D01*
X86403900Y-130756054D01*
X86638211Y-130818838D01*
X86818586Y-130842584D01*
X86878711Y-130850500D01*
X86878712Y-130850500D01*
X87121289Y-130850500D01*
X87169388Y-130844167D01*
X87361789Y-130818838D01*
X87596100Y-130756054D01*
X87820212Y-130663224D01*
X88030289Y-130541936D01*
X88222738Y-130394265D01*
X88394265Y-130222738D01*
X88541936Y-130030289D01*
X88663224Y-129820212D01*
X88756054Y-129596100D01*
X88818838Y-129361789D01*
X88850500Y-129121288D01*
X88850500Y-128878712D01*
X88818838Y-128638211D01*
X88756054Y-128403900D01*
X88663224Y-128179788D01*
X88541936Y-127969711D01*
X88394265Y-127777262D01*
X88394260Y-127777256D01*
X88222743Y-127605739D01*
X88222736Y-127605733D01*
X88030293Y-127458067D01*
X88030292Y-127458066D01*
X88030289Y-127458064D01*
X87820212Y-127336776D01*
X87820205Y-127336773D01*
X87596104Y-127243947D01*
X87361785Y-127181161D01*
X87121289Y-127149500D01*
X87121288Y-127149500D01*
X86878712Y-127149500D01*
X86878711Y-127149500D01*
X86638214Y-127181161D01*
X86403895Y-127243947D01*
X86179794Y-127336773D01*
X86179785Y-127336777D01*
X85969706Y-127458067D01*
X85777263Y-127605733D01*
X85777256Y-127605739D01*
X85605739Y-127777256D01*
X85605733Y-127777263D01*
X85458067Y-127969706D01*
X85336777Y-128179785D01*
X85336773Y-128179794D01*
X85243947Y-128403895D01*
X85181161Y-128638214D01*
X85149500Y-128878711D01*
X83500500Y-128878711D01*
X83500500Y-125798996D01*
X92009499Y-125798996D01*
X92036418Y-125934322D01*
X92036421Y-125934332D01*
X92089222Y-126061807D01*
X92165887Y-126176545D01*
X92165888Y-126176546D01*
X94016027Y-128026684D01*
X94049512Y-128088007D01*
X94046053Y-128153367D01*
X94034826Y-128187248D01*
X94034825Y-128187253D01*
X94024500Y-128288315D01*
X94024500Y-128961669D01*
X94024501Y-128961687D01*
X94034825Y-129062752D01*
X94089092Y-129226515D01*
X94089093Y-129226518D01*
X94179661Y-129373351D01*
X94218629Y-129412319D01*
X94252114Y-129473642D01*
X94247130Y-129543334D01*
X94218629Y-129587681D01*
X94179661Y-129626648D01*
X94089093Y-129773481D01*
X94089092Y-129773484D01*
X94034826Y-129937247D01*
X94034826Y-129937248D01*
X94034825Y-129937248D01*
X94024500Y-130038315D01*
X94024500Y-130711669D01*
X94024501Y-130711687D01*
X94034825Y-130812752D01*
X94036842Y-130818838D01*
X94089092Y-130976516D01*
X94179660Y-131123350D01*
X94301650Y-131245340D01*
X94448484Y-131335908D01*
X94612247Y-131390174D01*
X94713323Y-131400500D01*
X95286676Y-131400499D01*
X95286684Y-131400498D01*
X95286687Y-131400498D01*
X95342030Y-131394844D01*
X95387753Y-131390174D01*
X95551516Y-131335908D01*
X95698350Y-131245340D01*
X95820340Y-131123350D01*
X95820341Y-131123347D01*
X95820344Y-131123345D01*
X95820945Y-131122586D01*
X95821489Y-131122200D01*
X95825447Y-131118243D01*
X95826123Y-131118919D01*
X95877968Y-131082211D01*
X95918208Y-131075500D01*
X96693996Y-131075500D01*
X96785040Y-131057389D01*
X96829328Y-131048580D01*
X96893069Y-131022177D01*
X96956807Y-130995777D01*
X96956808Y-130995776D01*
X96956811Y-130995775D01*
X97071543Y-130919114D01*
X99111945Y-128878711D01*
X152149500Y-128878711D01*
X152149500Y-129121288D01*
X152181161Y-129361785D01*
X152243947Y-129596104D01*
X152336773Y-129820205D01*
X152336776Y-129820212D01*
X152458064Y-130030289D01*
X152458066Y-130030292D01*
X152458067Y-130030293D01*
X152605733Y-130222736D01*
X152605739Y-130222743D01*
X152777256Y-130394260D01*
X152777262Y-130394265D01*
X152969711Y-130541936D01*
X153179788Y-130663224D01*
X153403900Y-130756054D01*
X153638211Y-130818838D01*
X153818586Y-130842584D01*
X153878711Y-130850500D01*
X153878712Y-130850500D01*
X154121289Y-130850500D01*
X154169388Y-130844167D01*
X154361789Y-130818838D01*
X154596100Y-130756054D01*
X154820212Y-130663224D01*
X155030289Y-130541936D01*
X155222738Y-130394265D01*
X155394265Y-130222738D01*
X155541936Y-130030289D01*
X155663224Y-129820212D01*
X155756054Y-129596100D01*
X155818838Y-129361789D01*
X155850500Y-129121288D01*
X155850500Y-128878712D01*
X155818838Y-128638211D01*
X155756054Y-128403900D01*
X155663224Y-128179788D01*
X155541936Y-127969711D01*
X155394265Y-127777262D01*
X155394260Y-127777256D01*
X155222743Y-127605739D01*
X155222736Y-127605733D01*
X155030293Y-127458067D01*
X155030292Y-127458066D01*
X155030289Y-127458064D01*
X154820212Y-127336776D01*
X154820205Y-127336773D01*
X154596104Y-127243947D01*
X154361785Y-127181161D01*
X154121289Y-127149500D01*
X154121288Y-127149500D01*
X153878712Y-127149500D01*
X153878711Y-127149500D01*
X153638214Y-127181161D01*
X153403895Y-127243947D01*
X153179794Y-127336773D01*
X153179785Y-127336777D01*
X152969706Y-127458067D01*
X152777263Y-127605733D01*
X152777256Y-127605739D01*
X152605739Y-127777256D01*
X152605733Y-127777263D01*
X152458067Y-127969706D01*
X152336777Y-128179785D01*
X152336773Y-128179794D01*
X152243947Y-128403895D01*
X152181161Y-128638214D01*
X152149500Y-128878711D01*
X99111945Y-128878711D01*
X103527873Y-124462782D01*
X103589194Y-124429299D01*
X103653870Y-124432534D01*
X103683757Y-124442246D01*
X103893713Y-124475500D01*
X103893714Y-124475500D01*
X104106286Y-124475500D01*
X104106287Y-124475500D01*
X104316243Y-124442246D01*
X104518412Y-124376557D01*
X104707816Y-124280051D01*
X104729789Y-124264086D01*
X104879786Y-124155109D01*
X104879788Y-124155106D01*
X104879792Y-124155104D01*
X105030104Y-124004792D01*
X105149683Y-123840204D01*
X105205011Y-123797540D01*
X105274624Y-123791561D01*
X105336420Y-123824166D01*
X105350313Y-123840199D01*
X105469654Y-124004459D01*
X105469896Y-124004792D01*
X105620213Y-124155109D01*
X105792179Y-124280048D01*
X105792181Y-124280049D01*
X105792184Y-124280051D01*
X105981588Y-124376557D01*
X106183757Y-124442246D01*
X106393713Y-124475500D01*
X106393714Y-124475500D01*
X106606286Y-124475500D01*
X106606287Y-124475500D01*
X106816243Y-124442246D01*
X107018412Y-124376557D01*
X107207816Y-124280051D01*
X107229789Y-124264086D01*
X107379786Y-124155109D01*
X107379788Y-124155106D01*
X107379792Y-124155104D01*
X107530104Y-124004792D01*
X107649991Y-123839779D01*
X107705320Y-123797115D01*
X107774933Y-123791136D01*
X107836729Y-123823741D01*
X107850627Y-123839781D01*
X107970272Y-124004459D01*
X107970276Y-124004464D01*
X108120535Y-124154723D01*
X108120540Y-124154727D01*
X108292442Y-124279620D01*
X108481782Y-124376095D01*
X108683871Y-124441757D01*
X108750000Y-124452231D01*
X108750000Y-123404145D01*
X108816657Y-123442630D01*
X108937465Y-123475000D01*
X109062535Y-123475000D01*
X109183343Y-123442630D01*
X109250000Y-123404145D01*
X109250000Y-124452230D01*
X109316126Y-124441757D01*
X109316129Y-124441757D01*
X109518217Y-124376095D01*
X109707557Y-124279620D01*
X109879459Y-124154727D01*
X109879464Y-124154723D01*
X110029721Y-124004466D01*
X110149371Y-123839781D01*
X110204701Y-123797115D01*
X110274314Y-123791136D01*
X110336110Y-123823741D01*
X110350008Y-123839781D01*
X110469890Y-124004785D01*
X110469894Y-124004790D01*
X110620213Y-124155109D01*
X110792179Y-124280048D01*
X110792181Y-124280049D01*
X110792184Y-124280051D01*
X110981588Y-124376557D01*
X111183757Y-124442246D01*
X111393713Y-124475500D01*
X111393714Y-124475500D01*
X111606286Y-124475500D01*
X111606287Y-124475500D01*
X111816243Y-124442246D01*
X112018412Y-124376557D01*
X112207816Y-124280051D01*
X112229789Y-124264086D01*
X112379786Y-124155109D01*
X112379788Y-124155106D01*
X112379792Y-124155104D01*
X112530104Y-124004792D01*
X112649683Y-123840204D01*
X112705011Y-123797540D01*
X112774624Y-123791561D01*
X112836420Y-123824166D01*
X112850313Y-123840199D01*
X112969654Y-124004459D01*
X112969896Y-124004792D01*
X113120213Y-124155109D01*
X113292179Y-124280048D01*
X113292181Y-124280049D01*
X113292184Y-124280051D01*
X113481588Y-124376557D01*
X113683757Y-124442246D01*
X113893713Y-124475500D01*
X113893714Y-124475500D01*
X114106286Y-124475500D01*
X114106287Y-124475500D01*
X114316243Y-124442246D01*
X114518412Y-124376557D01*
X114707816Y-124280051D01*
X114729789Y-124264086D01*
X114879786Y-124155109D01*
X114879788Y-124155106D01*
X114879792Y-124155104D01*
X115030104Y-124004792D01*
X115030106Y-124004788D01*
X115030109Y-124004786D01*
X115145065Y-123846561D01*
X115155051Y-123832816D01*
X115251557Y-123643412D01*
X115317246Y-123441243D01*
X115350500Y-123231287D01*
X115350500Y-122768713D01*
X115317246Y-122558757D01*
X115251557Y-122356588D01*
X115155051Y-122167184D01*
X115155049Y-122167181D01*
X115155048Y-122167179D01*
X115030109Y-121995213D01*
X114879786Y-121844890D01*
X114707820Y-121719951D01*
X114518414Y-121623444D01*
X114518413Y-121623443D01*
X114518412Y-121623443D01*
X114316243Y-121557754D01*
X114316241Y-121557753D01*
X114316240Y-121557753D01*
X114129818Y-121528227D01*
X114106287Y-121524500D01*
X113893713Y-121524500D01*
X113870182Y-121528227D01*
X113683760Y-121557753D01*
X113481585Y-121623444D01*
X113292179Y-121719951D01*
X113120213Y-121844890D01*
X112969894Y-121995209D01*
X112969890Y-121995214D01*
X112850318Y-122159793D01*
X112794989Y-122202459D01*
X112725375Y-122208438D01*
X112663580Y-122175833D01*
X112649682Y-122159793D01*
X112530109Y-121995214D01*
X112530105Y-121995209D01*
X112379786Y-121844890D01*
X112207820Y-121719951D01*
X112018414Y-121623444D01*
X112018413Y-121623443D01*
X112018412Y-121623443D01*
X111816243Y-121557754D01*
X111816241Y-121557753D01*
X111816240Y-121557753D01*
X111629818Y-121528227D01*
X111606287Y-121524500D01*
X111393713Y-121524500D01*
X111370182Y-121528227D01*
X111183760Y-121557753D01*
X110981585Y-121623444D01*
X110792179Y-121719951D01*
X110620213Y-121844890D01*
X110469894Y-121995209D01*
X110469890Y-121995214D01*
X110350008Y-122160218D01*
X110294678Y-122202884D01*
X110225065Y-122208863D01*
X110163270Y-122176257D01*
X110149372Y-122160218D01*
X110029727Y-121995540D01*
X110029723Y-121995535D01*
X109879464Y-121845276D01*
X109879459Y-121845272D01*
X109707557Y-121720379D01*
X109518217Y-121623904D01*
X109316129Y-121558242D01*
X109225244Y-121543847D01*
X109162110Y-121513917D01*
X109125179Y-121454605D01*
X109126177Y-121384743D01*
X109156960Y-121333696D01*
X113574114Y-116916543D01*
X113650775Y-116801811D01*
X113703580Y-116674328D01*
X113730500Y-116538994D01*
X113730500Y-116401006D01*
X113730500Y-108491007D01*
X113730500Y-108491004D01*
X113703581Y-108355677D01*
X113703580Y-108355676D01*
X113703580Y-108355672D01*
X113703578Y-108355667D01*
X113650777Y-108228192D01*
X113574112Y-108113454D01*
X113574111Y-108113453D01*
X112872838Y-107412181D01*
X112839353Y-107350858D01*
X112844337Y-107281167D01*
X112886208Y-107225233D01*
X112951673Y-107200816D01*
X112960519Y-107200500D01*
X114132948Y-107200500D01*
X114199987Y-107220185D01*
X114220629Y-107236819D01*
X114304150Y-107320340D01*
X114450984Y-107410908D01*
X114614747Y-107465174D01*
X114715823Y-107475500D01*
X115314176Y-107475499D01*
X115314184Y-107475498D01*
X115314187Y-107475498D01*
X115390505Y-107467702D01*
X115415253Y-107465174D01*
X115579016Y-107410908D01*
X115725850Y-107320340D01*
X115840175Y-107206014D01*
X115901494Y-107172532D01*
X115971186Y-107177516D01*
X116015534Y-107206017D01*
X116129461Y-107319944D01*
X116129465Y-107319947D01*
X116276188Y-107410448D01*
X116276199Y-107410453D01*
X116439847Y-107464680D01*
X116540851Y-107474999D01*
X117090000Y-107474999D01*
X117139140Y-107474999D01*
X117139154Y-107474998D01*
X117240152Y-107464680D01*
X117403800Y-107410453D01*
X117403811Y-107410448D01*
X117550534Y-107319947D01*
X117550538Y-107319944D01*
X117672444Y-107198038D01*
X117672447Y-107198034D01*
X117762948Y-107051311D01*
X117762953Y-107051300D01*
X117817180Y-106887652D01*
X117827499Y-106786654D01*
X117827500Y-106786641D01*
X117827500Y-106750000D01*
X117090000Y-106750000D01*
X117090000Y-107474999D01*
X116540851Y-107474999D01*
X116589999Y-107474998D01*
X116590000Y-107474998D01*
X116590000Y-106250000D01*
X117090000Y-106250000D01*
X117827499Y-106250000D01*
X117827499Y-106213360D01*
X117827498Y-106213345D01*
X117817180Y-106112347D01*
X117762953Y-105948699D01*
X117762948Y-105948688D01*
X117672447Y-105801965D01*
X117672444Y-105801961D01*
X117550538Y-105680055D01*
X117550534Y-105680052D01*
X117403811Y-105589551D01*
X117403800Y-105589546D01*
X117240152Y-105535319D01*
X117139154Y-105525000D01*
X117090000Y-105525000D01*
X117090000Y-106250000D01*
X116590000Y-106250000D01*
X116590000Y-105525000D01*
X116589999Y-105524999D01*
X116540861Y-105525000D01*
X116540843Y-105525001D01*
X116439847Y-105535319D01*
X116276199Y-105589546D01*
X116276188Y-105589551D01*
X116129465Y-105680052D01*
X116015534Y-105793983D01*
X116007587Y-105798322D01*
X116002163Y-105805568D01*
X115977405Y-105814802D01*
X115954211Y-105827467D01*
X115945181Y-105826821D01*
X115936699Y-105829985D01*
X115910878Y-105824368D01*
X115884519Y-105822483D01*
X115875465Y-105816664D01*
X115868426Y-105815133D01*
X115840172Y-105793982D01*
X115751819Y-105705629D01*
X115718334Y-105644306D01*
X115715500Y-105617948D01*
X115715500Y-103516004D01*
X115702883Y-103452577D01*
X115700500Y-103428385D01*
X115700500Y-102903115D01*
X115720185Y-102836076D01*
X115768205Y-102792630D01*
X115786433Y-102783343D01*
X115977510Y-102644517D01*
X116144517Y-102477510D01*
X116283343Y-102286433D01*
X116390568Y-102075992D01*
X116463553Y-101851368D01*
X116498313Y-101631902D01*
X119249500Y-101631902D01*
X119249500Y-101868097D01*
X119286446Y-102101368D01*
X119359433Y-102325996D01*
X119436635Y-102477512D01*
X119466657Y-102536433D01*
X119605483Y-102727510D01*
X119772490Y-102894517D01*
X119963567Y-103033343D01*
X120049500Y-103077128D01*
X120174003Y-103140566D01*
X120174005Y-103140566D01*
X120174008Y-103140568D01*
X120212624Y-103153115D01*
X120398631Y-103213553D01*
X120631903Y-103250500D01*
X120631908Y-103250500D01*
X120868097Y-103250500D01*
X121101368Y-103213553D01*
X121325992Y-103140568D01*
X121536433Y-103033343D01*
X121727510Y-102894517D01*
X121894517Y-102727510D01*
X122033343Y-102536433D01*
X122042632Y-102518203D01*
X122090608Y-102467408D01*
X122153116Y-102450500D01*
X125846884Y-102450500D01*
X125913923Y-102470185D01*
X125957368Y-102518203D01*
X125966657Y-102536433D01*
X126105483Y-102727510D01*
X126272490Y-102894517D01*
X126463567Y-103033343D01*
X126481794Y-103042630D01*
X126532590Y-103090603D01*
X126549500Y-103153115D01*
X126549500Y-103821006D01*
X126549500Y-103958994D01*
X126549500Y-103958996D01*
X126549499Y-103958996D01*
X126576418Y-104094322D01*
X126576421Y-104094332D01*
X126629221Y-104221804D01*
X126629227Y-104221815D01*
X126636100Y-104232100D01*
X126656980Y-104298776D01*
X126657000Y-104300994D01*
X126657000Y-105797948D01*
X126648355Y-105827388D01*
X126641832Y-105857375D01*
X126638077Y-105862390D01*
X126637315Y-105864987D01*
X126620681Y-105885629D01*
X126563129Y-105943181D01*
X126501806Y-105976666D01*
X126475448Y-105979500D01*
X123319552Y-105979500D01*
X123252513Y-105959815D01*
X123231871Y-105943181D01*
X123148351Y-105859661D01*
X123148350Y-105859660D01*
X123018901Y-105779815D01*
X123001518Y-105769093D01*
X123001513Y-105769091D01*
X122983678Y-105763181D01*
X122837753Y-105714826D01*
X122837751Y-105714825D01*
X122736678Y-105704500D01*
X122063330Y-105704500D01*
X122063312Y-105704501D01*
X121962247Y-105714825D01*
X121798484Y-105769092D01*
X121798481Y-105769093D01*
X121651648Y-105859661D01*
X121612681Y-105898629D01*
X121551358Y-105932114D01*
X121481666Y-105927130D01*
X121437319Y-105898629D01*
X121398351Y-105859661D01*
X121398350Y-105859660D01*
X121268901Y-105779815D01*
X121251518Y-105769093D01*
X121251513Y-105769091D01*
X121233678Y-105763181D01*
X121087753Y-105714826D01*
X121087751Y-105714825D01*
X120986678Y-105704500D01*
X120313330Y-105704500D01*
X120313312Y-105704501D01*
X120212247Y-105714825D01*
X120048484Y-105769092D01*
X120048481Y-105769093D01*
X119901648Y-105859661D01*
X119779661Y-105981648D01*
X119689093Y-106128481D01*
X119689091Y-106128486D01*
X119672004Y-106180052D01*
X119634826Y-106292247D01*
X119634826Y-106292248D01*
X119634825Y-106292248D01*
X119624500Y-106393315D01*
X119624500Y-106966669D01*
X119624501Y-106966687D01*
X119634825Y-107067752D01*
X119671109Y-107177249D01*
X119689092Y-107231516D01*
X119779660Y-107378350D01*
X119901650Y-107500340D01*
X119901656Y-107500343D01*
X119902405Y-107500936D01*
X119902790Y-107501480D01*
X119906757Y-107505447D01*
X119906079Y-107506124D01*
X119942785Y-107557956D01*
X119949500Y-107598207D01*
X119949500Y-110117948D01*
X119929815Y-110184987D01*
X119913181Y-110205629D01*
X119817161Y-110301648D01*
X119726593Y-110448481D01*
X119726591Y-110448486D01*
X119699219Y-110531088D01*
X119672326Y-110612247D01*
X119672326Y-110612248D01*
X119672325Y-110612248D01*
X119662000Y-110713315D01*
X119662000Y-111286669D01*
X119662001Y-111286687D01*
X119672325Y-111387752D01*
X119701402Y-111475498D01*
X119726592Y-111551516D01*
X119817160Y-111698350D01*
X119939150Y-111820340D01*
X120085984Y-111910908D01*
X120249747Y-111965174D01*
X120350823Y-111975500D01*
X120949176Y-111975499D01*
X120949184Y-111975498D01*
X120949187Y-111975498D01*
X121004530Y-111969844D01*
X121050253Y-111965174D01*
X121214016Y-111910908D01*
X121360850Y-111820340D01*
X121475175Y-111706014D01*
X121536494Y-111672532D01*
X121606186Y-111677516D01*
X121650534Y-111706017D01*
X121764461Y-111819944D01*
X121764465Y-111819947D01*
X121911188Y-111910448D01*
X121911199Y-111910453D01*
X122074847Y-111964680D01*
X122175851Y-111974999D01*
X122224999Y-111974998D01*
X122225000Y-111974998D01*
X122225000Y-110025000D01*
X122224999Y-110024999D01*
X122175861Y-110025000D01*
X122175843Y-110025001D01*
X122074847Y-110035319D01*
X121911199Y-110089546D01*
X121911188Y-110089551D01*
X121764465Y-110180052D01*
X121650534Y-110293983D01*
X121642587Y-110298322D01*
X121637163Y-110305568D01*
X121612405Y-110314802D01*
X121589211Y-110327467D01*
X121580181Y-110326821D01*
X121571699Y-110329985D01*
X121545878Y-110324368D01*
X121519519Y-110322483D01*
X121510465Y-110316664D01*
X121503426Y-110315133D01*
X121475172Y-110293982D01*
X121386819Y-110205629D01*
X121353334Y-110144306D01*
X121350500Y-110117948D01*
X121350500Y-107598207D01*
X121370185Y-107531168D01*
X121393380Y-107505584D01*
X121393243Y-107505447D01*
X121396050Y-107502639D01*
X121397595Y-107500936D01*
X121398339Y-107500346D01*
X121398350Y-107500340D01*
X121437319Y-107461371D01*
X121498642Y-107427886D01*
X121568334Y-107432870D01*
X121612681Y-107461371D01*
X121651650Y-107500340D01*
X121798484Y-107590908D01*
X121962247Y-107645174D01*
X122063323Y-107655500D01*
X122333480Y-107655499D01*
X122400519Y-107675183D01*
X122421161Y-107691818D01*
X122625681Y-107896338D01*
X122659166Y-107957661D01*
X122662000Y-107984019D01*
X122662000Y-121461188D01*
X122642315Y-121528227D01*
X122589511Y-121573982D01*
X122550602Y-121584546D01*
X122497202Y-121590001D01*
X122497200Y-121590001D01*
X122330668Y-121645185D01*
X122330663Y-121645187D01*
X122181342Y-121737289D01*
X122057289Y-121861342D01*
X121965187Y-122010663D01*
X121965185Y-122010668D01*
X121963024Y-122017190D01*
X121910001Y-122177203D01*
X121910001Y-122177204D01*
X121910000Y-122177204D01*
X121899500Y-122279983D01*
X121899500Y-123830001D01*
X121899501Y-123830018D01*
X121910000Y-123932796D01*
X121910001Y-123932798D01*
X121960836Y-124086206D01*
X121965186Y-124099334D01*
X122057288Y-124248656D01*
X122181344Y-124372712D01*
X122330666Y-124464814D01*
X122497203Y-124519999D01*
X122599991Y-124530500D01*
X123900008Y-124530499D01*
X124002797Y-124519999D01*
X124169334Y-124464814D01*
X124318656Y-124372712D01*
X124442712Y-124248656D01*
X124534814Y-124099334D01*
X124534814Y-124099331D01*
X124538178Y-124093879D01*
X124590126Y-124047154D01*
X124659088Y-124035931D01*
X124723170Y-124063774D01*
X124731398Y-124071294D01*
X124870213Y-124210109D01*
X125042179Y-124335048D01*
X125042181Y-124335049D01*
X125042184Y-124335051D01*
X125231588Y-124431557D01*
X125433757Y-124497246D01*
X125643713Y-124530500D01*
X125643714Y-124530500D01*
X125856286Y-124530500D01*
X125856287Y-124530500D01*
X126066243Y-124497246D01*
X126268412Y-124431557D01*
X126457816Y-124335051D01*
X126534111Y-124279620D01*
X126629786Y-124210109D01*
X126629788Y-124210106D01*
X126629792Y-124210104D01*
X126780104Y-124059792D01*
X126899683Y-123895204D01*
X126955011Y-123852540D01*
X127024624Y-123846561D01*
X127086420Y-123879166D01*
X127100313Y-123895199D01*
X127195232Y-124025845D01*
X127219896Y-124059792D01*
X127370213Y-124210109D01*
X127542179Y-124335048D01*
X127542181Y-124335049D01*
X127542184Y-124335051D01*
X127731588Y-124431557D01*
X127933757Y-124497246D01*
X128143713Y-124530500D01*
X128143714Y-124530500D01*
X128356286Y-124530500D01*
X128356287Y-124530500D01*
X128566243Y-124497246D01*
X128768412Y-124431557D01*
X128957816Y-124335051D01*
X129034111Y-124279620D01*
X129129786Y-124210109D01*
X129129788Y-124210106D01*
X129129792Y-124210104D01*
X129280104Y-124059792D01*
X129399991Y-123894779D01*
X129455320Y-123852115D01*
X129524933Y-123846136D01*
X129586729Y-123878741D01*
X129600627Y-123894781D01*
X129720272Y-124059459D01*
X129720276Y-124059464D01*
X129870535Y-124209723D01*
X129870540Y-124209727D01*
X130042442Y-124334620D01*
X130231782Y-124431095D01*
X130433871Y-124496757D01*
X130500000Y-124507231D01*
X130500000Y-123459145D01*
X130566657Y-123497630D01*
X130687465Y-123530000D01*
X130812535Y-123530000D01*
X130933343Y-123497630D01*
X131000000Y-123459145D01*
X131000000Y-124507230D01*
X131066126Y-124496757D01*
X131066129Y-124496757D01*
X131268217Y-124431095D01*
X131457557Y-124334620D01*
X131629459Y-124209727D01*
X131629464Y-124209723D01*
X131779721Y-124059466D01*
X131899371Y-123894781D01*
X131954701Y-123852115D01*
X132024314Y-123846136D01*
X132086110Y-123878741D01*
X132100008Y-123894781D01*
X132219890Y-124059785D01*
X132219894Y-124059790D01*
X132370213Y-124210109D01*
X132542179Y-124335048D01*
X132542181Y-124335049D01*
X132542184Y-124335051D01*
X132731588Y-124431557D01*
X132933757Y-124497246D01*
X133143713Y-124530500D01*
X133143714Y-124530500D01*
X133356286Y-124530500D01*
X133356287Y-124530500D01*
X133566243Y-124497246D01*
X133768412Y-124431557D01*
X133957816Y-124335051D01*
X134034111Y-124279620D01*
X134129786Y-124210109D01*
X134129788Y-124210106D01*
X134129792Y-124210104D01*
X134280104Y-124059792D01*
X134399683Y-123895204D01*
X134455011Y-123852540D01*
X134524624Y-123846561D01*
X134586420Y-123879166D01*
X134600313Y-123895199D01*
X134695232Y-124025845D01*
X134719896Y-124059792D01*
X134870213Y-124210109D01*
X135042179Y-124335048D01*
X135042181Y-124335049D01*
X135042184Y-124335051D01*
X135231588Y-124431557D01*
X135433757Y-124497246D01*
X135643713Y-124530500D01*
X135643714Y-124530500D01*
X135856286Y-124530500D01*
X135856287Y-124530500D01*
X136066243Y-124497246D01*
X136268412Y-124431557D01*
X136457816Y-124335051D01*
X136534111Y-124279620D01*
X136629786Y-124210109D01*
X136629788Y-124210106D01*
X136629792Y-124210104D01*
X136780104Y-124059792D01*
X136780106Y-124059788D01*
X136780109Y-124059786D01*
X136905048Y-123887820D01*
X136905047Y-123887820D01*
X136905051Y-123887816D01*
X137001557Y-123698412D01*
X137067246Y-123496243D01*
X137100500Y-123286287D01*
X137100500Y-122823713D01*
X137067246Y-122613757D01*
X137001557Y-122411588D01*
X136905051Y-122222184D01*
X136905049Y-122222181D01*
X136905048Y-122222179D01*
X136780109Y-122050213D01*
X136629786Y-121899890D01*
X136457820Y-121774951D01*
X136268414Y-121678444D01*
X136268413Y-121678443D01*
X136268412Y-121678443D01*
X136066243Y-121612754D01*
X136066241Y-121612753D01*
X136066240Y-121612753D01*
X135888146Y-121584546D01*
X135856287Y-121579500D01*
X135643713Y-121579500D01*
X135611854Y-121584546D01*
X135433760Y-121612753D01*
X135231585Y-121678444D01*
X135042179Y-121774951D01*
X134870213Y-121899890D01*
X134719894Y-122050209D01*
X134719890Y-122050214D01*
X134600318Y-122214793D01*
X134544989Y-122257459D01*
X134475375Y-122263438D01*
X134413580Y-122230833D01*
X134399682Y-122214793D01*
X134280109Y-122050214D01*
X134280105Y-122050209D01*
X134129786Y-121899890D01*
X133957820Y-121774951D01*
X133768414Y-121678444D01*
X133768413Y-121678443D01*
X133768412Y-121678443D01*
X133566243Y-121612754D01*
X133566241Y-121612753D01*
X133566240Y-121612753D01*
X133388146Y-121584546D01*
X133356287Y-121579500D01*
X133143713Y-121579500D01*
X133111854Y-121584546D01*
X132933760Y-121612753D01*
X132731585Y-121678444D01*
X132542179Y-121774951D01*
X132370213Y-121899890D01*
X132219894Y-122050209D01*
X132219890Y-122050214D01*
X132100008Y-122215218D01*
X132044678Y-122257884D01*
X131975065Y-122263863D01*
X131913270Y-122231257D01*
X131899372Y-122215218D01*
X131779727Y-122050540D01*
X131779723Y-122050535D01*
X131629464Y-121900276D01*
X131629459Y-121900272D01*
X131457557Y-121775379D01*
X131268217Y-121678904D01*
X131066129Y-121613242D01*
X130975244Y-121598847D01*
X130912110Y-121568917D01*
X130875179Y-121509605D01*
X130876177Y-121439743D01*
X130906960Y-121388695D01*
X138974114Y-113321543D01*
X139050775Y-113206811D01*
X139103580Y-113079328D01*
X139130500Y-112943994D01*
X139130500Y-112806006D01*
X139130500Y-108991007D01*
X139130500Y-108991004D01*
X139103581Y-108855677D01*
X139103580Y-108855676D01*
X139103580Y-108855672D01*
X139086252Y-108813838D01*
X139050778Y-108728195D01*
X139050771Y-108728182D01*
X138984495Y-108628994D01*
X138984494Y-108628992D01*
X138974116Y-108613459D01*
X138272838Y-107912181D01*
X138239353Y-107850858D01*
X138244337Y-107781166D01*
X138286209Y-107725233D01*
X138351673Y-107700816D01*
X138360519Y-107700500D01*
X140445448Y-107700500D01*
X140512487Y-107720185D01*
X140533129Y-107736819D01*
X140616650Y-107820340D01*
X140763484Y-107910908D01*
X140927247Y-107965174D01*
X141028323Y-107975500D01*
X141626676Y-107975499D01*
X141626684Y-107975498D01*
X141626687Y-107975498D01*
X141682030Y-107969844D01*
X141727753Y-107965174D01*
X141891516Y-107910908D01*
X142038350Y-107820340D01*
X142152675Y-107706014D01*
X142213994Y-107672532D01*
X142283686Y-107677516D01*
X142328034Y-107706017D01*
X142441961Y-107819944D01*
X142441965Y-107819947D01*
X142588688Y-107910448D01*
X142588699Y-107910453D01*
X142752347Y-107964680D01*
X142853351Y-107974999D01*
X143402500Y-107974999D01*
X143451640Y-107974999D01*
X143451654Y-107974998D01*
X143552652Y-107964680D01*
X143716300Y-107910453D01*
X143716311Y-107910448D01*
X143863034Y-107819947D01*
X143863038Y-107819944D01*
X143984944Y-107698038D01*
X143984947Y-107698034D01*
X144075448Y-107551311D01*
X144075453Y-107551300D01*
X144129680Y-107387652D01*
X144139999Y-107286654D01*
X144140000Y-107286641D01*
X144140000Y-107250000D01*
X143402500Y-107250000D01*
X143402500Y-107974999D01*
X142853351Y-107974999D01*
X142902499Y-107974998D01*
X142902500Y-107974998D01*
X142902500Y-106750000D01*
X143402500Y-106750000D01*
X144139999Y-106750000D01*
X144139999Y-106713360D01*
X144139998Y-106713345D01*
X144129680Y-106612347D01*
X144075453Y-106448699D01*
X144075448Y-106448688D01*
X143984947Y-106301965D01*
X143984944Y-106301961D01*
X143863038Y-106180055D01*
X143863034Y-106180052D01*
X143716311Y-106089551D01*
X143716300Y-106089546D01*
X143552652Y-106035319D01*
X143451654Y-106025000D01*
X143402500Y-106025000D01*
X143402500Y-106750000D01*
X142902500Y-106750000D01*
X142902500Y-106025000D01*
X142902499Y-106024999D01*
X142853361Y-106025000D01*
X142853343Y-106025001D01*
X142752347Y-106035319D01*
X142588699Y-106089546D01*
X142588692Y-106089549D01*
X142569595Y-106101329D01*
X142502203Y-106119768D01*
X142435539Y-106098845D01*
X142390771Y-106045202D01*
X142380500Y-105995789D01*
X142380500Y-103003115D01*
X142400185Y-102936076D01*
X142448205Y-102892630D01*
X142466433Y-102883343D01*
X142657510Y-102744517D01*
X142824517Y-102577510D01*
X142963343Y-102386433D01*
X143070568Y-102175992D01*
X143143553Y-101951368D01*
X143156743Y-101868092D01*
X143180500Y-101718097D01*
X143180500Y-101481902D01*
X143143553Y-101248631D01*
X143073357Y-101032592D01*
X143070568Y-101024008D01*
X143070566Y-101024005D01*
X143070566Y-101024003D01*
X142997098Y-100879815D01*
X142963343Y-100813567D01*
X142824517Y-100622490D01*
X142657510Y-100455483D01*
X142466433Y-100316657D01*
X142407141Y-100286446D01*
X142255996Y-100209433D01*
X142031368Y-100136446D01*
X141798097Y-100099500D01*
X141798092Y-100099500D01*
X141561908Y-100099500D01*
X141561903Y-100099500D01*
X141328631Y-100136446D01*
X141104003Y-100209433D01*
X140893566Y-100316657D01*
X140834692Y-100359432D01*
X140702490Y-100455483D01*
X140702488Y-100455485D01*
X140702487Y-100455485D01*
X140535485Y-100622487D01*
X140535485Y-100622488D01*
X140535483Y-100622490D01*
X140505442Y-100663838D01*
X140396657Y-100813566D01*
X140387368Y-100831797D01*
X140339392Y-100882592D01*
X140276884Y-100899500D01*
X136583116Y-100899500D01*
X136516077Y-100879815D01*
X136472632Y-100831797D01*
X136463342Y-100813566D01*
X136324517Y-100622490D01*
X136157510Y-100455483D01*
X135966433Y-100316657D01*
X135907141Y-100286446D01*
X135755996Y-100209433D01*
X135531368Y-100136446D01*
X135298097Y-100099500D01*
X135298092Y-100099500D01*
X135061908Y-100099500D01*
X135061903Y-100099500D01*
X134828631Y-100136446D01*
X134604003Y-100209433D01*
X134393566Y-100316657D01*
X134334692Y-100359432D01*
X134202490Y-100455483D01*
X134202488Y-100455485D01*
X134202487Y-100455485D01*
X134035485Y-100622487D01*
X134035485Y-100622488D01*
X134035483Y-100622490D01*
X134005442Y-100663838D01*
X133896657Y-100813566D01*
X133789433Y-101024003D01*
X133716446Y-101248631D01*
X133679500Y-101481902D01*
X133679500Y-101718097D01*
X133716446Y-101951368D01*
X133789433Y-102175996D01*
X133865863Y-102325996D01*
X133896657Y-102386433D01*
X134035483Y-102577510D01*
X134202490Y-102744517D01*
X134393567Y-102883343D01*
X134432372Y-102903115D01*
X134604003Y-102990566D01*
X134604005Y-102990566D01*
X134604008Y-102990568D01*
X134642624Y-103003115D01*
X134828631Y-103063553D01*
X135061903Y-103100500D01*
X135061908Y-103100500D01*
X135298097Y-103100500D01*
X135531368Y-103063553D01*
X135595765Y-103042629D01*
X135755992Y-102990568D01*
X135966433Y-102883343D01*
X136157510Y-102744517D01*
X136324517Y-102577510D01*
X136463343Y-102386433D01*
X136472632Y-102368203D01*
X136520608Y-102317408D01*
X136583116Y-102300500D01*
X140276884Y-102300500D01*
X140343923Y-102320185D01*
X140387368Y-102368203D01*
X140396657Y-102386433D01*
X140535483Y-102577510D01*
X140702490Y-102744517D01*
X140893567Y-102883343D01*
X140911794Y-102892630D01*
X140962590Y-102940603D01*
X140979500Y-103003115D01*
X140979500Y-105927970D01*
X140959815Y-105995009D01*
X140907011Y-106040764D01*
X140894504Y-106045676D01*
X140763486Y-106089091D01*
X140763481Y-106089093D01*
X140616648Y-106179661D01*
X140533129Y-106263181D01*
X140471806Y-106296666D01*
X140445448Y-106299500D01*
X137289552Y-106299500D01*
X137222513Y-106279815D01*
X137201871Y-106263181D01*
X137118351Y-106179661D01*
X137118350Y-106179660D01*
X137008743Y-106112054D01*
X136971518Y-106089093D01*
X136971513Y-106089091D01*
X136956207Y-106084019D01*
X136807753Y-106034826D01*
X136807751Y-106034825D01*
X136706678Y-106024500D01*
X136033330Y-106024500D01*
X136033312Y-106024501D01*
X135932247Y-106034825D01*
X135768484Y-106089092D01*
X135768481Y-106089093D01*
X135621648Y-106179661D01*
X135582681Y-106218629D01*
X135521358Y-106252114D01*
X135451666Y-106247130D01*
X135407319Y-106218629D01*
X135368351Y-106179661D01*
X135368350Y-106179660D01*
X135258743Y-106112054D01*
X135221518Y-106089093D01*
X135221513Y-106089091D01*
X135206207Y-106084019D01*
X135057753Y-106034826D01*
X135057751Y-106034825D01*
X134956678Y-106024500D01*
X134283330Y-106024500D01*
X134283312Y-106024501D01*
X134182247Y-106034825D01*
X134018484Y-106089092D01*
X134018481Y-106089093D01*
X133871648Y-106179661D01*
X133749661Y-106301648D01*
X133659093Y-106448481D01*
X133659091Y-106448486D01*
X133631719Y-106531088D01*
X133604826Y-106612247D01*
X133604826Y-106612248D01*
X133604825Y-106612248D01*
X133594500Y-106713315D01*
X133594500Y-107286669D01*
X133594501Y-107286687D01*
X133604825Y-107387752D01*
X133633902Y-107475498D01*
X133659020Y-107551300D01*
X133659092Y-107551515D01*
X133659093Y-107551518D01*
X133683388Y-107590906D01*
X133749660Y-107698350D01*
X133871650Y-107820340D01*
X133871656Y-107820343D01*
X133872405Y-107820936D01*
X133872790Y-107821480D01*
X133876757Y-107825447D01*
X133876079Y-107826124D01*
X133912785Y-107877956D01*
X133919500Y-107918207D01*
X133919500Y-110877948D01*
X133899815Y-110944987D01*
X133883181Y-110965629D01*
X133787161Y-111061648D01*
X133696593Y-111208481D01*
X133696591Y-111208486D01*
X133692177Y-111221807D01*
X133642326Y-111372247D01*
X133642326Y-111372248D01*
X133642325Y-111372248D01*
X133632000Y-111473315D01*
X133632000Y-112046669D01*
X133632001Y-112046687D01*
X133642325Y-112147752D01*
X133678609Y-112257249D01*
X133696592Y-112311516D01*
X133787160Y-112458350D01*
X133909150Y-112580340D01*
X134055984Y-112670908D01*
X134219747Y-112725174D01*
X134320823Y-112735500D01*
X134919176Y-112735499D01*
X134919184Y-112735498D01*
X134919187Y-112735498D01*
X134974530Y-112729844D01*
X135020253Y-112725174D01*
X135184016Y-112670908D01*
X135330850Y-112580340D01*
X135445175Y-112466014D01*
X135506494Y-112432532D01*
X135576186Y-112437516D01*
X135620534Y-112466017D01*
X135734461Y-112579944D01*
X135734465Y-112579947D01*
X135881188Y-112670448D01*
X135881199Y-112670453D01*
X136044847Y-112724680D01*
X136145851Y-112734999D01*
X136695000Y-112734999D01*
X136744140Y-112734999D01*
X136744154Y-112734998D01*
X136845152Y-112724680D01*
X137008800Y-112670453D01*
X137008811Y-112670448D01*
X137155534Y-112579947D01*
X137155538Y-112579944D01*
X137277444Y-112458038D01*
X137277447Y-112458034D01*
X137367948Y-112311311D01*
X137367953Y-112311300D01*
X137422180Y-112147652D01*
X137432499Y-112046654D01*
X137432500Y-112046641D01*
X137432500Y-112010000D01*
X136695000Y-112010000D01*
X136695000Y-112734999D01*
X136145851Y-112734999D01*
X136194999Y-112734998D01*
X136195000Y-112734998D01*
X136195000Y-111510000D01*
X136695000Y-111510000D01*
X137432499Y-111510000D01*
X137432499Y-111473360D01*
X137432498Y-111473345D01*
X137422180Y-111372347D01*
X137367953Y-111208699D01*
X137367948Y-111208688D01*
X137277447Y-111061965D01*
X137277444Y-111061961D01*
X137155538Y-110940055D01*
X137155534Y-110940052D01*
X137008811Y-110849551D01*
X137008800Y-110849546D01*
X136845152Y-110795319D01*
X136744154Y-110785000D01*
X136695000Y-110785000D01*
X136695000Y-111510000D01*
X136195000Y-111510000D01*
X136195000Y-110785000D01*
X136194999Y-110784999D01*
X136145861Y-110785000D01*
X136145843Y-110785001D01*
X136044847Y-110795319D01*
X135881199Y-110849546D01*
X135881188Y-110849551D01*
X135734465Y-110940052D01*
X135620534Y-111053983D01*
X135612587Y-111058322D01*
X135607163Y-111065568D01*
X135582405Y-111074802D01*
X135559211Y-111087467D01*
X135550181Y-111086821D01*
X135541699Y-111089985D01*
X135515878Y-111084368D01*
X135489519Y-111082483D01*
X135480465Y-111076664D01*
X135473426Y-111075133D01*
X135445172Y-111053982D01*
X135356819Y-110965629D01*
X135323334Y-110904306D01*
X135320500Y-110877948D01*
X135320500Y-107918207D01*
X135340185Y-107851168D01*
X135363380Y-107825584D01*
X135363243Y-107825447D01*
X135366050Y-107822639D01*
X135367595Y-107820936D01*
X135368339Y-107820346D01*
X135368350Y-107820340D01*
X135407319Y-107781371D01*
X135468642Y-107747886D01*
X135538334Y-107752870D01*
X135582681Y-107781371D01*
X135621650Y-107820340D01*
X135768484Y-107910908D01*
X135932247Y-107965174D01*
X136033323Y-107975500D01*
X136303480Y-107975499D01*
X136370519Y-107995183D01*
X136391161Y-108011818D01*
X137693181Y-109313838D01*
X137726666Y-109375161D01*
X137729500Y-109401519D01*
X137729500Y-112533480D01*
X137709815Y-112600519D01*
X137693181Y-112621161D01*
X128722127Y-121592214D01*
X128660804Y-121625699D01*
X128596130Y-121622465D01*
X128595434Y-121622238D01*
X128566243Y-121612754D01*
X128566239Y-121612753D01*
X128566238Y-121612753D01*
X128436559Y-121592214D01*
X128356287Y-121579500D01*
X128143713Y-121579500D01*
X128111854Y-121584546D01*
X127933760Y-121612753D01*
X127731585Y-121678444D01*
X127542179Y-121774951D01*
X127370213Y-121899890D01*
X127219894Y-122050209D01*
X127219890Y-122050214D01*
X127100318Y-122214793D01*
X127044989Y-122257459D01*
X126975375Y-122263438D01*
X126913580Y-122230833D01*
X126899682Y-122214793D01*
X126780109Y-122050214D01*
X126780105Y-122050209D01*
X126629786Y-121899890D01*
X126457820Y-121774951D01*
X126268414Y-121678444D01*
X126268413Y-121678443D01*
X126268412Y-121678443D01*
X126066243Y-121612754D01*
X126066241Y-121612753D01*
X126066240Y-121612753D01*
X125888146Y-121584546D01*
X125856287Y-121579500D01*
X125643713Y-121579500D01*
X125611854Y-121584546D01*
X125433760Y-121612753D01*
X125231585Y-121678444D01*
X125042179Y-121774951D01*
X124870215Y-121899889D01*
X124731398Y-122038706D01*
X124670075Y-122072190D01*
X124600383Y-122067206D01*
X124544450Y-122025334D01*
X124538178Y-122016120D01*
X124442712Y-121861344D01*
X124318657Y-121737289D01*
X124318656Y-121737288D01*
X124169334Y-121645186D01*
X124169332Y-121645185D01*
X124169330Y-121645184D01*
X124169331Y-121645184D01*
X124147994Y-121638114D01*
X124090550Y-121598341D01*
X124063728Y-121533825D01*
X124063000Y-121520409D01*
X124063000Y-107573504D01*
X124054086Y-107528692D01*
X124060313Y-107459100D01*
X124103176Y-107403923D01*
X124169065Y-107380678D01*
X124175703Y-107380500D01*
X126475448Y-107380500D01*
X126542487Y-107400185D01*
X126563129Y-107416819D01*
X126646650Y-107500340D01*
X126793484Y-107590908D01*
X126957247Y-107645174D01*
X127058323Y-107655500D01*
X127656676Y-107655499D01*
X127656684Y-107655498D01*
X127656687Y-107655498D01*
X127712030Y-107649844D01*
X127757753Y-107645174D01*
X127921516Y-107590908D01*
X128068350Y-107500340D01*
X128182675Y-107386014D01*
X128243994Y-107352532D01*
X128313686Y-107357516D01*
X128358034Y-107386017D01*
X128471961Y-107499944D01*
X128471965Y-107499947D01*
X128618688Y-107590448D01*
X128618699Y-107590453D01*
X128782347Y-107644680D01*
X128883351Y-107654999D01*
X129432500Y-107654999D01*
X129481640Y-107654999D01*
X129481654Y-107654998D01*
X129582652Y-107644680D01*
X129746300Y-107590453D01*
X129746311Y-107590448D01*
X129893034Y-107499947D01*
X129893038Y-107499944D01*
X130014944Y-107378038D01*
X130014947Y-107378034D01*
X130105448Y-107231311D01*
X130105453Y-107231300D01*
X130159680Y-107067652D01*
X130169999Y-106966654D01*
X130170000Y-106966641D01*
X130170000Y-106930000D01*
X129432500Y-106930000D01*
X129432500Y-107654999D01*
X128883351Y-107654999D01*
X128932499Y-107654998D01*
X128932500Y-107654998D01*
X128932500Y-106430000D01*
X129432500Y-106430000D01*
X130169999Y-106430000D01*
X130169999Y-106393360D01*
X130169998Y-106393345D01*
X130159680Y-106292347D01*
X130105453Y-106128699D01*
X130105448Y-106128688D01*
X130014947Y-105981965D01*
X130014944Y-105981961D01*
X129893038Y-105860055D01*
X129893034Y-105860052D01*
X129746311Y-105769551D01*
X129746300Y-105769546D01*
X129582652Y-105715319D01*
X129481654Y-105705000D01*
X129432500Y-105705000D01*
X129432500Y-106430000D01*
X128932500Y-106430000D01*
X128932500Y-105705000D01*
X128932499Y-105704999D01*
X128883361Y-105705000D01*
X128883343Y-105705001D01*
X128782347Y-105715319D01*
X128618699Y-105769546D01*
X128618688Y-105769551D01*
X128471965Y-105860052D01*
X128358034Y-105973983D01*
X128350087Y-105978322D01*
X128344663Y-105985568D01*
X128319905Y-105994802D01*
X128296711Y-106007467D01*
X128287681Y-106006821D01*
X128279199Y-106009985D01*
X128253378Y-106004368D01*
X128227019Y-106002483D01*
X128217965Y-105996664D01*
X128210926Y-105995133D01*
X128182672Y-105973982D01*
X128094319Y-105885629D01*
X128060834Y-105824306D01*
X128058000Y-105797948D01*
X128058000Y-103928504D01*
X128031081Y-103793177D01*
X128031080Y-103793176D01*
X128031080Y-103793172D01*
X127978275Y-103665689D01*
X127971396Y-103655393D01*
X127950520Y-103588715D01*
X127950500Y-103586505D01*
X127950500Y-103153115D01*
X127970185Y-103086076D01*
X128018205Y-103042630D01*
X128036433Y-103033343D01*
X128227510Y-102894517D01*
X128394517Y-102727510D01*
X128533343Y-102536433D01*
X128640568Y-102325992D01*
X128713553Y-102101368D01*
X128750500Y-101868097D01*
X128750500Y-101631902D01*
X128713553Y-101398631D01*
X128664815Y-101248632D01*
X128640568Y-101174008D01*
X128640566Y-101174005D01*
X128640566Y-101174003D01*
X128564139Y-101024008D01*
X128533343Y-100963567D01*
X128394517Y-100772490D01*
X128227510Y-100605483D01*
X128036433Y-100466657D01*
X128014503Y-100455483D01*
X127825996Y-100359433D01*
X127601368Y-100286446D01*
X127368097Y-100249500D01*
X127368092Y-100249500D01*
X127131908Y-100249500D01*
X127131903Y-100249500D01*
X126898631Y-100286446D01*
X126674003Y-100359433D01*
X126463566Y-100466657D01*
X126354550Y-100545862D01*
X126272490Y-100605483D01*
X126272488Y-100605485D01*
X126272487Y-100605485D01*
X126105485Y-100772487D01*
X126105485Y-100772488D01*
X126105483Y-100772490D01*
X126075639Y-100813567D01*
X125966657Y-100963566D01*
X125957368Y-100981797D01*
X125909392Y-101032592D01*
X125846884Y-101049500D01*
X122153116Y-101049500D01*
X122086077Y-101029815D01*
X122042632Y-100981797D01*
X122033342Y-100963566D01*
X121894517Y-100772490D01*
X121727510Y-100605483D01*
X121536433Y-100466657D01*
X121514503Y-100455483D01*
X121325996Y-100359433D01*
X121101368Y-100286446D01*
X120868097Y-100249500D01*
X120868092Y-100249500D01*
X120631908Y-100249500D01*
X120631903Y-100249500D01*
X120398631Y-100286446D01*
X120174003Y-100359433D01*
X119963566Y-100466657D01*
X119854550Y-100545862D01*
X119772490Y-100605483D01*
X119772488Y-100605485D01*
X119772487Y-100605485D01*
X119605485Y-100772487D01*
X119605485Y-100772488D01*
X119605483Y-100772490D01*
X119575639Y-100813567D01*
X119466657Y-100963566D01*
X119359433Y-101174003D01*
X119286446Y-101398631D01*
X119249500Y-101631902D01*
X116498313Y-101631902D01*
X116500500Y-101618092D01*
X116500500Y-101381908D01*
X116500500Y-101381902D01*
X116463553Y-101148631D01*
X116409345Y-100981797D01*
X116390568Y-100924008D01*
X116390566Y-100924005D01*
X116390566Y-100924003D01*
X116313364Y-100772487D01*
X116283343Y-100713567D01*
X116144517Y-100522490D01*
X115977510Y-100355483D01*
X115786433Y-100216657D01*
X115764864Y-100205667D01*
X115575996Y-100109433D01*
X115351368Y-100036446D01*
X115118097Y-99999500D01*
X115118092Y-99999500D01*
X114881908Y-99999500D01*
X114881903Y-99999500D01*
X114648631Y-100036446D01*
X114424003Y-100109433D01*
X114213566Y-100216657D01*
X114104550Y-100295862D01*
X114022490Y-100355483D01*
X114022488Y-100355485D01*
X114022487Y-100355485D01*
X113855485Y-100522487D01*
X113855485Y-100522488D01*
X113855483Y-100522490D01*
X113795862Y-100604550D01*
X113716657Y-100713566D01*
X113707368Y-100731797D01*
X113659392Y-100782592D01*
X113596884Y-100799500D01*
X109903116Y-100799500D01*
X109836077Y-100779815D01*
X109792632Y-100731797D01*
X109783342Y-100713566D01*
X109773600Y-100700157D01*
X109644517Y-100522490D01*
X109477510Y-100355483D01*
X109286433Y-100216657D01*
X109264864Y-100205667D01*
X109075996Y-100109433D01*
X108851368Y-100036446D01*
X108618097Y-99999500D01*
X108618092Y-99999500D01*
X108381908Y-99999500D01*
X108381903Y-99999500D01*
X108148631Y-100036446D01*
X107924003Y-100109433D01*
X107713566Y-100216657D01*
X107604550Y-100295862D01*
X107522490Y-100355483D01*
X107522488Y-100355485D01*
X107522487Y-100355485D01*
X107355485Y-100522487D01*
X107355485Y-100522488D01*
X107355483Y-100522490D01*
X107295862Y-100604550D01*
X107216657Y-100713566D01*
X107109433Y-100924003D01*
X107036446Y-101148631D01*
X106999500Y-101381902D01*
X106999500Y-101618097D01*
X107036446Y-101851368D01*
X107109433Y-102075996D01*
X107172872Y-102200500D01*
X107216657Y-102286433D01*
X107355483Y-102477510D01*
X107522490Y-102644517D01*
X107713567Y-102783343D01*
X107799500Y-102827128D01*
X107924003Y-102890566D01*
X107924005Y-102890566D01*
X107924008Y-102890568D01*
X107962624Y-102903115D01*
X108148631Y-102963553D01*
X108381903Y-103000500D01*
X108381908Y-103000500D01*
X108618097Y-103000500D01*
X108851368Y-102963553D01*
X109075992Y-102890568D01*
X109286433Y-102783343D01*
X109477510Y-102644517D01*
X109644517Y-102477510D01*
X109783343Y-102286433D01*
X109792632Y-102268203D01*
X109840608Y-102217408D01*
X109903116Y-102200500D01*
X113596884Y-102200500D01*
X113663923Y-102220185D01*
X113707368Y-102268203D01*
X113716657Y-102286433D01*
X113855483Y-102477510D01*
X114022490Y-102644517D01*
X114213567Y-102783343D01*
X114231794Y-102792630D01*
X114282590Y-102840603D01*
X114299500Y-102903115D01*
X114299500Y-103638995D01*
X114312117Y-103702421D01*
X114314500Y-103726614D01*
X114314500Y-105617948D01*
X114305855Y-105647388D01*
X114299332Y-105677375D01*
X114295577Y-105682390D01*
X114294815Y-105684987D01*
X114278181Y-105705629D01*
X114220629Y-105763181D01*
X114159306Y-105796666D01*
X114132948Y-105799500D01*
X111889552Y-105799500D01*
X111822513Y-105779815D01*
X111801871Y-105763181D01*
X111718351Y-105679661D01*
X111718350Y-105679660D01*
X111627129Y-105623395D01*
X111571518Y-105589093D01*
X111571513Y-105589091D01*
X111570069Y-105588612D01*
X111407753Y-105534826D01*
X111407751Y-105534825D01*
X111306678Y-105524500D01*
X110633330Y-105524500D01*
X110633312Y-105524501D01*
X110532247Y-105534825D01*
X110368484Y-105589092D01*
X110368481Y-105589093D01*
X110221648Y-105679661D01*
X110182681Y-105718629D01*
X110121358Y-105752114D01*
X110051666Y-105747130D01*
X110007319Y-105718629D01*
X109968351Y-105679661D01*
X109968350Y-105679660D01*
X109877129Y-105623395D01*
X109821518Y-105589093D01*
X109821513Y-105589091D01*
X109820069Y-105588612D01*
X109657753Y-105534826D01*
X109657751Y-105534825D01*
X109556678Y-105524500D01*
X108883330Y-105524500D01*
X108883312Y-105524501D01*
X108782247Y-105534825D01*
X108618484Y-105589092D01*
X108618481Y-105589093D01*
X108471648Y-105679661D01*
X108349661Y-105801648D01*
X108259093Y-105948481D01*
X108259091Y-105948486D01*
X108241198Y-106002483D01*
X108204826Y-106112247D01*
X108204826Y-106112248D01*
X108204825Y-106112248D01*
X108194500Y-106213315D01*
X108194500Y-106786669D01*
X108194501Y-106786687D01*
X108204825Y-106887752D01*
X108230979Y-106966677D01*
X108259092Y-107051516D01*
X108349660Y-107198350D01*
X108471650Y-107320340D01*
X108471656Y-107320343D01*
X108472405Y-107320936D01*
X108472790Y-107321480D01*
X108476757Y-107325447D01*
X108476079Y-107326124D01*
X108512785Y-107377956D01*
X108519500Y-107418207D01*
X108519500Y-110117948D01*
X108499815Y-110184987D01*
X108483181Y-110205629D01*
X108387161Y-110301648D01*
X108296593Y-110448481D01*
X108296591Y-110448486D01*
X108269219Y-110531088D01*
X108242326Y-110612247D01*
X108242326Y-110612248D01*
X108242325Y-110612248D01*
X108232000Y-110713315D01*
X108232000Y-111286669D01*
X108232001Y-111286687D01*
X108242325Y-111387752D01*
X108271402Y-111475498D01*
X108296592Y-111551516D01*
X108387160Y-111698350D01*
X108509150Y-111820340D01*
X108655984Y-111910908D01*
X108819747Y-111965174D01*
X108920823Y-111975500D01*
X109519176Y-111975499D01*
X109519184Y-111975498D01*
X109519187Y-111975498D01*
X109574530Y-111969844D01*
X109620253Y-111965174D01*
X109784016Y-111910908D01*
X109930850Y-111820340D01*
X110045175Y-111706014D01*
X110106494Y-111672532D01*
X110176186Y-111677516D01*
X110220534Y-111706017D01*
X110334461Y-111819944D01*
X110334465Y-111819947D01*
X110481188Y-111910448D01*
X110481199Y-111910453D01*
X110644847Y-111964680D01*
X110745851Y-111974999D01*
X111295000Y-111974999D01*
X111344140Y-111974999D01*
X111344154Y-111974998D01*
X111445152Y-111964680D01*
X111608800Y-111910453D01*
X111608811Y-111910448D01*
X111755534Y-111819947D01*
X111755538Y-111819944D01*
X111877444Y-111698038D01*
X111877447Y-111698034D01*
X111967948Y-111551311D01*
X111967953Y-111551300D01*
X112022180Y-111387652D01*
X112032499Y-111286654D01*
X112032500Y-111286641D01*
X112032500Y-111250000D01*
X111295000Y-111250000D01*
X111295000Y-111974999D01*
X110745851Y-111974999D01*
X110794999Y-111974998D01*
X110795000Y-111974998D01*
X110795000Y-110750000D01*
X111295000Y-110750000D01*
X112032499Y-110750000D01*
X112032499Y-110713360D01*
X112032498Y-110713345D01*
X112022180Y-110612347D01*
X111967953Y-110448699D01*
X111967948Y-110448688D01*
X111877447Y-110301965D01*
X111877444Y-110301961D01*
X111755538Y-110180055D01*
X111755534Y-110180052D01*
X111608811Y-110089551D01*
X111608800Y-110089546D01*
X111445152Y-110035319D01*
X111344154Y-110025000D01*
X111295000Y-110025000D01*
X111295000Y-110750000D01*
X110795000Y-110750000D01*
X110795000Y-110025000D01*
X110794999Y-110024999D01*
X110745861Y-110025000D01*
X110745843Y-110025001D01*
X110644847Y-110035319D01*
X110481199Y-110089546D01*
X110481188Y-110089551D01*
X110334465Y-110180052D01*
X110220534Y-110293983D01*
X110212587Y-110298322D01*
X110207163Y-110305568D01*
X110182405Y-110314802D01*
X110159211Y-110327467D01*
X110150181Y-110326821D01*
X110141699Y-110329985D01*
X110115878Y-110324368D01*
X110089519Y-110322483D01*
X110080465Y-110316664D01*
X110073426Y-110315133D01*
X110045172Y-110293982D01*
X109956819Y-110205629D01*
X109923334Y-110144306D01*
X109920500Y-110117948D01*
X109920500Y-107418207D01*
X109940185Y-107351168D01*
X109963380Y-107325584D01*
X109963243Y-107325447D01*
X109966052Y-107322638D01*
X109967595Y-107320936D01*
X109968339Y-107320346D01*
X109968350Y-107320340D01*
X110007319Y-107281371D01*
X110068642Y-107247886D01*
X110138334Y-107252870D01*
X110182681Y-107281371D01*
X110221650Y-107320340D01*
X110368484Y-107410908D01*
X110532247Y-107465174D01*
X110633323Y-107475500D01*
X110903480Y-107475499D01*
X110970519Y-107495183D01*
X110991161Y-107511818D01*
X112293181Y-108813838D01*
X112326666Y-108875161D01*
X112329500Y-108901519D01*
X112329500Y-116128480D01*
X112309815Y-116195519D01*
X112293181Y-116216161D01*
X106972127Y-121537214D01*
X106910804Y-121570699D01*
X106846130Y-121567465D01*
X106845434Y-121567238D01*
X106816243Y-121557754D01*
X106816239Y-121557753D01*
X106816238Y-121557753D01*
X106665162Y-121533825D01*
X106606287Y-121524500D01*
X106393713Y-121524500D01*
X106253897Y-121546644D01*
X106184604Y-121537689D01*
X106131152Y-121492693D01*
X106110513Y-121425941D01*
X106110500Y-121424171D01*
X106110500Y-100341004D01*
X106083581Y-100205677D01*
X106083580Y-100205676D01*
X106083580Y-100205672D01*
X106030775Y-100078189D01*
X105978197Y-99999500D01*
X105954114Y-99963457D01*
X105954112Y-99963455D01*
X105954110Y-99963452D01*
X103902838Y-97912181D01*
X103869353Y-97850858D01*
X103874337Y-97781166D01*
X103916209Y-97725233D01*
X103981673Y-97700816D01*
X103990519Y-97700500D01*
X107096884Y-97700500D01*
X107163923Y-97720185D01*
X107207368Y-97768203D01*
X107216657Y-97786433D01*
X107355483Y-97977510D01*
X107522490Y-98144517D01*
X107713567Y-98283343D01*
X107812991Y-98334002D01*
X107924003Y-98390566D01*
X107924005Y-98390566D01*
X107924008Y-98390568D01*
X108044412Y-98429689D01*
X108148631Y-98463553D01*
X108381903Y-98500500D01*
X108381908Y-98500500D01*
X108618097Y-98500500D01*
X108851368Y-98463553D01*
X108876971Y-98455234D01*
X109075992Y-98390568D01*
X109286433Y-98283343D01*
X109477510Y-98144517D01*
X109635208Y-97986819D01*
X109696531Y-97953334D01*
X109722889Y-97950500D01*
X113777111Y-97950500D01*
X113844150Y-97970185D01*
X113864792Y-97986819D01*
X114022490Y-98144517D01*
X114213567Y-98283343D01*
X114312991Y-98334002D01*
X114424003Y-98390566D01*
X114424005Y-98390566D01*
X114424008Y-98390568D01*
X114544412Y-98429689D01*
X114648631Y-98463553D01*
X114881903Y-98500500D01*
X114881908Y-98500500D01*
X115118097Y-98500500D01*
X115351368Y-98463553D01*
X115376971Y-98455234D01*
X115575992Y-98390568D01*
X115786433Y-98283343D01*
X115977510Y-98144517D01*
X116135208Y-97986819D01*
X116196531Y-97953334D01*
X116222889Y-97950500D01*
X119346884Y-97950500D01*
X119413923Y-97970185D01*
X119457368Y-98018203D01*
X119466657Y-98036433D01*
X119605483Y-98227510D01*
X119772490Y-98394517D01*
X119963567Y-98533343D01*
X120062991Y-98584002D01*
X120174003Y-98640566D01*
X120174005Y-98640566D01*
X120174008Y-98640568D01*
X120294412Y-98679689D01*
X120398631Y-98713553D01*
X120631903Y-98750500D01*
X120631908Y-98750500D01*
X120868097Y-98750500D01*
X121101368Y-98713553D01*
X121325992Y-98640568D01*
X121536433Y-98533343D01*
X121727510Y-98394517D01*
X121894517Y-98227510D01*
X122033343Y-98036433D01*
X122042632Y-98018203D01*
X122090608Y-97967408D01*
X122153116Y-97950500D01*
X125846884Y-97950500D01*
X125913923Y-97970185D01*
X125957368Y-98018203D01*
X125966657Y-98036433D01*
X126105483Y-98227510D01*
X126272490Y-98394517D01*
X126463567Y-98533343D01*
X126562991Y-98584002D01*
X126674003Y-98640566D01*
X126674005Y-98640566D01*
X126674008Y-98640568D01*
X126794412Y-98679689D01*
X126898631Y-98713553D01*
X127131903Y-98750500D01*
X127131908Y-98750500D01*
X127368097Y-98750500D01*
X127601368Y-98713553D01*
X127825992Y-98640568D01*
X128036433Y-98533343D01*
X128227510Y-98394517D01*
X128394517Y-98227510D01*
X128533343Y-98036433D01*
X128542632Y-98018203D01*
X128590608Y-97967408D01*
X128653116Y-97950500D01*
X130148996Y-97950500D01*
X130240040Y-97932389D01*
X130284328Y-97923580D01*
X130411811Y-97870775D01*
X130485711Y-97821396D01*
X130552389Y-97800520D01*
X130554601Y-97800500D01*
X133776884Y-97800500D01*
X133843923Y-97820185D01*
X133887368Y-97868203D01*
X133896657Y-97886433D01*
X134035483Y-98077510D01*
X134202490Y-98244517D01*
X134393567Y-98383343D01*
X134492494Y-98433749D01*
X134604003Y-98490566D01*
X134604005Y-98490566D01*
X134604008Y-98490568D01*
X134724412Y-98529689D01*
X134828631Y-98563553D01*
X135061903Y-98600500D01*
X135061908Y-98600500D01*
X135298097Y-98600500D01*
X135531368Y-98563553D01*
X135755992Y-98490568D01*
X135966433Y-98383343D01*
X136157510Y-98244517D01*
X136324517Y-98077510D01*
X136463343Y-97886433D01*
X136472632Y-97868203D01*
X136520608Y-97817408D01*
X136583116Y-97800500D01*
X140276884Y-97800500D01*
X140343923Y-97820185D01*
X140387368Y-97868203D01*
X140396657Y-97886433D01*
X140535483Y-98077510D01*
X140702490Y-98244517D01*
X140893567Y-98383343D01*
X140992494Y-98433749D01*
X141104003Y-98490566D01*
X141104005Y-98490566D01*
X141104008Y-98490568D01*
X141224412Y-98529689D01*
X141328631Y-98563553D01*
X141561903Y-98600500D01*
X141561908Y-98600500D01*
X141798097Y-98600500D01*
X142031368Y-98563553D01*
X142255992Y-98490568D01*
X142466433Y-98383343D01*
X142657510Y-98244517D01*
X142824517Y-98077510D01*
X142963343Y-97886433D01*
X143070568Y-97675992D01*
X143143553Y-97451368D01*
X143180500Y-97218097D01*
X143180500Y-96981902D01*
X143143553Y-96748631D01*
X143073357Y-96532592D01*
X143070568Y-96524008D01*
X143070566Y-96524005D01*
X143070566Y-96524003D01*
X142997098Y-96379815D01*
X142963343Y-96313567D01*
X142824517Y-96122490D01*
X142657510Y-95955483D01*
X142466433Y-95816657D01*
X142407141Y-95786446D01*
X142255996Y-95709433D01*
X142031368Y-95636446D01*
X141798097Y-95599500D01*
X141798092Y-95599500D01*
X141561908Y-95599500D01*
X141561903Y-95599500D01*
X141328631Y-95636446D01*
X141104003Y-95709433D01*
X140893566Y-95816657D01*
X140834692Y-95859432D01*
X140702490Y-95955483D01*
X140702488Y-95955485D01*
X140702487Y-95955485D01*
X140535485Y-96122487D01*
X140535485Y-96122488D01*
X140535483Y-96122490D01*
X140475862Y-96204550D01*
X140396657Y-96313566D01*
X140387368Y-96331797D01*
X140339392Y-96382592D01*
X140276884Y-96399500D01*
X136583116Y-96399500D01*
X136516077Y-96379815D01*
X136472632Y-96331797D01*
X136463342Y-96313566D01*
X136324517Y-96122490D01*
X136157510Y-95955483D01*
X135966433Y-95816657D01*
X135907141Y-95786446D01*
X135755996Y-95709433D01*
X135531368Y-95636446D01*
X135298097Y-95599500D01*
X135298092Y-95599500D01*
X135061908Y-95599500D01*
X135061903Y-95599500D01*
X134828631Y-95636446D01*
X134604003Y-95709433D01*
X134393566Y-95816657D01*
X134334692Y-95859432D01*
X134202490Y-95955483D01*
X134202488Y-95955485D01*
X134202487Y-95955485D01*
X134035485Y-96122487D01*
X134035485Y-96122488D01*
X134035483Y-96122490D01*
X133975862Y-96204550D01*
X133896657Y-96313566D01*
X133887368Y-96331797D01*
X133839392Y-96382592D01*
X133776884Y-96399500D01*
X130161004Y-96399500D01*
X130025677Y-96426418D01*
X130025667Y-96426421D01*
X129898192Y-96479223D01*
X129824289Y-96528603D01*
X129757611Y-96549480D01*
X129755399Y-96549500D01*
X128653116Y-96549500D01*
X128586077Y-96529815D01*
X128542632Y-96481797D01*
X128533342Y-96463566D01*
X128394517Y-96272490D01*
X128227510Y-96105483D01*
X128036433Y-95966657D01*
X128014503Y-95955483D01*
X127825996Y-95859433D01*
X127601368Y-95786446D01*
X127368097Y-95749500D01*
X127368092Y-95749500D01*
X127131908Y-95749500D01*
X127131903Y-95749500D01*
X126898631Y-95786446D01*
X126674003Y-95859433D01*
X126463566Y-95966657D01*
X126354550Y-96045862D01*
X126272490Y-96105483D01*
X126272488Y-96105485D01*
X126272487Y-96105485D01*
X126105485Y-96272487D01*
X126105485Y-96272488D01*
X126105483Y-96272490D01*
X126075639Y-96313567D01*
X125966657Y-96463566D01*
X125957368Y-96481797D01*
X125909392Y-96532592D01*
X125846884Y-96549500D01*
X122153116Y-96549500D01*
X122086077Y-96529815D01*
X122042632Y-96481797D01*
X122033342Y-96463566D01*
X121894517Y-96272490D01*
X121727510Y-96105483D01*
X121536433Y-95966657D01*
X121514503Y-95955483D01*
X121325996Y-95859433D01*
X121101368Y-95786446D01*
X120868097Y-95749500D01*
X120868092Y-95749500D01*
X120631908Y-95749500D01*
X120631903Y-95749500D01*
X120398631Y-95786446D01*
X120174003Y-95859433D01*
X119963566Y-95966657D01*
X119854550Y-96045862D01*
X119772490Y-96105483D01*
X119772488Y-96105485D01*
X119772487Y-96105485D01*
X119605485Y-96272487D01*
X119605485Y-96272488D01*
X119605483Y-96272490D01*
X119575639Y-96313567D01*
X119466657Y-96463566D01*
X119457368Y-96481797D01*
X119409392Y-96532592D01*
X119346884Y-96549500D01*
X116521434Y-96549500D01*
X116454395Y-96529815D01*
X116408640Y-96477011D01*
X116403503Y-96463819D01*
X116403421Y-96463567D01*
X116390568Y-96424008D01*
X116390566Y-96424005D01*
X116390566Y-96424003D01*
X116313364Y-96272487D01*
X116283343Y-96213567D01*
X116144517Y-96022490D01*
X115977510Y-95855483D01*
X115786433Y-95716657D01*
X115772253Y-95709432D01*
X115575996Y-95609433D01*
X115351368Y-95536446D01*
X115118097Y-95499500D01*
X115118092Y-95499500D01*
X114881908Y-95499500D01*
X114881903Y-95499500D01*
X114648631Y-95536446D01*
X114424003Y-95609433D01*
X114213566Y-95716657D01*
X114104550Y-95795862D01*
X114022490Y-95855483D01*
X114022488Y-95855485D01*
X114022487Y-95855485D01*
X113855485Y-96022487D01*
X113855485Y-96022488D01*
X113855483Y-96022490D01*
X113795862Y-96104550D01*
X113716657Y-96213566D01*
X113609433Y-96424003D01*
X113601802Y-96447488D01*
X113596579Y-96463567D01*
X113596497Y-96463819D01*
X113557059Y-96521494D01*
X113492700Y-96548692D01*
X113478566Y-96549500D01*
X110021434Y-96549500D01*
X109954395Y-96529815D01*
X109908640Y-96477011D01*
X109903503Y-96463819D01*
X109903421Y-96463567D01*
X109890568Y-96424008D01*
X109890566Y-96424005D01*
X109890566Y-96424003D01*
X109813364Y-96272487D01*
X109783343Y-96213567D01*
X109644517Y-96022490D01*
X109477510Y-95855483D01*
X109286433Y-95716657D01*
X109272253Y-95709432D01*
X109075996Y-95609433D01*
X108851368Y-95536446D01*
X108618097Y-95499500D01*
X108618092Y-95499500D01*
X108381908Y-95499500D01*
X108381903Y-95499500D01*
X108148631Y-95536446D01*
X107924003Y-95609433D01*
X107713566Y-95716657D01*
X107604550Y-95795862D01*
X107522490Y-95855483D01*
X107522488Y-95855485D01*
X107522487Y-95855485D01*
X107355485Y-96022487D01*
X107355485Y-96022488D01*
X107355483Y-96022490D01*
X107295862Y-96104550D01*
X107216657Y-96213566D01*
X107207368Y-96231797D01*
X107159392Y-96282592D01*
X107096884Y-96299500D01*
X103403116Y-96299500D01*
X103336077Y-96279815D01*
X103292632Y-96231797D01*
X103283342Y-96213566D01*
X103217171Y-96122490D01*
X103144517Y-96022490D01*
X102977510Y-95855483D01*
X102786433Y-95716657D01*
X102772253Y-95709432D01*
X102575996Y-95609433D01*
X102351368Y-95536446D01*
X102118097Y-95499500D01*
X102118092Y-95499500D01*
X101881908Y-95499500D01*
X101881903Y-95499500D01*
X101648631Y-95536446D01*
X101424003Y-95609433D01*
X101213566Y-95716657D01*
X101104550Y-95795862D01*
X101022490Y-95855483D01*
X101022488Y-95855485D01*
X101022487Y-95855485D01*
X100855485Y-96022487D01*
X100855485Y-96022488D01*
X100855483Y-96022490D01*
X100795862Y-96104550D01*
X100716657Y-96213566D01*
X100707368Y-96231797D01*
X100659392Y-96282592D01*
X100596884Y-96299500D01*
X96903116Y-96299500D01*
X96836077Y-96279815D01*
X96792632Y-96231797D01*
X96783342Y-96213566D01*
X96717171Y-96122490D01*
X96644517Y-96022490D01*
X96477510Y-95855483D01*
X96286433Y-95716657D01*
X96272253Y-95709432D01*
X96075996Y-95609433D01*
X95851368Y-95536446D01*
X95618097Y-95499500D01*
X95618092Y-95499500D01*
X95381908Y-95499500D01*
X95381903Y-95499500D01*
X95148631Y-95536446D01*
X94924003Y-95609433D01*
X94713566Y-95716657D01*
X94604550Y-95795862D01*
X94522490Y-95855483D01*
X94522488Y-95855485D01*
X94522487Y-95855485D01*
X94355485Y-96022487D01*
X94355485Y-96022488D01*
X94355483Y-96022490D01*
X94295862Y-96104550D01*
X94216657Y-96213566D01*
X94109433Y-96424003D01*
X94036446Y-96648631D01*
X93999500Y-96881902D01*
X93999500Y-97118097D01*
X94036446Y-97351368D01*
X94109433Y-97575996D01*
X94172872Y-97700500D01*
X94216657Y-97786433D01*
X94355483Y-97977510D01*
X94522490Y-98144517D01*
X94713567Y-98283343D01*
X94812991Y-98334002D01*
X94924003Y-98390566D01*
X94924005Y-98390566D01*
X94924008Y-98390568D01*
X95044412Y-98429689D01*
X95148631Y-98463553D01*
X95381903Y-98500500D01*
X95381908Y-98500500D01*
X95618097Y-98500500D01*
X95851368Y-98463553D01*
X95876971Y-98455234D01*
X96075992Y-98390568D01*
X96286433Y-98283343D01*
X96477510Y-98144517D01*
X96644517Y-97977510D01*
X96783343Y-97786433D01*
X96792632Y-97768203D01*
X96840608Y-97717408D01*
X96903116Y-97700500D01*
X100596884Y-97700500D01*
X100663923Y-97720185D01*
X100707368Y-97768203D01*
X100716657Y-97786433D01*
X100855483Y-97977510D01*
X101022490Y-98144517D01*
X101213567Y-98283343D01*
X101312991Y-98334002D01*
X101424003Y-98390566D01*
X101424005Y-98390566D01*
X101424008Y-98390568D01*
X101544412Y-98429689D01*
X101648631Y-98463553D01*
X101881903Y-98500500D01*
X101881908Y-98500500D01*
X102118097Y-98500500D01*
X102292533Y-98472871D01*
X102351368Y-98463553D01*
X102370824Y-98457230D01*
X102440661Y-98455234D01*
X102496823Y-98487480D01*
X104673181Y-100663838D01*
X104706666Y-100725161D01*
X104709500Y-100751519D01*
X104709500Y-106045015D01*
X104689815Y-106112054D01*
X104637011Y-106157809D01*
X104567853Y-106167753D01*
X104504297Y-106138728D01*
X104467794Y-106084019D01*
X104422953Y-105948699D01*
X104422948Y-105948688D01*
X104332447Y-105801965D01*
X104332444Y-105801961D01*
X104210538Y-105680055D01*
X104210534Y-105680052D01*
X104063811Y-105589551D01*
X104063800Y-105589546D01*
X103900152Y-105535319D01*
X103799154Y-105525000D01*
X103750000Y-105525000D01*
X103750000Y-107474999D01*
X103799140Y-107474999D01*
X103799154Y-107474998D01*
X103900152Y-107464680D01*
X104063800Y-107410453D01*
X104063811Y-107410448D01*
X104210534Y-107319947D01*
X104210538Y-107319944D01*
X104332444Y-107198038D01*
X104332447Y-107198034D01*
X104422948Y-107051311D01*
X104422953Y-107051300D01*
X104467794Y-106915980D01*
X104507566Y-106858535D01*
X104572082Y-106831712D01*
X104640858Y-106844027D01*
X104692058Y-106891570D01*
X104709500Y-106954984D01*
X104709500Y-121248480D01*
X104689815Y-121315519D01*
X104673181Y-121336161D01*
X104472127Y-121537214D01*
X104410804Y-121570699D01*
X104346130Y-121567465D01*
X104345434Y-121567238D01*
X104316243Y-121557754D01*
X104316239Y-121557753D01*
X104316238Y-121557753D01*
X104165162Y-121533825D01*
X104106287Y-121524500D01*
X103893713Y-121524500D01*
X103870182Y-121528227D01*
X103683760Y-121557753D01*
X103481585Y-121623444D01*
X103292179Y-121719951D01*
X103120215Y-121844889D01*
X102981398Y-121983706D01*
X102920075Y-122017190D01*
X102850383Y-122012206D01*
X102794450Y-121970334D01*
X102788178Y-121961120D01*
X102692712Y-121806344D01*
X102568657Y-121682289D01*
X102568656Y-121682288D01*
X102433376Y-121598847D01*
X102419336Y-121590187D01*
X102419335Y-121590186D01*
X102419334Y-121590186D01*
X102285495Y-121545836D01*
X102228051Y-121506063D01*
X102201228Y-121441547D01*
X102200500Y-121428130D01*
X102200500Y-111731519D01*
X102220185Y-111664480D01*
X102236819Y-111643838D01*
X102544112Y-111336545D01*
X102544114Y-111336543D01*
X102620775Y-111221811D01*
X102626295Y-111208486D01*
X102673578Y-111094332D01*
X102673580Y-111094328D01*
X102682389Y-111050040D01*
X102700500Y-110958996D01*
X102700500Y-107487248D01*
X102720185Y-107420209D01*
X102772989Y-107374454D01*
X102842147Y-107364510D01*
X102889597Y-107381710D01*
X102936188Y-107410448D01*
X102936199Y-107410453D01*
X103099847Y-107464680D01*
X103200851Y-107474999D01*
X103249999Y-107474998D01*
X103250000Y-107474998D01*
X103250000Y-105525000D01*
X103249999Y-105524999D01*
X103200861Y-105525000D01*
X103200843Y-105525001D01*
X103099847Y-105535319D01*
X102936199Y-105589546D01*
X102936190Y-105589551D01*
X102889596Y-105618290D01*
X102822203Y-105636730D01*
X102755540Y-105615807D01*
X102710771Y-105562165D01*
X102700500Y-105512751D01*
X102700500Y-102903115D01*
X102720185Y-102836076D01*
X102768205Y-102792630D01*
X102786433Y-102783343D01*
X102977510Y-102644517D01*
X103144517Y-102477510D01*
X103283343Y-102286433D01*
X103390568Y-102075992D01*
X103463553Y-101851368D01*
X103484662Y-101718092D01*
X103500500Y-101618097D01*
X103500500Y-101381902D01*
X103463553Y-101148631D01*
X103409345Y-100981797D01*
X103390568Y-100924008D01*
X103390566Y-100924005D01*
X103390566Y-100924003D01*
X103313364Y-100772487D01*
X103283343Y-100713567D01*
X103144517Y-100522490D01*
X102977510Y-100355483D01*
X102786433Y-100216657D01*
X102764864Y-100205667D01*
X102575996Y-100109433D01*
X102351368Y-100036446D01*
X102118097Y-99999500D01*
X102118092Y-99999500D01*
X101881908Y-99999500D01*
X101881903Y-99999500D01*
X101648631Y-100036446D01*
X101424003Y-100109433D01*
X101213566Y-100216657D01*
X101104550Y-100295862D01*
X101022490Y-100355483D01*
X101022488Y-100355485D01*
X101022487Y-100355485D01*
X100855485Y-100522487D01*
X100855485Y-100522488D01*
X100855483Y-100522490D01*
X100795862Y-100604550D01*
X100716657Y-100713566D01*
X100707368Y-100731797D01*
X100659392Y-100782592D01*
X100596884Y-100799500D01*
X96903116Y-100799500D01*
X96836077Y-100779815D01*
X96792632Y-100731797D01*
X96783342Y-100713566D01*
X96773600Y-100700157D01*
X96644517Y-100522490D01*
X96477510Y-100355483D01*
X96286433Y-100216657D01*
X96264864Y-100205667D01*
X96075996Y-100109433D01*
X95851368Y-100036446D01*
X95618097Y-99999500D01*
X95618092Y-99999500D01*
X95381908Y-99999500D01*
X95381903Y-99999500D01*
X95148631Y-100036446D01*
X94924003Y-100109433D01*
X94713566Y-100216657D01*
X94604550Y-100295862D01*
X94522490Y-100355483D01*
X94522488Y-100355485D01*
X94522487Y-100355485D01*
X94355485Y-100522487D01*
X94355485Y-100522488D01*
X94355483Y-100522490D01*
X94295862Y-100604550D01*
X94216657Y-100713566D01*
X94109433Y-100924003D01*
X94036446Y-101148631D01*
X93999500Y-101381902D01*
X93999500Y-101618097D01*
X94036446Y-101851368D01*
X94109433Y-102075996D01*
X94172872Y-102200500D01*
X94216657Y-102286433D01*
X94355483Y-102477510D01*
X94522490Y-102644517D01*
X94713567Y-102783343D01*
X94799500Y-102827128D01*
X94924003Y-102890566D01*
X94924005Y-102890566D01*
X94924008Y-102890568D01*
X94962624Y-102903115D01*
X95148631Y-102963553D01*
X95381903Y-103000500D01*
X95381908Y-103000500D01*
X95618097Y-103000500D01*
X95851368Y-102963553D01*
X96075992Y-102890568D01*
X96286433Y-102783343D01*
X96477510Y-102644517D01*
X96644517Y-102477510D01*
X96783343Y-102286433D01*
X96792632Y-102268203D01*
X96840608Y-102217408D01*
X96903116Y-102200500D01*
X100596884Y-102200500D01*
X100663923Y-102220185D01*
X100707368Y-102268203D01*
X100716657Y-102286433D01*
X100855483Y-102477510D01*
X101022490Y-102644517D01*
X101213567Y-102783343D01*
X101231794Y-102792630D01*
X101282590Y-102840603D01*
X101299500Y-102903115D01*
X101299500Y-105437083D01*
X101279815Y-105504122D01*
X101227011Y-105549877D01*
X101214509Y-105554786D01*
X101192244Y-105562165D01*
X101110986Y-105589091D01*
X101110981Y-105589093D01*
X100964148Y-105679661D01*
X100880629Y-105763181D01*
X100819306Y-105796666D01*
X100792948Y-105799500D01*
X100169552Y-105799500D01*
X100102513Y-105779815D01*
X100081871Y-105763181D01*
X99998351Y-105679661D01*
X99998350Y-105679660D01*
X99907129Y-105623395D01*
X99851518Y-105589093D01*
X99851513Y-105589091D01*
X99850069Y-105588612D01*
X99687753Y-105534826D01*
X99687751Y-105534825D01*
X99586678Y-105524500D01*
X98913330Y-105524500D01*
X98913312Y-105524501D01*
X98812247Y-105534825D01*
X98648484Y-105589092D01*
X98648481Y-105589093D01*
X98501648Y-105679661D01*
X98462681Y-105718629D01*
X98401358Y-105752114D01*
X98331666Y-105747130D01*
X98287319Y-105718629D01*
X98248351Y-105679661D01*
X98248350Y-105679660D01*
X98157129Y-105623395D01*
X98101518Y-105589093D01*
X98101513Y-105589091D01*
X98100069Y-105588612D01*
X97937753Y-105534826D01*
X97937751Y-105534825D01*
X97836678Y-105524500D01*
X97163330Y-105524500D01*
X97163312Y-105524501D01*
X97062247Y-105534825D01*
X96898484Y-105589092D01*
X96898481Y-105589093D01*
X96751648Y-105679661D01*
X96629661Y-105801648D01*
X96539093Y-105948481D01*
X96539091Y-105948486D01*
X96521198Y-106002483D01*
X96484826Y-106112247D01*
X96484826Y-106112248D01*
X96484825Y-106112248D01*
X96474500Y-106213315D01*
X96474500Y-106786669D01*
X96474501Y-106786687D01*
X96484825Y-106887752D01*
X96510979Y-106966677D01*
X96539092Y-107051516D01*
X96629660Y-107198350D01*
X96751650Y-107320340D01*
X96751656Y-107320343D01*
X96752405Y-107320936D01*
X96752790Y-107321480D01*
X96756757Y-107325447D01*
X96756079Y-107326124D01*
X96792785Y-107377956D01*
X96799500Y-107418207D01*
X96799500Y-109667948D01*
X96779815Y-109734987D01*
X96763181Y-109755629D01*
X96717161Y-109801648D01*
X96626593Y-109948481D01*
X96626591Y-109948486D01*
X96601237Y-110024999D01*
X96572326Y-110112247D01*
X96572326Y-110112248D01*
X96572325Y-110112248D01*
X96562000Y-110213315D01*
X96562000Y-110786669D01*
X96562001Y-110786687D01*
X96572325Y-110887752D01*
X96598132Y-110965629D01*
X96626520Y-111051300D01*
X96626592Y-111051515D01*
X96626593Y-111051518D01*
X96633037Y-111061965D01*
X96717160Y-111198350D01*
X96839150Y-111320340D01*
X96985984Y-111410908D01*
X97149747Y-111465174D01*
X97250823Y-111475500D01*
X97849176Y-111475499D01*
X97849184Y-111475498D01*
X97849187Y-111475498D01*
X97904530Y-111469844D01*
X97950253Y-111465174D01*
X98114016Y-111410908D01*
X98260850Y-111320340D01*
X98375175Y-111206014D01*
X98436494Y-111172532D01*
X98506186Y-111177516D01*
X98550534Y-111206017D01*
X98664461Y-111319944D01*
X98664465Y-111319947D01*
X98811188Y-111410448D01*
X98811199Y-111410453D01*
X98974847Y-111464680D01*
X99075851Y-111474999D01*
X99625000Y-111474999D01*
X99674140Y-111474999D01*
X99674154Y-111474998D01*
X99775152Y-111464680D01*
X99938800Y-111410453D01*
X99938811Y-111410448D01*
X100085534Y-111319947D01*
X100085538Y-111319944D01*
X100207444Y-111198038D01*
X100207447Y-111198034D01*
X100297948Y-111051311D01*
X100297953Y-111051300D01*
X100352180Y-110887652D01*
X100362499Y-110786654D01*
X100362500Y-110786641D01*
X100362500Y-110750000D01*
X99625000Y-110750000D01*
X99625000Y-111474999D01*
X99075851Y-111474999D01*
X99124999Y-111474998D01*
X99125000Y-111474998D01*
X99125000Y-110250000D01*
X99625000Y-110250000D01*
X100362499Y-110250000D01*
X100362499Y-110213360D01*
X100362498Y-110213345D01*
X100352180Y-110112347D01*
X100297953Y-109948699D01*
X100297948Y-109948688D01*
X100207447Y-109801965D01*
X100207444Y-109801961D01*
X100085538Y-109680055D01*
X100085534Y-109680052D01*
X99938811Y-109589551D01*
X99938800Y-109589546D01*
X99775152Y-109535319D01*
X99674154Y-109525000D01*
X99625000Y-109525000D01*
X99625000Y-110250000D01*
X99125000Y-110250000D01*
X99125000Y-109525000D01*
X99124999Y-109524999D01*
X99075861Y-109525000D01*
X99075843Y-109525001D01*
X98974847Y-109535319D01*
X98811199Y-109589546D01*
X98811188Y-109589551D01*
X98664465Y-109680052D01*
X98550534Y-109793983D01*
X98543653Y-109797739D01*
X98539080Y-109804104D01*
X98513424Y-109814246D01*
X98489211Y-109827467D01*
X98481393Y-109826907D01*
X98474103Y-109829790D01*
X98447036Y-109824450D01*
X98419519Y-109822483D01*
X98411504Y-109817441D01*
X98405554Y-109816268D01*
X98380963Y-109798230D01*
X98376894Y-109795671D01*
X98376029Y-109794839D01*
X98260850Y-109679660D01*
X98248109Y-109671801D01*
X98238541Y-109662598D01*
X98227522Y-109643321D01*
X98212677Y-109626815D01*
X98209106Y-109611100D01*
X98203869Y-109601938D01*
X98204456Y-109590639D01*
X98200500Y-109573228D01*
X98200500Y-107418207D01*
X98220185Y-107351168D01*
X98243380Y-107325584D01*
X98243243Y-107325447D01*
X98246052Y-107322638D01*
X98247595Y-107320936D01*
X98248339Y-107320346D01*
X98248350Y-107320340D01*
X98287319Y-107281371D01*
X98348642Y-107247886D01*
X98418334Y-107252870D01*
X98462681Y-107281371D01*
X98501650Y-107320340D01*
X98648484Y-107410908D01*
X98812247Y-107465174D01*
X98913323Y-107475500D01*
X99586676Y-107475499D01*
X99586684Y-107475498D01*
X99586687Y-107475498D01*
X99663005Y-107467702D01*
X99687753Y-107465174D01*
X99851516Y-107410908D01*
X99998350Y-107320340D01*
X100081871Y-107236819D01*
X100143194Y-107203334D01*
X100169552Y-107200500D01*
X100792948Y-107200500D01*
X100859987Y-107220185D01*
X100880629Y-107236819D01*
X100964150Y-107320340D01*
X101110984Y-107410908D01*
X101214504Y-107445211D01*
X101271949Y-107484984D01*
X101298772Y-107549500D01*
X101299500Y-107562917D01*
X101299500Y-110548480D01*
X101279815Y-110615519D01*
X101263181Y-110636161D01*
X100955888Y-110943453D01*
X100955887Y-110943454D01*
X100879222Y-111058192D01*
X100826421Y-111185667D01*
X100826418Y-111185679D01*
X100799644Y-111320283D01*
X100799633Y-111320340D01*
X100799500Y-111321006D01*
X100799500Y-121428130D01*
X100779815Y-121495169D01*
X100727011Y-121540924D01*
X100714505Y-121545836D01*
X100580666Y-121590186D01*
X100580663Y-121590187D01*
X100431342Y-121682289D01*
X100307289Y-121806342D01*
X100215187Y-121955663D01*
X100215185Y-121955668D01*
X100210325Y-121970334D01*
X100160001Y-122122203D01*
X100160001Y-122122204D01*
X100160000Y-122122204D01*
X100149500Y-122224983D01*
X100149500Y-123775001D01*
X100149501Y-123775018D01*
X100160000Y-123877796D01*
X100160001Y-123877799D01*
X100215185Y-124044331D01*
X100215187Y-124044336D01*
X100231815Y-124071294D01*
X100307288Y-124193656D01*
X100431344Y-124317712D01*
X100580666Y-124409814D01*
X100747203Y-124464999D01*
X100849991Y-124475500D01*
X101234481Y-124475499D01*
X101301519Y-124495183D01*
X101347274Y-124547987D01*
X101357218Y-124617146D01*
X101328193Y-124680701D01*
X101322161Y-124687180D01*
X96371162Y-129638181D01*
X96309839Y-129671666D01*
X96283481Y-129674500D01*
X95918208Y-129674500D01*
X95887999Y-129665629D01*
X95857319Y-129658521D01*
X95853935Y-129655627D01*
X95851169Y-129654815D01*
X95829352Y-129636991D01*
X95822162Y-129629605D01*
X95820340Y-129626650D01*
X95780744Y-129587054D01*
X95780196Y-129586491D01*
X95764220Y-129556271D01*
X95747886Y-129526358D01*
X95747947Y-129525491D01*
X95747541Y-129524722D01*
X95750436Y-129490697D01*
X95752870Y-129456666D01*
X95753402Y-129455837D01*
X95753465Y-129455104D01*
X95755940Y-129451888D01*
X95781371Y-129412319D01*
X95820340Y-129373350D01*
X95910908Y-129226516D01*
X95965174Y-129062753D01*
X95975500Y-128961677D01*
X95975499Y-128288324D01*
X95965174Y-128187247D01*
X95910908Y-128023484D01*
X95820340Y-127876650D01*
X95698350Y-127754660D01*
X95698349Y-127754659D01*
X95664108Y-127733539D01*
X95655897Y-127725539D01*
X95648713Y-127722324D01*
X95634615Y-127704805D01*
X95625399Y-127695826D01*
X95621408Y-127689718D01*
X95620775Y-127688189D01*
X95604674Y-127664092D01*
X95544114Y-127573457D01*
X95544112Y-127573454D01*
X93446819Y-125476161D01*
X93413334Y-125414838D01*
X93410500Y-125388480D01*
X93410500Y-125035758D01*
X93430185Y-124968719D01*
X93482989Y-124922964D01*
X93552147Y-124913020D01*
X93615703Y-124942045D01*
X93640039Y-124970661D01*
X93680056Y-125035539D01*
X93801961Y-125157444D01*
X93801965Y-125157447D01*
X93948688Y-125247948D01*
X93948699Y-125247953D01*
X94112347Y-125302180D01*
X94213352Y-125312499D01*
X94250000Y-125312499D01*
X94750000Y-125312499D01*
X94786640Y-125312499D01*
X94786654Y-125312498D01*
X94887652Y-125302180D01*
X95051300Y-125247953D01*
X95051311Y-125247948D01*
X95198034Y-125157447D01*
X95198038Y-125157444D01*
X95319944Y-125035538D01*
X95319947Y-125035534D01*
X95410448Y-124888811D01*
X95410453Y-124888800D01*
X95464680Y-124725152D01*
X95474999Y-124624154D01*
X95475000Y-124624141D01*
X95475000Y-124575000D01*
X94750000Y-124575000D01*
X94750000Y-125312499D01*
X94250000Y-125312499D01*
X94250000Y-124449000D01*
X94269685Y-124381961D01*
X94322489Y-124336206D01*
X94374000Y-124325000D01*
X94500000Y-124325000D01*
X94500000Y-124199000D01*
X94519685Y-124131961D01*
X94572489Y-124086206D01*
X94624000Y-124075000D01*
X95474999Y-124075000D01*
X95474999Y-124025860D01*
X95474998Y-124025845D01*
X95464680Y-123924847D01*
X95410453Y-123761199D01*
X95410448Y-123761188D01*
X95319947Y-123614465D01*
X95319944Y-123614461D01*
X95206017Y-123500534D01*
X95172532Y-123439211D01*
X95177516Y-123369519D01*
X95206013Y-123325176D01*
X95320340Y-123210850D01*
X95410908Y-123064016D01*
X95465174Y-122900253D01*
X95475500Y-122799177D01*
X95475499Y-122200824D01*
X95472989Y-122176257D01*
X95465174Y-122099747D01*
X95448868Y-122050540D01*
X95410908Y-121935984D01*
X95320340Y-121789150D01*
X95198350Y-121667160D01*
X95073557Y-121590187D01*
X95051518Y-121576593D01*
X95051513Y-121576591D01*
X95033732Y-121570699D01*
X94887753Y-121522326D01*
X94887751Y-121522325D01*
X94786678Y-121512000D01*
X94213330Y-121512000D01*
X94213312Y-121512001D01*
X94112247Y-121522325D01*
X93948484Y-121576592D01*
X93948481Y-121576593D01*
X93801648Y-121667161D01*
X93679661Y-121789148D01*
X93589093Y-121935981D01*
X93589091Y-121935986D01*
X93577709Y-121970334D01*
X93534826Y-122099747D01*
X93534826Y-122099748D01*
X93534825Y-122099748D01*
X93524500Y-122200815D01*
X93524500Y-122433480D01*
X93504815Y-122500519D01*
X93488181Y-122521161D01*
X92165888Y-123843453D01*
X92165885Y-123843457D01*
X92106190Y-123932798D01*
X92089230Y-123958180D01*
X92089223Y-123958192D01*
X92036420Y-124085671D01*
X92036418Y-124085677D01*
X92009500Y-124221004D01*
X92009500Y-124221007D01*
X92009500Y-125661006D01*
X92009500Y-125798994D01*
X92009500Y-125798996D01*
X92009499Y-125798996D01*
X83500500Y-125798996D01*
X83500500Y-93878711D01*
X85149500Y-93878711D01*
X85149500Y-94121288D01*
X85181161Y-94361785D01*
X85243947Y-94596104D01*
X85336773Y-94820205D01*
X85336776Y-94820212D01*
X85458064Y-95030289D01*
X85458066Y-95030292D01*
X85458067Y-95030293D01*
X85605733Y-95222736D01*
X85605739Y-95222743D01*
X85777256Y-95394260D01*
X85777262Y-95394265D01*
X85969711Y-95541936D01*
X86179788Y-95663224D01*
X86403900Y-95756054D01*
X86638211Y-95818838D01*
X86818586Y-95842584D01*
X86878711Y-95850500D01*
X86878712Y-95850500D01*
X87121289Y-95850500D01*
X87169388Y-95844167D01*
X87361789Y-95818838D01*
X87596100Y-95756054D01*
X87820212Y-95663224D01*
X88030289Y-95541936D01*
X88222738Y-95394265D01*
X88394265Y-95222738D01*
X88541936Y-95030289D01*
X88663224Y-94820212D01*
X88756054Y-94596100D01*
X88818838Y-94361789D01*
X88850500Y-94121288D01*
X88850500Y-93878712D01*
X88850500Y-93878711D01*
X152149500Y-93878711D01*
X152149500Y-94121288D01*
X152181161Y-94361785D01*
X152243947Y-94596104D01*
X152336773Y-94820205D01*
X152336776Y-94820212D01*
X152458064Y-95030289D01*
X152458066Y-95030292D01*
X152458067Y-95030293D01*
X152605733Y-95222736D01*
X152605739Y-95222743D01*
X152777256Y-95394260D01*
X152777262Y-95394265D01*
X152969711Y-95541936D01*
X153179788Y-95663224D01*
X153403900Y-95756054D01*
X153638211Y-95818838D01*
X153818586Y-95842584D01*
X153878711Y-95850500D01*
X153878712Y-95850500D01*
X154121289Y-95850500D01*
X154169388Y-95844167D01*
X154361789Y-95818838D01*
X154596100Y-95756054D01*
X154820212Y-95663224D01*
X155030289Y-95541936D01*
X155222738Y-95394265D01*
X155394265Y-95222738D01*
X155541936Y-95030289D01*
X155663224Y-94820212D01*
X155756054Y-94596100D01*
X155818838Y-94361789D01*
X155850500Y-94121288D01*
X155850500Y-93878712D01*
X155818838Y-93638211D01*
X155756054Y-93403900D01*
X155663224Y-93179788D01*
X155541936Y-92969711D01*
X155394265Y-92777262D01*
X155394260Y-92777256D01*
X155222743Y-92605739D01*
X155222736Y-92605733D01*
X155030293Y-92458067D01*
X155030292Y-92458066D01*
X155030289Y-92458064D01*
X154820212Y-92336776D01*
X154820205Y-92336773D01*
X154596104Y-92243947D01*
X154361785Y-92181161D01*
X154121289Y-92149500D01*
X154121288Y-92149500D01*
X153878712Y-92149500D01*
X153878711Y-92149500D01*
X153638214Y-92181161D01*
X153403895Y-92243947D01*
X153179794Y-92336773D01*
X153179785Y-92336777D01*
X152969706Y-92458067D01*
X152777263Y-92605733D01*
X152777256Y-92605739D01*
X152605739Y-92777256D01*
X152605733Y-92777263D01*
X152458067Y-92969706D01*
X152336777Y-93179785D01*
X152336773Y-93179794D01*
X152243947Y-93403895D01*
X152181161Y-93638214D01*
X152149500Y-93878711D01*
X88850500Y-93878711D01*
X88818838Y-93638211D01*
X88756054Y-93403900D01*
X88663224Y-93179788D01*
X88541936Y-92969711D01*
X88394265Y-92777262D01*
X88394260Y-92777256D01*
X88222743Y-92605739D01*
X88222736Y-92605733D01*
X88030293Y-92458067D01*
X88030292Y-92458066D01*
X88030289Y-92458064D01*
X87820212Y-92336776D01*
X87820205Y-92336773D01*
X87596104Y-92243947D01*
X87361785Y-92181161D01*
X87121289Y-92149500D01*
X87121288Y-92149500D01*
X86878712Y-92149500D01*
X86878711Y-92149500D01*
X86638214Y-92181161D01*
X86403895Y-92243947D01*
X86179794Y-92336773D01*
X86179785Y-92336777D01*
X85969706Y-92458067D01*
X85777263Y-92605733D01*
X85777256Y-92605739D01*
X85605739Y-92777256D01*
X85605733Y-92777263D01*
X85458067Y-92969706D01*
X85336777Y-93179785D01*
X85336773Y-93179794D01*
X85243947Y-93403895D01*
X85181161Y-93638214D01*
X85149500Y-93878711D01*
X83500500Y-93878711D01*
X83500500Y-93003750D01*
X83500726Y-92996263D01*
X83518271Y-92706205D01*
X83520076Y-92691340D01*
X83571780Y-92409202D01*
X83575364Y-92394664D01*
X83660699Y-92120812D01*
X83665997Y-92106842D01*
X83783727Y-91845258D01*
X83790680Y-91832012D01*
X83830959Y-91765381D01*
X83939075Y-91586534D01*
X83947567Y-91574230D01*
X84124481Y-91348417D01*
X84134396Y-91337226D01*
X84337226Y-91134396D01*
X84348417Y-91124481D01*
X84574230Y-90947567D01*
X84586534Y-90939075D01*
X84832012Y-90790680D01*
X84845258Y-90783727D01*
X85106842Y-90665997D01*
X85120812Y-90660699D01*
X85394668Y-90575362D01*
X85409198Y-90571780D01*
X85691344Y-90520075D01*
X85706201Y-90518271D01*
X85996264Y-90500726D01*
X86003751Y-90500500D01*
X86065892Y-90500500D01*
X154934108Y-90500500D01*
X154996249Y-90500500D01*
X155003736Y-90500726D01*
G37*
%TD.AperFunction*%
%TD*%
M02*
