%TF.GenerationSoftware,KiCad,Pcbnew,10.0.1-10.0.1~ubuntu22.04.1*%
%TF.CreationDate,2026-07-17T13:41:06+09:00*%
%TF.ProjectId,administrator-board,61646d69-6e69-4737-9472-61746f722d62,rev?*%
%TF.SameCoordinates,Original*%
%TF.FileFunction,Copper,L2,Bot*%
%TF.FilePolarity,Positive*%
%FSLAX46Y46*%
G04 Gerber Fmt 4.6, Leading zero omitted, Abs format (unit mm)*
G04 Created by KiCad (PCBNEW 10.0.1-10.0.1~ubuntu22.04.1) date 2026-07-17 13:41:06*
%MOMM*%
%LPD*%
G01*
G04 APERTURE LIST*
G04 Aperture macros list*
%AMRoundRect*
0 Rectangle with rounded corners*
0 $1 Rounding radius*
0 $2 $3 $4 $5 $6 $7 $8 $9 X,Y pos of 4 corners*
0 Add a 4 corners polygon primitive as box body*
4,1,4,$2,$3,$4,$5,$6,$7,$8,$9,$2,$3,0*
0 Add four circle primitives for the rounded corners*
1,1,$1+$1,$2,$3*
1,1,$1+$1,$4,$5*
1,1,$1+$1,$6,$7*
1,1,$1+$1,$8,$9*
0 Add four rect primitives between the rounded corners*
20,1,$1+$1,$2,$3,$4,$5,0*
20,1,$1+$1,$4,$5,$6,$7,0*
20,1,$1+$1,$6,$7,$8,$9,0*
20,1,$1+$1,$8,$9,$2,$3,0*%
G04 Aperture macros list end*
%TA.AperFunction,ComponentPad*%
%ADD10C,2.000000*%
%TD*%
%TA.AperFunction,ComponentPad*%
%ADD11RoundRect,0.250000X-0.600000X-0.725000X0.600000X-0.725000X0.600000X0.725000X-0.600000X0.725000X0*%
%TD*%
%TA.AperFunction,ComponentPad*%
%ADD12O,1.700000X1.950000*%
%TD*%
%TA.AperFunction,ViaPad*%
%ADD13C,0.600000*%
%TD*%
G04 APERTURE END LIST*
D10*
%TO.P,SW1,1,1_1*%
%TO.N,+3.3V*%
X94750000Y-95750000D03*
X101250000Y-95750000D03*
%TO.P,SW1,2,2_2*%
%TO.N,SW1*%
X94750000Y-100250000D03*
X101250000Y-100250000D03*
%TD*%
%TO.P,SW4,1,1_1*%
%TO.N,+3.3V*%
X135000000Y-95750000D03*
X141500000Y-95750000D03*
%TO.P,SW4,2,2_2*%
%TO.N,SW4*%
X135000000Y-100250000D03*
X141500000Y-100250000D03*
%TD*%
D11*
%TO.P,J2,1,Pin_1_1*%
%TO.N,SW3*%
X125000000Y-123000000D03*
D12*
%TO.P,J2,2,Pin_2_2*%
%TO.N,unconnected-(J2-Pin_2-Pad2)*%
X127500000Y-123000000D03*
%TO.P,J2,3,Pin_3_3*%
%TO.N,SW4*%
X130000000Y-123000000D03*
%TO.P,J2,4,Pin_4_4*%
%TO.N,GND*%
X132500000Y-123000000D03*
%TO.P,J2,5,Pin_5_5*%
%TO.N,unconnected-(J2-Pin_5-Pad5)*%
X135000000Y-123000000D03*
%TO.P,J2,6,Pin_6_6*%
%TO.N,unconnected-(J2-Pin_6-Pad6)*%
X137500000Y-123000000D03*
%TD*%
D10*
%TO.P,SW3,1,1_1*%
%TO.N,+3.3V*%
X121750000Y-95750000D03*
X128250000Y-95750000D03*
%TO.P,SW3,2,2_2*%
%TO.N,SW3*%
X121750000Y-100250000D03*
X128250000Y-100250000D03*
%TD*%
D11*
%TO.P,J3,1,Pin_1_1*%
%TO.N,SW1*%
X101500000Y-123000000D03*
D12*
%TO.P,J3,2,Pin_2_2*%
%TO.N,+3.3V*%
X104000000Y-123000000D03*
%TO.P,J3,3,Pin_3_3*%
%TO.N,SW2*%
X106500000Y-123000000D03*
%TO.P,J3,4,Pin_4_4*%
%TO.N,GND*%
X109000000Y-123000000D03*
%TO.P,J3,5,Pin_5_5*%
%TO.N,unconnected-(J3-Pin_5-Pad5)*%
X111500000Y-123000000D03*
%TO.P,J3,6,Pin_6_6*%
%TO.N,unconnected-(J3-Pin_6-Pad6)*%
X114000000Y-123000000D03*
%TD*%
D10*
%TO.P,SW2,1,1_1*%
%TO.N,+3.3V*%
X108500000Y-95750000D03*
X115000000Y-95750000D03*
%TO.P,SW2,2,2_2*%
%TO.N,SW2*%
X108500000Y-100250000D03*
X115000000Y-100250000D03*
%TD*%
D13*
%TO.N,GND*%
X90000000Y-130000000D03*
X155000000Y-105000000D03*
X125500000Y-105000000D03*
X105300000Y-97400000D03*
X99400000Y-103900000D03*
X155000000Y-125000000D03*
X140100000Y-110800000D03*
X135000000Y-91400000D03*
X150000000Y-130000000D03*
X90000000Y-91400000D03*
X138300000Y-104100000D03*
X120000000Y-91400000D03*
X85000000Y-105000000D03*
X120000000Y-130000000D03*
X111800000Y-108400000D03*
X131500000Y-100000000D03*
X118300000Y-98100000D03*
X99500000Y-108000000D03*
X105700000Y-106000000D03*
X127400000Y-119800000D03*
X105000000Y-130000000D03*
X123100000Y-108600000D03*
X135000000Y-130000000D03*
X150000000Y-91500000D03*
X85000000Y-115000000D03*
X155000000Y-115000000D03*
X102800000Y-107400000D03*
X85000000Y-125000000D03*
X138300000Y-108200000D03*
X113500000Y-104000000D03*
X105000000Y-91400000D03*
%TD*%
%TA.AperFunction,Conductor*%
%TO.N,GND*%
G36*
X155003736Y-90500726D02*
G01*
X155293796Y-90518271D01*
X155308659Y-90520076D01*
X155590797Y-90571780D01*
X155605334Y-90575363D01*
X155879182Y-90660698D01*
X155893163Y-90666000D01*
X156154734Y-90783724D01*
X156167987Y-90790680D01*
X156413458Y-90939071D01*
X156425776Y-90947573D01*
X156651573Y-91124474D01*
X156662781Y-91134404D01*
X156865595Y-91337218D01*
X156875525Y-91348426D01*
X157052422Y-91574217D01*
X157060928Y-91586541D01*
X157209319Y-91832012D01*
X157216277Y-91845269D01*
X157333994Y-92106823D01*
X157339304Y-92120825D01*
X157424635Y-92394664D01*
X157428219Y-92409202D01*
X157479923Y-92691340D01*
X157481728Y-92706205D01*
X157499274Y-92996263D01*
X157499500Y-93003750D01*
X157499500Y-129996249D01*
X157499274Y-130003736D01*
X157481728Y-130293794D01*
X157479923Y-130308659D01*
X157428219Y-130590797D01*
X157424635Y-130605335D01*
X157339304Y-130879174D01*
X157333994Y-130893176D01*
X157216277Y-131154730D01*
X157209319Y-131167987D01*
X157060928Y-131413458D01*
X157052422Y-131425782D01*
X156875525Y-131651573D01*
X156865595Y-131662781D01*
X156662781Y-131865595D01*
X156651573Y-131875525D01*
X156425782Y-132052422D01*
X156413458Y-132060928D01*
X156167987Y-132209319D01*
X156154730Y-132216277D01*
X155893176Y-132333994D01*
X155879174Y-132339304D01*
X155605335Y-132424635D01*
X155590797Y-132428219D01*
X155308659Y-132479923D01*
X155293794Y-132481728D01*
X155003736Y-132499274D01*
X154996249Y-132499500D01*
X86003751Y-132499500D01*
X85996264Y-132499274D01*
X85706205Y-132481728D01*
X85691340Y-132479923D01*
X85409202Y-132428219D01*
X85394664Y-132424635D01*
X85120825Y-132339304D01*
X85106827Y-132333995D01*
X84954096Y-132265256D01*
X84845269Y-132216277D01*
X84832012Y-132209319D01*
X84586541Y-132060928D01*
X84574217Y-132052422D01*
X84348426Y-131875525D01*
X84337218Y-131865595D01*
X84134404Y-131662781D01*
X84124474Y-131651573D01*
X83947573Y-131425776D01*
X83939071Y-131413458D01*
X83790680Y-131167987D01*
X83783722Y-131154730D01*
X83666000Y-130893163D01*
X83660698Y-130879182D01*
X83575363Y-130605334D01*
X83571780Y-130590797D01*
X83520076Y-130308659D01*
X83518271Y-130293794D01*
X83500726Y-130003736D01*
X83500500Y-129996249D01*
X83500500Y-128878711D01*
X85149500Y-128878711D01*
X85149500Y-129121288D01*
X85181161Y-129361785D01*
X85243947Y-129596104D01*
X85336773Y-129820205D01*
X85336776Y-129820212D01*
X85458064Y-130030289D01*
X85458066Y-130030292D01*
X85458067Y-130030293D01*
X85605733Y-130222736D01*
X85605739Y-130222743D01*
X85777256Y-130394260D01*
X85777262Y-130394265D01*
X85969711Y-130541936D01*
X86179788Y-130663224D01*
X86403900Y-130756054D01*
X86638211Y-130818838D01*
X86818586Y-130842584D01*
X86878711Y-130850500D01*
X86878712Y-130850500D01*
X87121289Y-130850500D01*
X87169388Y-130844167D01*
X87361789Y-130818838D01*
X87596100Y-130756054D01*
X87820212Y-130663224D01*
X88030289Y-130541936D01*
X88222738Y-130394265D01*
X88394265Y-130222738D01*
X88541936Y-130030289D01*
X88663224Y-129820212D01*
X88756054Y-129596100D01*
X88818838Y-129361789D01*
X88850500Y-129121288D01*
X88850500Y-128878712D01*
X88850500Y-128878711D01*
X152149500Y-128878711D01*
X152149500Y-129121288D01*
X152181161Y-129361785D01*
X152243947Y-129596104D01*
X152336773Y-129820205D01*
X152336776Y-129820212D01*
X152458064Y-130030289D01*
X152458066Y-130030292D01*
X152458067Y-130030293D01*
X152605733Y-130222736D01*
X152605739Y-130222743D01*
X152777256Y-130394260D01*
X152777262Y-130394265D01*
X152969711Y-130541936D01*
X153179788Y-130663224D01*
X153403900Y-130756054D01*
X153638211Y-130818838D01*
X153818586Y-130842584D01*
X153878711Y-130850500D01*
X153878712Y-130850500D01*
X154121289Y-130850500D01*
X154169388Y-130844167D01*
X154361789Y-130818838D01*
X154596100Y-130756054D01*
X154820212Y-130663224D01*
X155030289Y-130541936D01*
X155222738Y-130394265D01*
X155394265Y-130222738D01*
X155541936Y-130030289D01*
X155663224Y-129820212D01*
X155756054Y-129596100D01*
X155818838Y-129361789D01*
X155850500Y-129121288D01*
X155850500Y-128878712D01*
X155818838Y-128638211D01*
X155756054Y-128403900D01*
X155663224Y-128179788D01*
X155541936Y-127969711D01*
X155394265Y-127777262D01*
X155394260Y-127777256D01*
X155222743Y-127605739D01*
X155222736Y-127605733D01*
X155030293Y-127458067D01*
X155030292Y-127458066D01*
X155030289Y-127458064D01*
X154820212Y-127336776D01*
X154820205Y-127336773D01*
X154596104Y-127243947D01*
X154361785Y-127181161D01*
X154121289Y-127149500D01*
X154121288Y-127149500D01*
X153878712Y-127149500D01*
X153878711Y-127149500D01*
X153638214Y-127181161D01*
X153403895Y-127243947D01*
X153179794Y-127336773D01*
X153179785Y-127336777D01*
X152969706Y-127458067D01*
X152777263Y-127605733D01*
X152777256Y-127605739D01*
X152605739Y-127777256D01*
X152605733Y-127777263D01*
X152458067Y-127969706D01*
X152336777Y-128179785D01*
X152336773Y-128179794D01*
X152243947Y-128403895D01*
X152181161Y-128638214D01*
X152149500Y-128878711D01*
X88850500Y-128878711D01*
X88818838Y-128638211D01*
X88756054Y-128403900D01*
X88663224Y-128179788D01*
X88541936Y-127969711D01*
X88394265Y-127777262D01*
X88394260Y-127777256D01*
X88222743Y-127605739D01*
X88222736Y-127605733D01*
X88030293Y-127458067D01*
X88030292Y-127458066D01*
X88030289Y-127458064D01*
X87820212Y-127336776D01*
X87820205Y-127336773D01*
X87596104Y-127243947D01*
X87361785Y-127181161D01*
X87121289Y-127149500D01*
X87121288Y-127149500D01*
X86878712Y-127149500D01*
X86878711Y-127149500D01*
X86638214Y-127181161D01*
X86403895Y-127243947D01*
X86179794Y-127336773D01*
X86179785Y-127336777D01*
X85969706Y-127458067D01*
X85777263Y-127605733D01*
X85777256Y-127605739D01*
X85605739Y-127777256D01*
X85605733Y-127777263D01*
X85458067Y-127969706D01*
X85336777Y-128179785D01*
X85336773Y-128179794D01*
X85243947Y-128403895D01*
X85181161Y-128638214D01*
X85149500Y-128878711D01*
X83500500Y-128878711D01*
X83500500Y-122224983D01*
X100149500Y-122224983D01*
X100149500Y-123775001D01*
X100149501Y-123775018D01*
X100160000Y-123877796D01*
X100160001Y-123877799D01*
X100205894Y-124016294D01*
X100215186Y-124044334D01*
X100307288Y-124193656D01*
X100431344Y-124317712D01*
X100580666Y-124409814D01*
X100747203Y-124464999D01*
X100849991Y-124475500D01*
X102150008Y-124475499D01*
X102252797Y-124464999D01*
X102419334Y-124409814D01*
X102568656Y-124317712D01*
X102692712Y-124193656D01*
X102784814Y-124044334D01*
X102784814Y-124044331D01*
X102788178Y-124038879D01*
X102840126Y-123992154D01*
X102909088Y-123980931D01*
X102973170Y-124008774D01*
X102981398Y-124016294D01*
X103120213Y-124155109D01*
X103292179Y-124280048D01*
X103292181Y-124280049D01*
X103292184Y-124280051D01*
X103481588Y-124376557D01*
X103683757Y-124442246D01*
X103893713Y-124475500D01*
X103893714Y-124475500D01*
X104106286Y-124475500D01*
X104106287Y-124475500D01*
X104316243Y-124442246D01*
X104518412Y-124376557D01*
X104707816Y-124280051D01*
X104729789Y-124264086D01*
X104879786Y-124155109D01*
X104879788Y-124155106D01*
X104879792Y-124155104D01*
X105030104Y-124004792D01*
X105149683Y-123840204D01*
X105205011Y-123797540D01*
X105274624Y-123791561D01*
X105336420Y-123824166D01*
X105350313Y-123840199D01*
X105452560Y-123980931D01*
X105469896Y-124004792D01*
X105620213Y-124155109D01*
X105792179Y-124280048D01*
X105792181Y-124280049D01*
X105792184Y-124280051D01*
X105981588Y-124376557D01*
X106183757Y-124442246D01*
X106393713Y-124475500D01*
X106393714Y-124475500D01*
X106606286Y-124475500D01*
X106606287Y-124475500D01*
X106816243Y-124442246D01*
X107018412Y-124376557D01*
X107207816Y-124280051D01*
X107229789Y-124264086D01*
X107379786Y-124155109D01*
X107379788Y-124155106D01*
X107379792Y-124155104D01*
X107530104Y-124004792D01*
X107649991Y-123839779D01*
X107705320Y-123797115D01*
X107774933Y-123791136D01*
X107836729Y-123823741D01*
X107850627Y-123839781D01*
X107970272Y-124004459D01*
X107970276Y-124004464D01*
X108120535Y-124154723D01*
X108120540Y-124154727D01*
X108292442Y-124279620D01*
X108481782Y-124376095D01*
X108683871Y-124441757D01*
X108750000Y-124452231D01*
X108750000Y-123404145D01*
X108816657Y-123442630D01*
X108937465Y-123475000D01*
X109062535Y-123475000D01*
X109183343Y-123442630D01*
X109250000Y-123404145D01*
X109250000Y-124452230D01*
X109316126Y-124441757D01*
X109316129Y-124441757D01*
X109518217Y-124376095D01*
X109707557Y-124279620D01*
X109879459Y-124154727D01*
X109879464Y-124154723D01*
X110029721Y-124004466D01*
X110149371Y-123839781D01*
X110204701Y-123797115D01*
X110274314Y-123791136D01*
X110336110Y-123823741D01*
X110350008Y-123839781D01*
X110469890Y-124004785D01*
X110469894Y-124004790D01*
X110620213Y-124155109D01*
X110792179Y-124280048D01*
X110792181Y-124280049D01*
X110792184Y-124280051D01*
X110981588Y-124376557D01*
X111183757Y-124442246D01*
X111393713Y-124475500D01*
X111393714Y-124475500D01*
X111606286Y-124475500D01*
X111606287Y-124475500D01*
X111816243Y-124442246D01*
X112018412Y-124376557D01*
X112207816Y-124280051D01*
X112229789Y-124264086D01*
X112379786Y-124155109D01*
X112379788Y-124155106D01*
X112379792Y-124155104D01*
X112530104Y-124004792D01*
X112649683Y-123840204D01*
X112705011Y-123797540D01*
X112774624Y-123791561D01*
X112836420Y-123824166D01*
X112850313Y-123840199D01*
X112952560Y-123980931D01*
X112969896Y-124004792D01*
X113120213Y-124155109D01*
X113292179Y-124280048D01*
X113292181Y-124280049D01*
X113292184Y-124280051D01*
X113481588Y-124376557D01*
X113683757Y-124442246D01*
X113893713Y-124475500D01*
X113893714Y-124475500D01*
X114106286Y-124475500D01*
X114106287Y-124475500D01*
X114316243Y-124442246D01*
X114518412Y-124376557D01*
X114707816Y-124280051D01*
X114729789Y-124264086D01*
X114879786Y-124155109D01*
X114879788Y-124155106D01*
X114879792Y-124155104D01*
X115030104Y-124004792D01*
X115030106Y-124004788D01*
X115030109Y-124004786D01*
X115155048Y-123832820D01*
X115155047Y-123832820D01*
X115155051Y-123832816D01*
X115251557Y-123643412D01*
X115317246Y-123441243D01*
X115350500Y-123231287D01*
X115350500Y-122768713D01*
X115317246Y-122558757D01*
X115251557Y-122356588D01*
X115184501Y-122224983D01*
X123649500Y-122224983D01*
X123649500Y-123775001D01*
X123649501Y-123775018D01*
X123660000Y-123877796D01*
X123660001Y-123877799D01*
X123705894Y-124016294D01*
X123715186Y-124044334D01*
X123807288Y-124193656D01*
X123931344Y-124317712D01*
X124080666Y-124409814D01*
X124247203Y-124464999D01*
X124349991Y-124475500D01*
X125650008Y-124475499D01*
X125752797Y-124464999D01*
X125919334Y-124409814D01*
X126068656Y-124317712D01*
X126192712Y-124193656D01*
X126284814Y-124044334D01*
X126284814Y-124044331D01*
X126288178Y-124038879D01*
X126340126Y-123992154D01*
X126409088Y-123980931D01*
X126473170Y-124008774D01*
X126481398Y-124016294D01*
X126620213Y-124155109D01*
X126792179Y-124280048D01*
X126792181Y-124280049D01*
X126792184Y-124280051D01*
X126981588Y-124376557D01*
X127183757Y-124442246D01*
X127393713Y-124475500D01*
X127393714Y-124475500D01*
X127606286Y-124475500D01*
X127606287Y-124475500D01*
X127816243Y-124442246D01*
X128018412Y-124376557D01*
X128207816Y-124280051D01*
X128229789Y-124264086D01*
X128379786Y-124155109D01*
X128379788Y-124155106D01*
X128379792Y-124155104D01*
X128530104Y-124004792D01*
X128649683Y-123840204D01*
X128705011Y-123797540D01*
X128774624Y-123791561D01*
X128836420Y-123824166D01*
X128850313Y-123840199D01*
X128952560Y-123980931D01*
X128969896Y-124004792D01*
X129120213Y-124155109D01*
X129292179Y-124280048D01*
X129292181Y-124280049D01*
X129292184Y-124280051D01*
X129481588Y-124376557D01*
X129683757Y-124442246D01*
X129893713Y-124475500D01*
X129893714Y-124475500D01*
X130106286Y-124475500D01*
X130106287Y-124475500D01*
X130316243Y-124442246D01*
X130518412Y-124376557D01*
X130707816Y-124280051D01*
X130729789Y-124264086D01*
X130879786Y-124155109D01*
X130879788Y-124155106D01*
X130879792Y-124155104D01*
X131030104Y-124004792D01*
X131149991Y-123839779D01*
X131205320Y-123797115D01*
X131274933Y-123791136D01*
X131336729Y-123823741D01*
X131350627Y-123839781D01*
X131470272Y-124004459D01*
X131470276Y-124004464D01*
X131620535Y-124154723D01*
X131620540Y-124154727D01*
X131792442Y-124279620D01*
X131981782Y-124376095D01*
X132183871Y-124441757D01*
X132250000Y-124452231D01*
X132250000Y-123404145D01*
X132316657Y-123442630D01*
X132437465Y-123475000D01*
X132562535Y-123475000D01*
X132683343Y-123442630D01*
X132750000Y-123404145D01*
X132750000Y-124452230D01*
X132816126Y-124441757D01*
X132816129Y-124441757D01*
X133018217Y-124376095D01*
X133207557Y-124279620D01*
X133379459Y-124154727D01*
X133379464Y-124154723D01*
X133529721Y-124004466D01*
X133649371Y-123839781D01*
X133704701Y-123797115D01*
X133774314Y-123791136D01*
X133836110Y-123823741D01*
X133850008Y-123839781D01*
X133969890Y-124004785D01*
X133969894Y-124004790D01*
X134120213Y-124155109D01*
X134292179Y-124280048D01*
X134292181Y-124280049D01*
X134292184Y-124280051D01*
X134481588Y-124376557D01*
X134683757Y-124442246D01*
X134893713Y-124475500D01*
X134893714Y-124475500D01*
X135106286Y-124475500D01*
X135106287Y-124475500D01*
X135316243Y-124442246D01*
X135518412Y-124376557D01*
X135707816Y-124280051D01*
X135729789Y-124264086D01*
X135879786Y-124155109D01*
X135879788Y-124155106D01*
X135879792Y-124155104D01*
X136030104Y-124004792D01*
X136149683Y-123840204D01*
X136205011Y-123797540D01*
X136274624Y-123791561D01*
X136336420Y-123824166D01*
X136350313Y-123840199D01*
X136452560Y-123980931D01*
X136469896Y-124004792D01*
X136620213Y-124155109D01*
X136792179Y-124280048D01*
X136792181Y-124280049D01*
X136792184Y-124280051D01*
X136981588Y-124376557D01*
X137183757Y-124442246D01*
X137393713Y-124475500D01*
X137393714Y-124475500D01*
X137606286Y-124475500D01*
X137606287Y-124475500D01*
X137816243Y-124442246D01*
X138018412Y-124376557D01*
X138207816Y-124280051D01*
X138229789Y-124264086D01*
X138379786Y-124155109D01*
X138379788Y-124155106D01*
X138379792Y-124155104D01*
X138530104Y-124004792D01*
X138530106Y-124004788D01*
X138530109Y-124004786D01*
X138655048Y-123832820D01*
X138655047Y-123832820D01*
X138655051Y-123832816D01*
X138751557Y-123643412D01*
X138817246Y-123441243D01*
X138850500Y-123231287D01*
X138850500Y-122768713D01*
X138817246Y-122558757D01*
X138751557Y-122356588D01*
X138655051Y-122167184D01*
X138655049Y-122167181D01*
X138655048Y-122167179D01*
X138530109Y-121995213D01*
X138379786Y-121844890D01*
X138207820Y-121719951D01*
X138018414Y-121623444D01*
X138018413Y-121623443D01*
X138018412Y-121623443D01*
X137816243Y-121557754D01*
X137816241Y-121557753D01*
X137816240Y-121557753D01*
X137654957Y-121532208D01*
X137606287Y-121524500D01*
X137393713Y-121524500D01*
X137345042Y-121532208D01*
X137183760Y-121557753D01*
X136981585Y-121623444D01*
X136792179Y-121719951D01*
X136620213Y-121844890D01*
X136469894Y-121995209D01*
X136469890Y-121995214D01*
X136350318Y-122159793D01*
X136294989Y-122202459D01*
X136225375Y-122208438D01*
X136163580Y-122175833D01*
X136149682Y-122159793D01*
X136030109Y-121995214D01*
X136030105Y-121995209D01*
X135879786Y-121844890D01*
X135707820Y-121719951D01*
X135518414Y-121623444D01*
X135518413Y-121623443D01*
X135518412Y-121623443D01*
X135316243Y-121557754D01*
X135316241Y-121557753D01*
X135316240Y-121557753D01*
X135154957Y-121532208D01*
X135106287Y-121524500D01*
X134893713Y-121524500D01*
X134845042Y-121532208D01*
X134683760Y-121557753D01*
X134481585Y-121623444D01*
X134292179Y-121719951D01*
X134120213Y-121844890D01*
X133969894Y-121995209D01*
X133969890Y-121995214D01*
X133850008Y-122160218D01*
X133794678Y-122202884D01*
X133725065Y-122208863D01*
X133663270Y-122176257D01*
X133649372Y-122160218D01*
X133529727Y-121995540D01*
X133529723Y-121995535D01*
X133379464Y-121845276D01*
X133379459Y-121845272D01*
X133207557Y-121720379D01*
X133018215Y-121623903D01*
X132816124Y-121558241D01*
X132750000Y-121547768D01*
X132750000Y-122595854D01*
X132683343Y-122557370D01*
X132562535Y-122525000D01*
X132437465Y-122525000D01*
X132316657Y-122557370D01*
X132250000Y-122595854D01*
X132250000Y-121547768D01*
X132249999Y-121547768D01*
X132183875Y-121558241D01*
X131981784Y-121623903D01*
X131792442Y-121720379D01*
X131620540Y-121845272D01*
X131620535Y-121845276D01*
X131470276Y-121995535D01*
X131470272Y-121995540D01*
X131350627Y-122160218D01*
X131295297Y-122202884D01*
X131225684Y-122208863D01*
X131163889Y-122176257D01*
X131149991Y-122160218D01*
X131030109Y-121995214D01*
X131030105Y-121995209D01*
X130879786Y-121844890D01*
X130707820Y-121719951D01*
X130518414Y-121623444D01*
X130518413Y-121623443D01*
X130518412Y-121623443D01*
X130316243Y-121557754D01*
X130316241Y-121557753D01*
X130316240Y-121557753D01*
X130154957Y-121532208D01*
X130106287Y-121524500D01*
X129893713Y-121524500D01*
X129845042Y-121532208D01*
X129683760Y-121557753D01*
X129481585Y-121623444D01*
X129292179Y-121719951D01*
X129120213Y-121844890D01*
X128969894Y-121995209D01*
X128969890Y-121995214D01*
X128850318Y-122159793D01*
X128794989Y-122202459D01*
X128725375Y-122208438D01*
X128663580Y-122175833D01*
X128649682Y-122159793D01*
X128530109Y-121995214D01*
X128530105Y-121995209D01*
X128379786Y-121844890D01*
X128207820Y-121719951D01*
X128018414Y-121623444D01*
X128018413Y-121623443D01*
X128018412Y-121623443D01*
X127816243Y-121557754D01*
X127816241Y-121557753D01*
X127816240Y-121557753D01*
X127654957Y-121532208D01*
X127606287Y-121524500D01*
X127393713Y-121524500D01*
X127345042Y-121532208D01*
X127183760Y-121557753D01*
X126981585Y-121623444D01*
X126792179Y-121719951D01*
X126620215Y-121844889D01*
X126481398Y-121983706D01*
X126420075Y-122017190D01*
X126350383Y-122012206D01*
X126294450Y-121970334D01*
X126288178Y-121961120D01*
X126192712Y-121806344D01*
X126068657Y-121682289D01*
X126068656Y-121682288D01*
X125919334Y-121590186D01*
X125752797Y-121535001D01*
X125752795Y-121535000D01*
X125650010Y-121524500D01*
X124349998Y-121524500D01*
X124349981Y-121524501D01*
X124247203Y-121535000D01*
X124247200Y-121535001D01*
X124080668Y-121590185D01*
X124080663Y-121590187D01*
X123931342Y-121682289D01*
X123807289Y-121806342D01*
X123715187Y-121955663D01*
X123715185Y-121955668D01*
X123710325Y-121970334D01*
X123660001Y-122122203D01*
X123660001Y-122122204D01*
X123660000Y-122122204D01*
X123649500Y-122224983D01*
X115184501Y-122224983D01*
X115155051Y-122167184D01*
X115155049Y-122167181D01*
X115155048Y-122167179D01*
X115030109Y-121995213D01*
X114879786Y-121844890D01*
X114707820Y-121719951D01*
X114518414Y-121623444D01*
X114518413Y-121623443D01*
X114518412Y-121623443D01*
X114316243Y-121557754D01*
X114316241Y-121557753D01*
X114316240Y-121557753D01*
X114154957Y-121532208D01*
X114106287Y-121524500D01*
X113893713Y-121524500D01*
X113845042Y-121532208D01*
X113683760Y-121557753D01*
X113481585Y-121623444D01*
X113292179Y-121719951D01*
X113120213Y-121844890D01*
X112969894Y-121995209D01*
X112969890Y-121995214D01*
X112850318Y-122159793D01*
X112794989Y-122202459D01*
X112725375Y-122208438D01*
X112663580Y-122175833D01*
X112649682Y-122159793D01*
X112530109Y-121995214D01*
X112530105Y-121995209D01*
X112379786Y-121844890D01*
X112207820Y-121719951D01*
X112018414Y-121623444D01*
X112018413Y-121623443D01*
X112018412Y-121623443D01*
X111816243Y-121557754D01*
X111816241Y-121557753D01*
X111816240Y-121557753D01*
X111654957Y-121532208D01*
X111606287Y-121524500D01*
X111393713Y-121524500D01*
X111345042Y-121532208D01*
X111183760Y-121557753D01*
X110981585Y-121623444D01*
X110792179Y-121719951D01*
X110620213Y-121844890D01*
X110469894Y-121995209D01*
X110469890Y-121995214D01*
X110350008Y-122160218D01*
X110294678Y-122202884D01*
X110225065Y-122208863D01*
X110163270Y-122176257D01*
X110149372Y-122160218D01*
X110029727Y-121995540D01*
X110029723Y-121995535D01*
X109879464Y-121845276D01*
X109879459Y-121845272D01*
X109707557Y-121720379D01*
X109518215Y-121623903D01*
X109316124Y-121558241D01*
X109250000Y-121547768D01*
X109250000Y-122595854D01*
X109183343Y-122557370D01*
X109062535Y-122525000D01*
X108937465Y-122525000D01*
X108816657Y-122557370D01*
X108750000Y-122595854D01*
X108750000Y-121547768D01*
X108749999Y-121547768D01*
X108683875Y-121558241D01*
X108481784Y-121623903D01*
X108292442Y-121720379D01*
X108120540Y-121845272D01*
X108120535Y-121845276D01*
X107970276Y-121995535D01*
X107970272Y-121995540D01*
X107850627Y-122160218D01*
X107795297Y-122202884D01*
X107725684Y-122208863D01*
X107663889Y-122176257D01*
X107649991Y-122160218D01*
X107530109Y-121995214D01*
X107530105Y-121995209D01*
X107379786Y-121844890D01*
X107207820Y-121719951D01*
X107018414Y-121623444D01*
X107018413Y-121623443D01*
X107018412Y-121623443D01*
X106816243Y-121557754D01*
X106816241Y-121557753D01*
X106816240Y-121557753D01*
X106654957Y-121532208D01*
X106606287Y-121524500D01*
X106393713Y-121524500D01*
X106345042Y-121532208D01*
X106183760Y-121557753D01*
X105981585Y-121623444D01*
X105792179Y-121719951D01*
X105620213Y-121844890D01*
X105469894Y-121995209D01*
X105469890Y-121995214D01*
X105350318Y-122159793D01*
X105294989Y-122202459D01*
X105225375Y-122208438D01*
X105163580Y-122175833D01*
X105149682Y-122159793D01*
X105030109Y-121995214D01*
X105030105Y-121995209D01*
X104879786Y-121844890D01*
X104707820Y-121719951D01*
X104518414Y-121623444D01*
X104518413Y-121623443D01*
X104518412Y-121623443D01*
X104316243Y-121557754D01*
X104316241Y-121557753D01*
X104316240Y-121557753D01*
X104154957Y-121532208D01*
X104106287Y-121524500D01*
X103893713Y-121524500D01*
X103845042Y-121532208D01*
X103683760Y-121557753D01*
X103481585Y-121623444D01*
X103292179Y-121719951D01*
X103120215Y-121844889D01*
X102981398Y-121983706D01*
X102920075Y-122017190D01*
X102850383Y-122012206D01*
X102794450Y-121970334D01*
X102788178Y-121961120D01*
X102692712Y-121806344D01*
X102568657Y-121682289D01*
X102568656Y-121682288D01*
X102419334Y-121590186D01*
X102252797Y-121535001D01*
X102252795Y-121535000D01*
X102150010Y-121524500D01*
X100849998Y-121524500D01*
X100849981Y-121524501D01*
X100747203Y-121535000D01*
X100747200Y-121535001D01*
X100580668Y-121590185D01*
X100580663Y-121590187D01*
X100431342Y-121682289D01*
X100307289Y-121806342D01*
X100215187Y-121955663D01*
X100215185Y-121955668D01*
X100210325Y-121970334D01*
X100160001Y-122122203D01*
X100160001Y-122122204D01*
X100160000Y-122122204D01*
X100149500Y-122224983D01*
X83500500Y-122224983D01*
X83500500Y-100131902D01*
X93249500Y-100131902D01*
X93249500Y-100368097D01*
X93286446Y-100601368D01*
X93359433Y-100825996D01*
X93466657Y-101036433D01*
X93605483Y-101227510D01*
X93772490Y-101394517D01*
X93963567Y-101533343D01*
X94062991Y-101584002D01*
X94174003Y-101640566D01*
X94174005Y-101640566D01*
X94174008Y-101640568D01*
X94294412Y-101679689D01*
X94398631Y-101713553D01*
X94631903Y-101750500D01*
X94631908Y-101750500D01*
X94868097Y-101750500D01*
X95101368Y-101713553D01*
X95325992Y-101640568D01*
X95536433Y-101533343D01*
X95727510Y-101394517D01*
X95894517Y-101227510D01*
X96033343Y-101036433D01*
X96140568Y-100825992D01*
X96213553Y-100601368D01*
X96250500Y-100368097D01*
X96250500Y-100131902D01*
X99749500Y-100131902D01*
X99749500Y-100368097D01*
X99786446Y-100601368D01*
X99859433Y-100825996D01*
X99966657Y-101036433D01*
X100105483Y-101227510D01*
X100272490Y-101394517D01*
X100463567Y-101533343D01*
X100562991Y-101584002D01*
X100674003Y-101640566D01*
X100674005Y-101640566D01*
X100674008Y-101640568D01*
X100794412Y-101679689D01*
X100898631Y-101713553D01*
X101131903Y-101750500D01*
X101131908Y-101750500D01*
X101368097Y-101750500D01*
X101601368Y-101713553D01*
X101825992Y-101640568D01*
X102036433Y-101533343D01*
X102227510Y-101394517D01*
X102394517Y-101227510D01*
X102533343Y-101036433D01*
X102640568Y-100825992D01*
X102713553Y-100601368D01*
X102750500Y-100368097D01*
X102750500Y-100131902D01*
X106999500Y-100131902D01*
X106999500Y-100368097D01*
X107036446Y-100601368D01*
X107109433Y-100825996D01*
X107216657Y-101036433D01*
X107355483Y-101227510D01*
X107522490Y-101394517D01*
X107713567Y-101533343D01*
X107812991Y-101584002D01*
X107924003Y-101640566D01*
X107924005Y-101640566D01*
X107924008Y-101640568D01*
X108044412Y-101679689D01*
X108148631Y-101713553D01*
X108381903Y-101750500D01*
X108381908Y-101750500D01*
X108618097Y-101750500D01*
X108851368Y-101713553D01*
X109075992Y-101640568D01*
X109286433Y-101533343D01*
X109477510Y-101394517D01*
X109644517Y-101227510D01*
X109783343Y-101036433D01*
X109890568Y-100825992D01*
X109963553Y-100601368D01*
X110000500Y-100368097D01*
X110000500Y-100131902D01*
X113499500Y-100131902D01*
X113499500Y-100368097D01*
X113536446Y-100601368D01*
X113609433Y-100825996D01*
X113716657Y-101036433D01*
X113855483Y-101227510D01*
X114022490Y-101394517D01*
X114213567Y-101533343D01*
X114312991Y-101584002D01*
X114424003Y-101640566D01*
X114424005Y-101640566D01*
X114424008Y-101640568D01*
X114544412Y-101679689D01*
X114648631Y-101713553D01*
X114881903Y-101750500D01*
X114881908Y-101750500D01*
X115118097Y-101750500D01*
X115351368Y-101713553D01*
X115575992Y-101640568D01*
X115786433Y-101533343D01*
X115977510Y-101394517D01*
X116144517Y-101227510D01*
X116283343Y-101036433D01*
X116390568Y-100825992D01*
X116463553Y-100601368D01*
X116500500Y-100368097D01*
X116500500Y-100131902D01*
X120249500Y-100131902D01*
X120249500Y-100368097D01*
X120286446Y-100601368D01*
X120359433Y-100825996D01*
X120466657Y-101036433D01*
X120605483Y-101227510D01*
X120772490Y-101394517D01*
X120963567Y-101533343D01*
X121062991Y-101584002D01*
X121174003Y-101640566D01*
X121174005Y-101640566D01*
X121174008Y-101640568D01*
X121294412Y-101679689D01*
X121398631Y-101713553D01*
X121631903Y-101750500D01*
X121631908Y-101750500D01*
X121868097Y-101750500D01*
X122101368Y-101713553D01*
X122325992Y-101640568D01*
X122536433Y-101533343D01*
X122727510Y-101394517D01*
X122894517Y-101227510D01*
X123033343Y-101036433D01*
X123140568Y-100825992D01*
X123213553Y-100601368D01*
X123250500Y-100368097D01*
X123250500Y-100131902D01*
X126749500Y-100131902D01*
X126749500Y-100368097D01*
X126786446Y-100601368D01*
X126859433Y-100825996D01*
X126966657Y-101036433D01*
X127105483Y-101227510D01*
X127272490Y-101394517D01*
X127463567Y-101533343D01*
X127562991Y-101584002D01*
X127674003Y-101640566D01*
X127674005Y-101640566D01*
X127674008Y-101640568D01*
X127794412Y-101679689D01*
X127898631Y-101713553D01*
X128131903Y-101750500D01*
X128131908Y-101750500D01*
X128368097Y-101750500D01*
X128601368Y-101713553D01*
X128825992Y-101640568D01*
X129036433Y-101533343D01*
X129227510Y-101394517D01*
X129394517Y-101227510D01*
X129533343Y-101036433D01*
X129640568Y-100825992D01*
X129713553Y-100601368D01*
X129750500Y-100368097D01*
X129750500Y-100131902D01*
X133499500Y-100131902D01*
X133499500Y-100368097D01*
X133536446Y-100601368D01*
X133609433Y-100825996D01*
X133716657Y-101036433D01*
X133855483Y-101227510D01*
X134022490Y-101394517D01*
X134213567Y-101533343D01*
X134312991Y-101584002D01*
X134424003Y-101640566D01*
X134424005Y-101640566D01*
X134424008Y-101640568D01*
X134544412Y-101679689D01*
X134648631Y-101713553D01*
X134881903Y-101750500D01*
X134881908Y-101750500D01*
X135118097Y-101750500D01*
X135351368Y-101713553D01*
X135575992Y-101640568D01*
X135786433Y-101533343D01*
X135977510Y-101394517D01*
X136144517Y-101227510D01*
X136283343Y-101036433D01*
X136390568Y-100825992D01*
X136463553Y-100601368D01*
X136500500Y-100368097D01*
X136500500Y-100131902D01*
X139999500Y-100131902D01*
X139999500Y-100368097D01*
X140036446Y-100601368D01*
X140109433Y-100825996D01*
X140216657Y-101036433D01*
X140355483Y-101227510D01*
X140522490Y-101394517D01*
X140713567Y-101533343D01*
X140812991Y-101584002D01*
X140924003Y-101640566D01*
X140924005Y-101640566D01*
X140924008Y-101640568D01*
X141044412Y-101679689D01*
X141148631Y-101713553D01*
X141381903Y-101750500D01*
X141381908Y-101750500D01*
X141618097Y-101750500D01*
X141851368Y-101713553D01*
X142075992Y-101640568D01*
X142286433Y-101533343D01*
X142477510Y-101394517D01*
X142644517Y-101227510D01*
X142783343Y-101036433D01*
X142890568Y-100825992D01*
X142963553Y-100601368D01*
X143000500Y-100368097D01*
X143000500Y-100131902D01*
X142963553Y-99898631D01*
X142890566Y-99674003D01*
X142783342Y-99463566D01*
X142644517Y-99272490D01*
X142477510Y-99105483D01*
X142286433Y-98966657D01*
X142075996Y-98859433D01*
X141851368Y-98786446D01*
X141618097Y-98749500D01*
X141618092Y-98749500D01*
X141381908Y-98749500D01*
X141381903Y-98749500D01*
X141148631Y-98786446D01*
X140924003Y-98859433D01*
X140713566Y-98966657D01*
X140604550Y-99045862D01*
X140522490Y-99105483D01*
X140522488Y-99105485D01*
X140522487Y-99105485D01*
X140355485Y-99272487D01*
X140355485Y-99272488D01*
X140355483Y-99272490D01*
X140295862Y-99354550D01*
X140216657Y-99463566D01*
X140109433Y-99674003D01*
X140036446Y-99898631D01*
X139999500Y-100131902D01*
X136500500Y-100131902D01*
X136463553Y-99898631D01*
X136390566Y-99674003D01*
X136283342Y-99463566D01*
X136144517Y-99272490D01*
X135977510Y-99105483D01*
X135786433Y-98966657D01*
X135575996Y-98859433D01*
X135351368Y-98786446D01*
X135118097Y-98749500D01*
X135118092Y-98749500D01*
X134881908Y-98749500D01*
X134881903Y-98749500D01*
X134648631Y-98786446D01*
X134424003Y-98859433D01*
X134213566Y-98966657D01*
X134104550Y-99045862D01*
X134022490Y-99105483D01*
X134022488Y-99105485D01*
X134022487Y-99105485D01*
X133855485Y-99272487D01*
X133855485Y-99272488D01*
X133855483Y-99272490D01*
X133795862Y-99354550D01*
X133716657Y-99463566D01*
X133609433Y-99674003D01*
X133536446Y-99898631D01*
X133499500Y-100131902D01*
X129750500Y-100131902D01*
X129713553Y-99898631D01*
X129640566Y-99674003D01*
X129533342Y-99463566D01*
X129394517Y-99272490D01*
X129227510Y-99105483D01*
X129036433Y-98966657D01*
X128825996Y-98859433D01*
X128601368Y-98786446D01*
X128368097Y-98749500D01*
X128368092Y-98749500D01*
X128131908Y-98749500D01*
X128131903Y-98749500D01*
X127898631Y-98786446D01*
X127674003Y-98859433D01*
X127463566Y-98966657D01*
X127354550Y-99045862D01*
X127272490Y-99105483D01*
X127272488Y-99105485D01*
X127272487Y-99105485D01*
X127105485Y-99272487D01*
X127105485Y-99272488D01*
X127105483Y-99272490D01*
X127045862Y-99354550D01*
X126966657Y-99463566D01*
X126859433Y-99674003D01*
X126786446Y-99898631D01*
X126749500Y-100131902D01*
X123250500Y-100131902D01*
X123213553Y-99898631D01*
X123140566Y-99674003D01*
X123033342Y-99463566D01*
X122894517Y-99272490D01*
X122727510Y-99105483D01*
X122536433Y-98966657D01*
X122325996Y-98859433D01*
X122101368Y-98786446D01*
X121868097Y-98749500D01*
X121868092Y-98749500D01*
X121631908Y-98749500D01*
X121631903Y-98749500D01*
X121398631Y-98786446D01*
X121174003Y-98859433D01*
X120963566Y-98966657D01*
X120854550Y-99045862D01*
X120772490Y-99105483D01*
X120772488Y-99105485D01*
X120772487Y-99105485D01*
X120605485Y-99272487D01*
X120605485Y-99272488D01*
X120605483Y-99272490D01*
X120545862Y-99354550D01*
X120466657Y-99463566D01*
X120359433Y-99674003D01*
X120286446Y-99898631D01*
X120249500Y-100131902D01*
X116500500Y-100131902D01*
X116463553Y-99898631D01*
X116390566Y-99674003D01*
X116283342Y-99463566D01*
X116144517Y-99272490D01*
X115977510Y-99105483D01*
X115786433Y-98966657D01*
X115575996Y-98859433D01*
X115351368Y-98786446D01*
X115118097Y-98749500D01*
X115118092Y-98749500D01*
X114881908Y-98749500D01*
X114881903Y-98749500D01*
X114648631Y-98786446D01*
X114424003Y-98859433D01*
X114213566Y-98966657D01*
X114104550Y-99045862D01*
X114022490Y-99105483D01*
X114022488Y-99105485D01*
X114022487Y-99105485D01*
X113855485Y-99272487D01*
X113855485Y-99272488D01*
X113855483Y-99272490D01*
X113795862Y-99354550D01*
X113716657Y-99463566D01*
X113609433Y-99674003D01*
X113536446Y-99898631D01*
X113499500Y-100131902D01*
X110000500Y-100131902D01*
X109963553Y-99898631D01*
X109890566Y-99674003D01*
X109783342Y-99463566D01*
X109644517Y-99272490D01*
X109477510Y-99105483D01*
X109286433Y-98966657D01*
X109075996Y-98859433D01*
X108851368Y-98786446D01*
X108618097Y-98749500D01*
X108618092Y-98749500D01*
X108381908Y-98749500D01*
X108381903Y-98749500D01*
X108148631Y-98786446D01*
X107924003Y-98859433D01*
X107713566Y-98966657D01*
X107604550Y-99045862D01*
X107522490Y-99105483D01*
X107522488Y-99105485D01*
X107522487Y-99105485D01*
X107355485Y-99272487D01*
X107355485Y-99272488D01*
X107355483Y-99272490D01*
X107295862Y-99354550D01*
X107216657Y-99463566D01*
X107109433Y-99674003D01*
X107036446Y-99898631D01*
X106999500Y-100131902D01*
X102750500Y-100131902D01*
X102713553Y-99898631D01*
X102640566Y-99674003D01*
X102533342Y-99463566D01*
X102394517Y-99272490D01*
X102227510Y-99105483D01*
X102036433Y-98966657D01*
X101825996Y-98859433D01*
X101601368Y-98786446D01*
X101368097Y-98749500D01*
X101368092Y-98749500D01*
X101131908Y-98749500D01*
X101131903Y-98749500D01*
X100898631Y-98786446D01*
X100674003Y-98859433D01*
X100463566Y-98966657D01*
X100354550Y-99045862D01*
X100272490Y-99105483D01*
X100272488Y-99105485D01*
X100272487Y-99105485D01*
X100105485Y-99272487D01*
X100105485Y-99272488D01*
X100105483Y-99272490D01*
X100045862Y-99354550D01*
X99966657Y-99463566D01*
X99859433Y-99674003D01*
X99786446Y-99898631D01*
X99749500Y-100131902D01*
X96250500Y-100131902D01*
X96213553Y-99898631D01*
X96140566Y-99674003D01*
X96033342Y-99463566D01*
X95894517Y-99272490D01*
X95727510Y-99105483D01*
X95536433Y-98966657D01*
X95325996Y-98859433D01*
X95101368Y-98786446D01*
X94868097Y-98749500D01*
X94868092Y-98749500D01*
X94631908Y-98749500D01*
X94631903Y-98749500D01*
X94398631Y-98786446D01*
X94174003Y-98859433D01*
X93963566Y-98966657D01*
X93854550Y-99045862D01*
X93772490Y-99105483D01*
X93772488Y-99105485D01*
X93772487Y-99105485D01*
X93605485Y-99272487D01*
X93605485Y-99272488D01*
X93605483Y-99272490D01*
X93545862Y-99354550D01*
X93466657Y-99463566D01*
X93359433Y-99674003D01*
X93286446Y-99898631D01*
X93249500Y-100131902D01*
X83500500Y-100131902D01*
X83500500Y-93878711D01*
X85149500Y-93878711D01*
X85149500Y-94121288D01*
X85181161Y-94361785D01*
X85243947Y-94596104D01*
X85317008Y-94772488D01*
X85336776Y-94820212D01*
X85458064Y-95030289D01*
X85458066Y-95030292D01*
X85458067Y-95030293D01*
X85605733Y-95222736D01*
X85605739Y-95222743D01*
X85777256Y-95394260D01*
X85777262Y-95394265D01*
X85969711Y-95541936D01*
X86179788Y-95663224D01*
X86403900Y-95756054D01*
X86638211Y-95818838D01*
X86818586Y-95842584D01*
X86878711Y-95850500D01*
X86878712Y-95850500D01*
X87121289Y-95850500D01*
X87169388Y-95844167D01*
X87361789Y-95818838D01*
X87596100Y-95756054D01*
X87820212Y-95663224D01*
X87874463Y-95631902D01*
X93249500Y-95631902D01*
X93249500Y-95868097D01*
X93286446Y-96101368D01*
X93359433Y-96325996D01*
X93466657Y-96536433D01*
X93605483Y-96727510D01*
X93772490Y-96894517D01*
X93963567Y-97033343D01*
X94062991Y-97084002D01*
X94174003Y-97140566D01*
X94174005Y-97140566D01*
X94174008Y-97140568D01*
X94294412Y-97179689D01*
X94398631Y-97213553D01*
X94631903Y-97250500D01*
X94631908Y-97250500D01*
X94868097Y-97250500D01*
X95101368Y-97213553D01*
X95325992Y-97140568D01*
X95536433Y-97033343D01*
X95727510Y-96894517D01*
X95894517Y-96727510D01*
X96033343Y-96536433D01*
X96140568Y-96325992D01*
X96213553Y-96101368D01*
X96250500Y-95868097D01*
X96250500Y-95631902D01*
X99749500Y-95631902D01*
X99749500Y-95868097D01*
X99786446Y-96101368D01*
X99859433Y-96325996D01*
X99966657Y-96536433D01*
X100105483Y-96727510D01*
X100272490Y-96894517D01*
X100463567Y-97033343D01*
X100562991Y-97084002D01*
X100674003Y-97140566D01*
X100674005Y-97140566D01*
X100674008Y-97140568D01*
X100794412Y-97179689D01*
X100898631Y-97213553D01*
X101131903Y-97250500D01*
X101131908Y-97250500D01*
X101368097Y-97250500D01*
X101601368Y-97213553D01*
X101825992Y-97140568D01*
X102036433Y-97033343D01*
X102227510Y-96894517D01*
X102394517Y-96727510D01*
X102533343Y-96536433D01*
X102640568Y-96325992D01*
X102713553Y-96101368D01*
X102750500Y-95868097D01*
X102750500Y-95631902D01*
X106999500Y-95631902D01*
X106999500Y-95868097D01*
X107036446Y-96101368D01*
X107109433Y-96325996D01*
X107216657Y-96536433D01*
X107355483Y-96727510D01*
X107522490Y-96894517D01*
X107713567Y-97033343D01*
X107812991Y-97084002D01*
X107924003Y-97140566D01*
X107924005Y-97140566D01*
X107924008Y-97140568D01*
X108044412Y-97179689D01*
X108148631Y-97213553D01*
X108381903Y-97250500D01*
X108381908Y-97250500D01*
X108618097Y-97250500D01*
X108851368Y-97213553D01*
X109075992Y-97140568D01*
X109286433Y-97033343D01*
X109477510Y-96894517D01*
X109644517Y-96727510D01*
X109783343Y-96536433D01*
X109890568Y-96325992D01*
X109963553Y-96101368D01*
X110000500Y-95868097D01*
X110000500Y-95631902D01*
X113499500Y-95631902D01*
X113499500Y-95868097D01*
X113536446Y-96101368D01*
X113609433Y-96325996D01*
X113716657Y-96536433D01*
X113855483Y-96727510D01*
X114022490Y-96894517D01*
X114213567Y-97033343D01*
X114312991Y-97084002D01*
X114424003Y-97140566D01*
X114424005Y-97140566D01*
X114424008Y-97140568D01*
X114544412Y-97179689D01*
X114648631Y-97213553D01*
X114881903Y-97250500D01*
X114881908Y-97250500D01*
X115118097Y-97250500D01*
X115351368Y-97213553D01*
X115575992Y-97140568D01*
X115786433Y-97033343D01*
X115977510Y-96894517D01*
X116144517Y-96727510D01*
X116283343Y-96536433D01*
X116390568Y-96325992D01*
X116463553Y-96101368D01*
X116500500Y-95868097D01*
X116500500Y-95631902D01*
X120249500Y-95631902D01*
X120249500Y-95868097D01*
X120286446Y-96101368D01*
X120359433Y-96325996D01*
X120466657Y-96536433D01*
X120605483Y-96727510D01*
X120772490Y-96894517D01*
X120963567Y-97033343D01*
X121062991Y-97084002D01*
X121174003Y-97140566D01*
X121174005Y-97140566D01*
X121174008Y-97140568D01*
X121294412Y-97179689D01*
X121398631Y-97213553D01*
X121631903Y-97250500D01*
X121631908Y-97250500D01*
X121868097Y-97250500D01*
X122101368Y-97213553D01*
X122325992Y-97140568D01*
X122536433Y-97033343D01*
X122727510Y-96894517D01*
X122894517Y-96727510D01*
X123033343Y-96536433D01*
X123140568Y-96325992D01*
X123213553Y-96101368D01*
X123250500Y-95868097D01*
X123250500Y-95631902D01*
X126749500Y-95631902D01*
X126749500Y-95868097D01*
X126786446Y-96101368D01*
X126859433Y-96325996D01*
X126966657Y-96536433D01*
X127105483Y-96727510D01*
X127272490Y-96894517D01*
X127463567Y-97033343D01*
X127562991Y-97084002D01*
X127674003Y-97140566D01*
X127674005Y-97140566D01*
X127674008Y-97140568D01*
X127794412Y-97179689D01*
X127898631Y-97213553D01*
X128131903Y-97250500D01*
X128131908Y-97250500D01*
X128368097Y-97250500D01*
X128601368Y-97213553D01*
X128825992Y-97140568D01*
X129036433Y-97033343D01*
X129227510Y-96894517D01*
X129394517Y-96727510D01*
X129533343Y-96536433D01*
X129640568Y-96325992D01*
X129713553Y-96101368D01*
X129750500Y-95868097D01*
X129750500Y-95631902D01*
X133499500Y-95631902D01*
X133499500Y-95868097D01*
X133536446Y-96101368D01*
X133609433Y-96325996D01*
X133716657Y-96536433D01*
X133855483Y-96727510D01*
X134022490Y-96894517D01*
X134213567Y-97033343D01*
X134312991Y-97084002D01*
X134424003Y-97140566D01*
X134424005Y-97140566D01*
X134424008Y-97140568D01*
X134544412Y-97179689D01*
X134648631Y-97213553D01*
X134881903Y-97250500D01*
X134881908Y-97250500D01*
X135118097Y-97250500D01*
X135351368Y-97213553D01*
X135575992Y-97140568D01*
X135786433Y-97033343D01*
X135977510Y-96894517D01*
X136144517Y-96727510D01*
X136283343Y-96536433D01*
X136390568Y-96325992D01*
X136463553Y-96101368D01*
X136500500Y-95868097D01*
X136500500Y-95631902D01*
X139999500Y-95631902D01*
X139999500Y-95868097D01*
X140036446Y-96101368D01*
X140109433Y-96325996D01*
X140216657Y-96536433D01*
X140355483Y-96727510D01*
X140522490Y-96894517D01*
X140713567Y-97033343D01*
X140812991Y-97084002D01*
X140924003Y-97140566D01*
X140924005Y-97140566D01*
X140924008Y-97140568D01*
X141044412Y-97179689D01*
X141148631Y-97213553D01*
X141381903Y-97250500D01*
X141381908Y-97250500D01*
X141618097Y-97250500D01*
X141851368Y-97213553D01*
X142075992Y-97140568D01*
X142286433Y-97033343D01*
X142477510Y-96894517D01*
X142644517Y-96727510D01*
X142783343Y-96536433D01*
X142890568Y-96325992D01*
X142963553Y-96101368D01*
X143000500Y-95868097D01*
X143000500Y-95631902D01*
X142963553Y-95398631D01*
X142890566Y-95174003D01*
X142834002Y-95062991D01*
X142783343Y-94963567D01*
X142644517Y-94772490D01*
X142477510Y-94605483D01*
X142286433Y-94466657D01*
X142075996Y-94359433D01*
X141851368Y-94286446D01*
X141618097Y-94249500D01*
X141618092Y-94249500D01*
X141381908Y-94249500D01*
X141381903Y-94249500D01*
X141148631Y-94286446D01*
X140924003Y-94359433D01*
X140713566Y-94466657D01*
X140604550Y-94545862D01*
X140522490Y-94605483D01*
X140522488Y-94605485D01*
X140522487Y-94605485D01*
X140355485Y-94772487D01*
X140355485Y-94772488D01*
X140355483Y-94772490D01*
X140295862Y-94854550D01*
X140216657Y-94963566D01*
X140109433Y-95174003D01*
X140036446Y-95398631D01*
X139999500Y-95631902D01*
X136500500Y-95631902D01*
X136463553Y-95398631D01*
X136390566Y-95174003D01*
X136334002Y-95062991D01*
X136283343Y-94963567D01*
X136144517Y-94772490D01*
X135977510Y-94605483D01*
X135786433Y-94466657D01*
X135575996Y-94359433D01*
X135351368Y-94286446D01*
X135118097Y-94249500D01*
X135118092Y-94249500D01*
X134881908Y-94249500D01*
X134881903Y-94249500D01*
X134648631Y-94286446D01*
X134424003Y-94359433D01*
X134213566Y-94466657D01*
X134104550Y-94545862D01*
X134022490Y-94605483D01*
X134022488Y-94605485D01*
X134022487Y-94605485D01*
X133855485Y-94772487D01*
X133855485Y-94772488D01*
X133855483Y-94772490D01*
X133795862Y-94854550D01*
X133716657Y-94963566D01*
X133609433Y-95174003D01*
X133536446Y-95398631D01*
X133499500Y-95631902D01*
X129750500Y-95631902D01*
X129713553Y-95398631D01*
X129640566Y-95174003D01*
X129584002Y-95062991D01*
X129533343Y-94963567D01*
X129394517Y-94772490D01*
X129227510Y-94605483D01*
X129036433Y-94466657D01*
X128825996Y-94359433D01*
X128601368Y-94286446D01*
X128368097Y-94249500D01*
X128368092Y-94249500D01*
X128131908Y-94249500D01*
X128131903Y-94249500D01*
X127898631Y-94286446D01*
X127674003Y-94359433D01*
X127463566Y-94466657D01*
X127354550Y-94545862D01*
X127272490Y-94605483D01*
X127272488Y-94605485D01*
X127272487Y-94605485D01*
X127105485Y-94772487D01*
X127105485Y-94772488D01*
X127105483Y-94772490D01*
X127045862Y-94854550D01*
X126966657Y-94963566D01*
X126859433Y-95174003D01*
X126786446Y-95398631D01*
X126749500Y-95631902D01*
X123250500Y-95631902D01*
X123213553Y-95398631D01*
X123140566Y-95174003D01*
X123084002Y-95062991D01*
X123033343Y-94963567D01*
X122894517Y-94772490D01*
X122727510Y-94605483D01*
X122536433Y-94466657D01*
X122325996Y-94359433D01*
X122101368Y-94286446D01*
X121868097Y-94249500D01*
X121868092Y-94249500D01*
X121631908Y-94249500D01*
X121631903Y-94249500D01*
X121398631Y-94286446D01*
X121174003Y-94359433D01*
X120963566Y-94466657D01*
X120854550Y-94545862D01*
X120772490Y-94605483D01*
X120772488Y-94605485D01*
X120772487Y-94605485D01*
X120605485Y-94772487D01*
X120605485Y-94772488D01*
X120605483Y-94772490D01*
X120545862Y-94854550D01*
X120466657Y-94963566D01*
X120359433Y-95174003D01*
X120286446Y-95398631D01*
X120249500Y-95631902D01*
X116500500Y-95631902D01*
X116463553Y-95398631D01*
X116390566Y-95174003D01*
X116334002Y-95062991D01*
X116283343Y-94963567D01*
X116144517Y-94772490D01*
X115977510Y-94605483D01*
X115786433Y-94466657D01*
X115575996Y-94359433D01*
X115351368Y-94286446D01*
X115118097Y-94249500D01*
X115118092Y-94249500D01*
X114881908Y-94249500D01*
X114881903Y-94249500D01*
X114648631Y-94286446D01*
X114424003Y-94359433D01*
X114213566Y-94466657D01*
X114104550Y-94545862D01*
X114022490Y-94605483D01*
X114022488Y-94605485D01*
X114022487Y-94605485D01*
X113855485Y-94772487D01*
X113855485Y-94772488D01*
X113855483Y-94772490D01*
X113795862Y-94854550D01*
X113716657Y-94963566D01*
X113609433Y-95174003D01*
X113536446Y-95398631D01*
X113499500Y-95631902D01*
X110000500Y-95631902D01*
X109963553Y-95398631D01*
X109890566Y-95174003D01*
X109834002Y-95062991D01*
X109783343Y-94963567D01*
X109644517Y-94772490D01*
X109477510Y-94605483D01*
X109286433Y-94466657D01*
X109075996Y-94359433D01*
X108851368Y-94286446D01*
X108618097Y-94249500D01*
X108618092Y-94249500D01*
X108381908Y-94249500D01*
X108381903Y-94249500D01*
X108148631Y-94286446D01*
X107924003Y-94359433D01*
X107713566Y-94466657D01*
X107604550Y-94545862D01*
X107522490Y-94605483D01*
X107522488Y-94605485D01*
X107522487Y-94605485D01*
X107355485Y-94772487D01*
X107355485Y-94772488D01*
X107355483Y-94772490D01*
X107295862Y-94854550D01*
X107216657Y-94963566D01*
X107109433Y-95174003D01*
X107036446Y-95398631D01*
X106999500Y-95631902D01*
X102750500Y-95631902D01*
X102713553Y-95398631D01*
X102640566Y-95174003D01*
X102584002Y-95062991D01*
X102533343Y-94963567D01*
X102394517Y-94772490D01*
X102227510Y-94605483D01*
X102036433Y-94466657D01*
X101825996Y-94359433D01*
X101601368Y-94286446D01*
X101368097Y-94249500D01*
X101368092Y-94249500D01*
X101131908Y-94249500D01*
X101131903Y-94249500D01*
X100898631Y-94286446D01*
X100674003Y-94359433D01*
X100463566Y-94466657D01*
X100354550Y-94545862D01*
X100272490Y-94605483D01*
X100272488Y-94605485D01*
X100272487Y-94605485D01*
X100105485Y-94772487D01*
X100105485Y-94772488D01*
X100105483Y-94772490D01*
X100045862Y-94854550D01*
X99966657Y-94963566D01*
X99859433Y-95174003D01*
X99786446Y-95398631D01*
X99749500Y-95631902D01*
X96250500Y-95631902D01*
X96213553Y-95398631D01*
X96140566Y-95174003D01*
X96084002Y-95062991D01*
X96033343Y-94963567D01*
X95894517Y-94772490D01*
X95727510Y-94605483D01*
X95536433Y-94466657D01*
X95325996Y-94359433D01*
X95101368Y-94286446D01*
X94868097Y-94249500D01*
X94868092Y-94249500D01*
X94631908Y-94249500D01*
X94631903Y-94249500D01*
X94398631Y-94286446D01*
X94174003Y-94359433D01*
X93963566Y-94466657D01*
X93854550Y-94545862D01*
X93772490Y-94605483D01*
X93772488Y-94605485D01*
X93772487Y-94605485D01*
X93605485Y-94772487D01*
X93605485Y-94772488D01*
X93605483Y-94772490D01*
X93545862Y-94854550D01*
X93466657Y-94963566D01*
X93359433Y-95174003D01*
X93286446Y-95398631D01*
X93249500Y-95631902D01*
X87874463Y-95631902D01*
X88030289Y-95541936D01*
X88222738Y-95394265D01*
X88394265Y-95222738D01*
X88541936Y-95030289D01*
X88663224Y-94820212D01*
X88756054Y-94596100D01*
X88818838Y-94361789D01*
X88850500Y-94121288D01*
X88850500Y-93878712D01*
X88850500Y-93878711D01*
X152149500Y-93878711D01*
X152149500Y-94121288D01*
X152181161Y-94361785D01*
X152243947Y-94596104D01*
X152317008Y-94772488D01*
X152336776Y-94820212D01*
X152458064Y-95030289D01*
X152458066Y-95030292D01*
X152458067Y-95030293D01*
X152605733Y-95222736D01*
X152605739Y-95222743D01*
X152777256Y-95394260D01*
X152777262Y-95394265D01*
X152969711Y-95541936D01*
X153179788Y-95663224D01*
X153403900Y-95756054D01*
X153638211Y-95818838D01*
X153818586Y-95842584D01*
X153878711Y-95850500D01*
X153878712Y-95850500D01*
X154121289Y-95850500D01*
X154169388Y-95844167D01*
X154361789Y-95818838D01*
X154596100Y-95756054D01*
X154820212Y-95663224D01*
X155030289Y-95541936D01*
X155222738Y-95394265D01*
X155394265Y-95222738D01*
X155541936Y-95030289D01*
X155663224Y-94820212D01*
X155756054Y-94596100D01*
X155818838Y-94361789D01*
X155850500Y-94121288D01*
X155850500Y-93878712D01*
X155818838Y-93638211D01*
X155756054Y-93403900D01*
X155663224Y-93179788D01*
X155541936Y-92969711D01*
X155394265Y-92777262D01*
X155394260Y-92777256D01*
X155222743Y-92605739D01*
X155222736Y-92605733D01*
X155030293Y-92458067D01*
X155030292Y-92458066D01*
X155030289Y-92458064D01*
X154820212Y-92336776D01*
X154820205Y-92336773D01*
X154596104Y-92243947D01*
X154361785Y-92181161D01*
X154121289Y-92149500D01*
X154121288Y-92149500D01*
X153878712Y-92149500D01*
X153878711Y-92149500D01*
X153638214Y-92181161D01*
X153403895Y-92243947D01*
X153179794Y-92336773D01*
X153179785Y-92336777D01*
X152969706Y-92458067D01*
X152777263Y-92605733D01*
X152777256Y-92605739D01*
X152605739Y-92777256D01*
X152605733Y-92777263D01*
X152458067Y-92969706D01*
X152336777Y-93179785D01*
X152336773Y-93179794D01*
X152243947Y-93403895D01*
X152181161Y-93638214D01*
X152149500Y-93878711D01*
X88850500Y-93878711D01*
X88818838Y-93638211D01*
X88756054Y-93403900D01*
X88663224Y-93179788D01*
X88541936Y-92969711D01*
X88394265Y-92777262D01*
X88394260Y-92777256D01*
X88222743Y-92605739D01*
X88222736Y-92605733D01*
X88030293Y-92458067D01*
X88030292Y-92458066D01*
X88030289Y-92458064D01*
X87820212Y-92336776D01*
X87820205Y-92336773D01*
X87596104Y-92243947D01*
X87361785Y-92181161D01*
X87121289Y-92149500D01*
X87121288Y-92149500D01*
X86878712Y-92149500D01*
X86878711Y-92149500D01*
X86638214Y-92181161D01*
X86403895Y-92243947D01*
X86179794Y-92336773D01*
X86179785Y-92336777D01*
X85969706Y-92458067D01*
X85777263Y-92605733D01*
X85777256Y-92605739D01*
X85605739Y-92777256D01*
X85605733Y-92777263D01*
X85458067Y-92969706D01*
X85336777Y-93179785D01*
X85336773Y-93179794D01*
X85243947Y-93403895D01*
X85181161Y-93638214D01*
X85149500Y-93878711D01*
X83500500Y-93878711D01*
X83500500Y-93003750D01*
X83500726Y-92996263D01*
X83518271Y-92706205D01*
X83520076Y-92691340D01*
X83571780Y-92409202D01*
X83575364Y-92394664D01*
X83660699Y-92120812D01*
X83665997Y-92106842D01*
X83783727Y-91845258D01*
X83790680Y-91832012D01*
X83830959Y-91765381D01*
X83939075Y-91586534D01*
X83947567Y-91574230D01*
X84124481Y-91348417D01*
X84134396Y-91337226D01*
X84337226Y-91134396D01*
X84348417Y-91124481D01*
X84574230Y-90947567D01*
X84586534Y-90939075D01*
X84832012Y-90790680D01*
X84845258Y-90783727D01*
X85106842Y-90665997D01*
X85120812Y-90660699D01*
X85394668Y-90575362D01*
X85409198Y-90571780D01*
X85691344Y-90520075D01*
X85706201Y-90518271D01*
X85996264Y-90500726D01*
X86003751Y-90500500D01*
X86065892Y-90500500D01*
X154934108Y-90500500D01*
X154996249Y-90500500D01*
X155003736Y-90500726D01*
G37*
%TD.AperFunction*%
%TD*%
M02*
