%TF.GenerationSoftware,KiCad,Pcbnew,10.0.1-10.0.1~ubuntu22.04.1*%
%TF.CreationDate,2026-07-17T13:41:06+09:00*%
%TF.ProjectId,administrator-board,61646d69-6e69-4737-9472-61746f722d62,rev?*%
%TF.SameCoordinates,Original*%
%TF.FileFunction,Soldermask,Top*%
%TF.FilePolarity,Negative*%
%FSLAX46Y46*%
G04 Gerber Fmt 4.6, Leading zero omitted, Abs format (unit mm)*
G04 Created by KiCad (PCBNEW 10.0.1-10.0.1~ubuntu22.04.1) date 2026-07-17 13:41:06*
%MOMM*%
%LPD*%
G01*
G04 APERTURE LIST*
G04 Aperture macros list*
%AMRoundRect*
0 Rectangle with rounded corners*
0 $1 Rounding radius*
0 $2 $3 $4 $5 $6 $7 $8 $9 X,Y pos of 4 corners*
0 Add a 4 corners polygon primitive as box body*
4,1,4,$2,$3,$4,$5,$6,$7,$8,$9,$2,$3,0*
0 Add four circle primitives for the rounded corners*
1,1,$1+$1,$2,$3*
1,1,$1+$1,$4,$5*
1,1,$1+$1,$6,$7*
1,1,$1+$1,$8,$9*
0 Add four rect primitives between the rounded corners*
20,1,$1+$1,$2,$3,$4,$5,0*
20,1,$1+$1,$4,$5,$6,$7,0*
20,1,$1+$1,$6,$7,$8,$9,0*
20,1,$1+$1,$8,$9,$2,$3,0*%
G04 Aperture macros list end*
%ADD10RoundRect,0.237500X-0.250000X-0.237500X0.250000X-0.237500X0.250000X0.237500X-0.250000X0.237500X0*%
%ADD11C,2.000000*%
%ADD12C,3.200000*%
%ADD13RoundRect,0.237500X-0.287500X-0.237500X0.287500X-0.237500X0.287500X0.237500X-0.287500X0.237500X0*%
%ADD14RoundRect,0.250000X-0.600000X-0.725000X0.600000X-0.725000X0.600000X0.725000X-0.600000X0.725000X0*%
%ADD15O,1.700000X1.950000*%
%ADD16RoundRect,0.237500X-0.237500X0.287500X-0.237500X-0.287500X0.237500X-0.287500X0.237500X0.287500X0*%
%ADD17RoundRect,0.237500X-0.237500X0.250000X-0.237500X-0.250000X0.237500X-0.250000X0.237500X0.250000X0*%
G04 APERTURE END LIST*
D10*
%TO.C,R7*%
X114987500Y-106500000D03*
X116812500Y-106500000D03*
%TD*%
D11*
%TO.C,SW1*%
X94750000Y-95750000D03*
X101250000Y-95750000D03*
X94750000Y-100250000D03*
X101250000Y-100250000D03*
%TD*%
%TO.C,SW4*%
X135000000Y-95750000D03*
X141500000Y-95750000D03*
X135000000Y-100250000D03*
X141500000Y-100250000D03*
%TD*%
D10*
%TO.C,R6*%
X101087500Y-106000000D03*
X102912500Y-106000000D03*
%TD*%
D12*
%TO.C,REF\u002A\u002A*%
X87000000Y-94000000D03*
%TD*%
%TO.C,REF\u002A\u002A*%
X154000000Y-129000000D03*
%TD*%
D10*
%TO.C,R4*%
X121587500Y-110000000D03*
X123412500Y-110000000D03*
%TD*%
D12*
%TO.C,REF\u002A\u002A*%
X87000000Y-129000000D03*
%TD*%
D10*
%TO.C,R3*%
X109212500Y-110000000D03*
X111037500Y-110000000D03*
%TD*%
%TO.C,R9*%
X141475000Y-106500000D03*
X143300000Y-106500000D03*
%TD*%
D13*
%TO.C,D4*%
X121625000Y-106500000D03*
X123375000Y-106500000D03*
%TD*%
D12*
%TO.C,REF\u002A\u002A*%
X154000000Y-94000000D03*
%TD*%
D10*
%TO.C,R2*%
X96087500Y-110000000D03*
X97912500Y-110000000D03*
%TD*%
%TO.C,R5*%
X135587500Y-110000000D03*
X137412500Y-110000000D03*
%TD*%
D13*
%TO.C,D2*%
X96125000Y-106000000D03*
X97875000Y-106000000D03*
%TD*%
D14*
%TO.C,J2*%
X125000000Y-123000000D03*
D15*
X127500000Y-123000000D03*
X130000000Y-123000000D03*
X132500000Y-123000000D03*
X135000000Y-123000000D03*
X137500000Y-123000000D03*
%TD*%
D11*
%TO.C,SW3*%
X121750000Y-95750000D03*
X128250000Y-95750000D03*
X121750000Y-100250000D03*
X128250000Y-100250000D03*
%TD*%
D13*
%TO.C,D3*%
X109250000Y-106500000D03*
X111000000Y-106500000D03*
%TD*%
D16*
%TO.C,D1*%
X95000000Y-128625000D03*
X95000000Y-130375000D03*
%TD*%
D14*
%TO.C,J3*%
X101500000Y-123000000D03*
D15*
X104000000Y-123000000D03*
X106500000Y-123000000D03*
X109000000Y-123000000D03*
X111500000Y-123000000D03*
X114000000Y-123000000D03*
%TD*%
D10*
%TO.C,R8*%
X128275000Y-106500000D03*
X130100000Y-106500000D03*
%TD*%
D11*
%TO.C,SW2*%
X108500000Y-95750000D03*
X115000000Y-95750000D03*
X108500000Y-100250000D03*
X115000000Y-100250000D03*
%TD*%
D17*
%TO.C,R1*%
X95000000Y-122587500D03*
X95000000Y-124412500D03*
%TD*%
D13*
%TO.C,D5*%
X135625000Y-106500000D03*
X137375000Y-106500000D03*
%TD*%
M02*
