%TF.GenerationSoftware,KiCad,Pcbnew,10.0.1-10.0.1~ubuntu22.04.1*%
%TF.CreationDate,2026-07-17T13:41:06+09:00*%
%TF.ProjectId,administrator-board,61646d69-6e69-4737-9472-61746f722d62,rev?*%
%TF.SameCoordinates,Original*%
%TF.FileFunction,Legend,Top*%
%TF.FilePolarity,Positive*%
%FSLAX46Y46*%
G04 Gerber Fmt 4.6, Leading zero omitted, Abs format (unit mm)*
G04 Created by KiCad (PCBNEW 10.0.1-10.0.1~ubuntu22.04.1) date 2026-07-17 13:41:06*
%MOMM*%
%LPD*%
G01*
G04 APERTURE LIST*
%ADD10C,0.100000*%
%ADD11C,0.150000*%
%ADD12C,0.120000*%
G04 APERTURE END LIST*
D10*
X92756265Y-92586704D02*
X93232455Y-92586704D01*
X92661027Y-92872419D02*
X92994360Y-91872419D01*
X92994360Y-91872419D02*
X93327693Y-92872419D01*
X94089598Y-92872419D02*
X94089598Y-91872419D01*
X94089598Y-92824800D02*
X93994360Y-92872419D01*
X93994360Y-92872419D02*
X93803884Y-92872419D01*
X93803884Y-92872419D02*
X93708646Y-92824800D01*
X93708646Y-92824800D02*
X93661027Y-92777180D01*
X93661027Y-92777180D02*
X93613408Y-92681942D01*
X93613408Y-92681942D02*
X93613408Y-92396228D01*
X93613408Y-92396228D02*
X93661027Y-92300990D01*
X93661027Y-92300990D02*
X93708646Y-92253371D01*
X93708646Y-92253371D02*
X93803884Y-92205752D01*
X93803884Y-92205752D02*
X93994360Y-92205752D01*
X93994360Y-92205752D02*
X94089598Y-92253371D01*
X94565789Y-92872419D02*
X94565789Y-92205752D01*
X94565789Y-92300990D02*
X94613408Y-92253371D01*
X94613408Y-92253371D02*
X94708646Y-92205752D01*
X94708646Y-92205752D02*
X94851503Y-92205752D01*
X94851503Y-92205752D02*
X94946741Y-92253371D01*
X94946741Y-92253371D02*
X94994360Y-92348609D01*
X94994360Y-92348609D02*
X94994360Y-92872419D01*
X94994360Y-92348609D02*
X95041979Y-92253371D01*
X95041979Y-92253371D02*
X95137217Y-92205752D01*
X95137217Y-92205752D02*
X95280074Y-92205752D01*
X95280074Y-92205752D02*
X95375313Y-92253371D01*
X95375313Y-92253371D02*
X95422932Y-92348609D01*
X95422932Y-92348609D02*
X95422932Y-92872419D01*
X95899122Y-92872419D02*
X95899122Y-92205752D01*
X95899122Y-91872419D02*
X95851503Y-91920038D01*
X95851503Y-91920038D02*
X95899122Y-91967657D01*
X95899122Y-91967657D02*
X95946741Y-91920038D01*
X95946741Y-91920038D02*
X95899122Y-91872419D01*
X95899122Y-91872419D02*
X95899122Y-91967657D01*
X96375312Y-92205752D02*
X96375312Y-92872419D01*
X96375312Y-92300990D02*
X96422931Y-92253371D01*
X96422931Y-92253371D02*
X96518169Y-92205752D01*
X96518169Y-92205752D02*
X96661026Y-92205752D01*
X96661026Y-92205752D02*
X96756264Y-92253371D01*
X96756264Y-92253371D02*
X96803883Y-92348609D01*
X96803883Y-92348609D02*
X96803883Y-92872419D01*
X97232455Y-92824800D02*
X97327693Y-92872419D01*
X97327693Y-92872419D02*
X97518169Y-92872419D01*
X97518169Y-92872419D02*
X97613407Y-92824800D01*
X97613407Y-92824800D02*
X97661026Y-92729561D01*
X97661026Y-92729561D02*
X97661026Y-92681942D01*
X97661026Y-92681942D02*
X97613407Y-92586704D01*
X97613407Y-92586704D02*
X97518169Y-92539085D01*
X97518169Y-92539085D02*
X97375312Y-92539085D01*
X97375312Y-92539085D02*
X97280074Y-92491466D01*
X97280074Y-92491466D02*
X97232455Y-92396228D01*
X97232455Y-92396228D02*
X97232455Y-92348609D01*
X97232455Y-92348609D02*
X97280074Y-92253371D01*
X97280074Y-92253371D02*
X97375312Y-92205752D01*
X97375312Y-92205752D02*
X97518169Y-92205752D01*
X97518169Y-92205752D02*
X97613407Y-92253371D01*
X97946741Y-92205752D02*
X98327693Y-92205752D01*
X98089598Y-91872419D02*
X98089598Y-92729561D01*
X98089598Y-92729561D02*
X98137217Y-92824800D01*
X98137217Y-92824800D02*
X98232455Y-92872419D01*
X98232455Y-92872419D02*
X98327693Y-92872419D01*
X98661027Y-92872419D02*
X98661027Y-92205752D01*
X98661027Y-92396228D02*
X98708646Y-92300990D01*
X98708646Y-92300990D02*
X98756265Y-92253371D01*
X98756265Y-92253371D02*
X98851503Y-92205752D01*
X98851503Y-92205752D02*
X98946741Y-92205752D01*
X99708646Y-92872419D02*
X99708646Y-92348609D01*
X99708646Y-92348609D02*
X99661027Y-92253371D01*
X99661027Y-92253371D02*
X99565789Y-92205752D01*
X99565789Y-92205752D02*
X99375313Y-92205752D01*
X99375313Y-92205752D02*
X99280075Y-92253371D01*
X99708646Y-92824800D02*
X99613408Y-92872419D01*
X99613408Y-92872419D02*
X99375313Y-92872419D01*
X99375313Y-92872419D02*
X99280075Y-92824800D01*
X99280075Y-92824800D02*
X99232456Y-92729561D01*
X99232456Y-92729561D02*
X99232456Y-92634323D01*
X99232456Y-92634323D02*
X99280075Y-92539085D01*
X99280075Y-92539085D02*
X99375313Y-92491466D01*
X99375313Y-92491466D02*
X99613408Y-92491466D01*
X99613408Y-92491466D02*
X99708646Y-92443847D01*
X100041980Y-92205752D02*
X100422932Y-92205752D01*
X100184837Y-91872419D02*
X100184837Y-92729561D01*
X100184837Y-92729561D02*
X100232456Y-92824800D01*
X100232456Y-92824800D02*
X100327694Y-92872419D01*
X100327694Y-92872419D02*
X100422932Y-92872419D01*
X100899123Y-92872419D02*
X100803885Y-92824800D01*
X100803885Y-92824800D02*
X100756266Y-92777180D01*
X100756266Y-92777180D02*
X100708647Y-92681942D01*
X100708647Y-92681942D02*
X100708647Y-92396228D01*
X100708647Y-92396228D02*
X100756266Y-92300990D01*
X100756266Y-92300990D02*
X100803885Y-92253371D01*
X100803885Y-92253371D02*
X100899123Y-92205752D01*
X100899123Y-92205752D02*
X101041980Y-92205752D01*
X101041980Y-92205752D02*
X101137218Y-92253371D01*
X101137218Y-92253371D02*
X101184837Y-92300990D01*
X101184837Y-92300990D02*
X101232456Y-92396228D01*
X101232456Y-92396228D02*
X101232456Y-92681942D01*
X101232456Y-92681942D02*
X101184837Y-92777180D01*
X101184837Y-92777180D02*
X101137218Y-92824800D01*
X101137218Y-92824800D02*
X101041980Y-92872419D01*
X101041980Y-92872419D02*
X100899123Y-92872419D01*
X101661028Y-92872419D02*
X101661028Y-92205752D01*
X101661028Y-92396228D02*
X101708647Y-92300990D01*
X101708647Y-92300990D02*
X101756266Y-92253371D01*
X101756266Y-92253371D02*
X101851504Y-92205752D01*
X101851504Y-92205752D02*
X101946742Y-92205752D01*
X103375314Y-92348609D02*
X103518171Y-92396228D01*
X103518171Y-92396228D02*
X103565790Y-92443847D01*
X103565790Y-92443847D02*
X103613409Y-92539085D01*
X103613409Y-92539085D02*
X103613409Y-92681942D01*
X103613409Y-92681942D02*
X103565790Y-92777180D01*
X103565790Y-92777180D02*
X103518171Y-92824800D01*
X103518171Y-92824800D02*
X103422933Y-92872419D01*
X103422933Y-92872419D02*
X103041981Y-92872419D01*
X103041981Y-92872419D02*
X103041981Y-91872419D01*
X103041981Y-91872419D02*
X103375314Y-91872419D01*
X103375314Y-91872419D02*
X103470552Y-91920038D01*
X103470552Y-91920038D02*
X103518171Y-91967657D01*
X103518171Y-91967657D02*
X103565790Y-92062895D01*
X103565790Y-92062895D02*
X103565790Y-92158133D01*
X103565790Y-92158133D02*
X103518171Y-92253371D01*
X103518171Y-92253371D02*
X103470552Y-92300990D01*
X103470552Y-92300990D02*
X103375314Y-92348609D01*
X103375314Y-92348609D02*
X103041981Y-92348609D01*
X104184838Y-92872419D02*
X104089600Y-92824800D01*
X104089600Y-92824800D02*
X104041981Y-92777180D01*
X104041981Y-92777180D02*
X103994362Y-92681942D01*
X103994362Y-92681942D02*
X103994362Y-92396228D01*
X103994362Y-92396228D02*
X104041981Y-92300990D01*
X104041981Y-92300990D02*
X104089600Y-92253371D01*
X104089600Y-92253371D02*
X104184838Y-92205752D01*
X104184838Y-92205752D02*
X104327695Y-92205752D01*
X104327695Y-92205752D02*
X104422933Y-92253371D01*
X104422933Y-92253371D02*
X104470552Y-92300990D01*
X104470552Y-92300990D02*
X104518171Y-92396228D01*
X104518171Y-92396228D02*
X104518171Y-92681942D01*
X104518171Y-92681942D02*
X104470552Y-92777180D01*
X104470552Y-92777180D02*
X104422933Y-92824800D01*
X104422933Y-92824800D02*
X104327695Y-92872419D01*
X104327695Y-92872419D02*
X104184838Y-92872419D01*
X105375314Y-92872419D02*
X105375314Y-92348609D01*
X105375314Y-92348609D02*
X105327695Y-92253371D01*
X105327695Y-92253371D02*
X105232457Y-92205752D01*
X105232457Y-92205752D02*
X105041981Y-92205752D01*
X105041981Y-92205752D02*
X104946743Y-92253371D01*
X105375314Y-92824800D02*
X105280076Y-92872419D01*
X105280076Y-92872419D02*
X105041981Y-92872419D01*
X105041981Y-92872419D02*
X104946743Y-92824800D01*
X104946743Y-92824800D02*
X104899124Y-92729561D01*
X104899124Y-92729561D02*
X104899124Y-92634323D01*
X104899124Y-92634323D02*
X104946743Y-92539085D01*
X104946743Y-92539085D02*
X105041981Y-92491466D01*
X105041981Y-92491466D02*
X105280076Y-92491466D01*
X105280076Y-92491466D02*
X105375314Y-92443847D01*
X105851505Y-92872419D02*
X105851505Y-92205752D01*
X105851505Y-92396228D02*
X105899124Y-92300990D01*
X105899124Y-92300990D02*
X105946743Y-92253371D01*
X105946743Y-92253371D02*
X106041981Y-92205752D01*
X106041981Y-92205752D02*
X106137219Y-92205752D01*
X106899124Y-92872419D02*
X106899124Y-91872419D01*
X106899124Y-92824800D02*
X106803886Y-92872419D01*
X106803886Y-92872419D02*
X106613410Y-92872419D01*
X106613410Y-92872419D02*
X106518172Y-92824800D01*
X106518172Y-92824800D02*
X106470553Y-92777180D01*
X106470553Y-92777180D02*
X106422934Y-92681942D01*
X106422934Y-92681942D02*
X106422934Y-92396228D01*
X106422934Y-92396228D02*
X106470553Y-92300990D01*
X106470553Y-92300990D02*
X106518172Y-92253371D01*
X106518172Y-92253371D02*
X106613410Y-92205752D01*
X106613410Y-92205752D02*
X106803886Y-92205752D01*
X106803886Y-92205752D02*
X106899124Y-92253371D01*
X98756265Y-118324800D02*
X98899122Y-118372419D01*
X98899122Y-118372419D02*
X99137217Y-118372419D01*
X99137217Y-118372419D02*
X99232455Y-118324800D01*
X99232455Y-118324800D02*
X99280074Y-118277180D01*
X99280074Y-118277180D02*
X99327693Y-118181942D01*
X99327693Y-118181942D02*
X99327693Y-118086704D01*
X99327693Y-118086704D02*
X99280074Y-117991466D01*
X99280074Y-117991466D02*
X99232455Y-117943847D01*
X99232455Y-117943847D02*
X99137217Y-117896228D01*
X99137217Y-117896228D02*
X98946741Y-117848609D01*
X98946741Y-117848609D02*
X98851503Y-117800990D01*
X98851503Y-117800990D02*
X98803884Y-117753371D01*
X98803884Y-117753371D02*
X98756265Y-117658133D01*
X98756265Y-117658133D02*
X98756265Y-117562895D01*
X98756265Y-117562895D02*
X98803884Y-117467657D01*
X98803884Y-117467657D02*
X98851503Y-117420038D01*
X98851503Y-117420038D02*
X98946741Y-117372419D01*
X98946741Y-117372419D02*
X99184836Y-117372419D01*
X99184836Y-117372419D02*
X99327693Y-117420038D01*
X99661027Y-117372419D02*
X99899122Y-118372419D01*
X99899122Y-118372419D02*
X100089598Y-117658133D01*
X100089598Y-117658133D02*
X100280074Y-118372419D01*
X100280074Y-118372419D02*
X100518170Y-117372419D01*
X101422931Y-118372419D02*
X100851503Y-118372419D01*
X101137217Y-118372419D02*
X101137217Y-117372419D01*
X101137217Y-117372419D02*
X101041979Y-117515276D01*
X101041979Y-117515276D02*
X100946741Y-117610514D01*
X100946741Y-117610514D02*
X100851503Y-117658133D01*
X102518170Y-117372419D02*
X103137217Y-117372419D01*
X103137217Y-117372419D02*
X102803884Y-117753371D01*
X102803884Y-117753371D02*
X102946741Y-117753371D01*
X102946741Y-117753371D02*
X103041979Y-117800990D01*
X103041979Y-117800990D02*
X103089598Y-117848609D01*
X103089598Y-117848609D02*
X103137217Y-117943847D01*
X103137217Y-117943847D02*
X103137217Y-118181942D01*
X103137217Y-118181942D02*
X103089598Y-118277180D01*
X103089598Y-118277180D02*
X103041979Y-118324800D01*
X103041979Y-118324800D02*
X102946741Y-118372419D01*
X102946741Y-118372419D02*
X102661027Y-118372419D01*
X102661027Y-118372419D02*
X102565789Y-118324800D01*
X102565789Y-118324800D02*
X102518170Y-118277180D01*
X103565789Y-118277180D02*
X103613408Y-118324800D01*
X103613408Y-118324800D02*
X103565789Y-118372419D01*
X103565789Y-118372419D02*
X103518170Y-118324800D01*
X103518170Y-118324800D02*
X103565789Y-118277180D01*
X103565789Y-118277180D02*
X103565789Y-118372419D01*
X103946741Y-117372419D02*
X104565788Y-117372419D01*
X104565788Y-117372419D02*
X104232455Y-117753371D01*
X104232455Y-117753371D02*
X104375312Y-117753371D01*
X104375312Y-117753371D02*
X104470550Y-117800990D01*
X104470550Y-117800990D02*
X104518169Y-117848609D01*
X104518169Y-117848609D02*
X104565788Y-117943847D01*
X104565788Y-117943847D02*
X104565788Y-118181942D01*
X104565788Y-118181942D02*
X104518169Y-118277180D01*
X104518169Y-118277180D02*
X104470550Y-118324800D01*
X104470550Y-118324800D02*
X104375312Y-118372419D01*
X104375312Y-118372419D02*
X104089598Y-118372419D01*
X104089598Y-118372419D02*
X103994360Y-118324800D01*
X103994360Y-118324800D02*
X103946741Y-118277180D01*
X104851503Y-117372419D02*
X105184836Y-118372419D01*
X105184836Y-118372419D02*
X105518169Y-117372419D01*
X106565789Y-118324800D02*
X106708646Y-118372419D01*
X106708646Y-118372419D02*
X106946741Y-118372419D01*
X106946741Y-118372419D02*
X107041979Y-118324800D01*
X107041979Y-118324800D02*
X107089598Y-118277180D01*
X107089598Y-118277180D02*
X107137217Y-118181942D01*
X107137217Y-118181942D02*
X107137217Y-118086704D01*
X107137217Y-118086704D02*
X107089598Y-117991466D01*
X107089598Y-117991466D02*
X107041979Y-117943847D01*
X107041979Y-117943847D02*
X106946741Y-117896228D01*
X106946741Y-117896228D02*
X106756265Y-117848609D01*
X106756265Y-117848609D02*
X106661027Y-117800990D01*
X106661027Y-117800990D02*
X106613408Y-117753371D01*
X106613408Y-117753371D02*
X106565789Y-117658133D01*
X106565789Y-117658133D02*
X106565789Y-117562895D01*
X106565789Y-117562895D02*
X106613408Y-117467657D01*
X106613408Y-117467657D02*
X106661027Y-117420038D01*
X106661027Y-117420038D02*
X106756265Y-117372419D01*
X106756265Y-117372419D02*
X106994360Y-117372419D01*
X106994360Y-117372419D02*
X107137217Y-117420038D01*
X107470551Y-117372419D02*
X107708646Y-118372419D01*
X107708646Y-118372419D02*
X107899122Y-117658133D01*
X107899122Y-117658133D02*
X108089598Y-118372419D01*
X108089598Y-118372419D02*
X108327694Y-117372419D01*
X108661027Y-117467657D02*
X108708646Y-117420038D01*
X108708646Y-117420038D02*
X108803884Y-117372419D01*
X108803884Y-117372419D02*
X109041979Y-117372419D01*
X109041979Y-117372419D02*
X109137217Y-117420038D01*
X109137217Y-117420038D02*
X109184836Y-117467657D01*
X109184836Y-117467657D02*
X109232455Y-117562895D01*
X109232455Y-117562895D02*
X109232455Y-117658133D01*
X109232455Y-117658133D02*
X109184836Y-117800990D01*
X109184836Y-117800990D02*
X108613408Y-118372419D01*
X108613408Y-118372419D02*
X109232455Y-118372419D01*
X110946741Y-117420038D02*
X110851503Y-117372419D01*
X110851503Y-117372419D02*
X110708646Y-117372419D01*
X110708646Y-117372419D02*
X110565789Y-117420038D01*
X110565789Y-117420038D02*
X110470551Y-117515276D01*
X110470551Y-117515276D02*
X110422932Y-117610514D01*
X110422932Y-117610514D02*
X110375313Y-117800990D01*
X110375313Y-117800990D02*
X110375313Y-117943847D01*
X110375313Y-117943847D02*
X110422932Y-118134323D01*
X110422932Y-118134323D02*
X110470551Y-118229561D01*
X110470551Y-118229561D02*
X110565789Y-118324800D01*
X110565789Y-118324800D02*
X110708646Y-118372419D01*
X110708646Y-118372419D02*
X110803884Y-118372419D01*
X110803884Y-118372419D02*
X110946741Y-118324800D01*
X110946741Y-118324800D02*
X110994360Y-118277180D01*
X110994360Y-118277180D02*
X110994360Y-117943847D01*
X110994360Y-117943847D02*
X110803884Y-117943847D01*
X111422932Y-118372419D02*
X111422932Y-117372419D01*
X111422932Y-117372419D02*
X111994360Y-118372419D01*
X111994360Y-118372419D02*
X111994360Y-117372419D01*
X112470551Y-118372419D02*
X112470551Y-117372419D01*
X112470551Y-117372419D02*
X112708646Y-117372419D01*
X112708646Y-117372419D02*
X112851503Y-117420038D01*
X112851503Y-117420038D02*
X112946741Y-117515276D01*
X112946741Y-117515276D02*
X112994360Y-117610514D01*
X112994360Y-117610514D02*
X113041979Y-117800990D01*
X113041979Y-117800990D02*
X113041979Y-117943847D01*
X113041979Y-117943847D02*
X112994360Y-118134323D01*
X112994360Y-118134323D02*
X112946741Y-118229561D01*
X112946741Y-118229561D02*
X112851503Y-118324800D01*
X112851503Y-118324800D02*
X112708646Y-118372419D01*
X112708646Y-118372419D02*
X112470551Y-118372419D01*
X120756265Y-117824800D02*
X120899122Y-117872419D01*
X120899122Y-117872419D02*
X121137217Y-117872419D01*
X121137217Y-117872419D02*
X121232455Y-117824800D01*
X121232455Y-117824800D02*
X121280074Y-117777180D01*
X121280074Y-117777180D02*
X121327693Y-117681942D01*
X121327693Y-117681942D02*
X121327693Y-117586704D01*
X121327693Y-117586704D02*
X121280074Y-117491466D01*
X121280074Y-117491466D02*
X121232455Y-117443847D01*
X121232455Y-117443847D02*
X121137217Y-117396228D01*
X121137217Y-117396228D02*
X120946741Y-117348609D01*
X120946741Y-117348609D02*
X120851503Y-117300990D01*
X120851503Y-117300990D02*
X120803884Y-117253371D01*
X120803884Y-117253371D02*
X120756265Y-117158133D01*
X120756265Y-117158133D02*
X120756265Y-117062895D01*
X120756265Y-117062895D02*
X120803884Y-116967657D01*
X120803884Y-116967657D02*
X120851503Y-116920038D01*
X120851503Y-116920038D02*
X120946741Y-116872419D01*
X120946741Y-116872419D02*
X121184836Y-116872419D01*
X121184836Y-116872419D02*
X121327693Y-116920038D01*
X121661027Y-116872419D02*
X121899122Y-117872419D01*
X121899122Y-117872419D02*
X122089598Y-117158133D01*
X122089598Y-117158133D02*
X122280074Y-117872419D01*
X122280074Y-117872419D02*
X122518170Y-116872419D01*
X122803884Y-116872419D02*
X123422931Y-116872419D01*
X123422931Y-116872419D02*
X123089598Y-117253371D01*
X123089598Y-117253371D02*
X123232455Y-117253371D01*
X123232455Y-117253371D02*
X123327693Y-117300990D01*
X123327693Y-117300990D02*
X123375312Y-117348609D01*
X123375312Y-117348609D02*
X123422931Y-117443847D01*
X123422931Y-117443847D02*
X123422931Y-117681942D01*
X123422931Y-117681942D02*
X123375312Y-117777180D01*
X123375312Y-117777180D02*
X123327693Y-117824800D01*
X123327693Y-117824800D02*
X123232455Y-117872419D01*
X123232455Y-117872419D02*
X122946741Y-117872419D01*
X122946741Y-117872419D02*
X122851503Y-117824800D01*
X122851503Y-117824800D02*
X122803884Y-117777180D01*
X124518170Y-116872419D02*
X125137217Y-116872419D01*
X125137217Y-116872419D02*
X124803884Y-117253371D01*
X124803884Y-117253371D02*
X124946741Y-117253371D01*
X124946741Y-117253371D02*
X125041979Y-117300990D01*
X125041979Y-117300990D02*
X125089598Y-117348609D01*
X125089598Y-117348609D02*
X125137217Y-117443847D01*
X125137217Y-117443847D02*
X125137217Y-117681942D01*
X125137217Y-117681942D02*
X125089598Y-117777180D01*
X125089598Y-117777180D02*
X125041979Y-117824800D01*
X125041979Y-117824800D02*
X124946741Y-117872419D01*
X124946741Y-117872419D02*
X124661027Y-117872419D01*
X124661027Y-117872419D02*
X124565789Y-117824800D01*
X124565789Y-117824800D02*
X124518170Y-117777180D01*
X125565789Y-117777180D02*
X125613408Y-117824800D01*
X125613408Y-117824800D02*
X125565789Y-117872419D01*
X125565789Y-117872419D02*
X125518170Y-117824800D01*
X125518170Y-117824800D02*
X125565789Y-117777180D01*
X125565789Y-117777180D02*
X125565789Y-117872419D01*
X125946741Y-116872419D02*
X126565788Y-116872419D01*
X126565788Y-116872419D02*
X126232455Y-117253371D01*
X126232455Y-117253371D02*
X126375312Y-117253371D01*
X126375312Y-117253371D02*
X126470550Y-117300990D01*
X126470550Y-117300990D02*
X126518169Y-117348609D01*
X126518169Y-117348609D02*
X126565788Y-117443847D01*
X126565788Y-117443847D02*
X126565788Y-117681942D01*
X126565788Y-117681942D02*
X126518169Y-117777180D01*
X126518169Y-117777180D02*
X126470550Y-117824800D01*
X126470550Y-117824800D02*
X126375312Y-117872419D01*
X126375312Y-117872419D02*
X126089598Y-117872419D01*
X126089598Y-117872419D02*
X125994360Y-117824800D01*
X125994360Y-117824800D02*
X125946741Y-117777180D01*
X126851503Y-116872419D02*
X127184836Y-117872419D01*
X127184836Y-117872419D02*
X127518169Y-116872419D01*
X128565789Y-117824800D02*
X128708646Y-117872419D01*
X128708646Y-117872419D02*
X128946741Y-117872419D01*
X128946741Y-117872419D02*
X129041979Y-117824800D01*
X129041979Y-117824800D02*
X129089598Y-117777180D01*
X129089598Y-117777180D02*
X129137217Y-117681942D01*
X129137217Y-117681942D02*
X129137217Y-117586704D01*
X129137217Y-117586704D02*
X129089598Y-117491466D01*
X129089598Y-117491466D02*
X129041979Y-117443847D01*
X129041979Y-117443847D02*
X128946741Y-117396228D01*
X128946741Y-117396228D02*
X128756265Y-117348609D01*
X128756265Y-117348609D02*
X128661027Y-117300990D01*
X128661027Y-117300990D02*
X128613408Y-117253371D01*
X128613408Y-117253371D02*
X128565789Y-117158133D01*
X128565789Y-117158133D02*
X128565789Y-117062895D01*
X128565789Y-117062895D02*
X128613408Y-116967657D01*
X128613408Y-116967657D02*
X128661027Y-116920038D01*
X128661027Y-116920038D02*
X128756265Y-116872419D01*
X128756265Y-116872419D02*
X128994360Y-116872419D01*
X128994360Y-116872419D02*
X129137217Y-116920038D01*
X129470551Y-116872419D02*
X129708646Y-117872419D01*
X129708646Y-117872419D02*
X129899122Y-117158133D01*
X129899122Y-117158133D02*
X130089598Y-117872419D01*
X130089598Y-117872419D02*
X130327694Y-116872419D01*
X131137217Y-117205752D02*
X131137217Y-117872419D01*
X130899122Y-116824800D02*
X130661027Y-117539085D01*
X130661027Y-117539085D02*
X131280074Y-117539085D01*
X132946741Y-116920038D02*
X132851503Y-116872419D01*
X132851503Y-116872419D02*
X132708646Y-116872419D01*
X132708646Y-116872419D02*
X132565789Y-116920038D01*
X132565789Y-116920038D02*
X132470551Y-117015276D01*
X132470551Y-117015276D02*
X132422932Y-117110514D01*
X132422932Y-117110514D02*
X132375313Y-117300990D01*
X132375313Y-117300990D02*
X132375313Y-117443847D01*
X132375313Y-117443847D02*
X132422932Y-117634323D01*
X132422932Y-117634323D02*
X132470551Y-117729561D01*
X132470551Y-117729561D02*
X132565789Y-117824800D01*
X132565789Y-117824800D02*
X132708646Y-117872419D01*
X132708646Y-117872419D02*
X132803884Y-117872419D01*
X132803884Y-117872419D02*
X132946741Y-117824800D01*
X132946741Y-117824800D02*
X132994360Y-117777180D01*
X132994360Y-117777180D02*
X132994360Y-117443847D01*
X132994360Y-117443847D02*
X132803884Y-117443847D01*
X133422932Y-117872419D02*
X133422932Y-116872419D01*
X133422932Y-116872419D02*
X133994360Y-117872419D01*
X133994360Y-117872419D02*
X133994360Y-116872419D01*
X134470551Y-117872419D02*
X134470551Y-116872419D01*
X134470551Y-116872419D02*
X134708646Y-116872419D01*
X134708646Y-116872419D02*
X134851503Y-116920038D01*
X134851503Y-116920038D02*
X134946741Y-117015276D01*
X134946741Y-117015276D02*
X134994360Y-117110514D01*
X134994360Y-117110514D02*
X135041979Y-117300990D01*
X135041979Y-117300990D02*
X135041979Y-117443847D01*
X135041979Y-117443847D02*
X134994360Y-117634323D01*
X134994360Y-117634323D02*
X134946741Y-117729561D01*
X134946741Y-117729561D02*
X134851503Y-117824800D01*
X134851503Y-117824800D02*
X134708646Y-117872419D01*
X134708646Y-117872419D02*
X134470551Y-117872419D01*
D11*
X115733333Y-105524819D02*
X115400000Y-105048628D01*
X115161905Y-105524819D02*
X115161905Y-104524819D01*
X115161905Y-104524819D02*
X115542857Y-104524819D01*
X115542857Y-104524819D02*
X115638095Y-104572438D01*
X115638095Y-104572438D02*
X115685714Y-104620057D01*
X115685714Y-104620057D02*
X115733333Y-104715295D01*
X115733333Y-104715295D02*
X115733333Y-104858152D01*
X115733333Y-104858152D02*
X115685714Y-104953390D01*
X115685714Y-104953390D02*
X115638095Y-105001009D01*
X115638095Y-105001009D02*
X115542857Y-105048628D01*
X115542857Y-105048628D02*
X115161905Y-105048628D01*
X116066667Y-104524819D02*
X116733333Y-104524819D01*
X116733333Y-104524819D02*
X116304762Y-105524819D01*
X96666667Y-94157200D02*
X96809524Y-94204819D01*
X96809524Y-94204819D02*
X97047619Y-94204819D01*
X97047619Y-94204819D02*
X97142857Y-94157200D01*
X97142857Y-94157200D02*
X97190476Y-94109580D01*
X97190476Y-94109580D02*
X97238095Y-94014342D01*
X97238095Y-94014342D02*
X97238095Y-93919104D01*
X97238095Y-93919104D02*
X97190476Y-93823866D01*
X97190476Y-93823866D02*
X97142857Y-93776247D01*
X97142857Y-93776247D02*
X97047619Y-93728628D01*
X97047619Y-93728628D02*
X96857143Y-93681009D01*
X96857143Y-93681009D02*
X96761905Y-93633390D01*
X96761905Y-93633390D02*
X96714286Y-93585771D01*
X96714286Y-93585771D02*
X96666667Y-93490533D01*
X96666667Y-93490533D02*
X96666667Y-93395295D01*
X96666667Y-93395295D02*
X96714286Y-93300057D01*
X96714286Y-93300057D02*
X96761905Y-93252438D01*
X96761905Y-93252438D02*
X96857143Y-93204819D01*
X96857143Y-93204819D02*
X97095238Y-93204819D01*
X97095238Y-93204819D02*
X97238095Y-93252438D01*
X97571429Y-93204819D02*
X97809524Y-94204819D01*
X97809524Y-94204819D02*
X98000000Y-93490533D01*
X98000000Y-93490533D02*
X98190476Y-94204819D01*
X98190476Y-94204819D02*
X98428572Y-93204819D01*
X99333333Y-94204819D02*
X98761905Y-94204819D01*
X99047619Y-94204819D02*
X99047619Y-93204819D01*
X99047619Y-93204819D02*
X98952381Y-93347676D01*
X98952381Y-93347676D02*
X98857143Y-93442914D01*
X98857143Y-93442914D02*
X98761905Y-93490533D01*
X136916667Y-94157200D02*
X137059524Y-94204819D01*
X137059524Y-94204819D02*
X137297619Y-94204819D01*
X137297619Y-94204819D02*
X137392857Y-94157200D01*
X137392857Y-94157200D02*
X137440476Y-94109580D01*
X137440476Y-94109580D02*
X137488095Y-94014342D01*
X137488095Y-94014342D02*
X137488095Y-93919104D01*
X137488095Y-93919104D02*
X137440476Y-93823866D01*
X137440476Y-93823866D02*
X137392857Y-93776247D01*
X137392857Y-93776247D02*
X137297619Y-93728628D01*
X137297619Y-93728628D02*
X137107143Y-93681009D01*
X137107143Y-93681009D02*
X137011905Y-93633390D01*
X137011905Y-93633390D02*
X136964286Y-93585771D01*
X136964286Y-93585771D02*
X136916667Y-93490533D01*
X136916667Y-93490533D02*
X136916667Y-93395295D01*
X136916667Y-93395295D02*
X136964286Y-93300057D01*
X136964286Y-93300057D02*
X137011905Y-93252438D01*
X137011905Y-93252438D02*
X137107143Y-93204819D01*
X137107143Y-93204819D02*
X137345238Y-93204819D01*
X137345238Y-93204819D02*
X137488095Y-93252438D01*
X137821429Y-93204819D02*
X138059524Y-94204819D01*
X138059524Y-94204819D02*
X138250000Y-93490533D01*
X138250000Y-93490533D02*
X138440476Y-94204819D01*
X138440476Y-94204819D02*
X138678572Y-93204819D01*
X139488095Y-93538152D02*
X139488095Y-94204819D01*
X139250000Y-93157200D02*
X139011905Y-93871485D01*
X139011905Y-93871485D02*
X139630952Y-93871485D01*
X101833333Y-105024819D02*
X101500000Y-104548628D01*
X101261905Y-105024819D02*
X101261905Y-104024819D01*
X101261905Y-104024819D02*
X101642857Y-104024819D01*
X101642857Y-104024819D02*
X101738095Y-104072438D01*
X101738095Y-104072438D02*
X101785714Y-104120057D01*
X101785714Y-104120057D02*
X101833333Y-104215295D01*
X101833333Y-104215295D02*
X101833333Y-104358152D01*
X101833333Y-104358152D02*
X101785714Y-104453390D01*
X101785714Y-104453390D02*
X101738095Y-104501009D01*
X101738095Y-104501009D02*
X101642857Y-104548628D01*
X101642857Y-104548628D02*
X101261905Y-104548628D01*
X102690476Y-104024819D02*
X102500000Y-104024819D01*
X102500000Y-104024819D02*
X102404762Y-104072438D01*
X102404762Y-104072438D02*
X102357143Y-104120057D01*
X102357143Y-104120057D02*
X102261905Y-104262914D01*
X102261905Y-104262914D02*
X102214286Y-104453390D01*
X102214286Y-104453390D02*
X102214286Y-104834342D01*
X102214286Y-104834342D02*
X102261905Y-104929580D01*
X102261905Y-104929580D02*
X102309524Y-104977200D01*
X102309524Y-104977200D02*
X102404762Y-105024819D01*
X102404762Y-105024819D02*
X102595238Y-105024819D01*
X102595238Y-105024819D02*
X102690476Y-104977200D01*
X102690476Y-104977200D02*
X102738095Y-104929580D01*
X102738095Y-104929580D02*
X102785714Y-104834342D01*
X102785714Y-104834342D02*
X102785714Y-104596247D01*
X102785714Y-104596247D02*
X102738095Y-104501009D01*
X102738095Y-104501009D02*
X102690476Y-104453390D01*
X102690476Y-104453390D02*
X102595238Y-104405771D01*
X102595238Y-104405771D02*
X102404762Y-104405771D01*
X102404762Y-104405771D02*
X102309524Y-104453390D01*
X102309524Y-104453390D02*
X102261905Y-104501009D01*
X102261905Y-104501009D02*
X102214286Y-104596247D01*
X122333333Y-109024819D02*
X122000000Y-108548628D01*
X121761905Y-109024819D02*
X121761905Y-108024819D01*
X121761905Y-108024819D02*
X122142857Y-108024819D01*
X122142857Y-108024819D02*
X122238095Y-108072438D01*
X122238095Y-108072438D02*
X122285714Y-108120057D01*
X122285714Y-108120057D02*
X122333333Y-108215295D01*
X122333333Y-108215295D02*
X122333333Y-108358152D01*
X122333333Y-108358152D02*
X122285714Y-108453390D01*
X122285714Y-108453390D02*
X122238095Y-108501009D01*
X122238095Y-108501009D02*
X122142857Y-108548628D01*
X122142857Y-108548628D02*
X121761905Y-108548628D01*
X123190476Y-108358152D02*
X123190476Y-109024819D01*
X122952381Y-107977200D02*
X122714286Y-108691485D01*
X122714286Y-108691485D02*
X123333333Y-108691485D01*
X109958333Y-109024819D02*
X109625000Y-108548628D01*
X109386905Y-109024819D02*
X109386905Y-108024819D01*
X109386905Y-108024819D02*
X109767857Y-108024819D01*
X109767857Y-108024819D02*
X109863095Y-108072438D01*
X109863095Y-108072438D02*
X109910714Y-108120057D01*
X109910714Y-108120057D02*
X109958333Y-108215295D01*
X109958333Y-108215295D02*
X109958333Y-108358152D01*
X109958333Y-108358152D02*
X109910714Y-108453390D01*
X109910714Y-108453390D02*
X109863095Y-108501009D01*
X109863095Y-108501009D02*
X109767857Y-108548628D01*
X109767857Y-108548628D02*
X109386905Y-108548628D01*
X110291667Y-108024819D02*
X110910714Y-108024819D01*
X110910714Y-108024819D02*
X110577381Y-108405771D01*
X110577381Y-108405771D02*
X110720238Y-108405771D01*
X110720238Y-108405771D02*
X110815476Y-108453390D01*
X110815476Y-108453390D02*
X110863095Y-108501009D01*
X110863095Y-108501009D02*
X110910714Y-108596247D01*
X110910714Y-108596247D02*
X110910714Y-108834342D01*
X110910714Y-108834342D02*
X110863095Y-108929580D01*
X110863095Y-108929580D02*
X110815476Y-108977200D01*
X110815476Y-108977200D02*
X110720238Y-109024819D01*
X110720238Y-109024819D02*
X110434524Y-109024819D01*
X110434524Y-109024819D02*
X110339286Y-108977200D01*
X110339286Y-108977200D02*
X110291667Y-108929580D01*
X142220833Y-105524819D02*
X141887500Y-105048628D01*
X141649405Y-105524819D02*
X141649405Y-104524819D01*
X141649405Y-104524819D02*
X142030357Y-104524819D01*
X142030357Y-104524819D02*
X142125595Y-104572438D01*
X142125595Y-104572438D02*
X142173214Y-104620057D01*
X142173214Y-104620057D02*
X142220833Y-104715295D01*
X142220833Y-104715295D02*
X142220833Y-104858152D01*
X142220833Y-104858152D02*
X142173214Y-104953390D01*
X142173214Y-104953390D02*
X142125595Y-105001009D01*
X142125595Y-105001009D02*
X142030357Y-105048628D01*
X142030357Y-105048628D02*
X141649405Y-105048628D01*
X142697024Y-105524819D02*
X142887500Y-105524819D01*
X142887500Y-105524819D02*
X142982738Y-105477200D01*
X142982738Y-105477200D02*
X143030357Y-105429580D01*
X143030357Y-105429580D02*
X143125595Y-105286723D01*
X143125595Y-105286723D02*
X143173214Y-105096247D01*
X143173214Y-105096247D02*
X143173214Y-104715295D01*
X143173214Y-104715295D02*
X143125595Y-104620057D01*
X143125595Y-104620057D02*
X143077976Y-104572438D01*
X143077976Y-104572438D02*
X142982738Y-104524819D01*
X142982738Y-104524819D02*
X142792262Y-104524819D01*
X142792262Y-104524819D02*
X142697024Y-104572438D01*
X142697024Y-104572438D02*
X142649405Y-104620057D01*
X142649405Y-104620057D02*
X142601786Y-104715295D01*
X142601786Y-104715295D02*
X142601786Y-104953390D01*
X142601786Y-104953390D02*
X142649405Y-105048628D01*
X142649405Y-105048628D02*
X142697024Y-105096247D01*
X142697024Y-105096247D02*
X142792262Y-105143866D01*
X142792262Y-105143866D02*
X142982738Y-105143866D01*
X142982738Y-105143866D02*
X143077976Y-105096247D01*
X143077976Y-105096247D02*
X143125595Y-105048628D01*
X143125595Y-105048628D02*
X143173214Y-104953390D01*
X121761905Y-105524819D02*
X121761905Y-104524819D01*
X121761905Y-104524819D02*
X122000000Y-104524819D01*
X122000000Y-104524819D02*
X122142857Y-104572438D01*
X122142857Y-104572438D02*
X122238095Y-104667676D01*
X122238095Y-104667676D02*
X122285714Y-104762914D01*
X122285714Y-104762914D02*
X122333333Y-104953390D01*
X122333333Y-104953390D02*
X122333333Y-105096247D01*
X122333333Y-105096247D02*
X122285714Y-105286723D01*
X122285714Y-105286723D02*
X122238095Y-105381961D01*
X122238095Y-105381961D02*
X122142857Y-105477200D01*
X122142857Y-105477200D02*
X122000000Y-105524819D01*
X122000000Y-105524819D02*
X121761905Y-105524819D01*
X123190476Y-104858152D02*
X123190476Y-105524819D01*
X122952381Y-104477200D02*
X122714286Y-105191485D01*
X122714286Y-105191485D02*
X123333333Y-105191485D01*
X96833333Y-109024819D02*
X96500000Y-108548628D01*
X96261905Y-109024819D02*
X96261905Y-108024819D01*
X96261905Y-108024819D02*
X96642857Y-108024819D01*
X96642857Y-108024819D02*
X96738095Y-108072438D01*
X96738095Y-108072438D02*
X96785714Y-108120057D01*
X96785714Y-108120057D02*
X96833333Y-108215295D01*
X96833333Y-108215295D02*
X96833333Y-108358152D01*
X96833333Y-108358152D02*
X96785714Y-108453390D01*
X96785714Y-108453390D02*
X96738095Y-108501009D01*
X96738095Y-108501009D02*
X96642857Y-108548628D01*
X96642857Y-108548628D02*
X96261905Y-108548628D01*
X97214286Y-108120057D02*
X97261905Y-108072438D01*
X97261905Y-108072438D02*
X97357143Y-108024819D01*
X97357143Y-108024819D02*
X97595238Y-108024819D01*
X97595238Y-108024819D02*
X97690476Y-108072438D01*
X97690476Y-108072438D02*
X97738095Y-108120057D01*
X97738095Y-108120057D02*
X97785714Y-108215295D01*
X97785714Y-108215295D02*
X97785714Y-108310533D01*
X97785714Y-108310533D02*
X97738095Y-108453390D01*
X97738095Y-108453390D02*
X97166667Y-109024819D01*
X97166667Y-109024819D02*
X97785714Y-109024819D01*
X136333333Y-109024819D02*
X136000000Y-108548628D01*
X135761905Y-109024819D02*
X135761905Y-108024819D01*
X135761905Y-108024819D02*
X136142857Y-108024819D01*
X136142857Y-108024819D02*
X136238095Y-108072438D01*
X136238095Y-108072438D02*
X136285714Y-108120057D01*
X136285714Y-108120057D02*
X136333333Y-108215295D01*
X136333333Y-108215295D02*
X136333333Y-108358152D01*
X136333333Y-108358152D02*
X136285714Y-108453390D01*
X136285714Y-108453390D02*
X136238095Y-108501009D01*
X136238095Y-108501009D02*
X136142857Y-108548628D01*
X136142857Y-108548628D02*
X135761905Y-108548628D01*
X137238095Y-108024819D02*
X136761905Y-108024819D01*
X136761905Y-108024819D02*
X136714286Y-108501009D01*
X136714286Y-108501009D02*
X136761905Y-108453390D01*
X136761905Y-108453390D02*
X136857143Y-108405771D01*
X136857143Y-108405771D02*
X137095238Y-108405771D01*
X137095238Y-108405771D02*
X137190476Y-108453390D01*
X137190476Y-108453390D02*
X137238095Y-108501009D01*
X137238095Y-108501009D02*
X137285714Y-108596247D01*
X137285714Y-108596247D02*
X137285714Y-108834342D01*
X137285714Y-108834342D02*
X137238095Y-108929580D01*
X137238095Y-108929580D02*
X137190476Y-108977200D01*
X137190476Y-108977200D02*
X137095238Y-109024819D01*
X137095238Y-109024819D02*
X136857143Y-109024819D01*
X136857143Y-109024819D02*
X136761905Y-108977200D01*
X136761905Y-108977200D02*
X136714286Y-108929580D01*
X96261905Y-105024819D02*
X96261905Y-104024819D01*
X96261905Y-104024819D02*
X96500000Y-104024819D01*
X96500000Y-104024819D02*
X96642857Y-104072438D01*
X96642857Y-104072438D02*
X96738095Y-104167676D01*
X96738095Y-104167676D02*
X96785714Y-104262914D01*
X96785714Y-104262914D02*
X96833333Y-104453390D01*
X96833333Y-104453390D02*
X96833333Y-104596247D01*
X96833333Y-104596247D02*
X96785714Y-104786723D01*
X96785714Y-104786723D02*
X96738095Y-104881961D01*
X96738095Y-104881961D02*
X96642857Y-104977200D01*
X96642857Y-104977200D02*
X96500000Y-105024819D01*
X96500000Y-105024819D02*
X96261905Y-105024819D01*
X97214286Y-104120057D02*
X97261905Y-104072438D01*
X97261905Y-104072438D02*
X97357143Y-104024819D01*
X97357143Y-104024819D02*
X97595238Y-104024819D01*
X97595238Y-104024819D02*
X97690476Y-104072438D01*
X97690476Y-104072438D02*
X97738095Y-104120057D01*
X97738095Y-104120057D02*
X97785714Y-104215295D01*
X97785714Y-104215295D02*
X97785714Y-104310533D01*
X97785714Y-104310533D02*
X97738095Y-104453390D01*
X97738095Y-104453390D02*
X97166667Y-105024819D01*
X97166667Y-105024819D02*
X97785714Y-105024819D01*
X130916666Y-118944819D02*
X130916666Y-119659104D01*
X130916666Y-119659104D02*
X130869047Y-119801961D01*
X130869047Y-119801961D02*
X130773809Y-119897200D01*
X130773809Y-119897200D02*
X130630952Y-119944819D01*
X130630952Y-119944819D02*
X130535714Y-119944819D01*
X131345238Y-119040057D02*
X131392857Y-118992438D01*
X131392857Y-118992438D02*
X131488095Y-118944819D01*
X131488095Y-118944819D02*
X131726190Y-118944819D01*
X131726190Y-118944819D02*
X131821428Y-118992438D01*
X131821428Y-118992438D02*
X131869047Y-119040057D01*
X131869047Y-119040057D02*
X131916666Y-119135295D01*
X131916666Y-119135295D02*
X131916666Y-119230533D01*
X131916666Y-119230533D02*
X131869047Y-119373390D01*
X131869047Y-119373390D02*
X131297619Y-119944819D01*
X131297619Y-119944819D02*
X131916666Y-119944819D01*
X123666667Y-94157200D02*
X123809524Y-94204819D01*
X123809524Y-94204819D02*
X124047619Y-94204819D01*
X124047619Y-94204819D02*
X124142857Y-94157200D01*
X124142857Y-94157200D02*
X124190476Y-94109580D01*
X124190476Y-94109580D02*
X124238095Y-94014342D01*
X124238095Y-94014342D02*
X124238095Y-93919104D01*
X124238095Y-93919104D02*
X124190476Y-93823866D01*
X124190476Y-93823866D02*
X124142857Y-93776247D01*
X124142857Y-93776247D02*
X124047619Y-93728628D01*
X124047619Y-93728628D02*
X123857143Y-93681009D01*
X123857143Y-93681009D02*
X123761905Y-93633390D01*
X123761905Y-93633390D02*
X123714286Y-93585771D01*
X123714286Y-93585771D02*
X123666667Y-93490533D01*
X123666667Y-93490533D02*
X123666667Y-93395295D01*
X123666667Y-93395295D02*
X123714286Y-93300057D01*
X123714286Y-93300057D02*
X123761905Y-93252438D01*
X123761905Y-93252438D02*
X123857143Y-93204819D01*
X123857143Y-93204819D02*
X124095238Y-93204819D01*
X124095238Y-93204819D02*
X124238095Y-93252438D01*
X124571429Y-93204819D02*
X124809524Y-94204819D01*
X124809524Y-94204819D02*
X125000000Y-93490533D01*
X125000000Y-93490533D02*
X125190476Y-94204819D01*
X125190476Y-94204819D02*
X125428572Y-93204819D01*
X125714286Y-93204819D02*
X126333333Y-93204819D01*
X126333333Y-93204819D02*
X126000000Y-93585771D01*
X126000000Y-93585771D02*
X126142857Y-93585771D01*
X126142857Y-93585771D02*
X126238095Y-93633390D01*
X126238095Y-93633390D02*
X126285714Y-93681009D01*
X126285714Y-93681009D02*
X126333333Y-93776247D01*
X126333333Y-93776247D02*
X126333333Y-94014342D01*
X126333333Y-94014342D02*
X126285714Y-94109580D01*
X126285714Y-94109580D02*
X126238095Y-94157200D01*
X126238095Y-94157200D02*
X126142857Y-94204819D01*
X126142857Y-94204819D02*
X125857143Y-94204819D01*
X125857143Y-94204819D02*
X125761905Y-94157200D01*
X125761905Y-94157200D02*
X125714286Y-94109580D01*
X109386905Y-105524819D02*
X109386905Y-104524819D01*
X109386905Y-104524819D02*
X109625000Y-104524819D01*
X109625000Y-104524819D02*
X109767857Y-104572438D01*
X109767857Y-104572438D02*
X109863095Y-104667676D01*
X109863095Y-104667676D02*
X109910714Y-104762914D01*
X109910714Y-104762914D02*
X109958333Y-104953390D01*
X109958333Y-104953390D02*
X109958333Y-105096247D01*
X109958333Y-105096247D02*
X109910714Y-105286723D01*
X109910714Y-105286723D02*
X109863095Y-105381961D01*
X109863095Y-105381961D02*
X109767857Y-105477200D01*
X109767857Y-105477200D02*
X109625000Y-105524819D01*
X109625000Y-105524819D02*
X109386905Y-105524819D01*
X110291667Y-104524819D02*
X110910714Y-104524819D01*
X110910714Y-104524819D02*
X110577381Y-104905771D01*
X110577381Y-104905771D02*
X110720238Y-104905771D01*
X110720238Y-104905771D02*
X110815476Y-104953390D01*
X110815476Y-104953390D02*
X110863095Y-105001009D01*
X110863095Y-105001009D02*
X110910714Y-105096247D01*
X110910714Y-105096247D02*
X110910714Y-105334342D01*
X110910714Y-105334342D02*
X110863095Y-105429580D01*
X110863095Y-105429580D02*
X110815476Y-105477200D01*
X110815476Y-105477200D02*
X110720238Y-105524819D01*
X110720238Y-105524819D02*
X110434524Y-105524819D01*
X110434524Y-105524819D02*
X110339286Y-105477200D01*
X110339286Y-105477200D02*
X110291667Y-105429580D01*
X96884819Y-130238094D02*
X95884819Y-130238094D01*
X95884819Y-130238094D02*
X95884819Y-129999999D01*
X95884819Y-129999999D02*
X95932438Y-129857142D01*
X95932438Y-129857142D02*
X96027676Y-129761904D01*
X96027676Y-129761904D02*
X96122914Y-129714285D01*
X96122914Y-129714285D02*
X96313390Y-129666666D01*
X96313390Y-129666666D02*
X96456247Y-129666666D01*
X96456247Y-129666666D02*
X96646723Y-129714285D01*
X96646723Y-129714285D02*
X96741961Y-129761904D01*
X96741961Y-129761904D02*
X96837200Y-129857142D01*
X96837200Y-129857142D02*
X96884819Y-129999999D01*
X96884819Y-129999999D02*
X96884819Y-130238094D01*
X96884819Y-128714285D02*
X96884819Y-129285713D01*
X96884819Y-128999999D02*
X95884819Y-128999999D01*
X95884819Y-128999999D02*
X96027676Y-129095237D01*
X96027676Y-129095237D02*
X96122914Y-129190475D01*
X96122914Y-129190475D02*
X96170533Y-129285713D01*
X107866666Y-118954819D02*
X107866666Y-119669104D01*
X107866666Y-119669104D02*
X107819047Y-119811961D01*
X107819047Y-119811961D02*
X107723809Y-119907200D01*
X107723809Y-119907200D02*
X107580952Y-119954819D01*
X107580952Y-119954819D02*
X107485714Y-119954819D01*
X108247619Y-118954819D02*
X108866666Y-118954819D01*
X108866666Y-118954819D02*
X108533333Y-119335771D01*
X108533333Y-119335771D02*
X108676190Y-119335771D01*
X108676190Y-119335771D02*
X108771428Y-119383390D01*
X108771428Y-119383390D02*
X108819047Y-119431009D01*
X108819047Y-119431009D02*
X108866666Y-119526247D01*
X108866666Y-119526247D02*
X108866666Y-119764342D01*
X108866666Y-119764342D02*
X108819047Y-119859580D01*
X108819047Y-119859580D02*
X108771428Y-119907200D01*
X108771428Y-119907200D02*
X108676190Y-119954819D01*
X108676190Y-119954819D02*
X108390476Y-119954819D01*
X108390476Y-119954819D02*
X108295238Y-119907200D01*
X108295238Y-119907200D02*
X108247619Y-119859580D01*
X129020833Y-105524819D02*
X128687500Y-105048628D01*
X128449405Y-105524819D02*
X128449405Y-104524819D01*
X128449405Y-104524819D02*
X128830357Y-104524819D01*
X128830357Y-104524819D02*
X128925595Y-104572438D01*
X128925595Y-104572438D02*
X128973214Y-104620057D01*
X128973214Y-104620057D02*
X129020833Y-104715295D01*
X129020833Y-104715295D02*
X129020833Y-104858152D01*
X129020833Y-104858152D02*
X128973214Y-104953390D01*
X128973214Y-104953390D02*
X128925595Y-105001009D01*
X128925595Y-105001009D02*
X128830357Y-105048628D01*
X128830357Y-105048628D02*
X128449405Y-105048628D01*
X129592262Y-104953390D02*
X129497024Y-104905771D01*
X129497024Y-104905771D02*
X129449405Y-104858152D01*
X129449405Y-104858152D02*
X129401786Y-104762914D01*
X129401786Y-104762914D02*
X129401786Y-104715295D01*
X129401786Y-104715295D02*
X129449405Y-104620057D01*
X129449405Y-104620057D02*
X129497024Y-104572438D01*
X129497024Y-104572438D02*
X129592262Y-104524819D01*
X129592262Y-104524819D02*
X129782738Y-104524819D01*
X129782738Y-104524819D02*
X129877976Y-104572438D01*
X129877976Y-104572438D02*
X129925595Y-104620057D01*
X129925595Y-104620057D02*
X129973214Y-104715295D01*
X129973214Y-104715295D02*
X129973214Y-104762914D01*
X129973214Y-104762914D02*
X129925595Y-104858152D01*
X129925595Y-104858152D02*
X129877976Y-104905771D01*
X129877976Y-104905771D02*
X129782738Y-104953390D01*
X129782738Y-104953390D02*
X129592262Y-104953390D01*
X129592262Y-104953390D02*
X129497024Y-105001009D01*
X129497024Y-105001009D02*
X129449405Y-105048628D01*
X129449405Y-105048628D02*
X129401786Y-105143866D01*
X129401786Y-105143866D02*
X129401786Y-105334342D01*
X129401786Y-105334342D02*
X129449405Y-105429580D01*
X129449405Y-105429580D02*
X129497024Y-105477200D01*
X129497024Y-105477200D02*
X129592262Y-105524819D01*
X129592262Y-105524819D02*
X129782738Y-105524819D01*
X129782738Y-105524819D02*
X129877976Y-105477200D01*
X129877976Y-105477200D02*
X129925595Y-105429580D01*
X129925595Y-105429580D02*
X129973214Y-105334342D01*
X129973214Y-105334342D02*
X129973214Y-105143866D01*
X129973214Y-105143866D02*
X129925595Y-105048628D01*
X129925595Y-105048628D02*
X129877976Y-105001009D01*
X129877976Y-105001009D02*
X129782738Y-104953390D01*
X110416667Y-94157200D02*
X110559524Y-94204819D01*
X110559524Y-94204819D02*
X110797619Y-94204819D01*
X110797619Y-94204819D02*
X110892857Y-94157200D01*
X110892857Y-94157200D02*
X110940476Y-94109580D01*
X110940476Y-94109580D02*
X110988095Y-94014342D01*
X110988095Y-94014342D02*
X110988095Y-93919104D01*
X110988095Y-93919104D02*
X110940476Y-93823866D01*
X110940476Y-93823866D02*
X110892857Y-93776247D01*
X110892857Y-93776247D02*
X110797619Y-93728628D01*
X110797619Y-93728628D02*
X110607143Y-93681009D01*
X110607143Y-93681009D02*
X110511905Y-93633390D01*
X110511905Y-93633390D02*
X110464286Y-93585771D01*
X110464286Y-93585771D02*
X110416667Y-93490533D01*
X110416667Y-93490533D02*
X110416667Y-93395295D01*
X110416667Y-93395295D02*
X110464286Y-93300057D01*
X110464286Y-93300057D02*
X110511905Y-93252438D01*
X110511905Y-93252438D02*
X110607143Y-93204819D01*
X110607143Y-93204819D02*
X110845238Y-93204819D01*
X110845238Y-93204819D02*
X110988095Y-93252438D01*
X111321429Y-93204819D02*
X111559524Y-94204819D01*
X111559524Y-94204819D02*
X111750000Y-93490533D01*
X111750000Y-93490533D02*
X111940476Y-94204819D01*
X111940476Y-94204819D02*
X112178572Y-93204819D01*
X112511905Y-93300057D02*
X112559524Y-93252438D01*
X112559524Y-93252438D02*
X112654762Y-93204819D01*
X112654762Y-93204819D02*
X112892857Y-93204819D01*
X112892857Y-93204819D02*
X112988095Y-93252438D01*
X112988095Y-93252438D02*
X113035714Y-93300057D01*
X113035714Y-93300057D02*
X113083333Y-93395295D01*
X113083333Y-93395295D02*
X113083333Y-93490533D01*
X113083333Y-93490533D02*
X113035714Y-93633390D01*
X113035714Y-93633390D02*
X112464286Y-94204819D01*
X112464286Y-94204819D02*
X113083333Y-94204819D01*
X96884819Y-123666666D02*
X96408628Y-123999999D01*
X96884819Y-124238094D02*
X95884819Y-124238094D01*
X95884819Y-124238094D02*
X95884819Y-123857142D01*
X95884819Y-123857142D02*
X95932438Y-123761904D01*
X95932438Y-123761904D02*
X95980057Y-123714285D01*
X95980057Y-123714285D02*
X96075295Y-123666666D01*
X96075295Y-123666666D02*
X96218152Y-123666666D01*
X96218152Y-123666666D02*
X96313390Y-123714285D01*
X96313390Y-123714285D02*
X96361009Y-123761904D01*
X96361009Y-123761904D02*
X96408628Y-123857142D01*
X96408628Y-123857142D02*
X96408628Y-124238094D01*
X96884819Y-122714285D02*
X96884819Y-123285713D01*
X96884819Y-122999999D02*
X95884819Y-122999999D01*
X95884819Y-122999999D02*
X96027676Y-123095237D01*
X96027676Y-123095237D02*
X96122914Y-123190475D01*
X96122914Y-123190475D02*
X96170533Y-123285713D01*
X135761905Y-105524819D02*
X135761905Y-104524819D01*
X135761905Y-104524819D02*
X136000000Y-104524819D01*
X136000000Y-104524819D02*
X136142857Y-104572438D01*
X136142857Y-104572438D02*
X136238095Y-104667676D01*
X136238095Y-104667676D02*
X136285714Y-104762914D01*
X136285714Y-104762914D02*
X136333333Y-104953390D01*
X136333333Y-104953390D02*
X136333333Y-105096247D01*
X136333333Y-105096247D02*
X136285714Y-105286723D01*
X136285714Y-105286723D02*
X136238095Y-105381961D01*
X136238095Y-105381961D02*
X136142857Y-105477200D01*
X136142857Y-105477200D02*
X136000000Y-105524819D01*
X136000000Y-105524819D02*
X135761905Y-105524819D01*
X137238095Y-104524819D02*
X136761905Y-104524819D01*
X136761905Y-104524819D02*
X136714286Y-105001009D01*
X136714286Y-105001009D02*
X136761905Y-104953390D01*
X136761905Y-104953390D02*
X136857143Y-104905771D01*
X136857143Y-104905771D02*
X137095238Y-104905771D01*
X137095238Y-104905771D02*
X137190476Y-104953390D01*
X137190476Y-104953390D02*
X137238095Y-105001009D01*
X137238095Y-105001009D02*
X137285714Y-105096247D01*
X137285714Y-105096247D02*
X137285714Y-105334342D01*
X137285714Y-105334342D02*
X137238095Y-105429580D01*
X137238095Y-105429580D02*
X137190476Y-105477200D01*
X137190476Y-105477200D02*
X137095238Y-105524819D01*
X137095238Y-105524819D02*
X136857143Y-105524819D01*
X136857143Y-105524819D02*
X136761905Y-105477200D01*
X136761905Y-105477200D02*
X136714286Y-105429580D01*
%TO.C,R7*%
D12*
X115645276Y-105977500D02*
X116154724Y-105977500D01*
X115645276Y-107022500D02*
X116154724Y-107022500D01*
%TO.C,SW1*%
X94500000Y-97250000D02*
X94500000Y-98750000D01*
X95750000Y-101250000D02*
X100250000Y-101250000D01*
X100250000Y-94750000D02*
X95750000Y-94750000D01*
X101500000Y-98750000D02*
X101500000Y-97250000D01*
%TO.C,SW4*%
X134750000Y-97250000D02*
X134750000Y-98750000D01*
X136000000Y-101250000D02*
X140500000Y-101250000D01*
X140500000Y-94750000D02*
X136000000Y-94750000D01*
X141750000Y-98750000D02*
X141750000Y-97250000D01*
%TO.C,R6*%
X101745276Y-105477500D02*
X102254724Y-105477500D01*
X101745276Y-106522500D02*
X102254724Y-106522500D01*
%TO.C,R4*%
X122245276Y-109477500D02*
X122754724Y-109477500D01*
X122245276Y-110522500D02*
X122754724Y-110522500D01*
%TO.C,R3*%
X109870276Y-109477500D02*
X110379724Y-109477500D01*
X109870276Y-110522500D02*
X110379724Y-110522500D01*
%TO.C,R9*%
X142132776Y-105977500D02*
X142642224Y-105977500D01*
X142132776Y-107022500D02*
X142642224Y-107022500D01*
%TO.C,D4*%
X120840000Y-105765000D02*
X120840000Y-107235000D01*
X120840000Y-107235000D02*
X123300000Y-107235000D01*
X123300000Y-105765000D02*
X120840000Y-105765000D01*
%TO.C,R2*%
X96745276Y-109477500D02*
X97254724Y-109477500D01*
X96745276Y-110522500D02*
X97254724Y-110522500D01*
%TO.C,R5*%
X136245276Y-109477500D02*
X136754724Y-109477500D01*
X136245276Y-110522500D02*
X136754724Y-110522500D01*
%TO.C,D2*%
X95340000Y-105265000D02*
X95340000Y-106735000D01*
X95340000Y-106735000D02*
X97800000Y-106735000D01*
X97800000Y-105265000D02*
X95340000Y-105265000D01*
%TO.C,J2*%
X122440000Y-120590000D02*
X123860000Y-120590000D01*
X122440000Y-132310000D02*
X122440000Y-120590000D01*
X123860000Y-120590000D02*
X123860000Y-125090000D01*
X123860000Y-125090000D02*
X131250000Y-125090000D01*
X124700000Y-120900000D02*
X125300000Y-120900000D01*
X125000000Y-121500000D02*
X124700000Y-120900000D01*
X125300000Y-120900000D02*
X125000000Y-121500000D01*
X131250000Y-132310000D02*
X122440000Y-132310000D01*
X131250000Y-132310000D02*
X140060000Y-132310000D01*
X138640000Y-120590000D02*
X138640000Y-125090000D01*
X138640000Y-125090000D02*
X131250000Y-125090000D01*
X140060000Y-120590000D02*
X138640000Y-120590000D01*
X140060000Y-132310000D02*
X140060000Y-120590000D01*
X124750000Y-126200000D02*
X125250000Y-126200000D01*
X125250000Y-131700000D01*
X124750000Y-131700000D01*
X124750000Y-126200000D01*
X127250000Y-126200000D02*
X127750000Y-126200000D01*
X127750000Y-131700000D01*
X127250000Y-131700000D01*
X127250000Y-126200000D01*
X129750000Y-126200000D02*
X130250000Y-126200000D01*
X130250000Y-131700000D01*
X129750000Y-131700000D01*
X129750000Y-126200000D01*
X132250000Y-126200000D02*
X132750000Y-126200000D01*
X132750000Y-131700000D01*
X132250000Y-131700000D01*
X132250000Y-126200000D01*
X134750000Y-126200000D02*
X135250000Y-126200000D01*
X135250000Y-131700000D01*
X134750000Y-131700000D01*
X134750000Y-126200000D01*
X137250000Y-126200000D02*
X137750000Y-126200000D01*
X137750000Y-131700000D01*
X137250000Y-131700000D01*
X137250000Y-126200000D01*
%TO.C,SW3*%
X121500000Y-97250000D02*
X121500000Y-98750000D01*
X122750000Y-101250000D02*
X127250000Y-101250000D01*
X127250000Y-94750000D02*
X122750000Y-94750000D01*
X128500000Y-98750000D02*
X128500000Y-97250000D01*
%TO.C,D3*%
X108465000Y-105765000D02*
X108465000Y-107235000D01*
X108465000Y-107235000D02*
X110925000Y-107235000D01*
X110925000Y-105765000D02*
X108465000Y-105765000D01*
%TO.C,D1*%
X94265000Y-127840000D02*
X94265000Y-130300000D01*
X95735000Y-127840000D02*
X94265000Y-127840000D01*
X95735000Y-130300000D02*
X95735000Y-127840000D01*
%TO.C,J3*%
X98940000Y-120590000D02*
X100360000Y-120590000D01*
X98940000Y-132310000D02*
X98940000Y-120590000D01*
X100360000Y-120590000D02*
X100360000Y-125090000D01*
X100360000Y-125090000D02*
X107750000Y-125090000D01*
X101200000Y-120900000D02*
X101800000Y-120900000D01*
X101500000Y-121500000D02*
X101200000Y-120900000D01*
X101800000Y-120900000D02*
X101500000Y-121500000D01*
X107750000Y-132310000D02*
X98940000Y-132310000D01*
X107750000Y-132310000D02*
X116560000Y-132310000D01*
X115140000Y-120590000D02*
X115140000Y-125090000D01*
X115140000Y-125090000D02*
X107750000Y-125090000D01*
X116560000Y-120590000D02*
X115140000Y-120590000D01*
X116560000Y-132310000D02*
X116560000Y-120590000D01*
X101250000Y-126200000D02*
X101750000Y-126200000D01*
X101750000Y-131700000D01*
X101250000Y-131700000D01*
X101250000Y-126200000D01*
X103750000Y-126200000D02*
X104250000Y-126200000D01*
X104250000Y-131700000D01*
X103750000Y-131700000D01*
X103750000Y-126200000D01*
X106250000Y-126200000D02*
X106750000Y-126200000D01*
X106750000Y-131700000D01*
X106250000Y-131700000D01*
X106250000Y-126200000D01*
X108750000Y-126200000D02*
X109250000Y-126200000D01*
X109250000Y-131700000D01*
X108750000Y-131700000D01*
X108750000Y-126200000D01*
X111250000Y-126200000D02*
X111750000Y-126200000D01*
X111750000Y-131700000D01*
X111250000Y-131700000D01*
X111250000Y-126200000D01*
X113750000Y-126200000D02*
X114250000Y-126200000D01*
X114250000Y-131700000D01*
X113750000Y-131700000D01*
X113750000Y-126200000D01*
%TO.C,R8*%
X128932776Y-105977500D02*
X129442224Y-105977500D01*
X128932776Y-107022500D02*
X129442224Y-107022500D01*
%TO.C,SW2*%
X108250000Y-97250000D02*
X108250000Y-98750000D01*
X109500000Y-101250000D02*
X114000000Y-101250000D01*
X114000000Y-94750000D02*
X109500000Y-94750000D01*
X115250000Y-98750000D02*
X115250000Y-97250000D01*
%TO.C,R1*%
X94477500Y-123245276D02*
X94477500Y-123754724D01*
X95522500Y-123245276D02*
X95522500Y-123754724D01*
%TO.C,D5*%
X134840000Y-105765000D02*
X134840000Y-107235000D01*
X134840000Y-107235000D02*
X137300000Y-107235000D01*
X137300000Y-105765000D02*
X134840000Y-105765000D01*
%TD*%
M02*
