M48
; DRILL file KiCad 10.0.1-10.0.1~ubuntu22.04.1 date 2026-07-17T13:41:13
; FORMAT={-:-/ absolute / metric / decimal}
; #@! TF.CreationDate,2026-07-17T13:41:13+09:00
; #@! TF.GenerationSoftware,Kicad,Pcbnew,10.0.1-10.0.1~ubuntu22.04.1
; #@! TF.FileFunction,Plated,1,2,PTH
FMAT,2
METRIC
; #@! TA.AperFunction,Plated,PTH,ViaDrill
T1C0.300
; #@! TA.AperFunction,Plated,PTH,ComponentDrill
T2C0.950
; #@! TA.AperFunction,Plated,PTH,ComponentDrill
T3C1.100
%
G90
G05
T1
X85.0Y-105.0
X85.0Y-115.0
X85.0Y-125.0
X90.0Y-91.4
X90.0Y-130.0
X99.4Y-103.9
X99.5Y-108.0
X102.8Y-107.4
X105.0Y-91.4
X105.0Y-130.0
X105.3Y-97.4
X105.7Y-106.0
X111.8Y-108.4
X113.5Y-104.0
X118.3Y-98.1
X120.0Y-91.4
X120.0Y-130.0
X123.1Y-108.6
X125.5Y-105.0
X127.4Y-119.8
X131.5Y-100.0
X135.0Y-91.4
X135.0Y-130.0
X138.3Y-104.1
X138.3Y-108.2
X140.1Y-110.8
X150.0Y-91.5
X150.0Y-130.0
X155.0Y-105.0
X155.0Y-115.0
X155.0Y-125.0
T2
X101.5Y-123.0
X104.0Y-123.0
X106.5Y-123.0
X109.0Y-123.0
X111.5Y-123.0
X114.0Y-123.0
X125.0Y-123.0
X127.5Y-123.0
X130.0Y-123.0
X132.5Y-123.0
X135.0Y-123.0
X137.5Y-123.0
T3
X94.75Y-95.75
X94.75Y-100.25
X101.25Y-95.75
X101.25Y-100.25
X108.5Y-95.75
X108.5Y-100.25
X115.0Y-95.75
X115.0Y-100.25
X121.75Y-95.75
X121.75Y-100.25
X128.25Y-95.75
X128.25Y-100.25
X135.0Y-95.75
X135.0Y-100.25
X141.5Y-95.75
X141.5Y-100.25
M30
