%TF.GenerationSoftware,KiCad,Pcbnew,10.0.1-10.0.1~ubuntu22.04.1*%
%TF.CreationDate,2026-07-17T13:41:06+09:00*%
%TF.ProjectId,administrator-board,61646d69-6e69-4737-9472-61746f722d62,rev?*%
%TF.SameCoordinates,Original*%
%TF.FileFunction,Copper,L1,Top*%
%TF.FilePolarity,Positive*%
%FSLAX46Y46*%
G04 Gerber Fmt 4.6, Leading zero omitted, Abs format (unit mm)*
G04 Created by KiCad (PCBNEW 10.0.1-10.0.1~ubuntu22.04.1) date 2026-07-17 13:41:06*
%MOMM*%
%LPD*%
G01*
G04 APERTURE LIST*
G04 Aperture macros list*
%AMRoundRect*
0 Rectangle with rounded corners*
0 $1 Rounding radius*
0 $2 $3 $4 $5 $6 $7 $8 $9 X,Y pos of 4 corners*
0 Add a 4 corners polygon primitive as box body*
4,1,4,$2,$3,$4,$5,$6,$7,$8,$9,$2,$3,0*
0 Add four circle primitives for the rounded corners*
1,1,$1+$1,$2,$3*
1,1,$1+$1,$4,$5*
1,1,$1+$1,$6,$7*
1,1,$1+$1,$8,$9*
0 Add four rect primitives between the rounded corners*
20,1,$1+$1,$2,$3,$4,$5,0*
20,1,$1+$1,$4,$5,$6,$7,0*
20,1,$1+$1,$6,$7,$8,$9,0*
20,1,$1+$1,$8,$9,$2,$3,0*%
G04 Aperture macros list end*
%TA.AperFunction,SMDPad,CuDef*%
%ADD10RoundRect,0.237500X-0.250000X-0.237500X0.250000X-0.237500X0.250000X0.237500X-0.250000X0.237500X0*%
%TD*%
%TA.AperFunction,ComponentPad*%
%ADD11C,2.000000*%
%TD*%
%TA.AperFunction,SMDPad,CuDef*%
%ADD12RoundRect,0.237500X-0.287500X-0.237500X0.287500X-0.237500X0.287500X0.237500X-0.287500X0.237500X0*%
%TD*%
%TA.AperFunction,ComponentPad*%
%ADD13RoundRect,0.250000X-0.600000X-0.725000X0.600000X-0.725000X0.600000X0.725000X-0.600000X0.725000X0*%
%TD*%
%TA.AperFunction,ComponentPad*%
%ADD14O,1.700000X1.950000*%
%TD*%
%TA.AperFunction,SMDPad,CuDef*%
%ADD15RoundRect,0.237500X-0.237500X0.287500X-0.237500X-0.287500X0.237500X-0.287500X0.237500X0.287500X0*%
%TD*%
%TA.AperFunction,SMDPad,CuDef*%
%ADD16RoundRect,0.237500X-0.237500X0.250000X-0.237500X-0.250000X0.237500X-0.250000X0.237500X0.250000X0*%
%TD*%
%TA.AperFunction,ViaPad*%
%ADD17C,0.600000*%
%TD*%
%TA.AperFunction,Conductor*%
%ADD18C,0.600000*%
%TD*%
%TA.AperFunction,Conductor*%
%ADD19C,0.400000*%
%TD*%
G04 APERTURE END LIST*
D10*
%TO.P,R7,1*%
%TO.N,SW2*%
X114987500Y-106500000D03*
%TO.P,R7,2*%
%TO.N,GND*%
X116812500Y-106500000D03*
%TD*%
D11*
%TO.P,SW1,1,1_1*%
%TO.N,+3.3V*%
X94750000Y-95750000D03*
X101250000Y-95750000D03*
%TO.P,SW1,2,2_2*%
%TO.N,SW1*%
X94750000Y-100250000D03*
X101250000Y-100250000D03*
%TD*%
%TO.P,SW4,1,1_1*%
%TO.N,+3.3V*%
X135000000Y-95750000D03*
X141500000Y-95750000D03*
%TO.P,SW4,2,2_2*%
%TO.N,SW4*%
X135000000Y-100250000D03*
X141500000Y-100250000D03*
%TD*%
D10*
%TO.P,R6,1*%
%TO.N,SW1*%
X101087500Y-106000000D03*
%TO.P,R6,2*%
%TO.N,GND*%
X102912500Y-106000000D03*
%TD*%
%TO.P,R4,1*%
%TO.N,Net-(D4-K)*%
X121587500Y-110000000D03*
%TO.P,R4,2*%
%TO.N,GND*%
X123412500Y-110000000D03*
%TD*%
%TO.P,R3,1*%
%TO.N,Net-(D3-K)*%
X109212500Y-110000000D03*
%TO.P,R3,2*%
%TO.N,GND*%
X111037500Y-110000000D03*
%TD*%
%TO.P,R9,1*%
%TO.N,SW4*%
X141475000Y-106500000D03*
%TO.P,R9,2*%
%TO.N,GND*%
X143300000Y-106500000D03*
%TD*%
D12*
%TO.P,D4,1,K_1*%
%TO.N,Net-(D4-K)*%
X121625000Y-106500000D03*
%TO.P,D4,2,A_2*%
%TO.N,SW3*%
X123375000Y-106500000D03*
%TD*%
D10*
%TO.P,R2,1*%
%TO.N,Net-(D2-K)*%
X96087500Y-110000000D03*
%TO.P,R2,2*%
%TO.N,GND*%
X97912500Y-110000000D03*
%TD*%
%TO.P,R5,1*%
%TO.N,Net-(D5-K)*%
X135587500Y-110000000D03*
%TO.P,R5,2*%
%TO.N,GND*%
X137412500Y-110000000D03*
%TD*%
D12*
%TO.P,D2,1,K_1*%
%TO.N,Net-(D2-K)*%
X96125000Y-106000000D03*
%TO.P,D2,2,A_2*%
%TO.N,SW1*%
X97875000Y-106000000D03*
%TD*%
D13*
%TO.P,J2,1,Pin_1_1*%
%TO.N,SW3*%
X125000000Y-123000000D03*
D14*
%TO.P,J2,2,Pin_2_2*%
%TO.N,unconnected-(J2-Pin_2-Pad2)*%
X127500000Y-123000000D03*
%TO.P,J2,3,Pin_3_3*%
%TO.N,SW4*%
X130000000Y-123000000D03*
%TO.P,J2,4,Pin_4_4*%
%TO.N,GND*%
X132500000Y-123000000D03*
%TO.P,J2,5,Pin_5_5*%
%TO.N,unconnected-(J2-Pin_5-Pad5)*%
X135000000Y-123000000D03*
%TO.P,J2,6,Pin_6_6*%
%TO.N,unconnected-(J2-Pin_6-Pad6)*%
X137500000Y-123000000D03*
%TD*%
D11*
%TO.P,SW3,1,1_1*%
%TO.N,+3.3V*%
X121750000Y-95750000D03*
X128250000Y-95750000D03*
%TO.P,SW3,2,2_2*%
%TO.N,SW3*%
X121750000Y-100250000D03*
X128250000Y-100250000D03*
%TD*%
D12*
%TO.P,D3,1,K_1*%
%TO.N,Net-(D3-K)*%
X109250000Y-106500000D03*
%TO.P,D3,2,A_2*%
%TO.N,SW2*%
X111000000Y-106500000D03*
%TD*%
D15*
%TO.P,D1,1,K_1*%
%TO.N,Net-(D1-K)*%
X95000000Y-128625000D03*
%TO.P,D1,2,A_2*%
%TO.N,+3.3V*%
X95000000Y-130375000D03*
%TD*%
D13*
%TO.P,J3,1,Pin_1_1*%
%TO.N,SW1*%
X101500000Y-123000000D03*
D14*
%TO.P,J3,2,Pin_2_2*%
%TO.N,+3.3V*%
X104000000Y-123000000D03*
%TO.P,J3,3,Pin_3_3*%
%TO.N,SW2*%
X106500000Y-123000000D03*
%TO.P,J3,4,Pin_4_4*%
%TO.N,GND*%
X109000000Y-123000000D03*
%TO.P,J3,5,Pin_5_5*%
%TO.N,unconnected-(J3-Pin_5-Pad5)*%
X111500000Y-123000000D03*
%TO.P,J3,6,Pin_6_6*%
%TO.N,unconnected-(J3-Pin_6-Pad6)*%
X114000000Y-123000000D03*
%TD*%
D10*
%TO.P,R8,1*%
%TO.N,SW3*%
X128275000Y-106500000D03*
%TO.P,R8,2*%
%TO.N,GND*%
X130100000Y-106500000D03*
%TD*%
D11*
%TO.P,SW2,1,1_1*%
%TO.N,+3.3V*%
X108500000Y-95750000D03*
X115000000Y-95750000D03*
%TO.P,SW2,2,2_2*%
%TO.N,SW2*%
X108500000Y-100250000D03*
X115000000Y-100250000D03*
%TD*%
D16*
%TO.P,R1,1*%
%TO.N,Net-(D1-K)*%
X95000000Y-122587500D03*
%TO.P,R1,2*%
%TO.N,GND*%
X95000000Y-124412500D03*
%TD*%
D12*
%TO.P,D5,1,K_1*%
%TO.N,Net-(D5-K)*%
X135625000Y-106500000D03*
%TO.P,D5,2,A_2*%
%TO.N,SW4*%
X137375000Y-106500000D03*
%TD*%
D17*
%TO.N,GND*%
X90000000Y-130000000D03*
X155000000Y-105000000D03*
X125500000Y-105000000D03*
X105300000Y-97400000D03*
X99400000Y-103900000D03*
X155000000Y-125000000D03*
X140100000Y-110800000D03*
X135000000Y-91400000D03*
X150000000Y-130000000D03*
X90000000Y-91400000D03*
X138300000Y-104100000D03*
X120000000Y-91400000D03*
X85000000Y-105000000D03*
X120000000Y-130000000D03*
X111800000Y-108400000D03*
X131500000Y-100000000D03*
X118300000Y-98100000D03*
X99500000Y-108000000D03*
X105700000Y-106000000D03*
X127400000Y-119800000D03*
X105000000Y-130000000D03*
X123100000Y-108600000D03*
X135000000Y-130000000D03*
X150000000Y-91500000D03*
X85000000Y-115000000D03*
X155000000Y-115000000D03*
X102800000Y-107400000D03*
X85000000Y-125000000D03*
X138300000Y-108200000D03*
X113500000Y-104000000D03*
X105000000Y-91400000D03*
%TD*%
%TO.N,SW2*%
D18*
X110025000Y-105525000D02*
X108650436Y-105525000D01*
X115000000Y-100250000D02*
X115000000Y-106487500D01*
X114987500Y-106500000D02*
X111000000Y-106500000D01*
X115000000Y-106487500D02*
X114987500Y-106500000D01*
X111000000Y-106500000D02*
X110025000Y-105525000D01*
X108650436Y-105525000D02*
X105500000Y-108675436D01*
X105500000Y-122000000D02*
X106500000Y-123000000D01*
X108500000Y-100250000D02*
X115000000Y-100250000D01*
X105500000Y-108675436D02*
X105500000Y-122000000D01*
%TO.N,GND*%
D19*
X116840000Y-106500000D02*
X116840000Y-106680000D01*
%TO.N,+3.3V*%
D18*
X115000000Y-95750000D02*
X115050000Y-95800000D01*
X101250000Y-95750000D02*
X104000000Y-98500000D01*
X97125000Y-130375000D02*
X95000000Y-130375000D01*
X141450000Y-95800000D02*
X141500000Y-95750000D01*
X101250000Y-95750000D02*
X101300000Y-95800000D01*
X115050000Y-95800000D02*
X141450000Y-95800000D01*
X104000000Y-123000000D02*
X104000000Y-123500000D01*
X94750000Y-95750000D02*
X101250000Y-95750000D01*
X108450000Y-95800000D02*
X108500000Y-95750000D01*
X104000000Y-98500000D02*
X104000000Y-123000000D01*
X101300000Y-95800000D02*
X108450000Y-95800000D01*
X108500000Y-95750000D02*
X115000000Y-95750000D01*
X104000000Y-123500000D02*
X97125000Y-130375000D01*
%TO.N,SW1*%
X101087500Y-106000000D02*
X97875000Y-106000000D01*
X101250000Y-100250000D02*
X101250000Y-105837500D01*
X102600000Y-108900000D02*
X102600000Y-121900000D01*
X101087500Y-106000000D02*
X101087500Y-107387500D01*
X101250000Y-105837500D02*
X101087500Y-106000000D01*
X94750000Y-100250000D02*
X101250000Y-100250000D01*
X101087500Y-107387500D02*
X102600000Y-108900000D01*
X102600000Y-121900000D02*
X101500000Y-123000000D01*
%TO.N,SW4*%
X141500000Y-100250000D02*
X141500000Y-106475000D01*
X141500000Y-106475000D02*
X141475000Y-106500000D01*
X137375000Y-106500000D02*
X136400000Y-105525000D01*
X130000000Y-110550436D02*
X130000000Y-123000000D01*
X141475000Y-106500000D02*
X137375000Y-106500000D01*
X136400000Y-105525000D02*
X135025436Y-105525000D01*
X135025436Y-105525000D02*
X130000000Y-110550436D01*
X135000000Y-100250000D02*
X141500000Y-100250000D01*
%TO.N,Net-(D4-K)*%
X121625000Y-109962500D02*
X121587500Y-110000000D01*
X121625000Y-106500000D02*
X121625000Y-109962500D01*
%TO.N,Net-(D3-K)*%
X109250000Y-109962500D02*
X109212500Y-110000000D01*
X109250000Y-106500000D02*
X109250000Y-109962500D01*
%TO.N,SW3*%
X125000000Y-108125000D02*
X125000000Y-123000000D01*
X121750000Y-100250000D02*
X128250000Y-100250000D01*
X123375000Y-106500000D02*
X125000000Y-108125000D01*
X128275000Y-106500000D02*
X123375000Y-106500000D01*
X128250000Y-106475000D02*
X128275000Y-106500000D01*
X128250000Y-100250000D02*
X128250000Y-106475000D01*
%TO.N,Net-(D2-K)*%
X96125000Y-109962500D02*
X96087500Y-110000000D01*
X96125000Y-106000000D02*
X96125000Y-109962500D01*
%TO.N,Net-(D5-K)*%
X135625000Y-106500000D02*
X135625000Y-109962500D01*
X135625000Y-109962500D02*
X135587500Y-110000000D01*
%TO.N,Net-(D1-K)*%
X95975000Y-123562500D02*
X95975000Y-127650000D01*
X95000000Y-122587500D02*
X95975000Y-123562500D01*
X95975000Y-127650000D02*
X95000000Y-128625000D01*
%TD*%
%TA.AperFunction,Conductor*%
%TO.N,GND*%
G36*
X155003736Y-90500726D02*
G01*
X155293796Y-90518271D01*
X155308659Y-90520076D01*
X155590797Y-90571780D01*
X155605334Y-90575363D01*
X155879182Y-90660698D01*
X155893163Y-90666000D01*
X156154734Y-90783724D01*
X156167987Y-90790680D01*
X156413458Y-90939071D01*
X156425776Y-90947573D01*
X156651573Y-91124474D01*
X156662781Y-91134404D01*
X156865595Y-91337218D01*
X156875525Y-91348426D01*
X157052422Y-91574217D01*
X157060928Y-91586541D01*
X157209319Y-91832012D01*
X157216277Y-91845269D01*
X157333994Y-92106823D01*
X157339304Y-92120825D01*
X157424635Y-92394664D01*
X157428219Y-92409202D01*
X157479923Y-92691340D01*
X157481728Y-92706205D01*
X157499274Y-92996263D01*
X157499500Y-93003750D01*
X157499500Y-129996249D01*
X157499274Y-130003736D01*
X157481728Y-130293794D01*
X157479923Y-130308659D01*
X157428219Y-130590797D01*
X157424635Y-130605335D01*
X157339304Y-130879174D01*
X157333994Y-130893176D01*
X157216277Y-131154730D01*
X157209319Y-131167987D01*
X157060928Y-131413458D01*
X157052422Y-131425782D01*
X156875525Y-131651573D01*
X156865595Y-131662781D01*
X156662781Y-131865595D01*
X156651573Y-131875525D01*
X156425782Y-132052422D01*
X156413458Y-132060928D01*
X156167987Y-132209319D01*
X156154730Y-132216277D01*
X155893176Y-132333994D01*
X155879174Y-132339304D01*
X155605335Y-132424635D01*
X155590797Y-132428219D01*
X155308659Y-132479923D01*
X155293794Y-132481728D01*
X155003736Y-132499274D01*
X154996249Y-132499500D01*
X86003751Y-132499500D01*
X85996264Y-132499274D01*
X85706205Y-132481728D01*
X85691340Y-132479923D01*
X85409202Y-132428219D01*
X85394664Y-132424635D01*
X85120825Y-132339304D01*
X85106827Y-132333995D01*
X84954096Y-132265256D01*
X84845269Y-132216277D01*
X84832012Y-132209319D01*
X84586541Y-132060928D01*
X84574217Y-132052422D01*
X84348426Y-131875525D01*
X84337218Y-131865595D01*
X84134404Y-131662781D01*
X84124474Y-131651573D01*
X83947573Y-131425776D01*
X83939071Y-131413458D01*
X83790680Y-131167987D01*
X83783722Y-131154730D01*
X83779225Y-131144738D01*
X83666000Y-130893163D01*
X83660698Y-130879182D01*
X83575363Y-130605334D01*
X83571780Y-130590797D01*
X83520076Y-130308659D01*
X83518271Y-130293794D01*
X83500726Y-130003736D01*
X83500500Y-129996249D01*
X83500500Y-128878711D01*
X85149500Y-128878711D01*
X85149500Y-129121288D01*
X85181161Y-129361785D01*
X85243947Y-129596104D01*
X85336773Y-129820205D01*
X85336776Y-129820212D01*
X85458064Y-130030289D01*
X85458066Y-130030292D01*
X85458067Y-130030293D01*
X85605733Y-130222736D01*
X85605739Y-130222743D01*
X85777256Y-130394260D01*
X85777262Y-130394265D01*
X85969711Y-130541936D01*
X86179788Y-130663224D01*
X86403900Y-130756054D01*
X86638211Y-130818838D01*
X86818586Y-130842584D01*
X86878711Y-130850500D01*
X86878712Y-130850500D01*
X87121289Y-130850500D01*
X87169388Y-130844167D01*
X87361789Y-130818838D01*
X87596100Y-130756054D01*
X87820212Y-130663224D01*
X88030289Y-130541936D01*
X88222738Y-130394265D01*
X88394265Y-130222738D01*
X88541936Y-130030289D01*
X88663224Y-129820212D01*
X88756054Y-129596100D01*
X88818838Y-129361789D01*
X88850500Y-129121288D01*
X88850500Y-128878712D01*
X88818838Y-128638211D01*
X88756054Y-128403900D01*
X88663224Y-128179788D01*
X88541936Y-127969711D01*
X88394265Y-127777262D01*
X88394264Y-127777261D01*
X88394260Y-127777256D01*
X88222743Y-127605739D01*
X88222736Y-127605733D01*
X88030293Y-127458067D01*
X88030292Y-127458066D01*
X88030289Y-127458064D01*
X87820212Y-127336776D01*
X87813747Y-127334098D01*
X87596104Y-127243947D01*
X87361785Y-127181161D01*
X87121289Y-127149500D01*
X87121288Y-127149500D01*
X86878712Y-127149500D01*
X86878711Y-127149500D01*
X86638214Y-127181161D01*
X86403895Y-127243947D01*
X86179794Y-127336773D01*
X86179785Y-127336777D01*
X85969706Y-127458067D01*
X85777263Y-127605733D01*
X85777256Y-127605739D01*
X85605739Y-127777256D01*
X85605733Y-127777263D01*
X85458067Y-127969706D01*
X85336777Y-128179785D01*
X85336773Y-128179794D01*
X85243947Y-128403895D01*
X85181161Y-128638214D01*
X85149500Y-128878711D01*
X83500500Y-128878711D01*
X83500500Y-124711654D01*
X94025001Y-124711654D01*
X94035319Y-124812652D01*
X94089546Y-124976300D01*
X94089551Y-124976311D01*
X94180052Y-125123034D01*
X94180055Y-125123038D01*
X94301961Y-125244944D01*
X94301965Y-125244947D01*
X94448688Y-125335448D01*
X94448699Y-125335453D01*
X94612347Y-125389680D01*
X94713352Y-125399999D01*
X94750000Y-125399999D01*
X94750000Y-124662500D01*
X94025001Y-124662500D01*
X94025001Y-124711654D01*
X83500500Y-124711654D01*
X83500500Y-93878711D01*
X85149500Y-93878711D01*
X85149500Y-94121288D01*
X85181161Y-94361785D01*
X85243947Y-94596104D01*
X85317008Y-94772488D01*
X85336776Y-94820212D01*
X85458064Y-95030289D01*
X85458066Y-95030292D01*
X85458067Y-95030293D01*
X85605733Y-95222736D01*
X85605739Y-95222743D01*
X85777256Y-95394260D01*
X85777262Y-95394265D01*
X85969711Y-95541936D01*
X86179788Y-95663224D01*
X86403900Y-95756054D01*
X86638211Y-95818838D01*
X86818586Y-95842584D01*
X86878711Y-95850500D01*
X86878712Y-95850500D01*
X87121289Y-95850500D01*
X87169388Y-95844167D01*
X87361789Y-95818838D01*
X87596100Y-95756054D01*
X87820212Y-95663224D01*
X87874463Y-95631902D01*
X93249500Y-95631902D01*
X93249500Y-95868097D01*
X93286446Y-96101368D01*
X93359433Y-96325996D01*
X93466657Y-96536433D01*
X93605483Y-96727510D01*
X93772490Y-96894517D01*
X93963567Y-97033343D01*
X94062991Y-97084002D01*
X94174003Y-97140566D01*
X94174005Y-97140566D01*
X94174008Y-97140568D01*
X94294412Y-97179689D01*
X94398631Y-97213553D01*
X94631903Y-97250500D01*
X94631908Y-97250500D01*
X94868097Y-97250500D01*
X95101368Y-97213553D01*
X95325992Y-97140568D01*
X95536433Y-97033343D01*
X95727510Y-96894517D01*
X95894517Y-96727510D01*
X95985986Y-96601613D01*
X96041316Y-96558949D01*
X96086304Y-96550500D01*
X99913696Y-96550500D01*
X99980735Y-96570185D01*
X100014013Y-96601613D01*
X100105483Y-96727510D01*
X100272490Y-96894517D01*
X100463567Y-97033343D01*
X100562991Y-97084002D01*
X100674003Y-97140566D01*
X100674005Y-97140566D01*
X100674008Y-97140568D01*
X100794412Y-97179689D01*
X100898631Y-97213553D01*
X101131903Y-97250500D01*
X101131908Y-97250500D01*
X101368090Y-97250500D01*
X101368092Y-97250500D01*
X101521794Y-97226155D01*
X101591084Y-97235109D01*
X101628870Y-97260947D01*
X103163181Y-98795258D01*
X103196666Y-98856581D01*
X103199500Y-98882939D01*
X103199500Y-104936638D01*
X103179815Y-105003677D01*
X103163181Y-105024319D01*
X103162500Y-105025000D01*
X103162500Y-106974999D01*
X103163181Y-106975680D01*
X103196666Y-107037003D01*
X103199500Y-107063361D01*
X103199500Y-108068060D01*
X103179815Y-108135099D01*
X103127011Y-108180854D01*
X103057853Y-108190798D01*
X102994297Y-108161773D01*
X102987819Y-108155741D01*
X101924319Y-107092241D01*
X101909615Y-107065313D01*
X101893023Y-107039495D01*
X101892131Y-107033294D01*
X101890834Y-107030918D01*
X101888000Y-107004560D01*
X101888000Y-106805345D01*
X101907685Y-106738306D01*
X101960489Y-106692551D01*
X102029647Y-106682607D01*
X102093203Y-106711632D01*
X102099681Y-106717664D01*
X102201961Y-106819944D01*
X102201965Y-106819947D01*
X102348688Y-106910448D01*
X102348699Y-106910453D01*
X102512347Y-106964680D01*
X102613351Y-106974999D01*
X102662499Y-106974998D01*
X102662500Y-106974998D01*
X102662500Y-105025000D01*
X102662499Y-105024999D01*
X102613361Y-105025000D01*
X102613343Y-105025001D01*
X102512347Y-105035319D01*
X102348699Y-105089546D01*
X102348694Y-105089548D01*
X102239597Y-105156841D01*
X102172204Y-105175281D01*
X102105541Y-105154358D01*
X102060771Y-105100717D01*
X102050500Y-105051302D01*
X102050500Y-101586302D01*
X102070185Y-101519263D01*
X102101609Y-101485988D01*
X102227510Y-101394517D01*
X102394517Y-101227510D01*
X102533343Y-101036433D01*
X102640568Y-100825992D01*
X102713553Y-100601368D01*
X102750500Y-100368097D01*
X102750500Y-100131902D01*
X102713553Y-99898631D01*
X102640566Y-99674003D01*
X102533342Y-99463566D01*
X102394517Y-99272490D01*
X102227510Y-99105483D01*
X102036433Y-98966657D01*
X101825996Y-98859433D01*
X101601368Y-98786446D01*
X101368097Y-98749500D01*
X101368092Y-98749500D01*
X101131908Y-98749500D01*
X101131903Y-98749500D01*
X100898631Y-98786446D01*
X100674003Y-98859433D01*
X100463566Y-98966657D01*
X100354550Y-99045862D01*
X100272490Y-99105483D01*
X100272488Y-99105485D01*
X100272487Y-99105485D01*
X100105485Y-99272487D01*
X100105485Y-99272488D01*
X100105483Y-99272490D01*
X100014014Y-99398386D01*
X99958684Y-99441051D01*
X99913696Y-99449500D01*
X96086304Y-99449500D01*
X96019265Y-99429815D01*
X95985986Y-99398386D01*
X95894517Y-99272490D01*
X95727510Y-99105483D01*
X95536433Y-98966657D01*
X95325996Y-98859433D01*
X95101368Y-98786446D01*
X94868097Y-98749500D01*
X94868092Y-98749500D01*
X94631908Y-98749500D01*
X94631903Y-98749500D01*
X94398631Y-98786446D01*
X94174003Y-98859433D01*
X93963566Y-98966657D01*
X93854550Y-99045862D01*
X93772490Y-99105483D01*
X93772488Y-99105485D01*
X93772487Y-99105485D01*
X93605485Y-99272487D01*
X93605485Y-99272488D01*
X93605483Y-99272490D01*
X93545862Y-99354550D01*
X93466657Y-99463566D01*
X93359433Y-99674003D01*
X93286446Y-99898631D01*
X93249500Y-100131902D01*
X93249500Y-100368097D01*
X93286446Y-100601368D01*
X93359433Y-100825996D01*
X93466657Y-101036433D01*
X93605483Y-101227510D01*
X93772490Y-101394517D01*
X93963567Y-101533343D01*
X94062991Y-101584002D01*
X94174003Y-101640566D01*
X94174005Y-101640566D01*
X94174008Y-101640568D01*
X94294412Y-101679689D01*
X94398631Y-101713553D01*
X94631903Y-101750500D01*
X94631908Y-101750500D01*
X94868097Y-101750500D01*
X95101368Y-101713553D01*
X95325992Y-101640568D01*
X95536433Y-101533343D01*
X95727510Y-101394517D01*
X95894517Y-101227510D01*
X95985986Y-101101613D01*
X96041316Y-101058949D01*
X96086304Y-101050500D01*
X99913696Y-101050500D01*
X99980735Y-101070185D01*
X100014013Y-101101613D01*
X100105483Y-101227510D01*
X100272490Y-101394517D01*
X100398388Y-101485987D01*
X100441051Y-101541313D01*
X100449500Y-101586302D01*
X100449500Y-105065518D01*
X100446625Y-105075306D01*
X100447891Y-105085430D01*
X100436947Y-105108266D01*
X100429815Y-105132557D01*
X100421302Y-105140913D01*
X100417697Y-105148438D01*
X100390601Y-105171054D01*
X100374419Y-105181036D01*
X100309318Y-105199500D01*
X98690682Y-105199500D01*
X98625585Y-105181039D01*
X98623351Y-105179661D01*
X98623350Y-105179660D01*
X98495363Y-105100717D01*
X98476518Y-105089093D01*
X98476513Y-105089091D01*
X98465465Y-105085430D01*
X98312753Y-105034826D01*
X98312751Y-105034825D01*
X98211678Y-105024500D01*
X97538330Y-105024500D01*
X97538312Y-105024501D01*
X97437247Y-105034825D01*
X97273484Y-105089092D01*
X97273481Y-105089093D01*
X97126648Y-105179661D01*
X97087681Y-105218629D01*
X97026358Y-105252114D01*
X96956666Y-105247130D01*
X96912319Y-105218629D01*
X96873351Y-105179661D01*
X96873350Y-105179660D01*
X96745363Y-105100717D01*
X96726518Y-105089093D01*
X96726513Y-105089091D01*
X96715465Y-105085430D01*
X96562753Y-105034826D01*
X96562751Y-105034825D01*
X96461678Y-105024500D01*
X95788330Y-105024500D01*
X95788312Y-105024501D01*
X95687247Y-105034825D01*
X95523484Y-105089092D01*
X95523481Y-105089093D01*
X95376648Y-105179661D01*
X95254661Y-105301648D01*
X95164093Y-105448481D01*
X95164091Y-105448486D01*
X95145426Y-105504815D01*
X95109826Y-105612247D01*
X95109826Y-105612248D01*
X95109825Y-105612248D01*
X95099500Y-105713315D01*
X95099500Y-106286669D01*
X95099501Y-106286687D01*
X95109825Y-106387752D01*
X95146109Y-106497249D01*
X95164092Y-106551516D01*
X95251083Y-106692551D01*
X95254661Y-106698351D01*
X95288181Y-106731871D01*
X95321666Y-106793194D01*
X95324500Y-106819552D01*
X95324500Y-109180448D01*
X95304815Y-109247487D01*
X95288181Y-109268129D01*
X95254661Y-109301648D01*
X95164093Y-109448481D01*
X95164091Y-109448486D01*
X95136719Y-109531088D01*
X95109826Y-109612247D01*
X95109826Y-109612248D01*
X95109825Y-109612248D01*
X95099500Y-109713315D01*
X95099500Y-110286669D01*
X95099501Y-110286687D01*
X95109825Y-110387752D01*
X95137607Y-110471589D01*
X95164092Y-110551516D01*
X95254660Y-110698350D01*
X95376650Y-110820340D01*
X95523484Y-110910908D01*
X95687247Y-110965174D01*
X95788323Y-110975500D01*
X96386676Y-110975499D01*
X96386684Y-110975498D01*
X96386687Y-110975498D01*
X96442030Y-110969844D01*
X96487753Y-110965174D01*
X96651516Y-110910908D01*
X96798350Y-110820340D01*
X96912675Y-110706014D01*
X96973994Y-110672532D01*
X97043686Y-110677516D01*
X97088034Y-110706017D01*
X97201961Y-110819944D01*
X97201965Y-110819947D01*
X97348688Y-110910448D01*
X97348699Y-110910453D01*
X97512347Y-110964680D01*
X97613351Y-110974999D01*
X98162500Y-110974999D01*
X98211640Y-110974999D01*
X98211654Y-110974998D01*
X98312652Y-110964680D01*
X98476300Y-110910453D01*
X98476311Y-110910448D01*
X98623034Y-110819947D01*
X98623038Y-110819944D01*
X98744944Y-110698038D01*
X98744947Y-110698034D01*
X98835448Y-110551311D01*
X98835453Y-110551300D01*
X98889680Y-110387652D01*
X98899999Y-110286654D01*
X98900000Y-110286641D01*
X98900000Y-110250000D01*
X98162500Y-110250000D01*
X98162500Y-110974999D01*
X97613351Y-110974999D01*
X97662499Y-110974998D01*
X97662500Y-110974998D01*
X97662500Y-109750000D01*
X98162500Y-109750000D01*
X98899999Y-109750000D01*
X98899999Y-109713360D01*
X98899998Y-109713345D01*
X98889680Y-109612347D01*
X98835453Y-109448699D01*
X98835448Y-109448688D01*
X98744947Y-109301965D01*
X98744944Y-109301961D01*
X98623038Y-109180055D01*
X98623034Y-109180052D01*
X98476311Y-109089551D01*
X98476300Y-109089546D01*
X98312652Y-109035319D01*
X98211654Y-109025000D01*
X98162500Y-109025000D01*
X98162500Y-109750000D01*
X97662500Y-109750000D01*
X97662500Y-109025000D01*
X97662499Y-109024999D01*
X97613361Y-109025000D01*
X97613343Y-109025001D01*
X97512347Y-109035319D01*
X97348699Y-109089546D01*
X97348688Y-109089551D01*
X97201965Y-109180052D01*
X97137181Y-109244836D01*
X97075857Y-109278320D01*
X97006166Y-109273335D01*
X96950232Y-109231464D01*
X96925816Y-109165999D01*
X96925500Y-109157154D01*
X96925500Y-106917416D01*
X96945185Y-106850377D01*
X96997989Y-106804622D01*
X97067147Y-106794678D01*
X97119983Y-106817390D01*
X97120503Y-106816548D01*
X97126205Y-106820065D01*
X97126421Y-106820158D01*
X97126642Y-106820332D01*
X97126650Y-106820340D01*
X97273484Y-106910908D01*
X97437247Y-106965174D01*
X97538323Y-106975500D01*
X98211676Y-106975499D01*
X98211684Y-106975498D01*
X98211687Y-106975498D01*
X98267030Y-106969844D01*
X98312753Y-106965174D01*
X98476516Y-106910908D01*
X98623350Y-106820340D01*
X98623351Y-106820338D01*
X98625585Y-106818961D01*
X98690682Y-106800500D01*
X100163000Y-106800500D01*
X100230039Y-106820185D01*
X100275794Y-106872989D01*
X100287000Y-106924500D01*
X100287000Y-107466346D01*
X100317761Y-107620989D01*
X100317764Y-107621001D01*
X100378102Y-107766672D01*
X100378109Y-107766685D01*
X100465710Y-107897788D01*
X100465713Y-107897792D01*
X101763181Y-109195259D01*
X101796666Y-109256582D01*
X101799500Y-109282940D01*
X101799500Y-121400500D01*
X101779815Y-121467539D01*
X101727011Y-121513294D01*
X101675500Y-121524500D01*
X100849998Y-121524500D01*
X100849980Y-121524501D01*
X100747203Y-121535000D01*
X100747200Y-121535001D01*
X100580668Y-121590185D01*
X100580663Y-121590187D01*
X100431342Y-121682289D01*
X100307289Y-121806342D01*
X100215187Y-121955663D01*
X100215185Y-121955668D01*
X100210325Y-121970334D01*
X100160001Y-122122203D01*
X100160001Y-122122204D01*
X100160000Y-122122204D01*
X100149500Y-122224983D01*
X100149500Y-123775001D01*
X100149501Y-123775018D01*
X100160000Y-123877796D01*
X100160001Y-123877799D01*
X100205894Y-124016294D01*
X100215186Y-124044334D01*
X100307288Y-124193656D01*
X100431344Y-124317712D01*
X100580666Y-124409814D01*
X100747203Y-124464999D01*
X100849991Y-124475500D01*
X101593059Y-124475499D01*
X101660098Y-124495183D01*
X101705853Y-124547987D01*
X101715797Y-124617146D01*
X101686772Y-124680702D01*
X101680740Y-124687180D01*
X96829741Y-129538181D01*
X96768418Y-129571666D01*
X96742060Y-129574500D01*
X95917417Y-129574500D01*
X95850378Y-129554815D01*
X95804623Y-129502011D01*
X95794679Y-129432853D01*
X95817388Y-129380015D01*
X95816548Y-129379497D01*
X95820056Y-129373808D01*
X95820151Y-129373589D01*
X95820333Y-129373356D01*
X95820340Y-129373350D01*
X95910908Y-129226516D01*
X95965174Y-129062753D01*
X95975500Y-128961677D01*
X95975499Y-128832939D01*
X95995183Y-128765900D01*
X96011813Y-128745263D01*
X96596789Y-128160289D01*
X96627243Y-128114711D01*
X96684394Y-128029179D01*
X96744737Y-127883497D01*
X96765869Y-127777262D01*
X96775500Y-127728843D01*
X96775500Y-127571158D01*
X96775500Y-123483658D01*
X96771206Y-123462073D01*
X96744737Y-123329003D01*
X96726321Y-123284543D01*
X96684394Y-123183321D01*
X96684392Y-123183319D01*
X96684392Y-123183317D01*
X96596790Y-123052212D01*
X96596789Y-123052211D01*
X96485289Y-122940711D01*
X96011818Y-122467240D01*
X95978333Y-122405917D01*
X95975499Y-122379559D01*
X95975499Y-122288330D01*
X95975498Y-122288313D01*
X95965174Y-122187247D01*
X95956217Y-122160218D01*
X95910908Y-122023484D01*
X95820340Y-121876650D01*
X95698350Y-121754660D01*
X95581018Y-121682289D01*
X95551518Y-121664093D01*
X95551513Y-121664091D01*
X95550069Y-121663612D01*
X95387753Y-121609826D01*
X95387751Y-121609825D01*
X95286678Y-121599500D01*
X94713330Y-121599500D01*
X94713312Y-121599501D01*
X94612247Y-121609825D01*
X94448484Y-121664092D01*
X94448481Y-121664093D01*
X94301648Y-121754661D01*
X94179661Y-121876648D01*
X94089093Y-122023481D01*
X94089092Y-122023484D01*
X94034826Y-122187247D01*
X94034826Y-122187248D01*
X94034825Y-122187248D01*
X94024500Y-122288315D01*
X94024500Y-122886669D01*
X94024501Y-122886687D01*
X94034825Y-122987752D01*
X94089092Y-123151515D01*
X94089093Y-123151518D01*
X94179661Y-123298351D01*
X94293982Y-123412672D01*
X94327467Y-123473995D01*
X94322483Y-123543687D01*
X94293983Y-123588034D01*
X94180052Y-123701965D01*
X94089551Y-123848688D01*
X94089546Y-123848699D01*
X94035319Y-124012347D01*
X94025000Y-124113345D01*
X94025000Y-124162500D01*
X94876000Y-124162500D01*
X94943039Y-124182185D01*
X94988794Y-124234989D01*
X95000000Y-124286500D01*
X95000000Y-124412500D01*
X95050500Y-124412500D01*
X95117539Y-124432185D01*
X95163294Y-124484989D01*
X95174500Y-124536500D01*
X95174500Y-127267059D01*
X95154815Y-127334098D01*
X95138181Y-127354740D01*
X94929739Y-127563181D01*
X94868416Y-127596666D01*
X94842059Y-127599500D01*
X94713331Y-127599500D01*
X94713312Y-127599501D01*
X94612247Y-127609825D01*
X94448484Y-127664092D01*
X94448481Y-127664093D01*
X94301648Y-127754661D01*
X94179661Y-127876648D01*
X94089093Y-128023481D01*
X94089092Y-128023484D01*
X94034826Y-128187247D01*
X94034826Y-128187248D01*
X94034825Y-128187248D01*
X94024500Y-128288315D01*
X94024500Y-128961669D01*
X94024501Y-128961687D01*
X94034825Y-129062752D01*
X94089092Y-129226515D01*
X94089093Y-129226518D01*
X94179661Y-129373351D01*
X94218629Y-129412319D01*
X94252114Y-129473642D01*
X94247130Y-129543334D01*
X94218629Y-129587681D01*
X94179661Y-129626648D01*
X94089093Y-129773481D01*
X94089092Y-129773484D01*
X94034826Y-129937247D01*
X94034826Y-129937248D01*
X94034825Y-129937248D01*
X94024500Y-130038315D01*
X94024500Y-130711669D01*
X94024501Y-130711687D01*
X94034825Y-130812752D01*
X94089092Y-130976515D01*
X94089093Y-130976518D01*
X94101596Y-130996789D01*
X94179660Y-131123350D01*
X94301650Y-131245340D01*
X94448484Y-131335908D01*
X94612247Y-131390174D01*
X94713323Y-131400500D01*
X95286676Y-131400499D01*
X95286684Y-131400498D01*
X95286687Y-131400498D01*
X95342030Y-131394844D01*
X95387753Y-131390174D01*
X95551516Y-131335908D01*
X95698350Y-131245340D01*
X95731871Y-131211819D01*
X95793194Y-131178334D01*
X95819552Y-131175500D01*
X97203844Y-131175500D01*
X97203845Y-131175499D01*
X97358497Y-131144737D01*
X97504179Y-131084394D01*
X97635289Y-130996789D01*
X99753367Y-128878711D01*
X152149500Y-128878711D01*
X152149500Y-129121288D01*
X152181161Y-129361785D01*
X152243947Y-129596104D01*
X152336773Y-129820205D01*
X152336776Y-129820212D01*
X152458064Y-130030289D01*
X152458066Y-130030292D01*
X152458067Y-130030293D01*
X152605733Y-130222736D01*
X152605739Y-130222743D01*
X152777256Y-130394260D01*
X152777262Y-130394265D01*
X152969711Y-130541936D01*
X153179788Y-130663224D01*
X153403900Y-130756054D01*
X153638211Y-130818838D01*
X153818586Y-130842584D01*
X153878711Y-130850500D01*
X153878712Y-130850500D01*
X154121289Y-130850500D01*
X154169388Y-130844167D01*
X154361789Y-130818838D01*
X154596100Y-130756054D01*
X154820212Y-130663224D01*
X155030289Y-130541936D01*
X155222738Y-130394265D01*
X155394265Y-130222738D01*
X155541936Y-130030289D01*
X155663224Y-129820212D01*
X155756054Y-129596100D01*
X155818838Y-129361789D01*
X155850500Y-129121288D01*
X155850500Y-128878712D01*
X155818838Y-128638211D01*
X155756054Y-128403900D01*
X155663224Y-128179788D01*
X155541936Y-127969711D01*
X155394265Y-127777262D01*
X155394264Y-127777261D01*
X155394260Y-127777256D01*
X155222743Y-127605739D01*
X155222736Y-127605733D01*
X155030293Y-127458067D01*
X155030292Y-127458066D01*
X155030289Y-127458064D01*
X154820212Y-127336776D01*
X154813747Y-127334098D01*
X154596104Y-127243947D01*
X154361785Y-127181161D01*
X154121289Y-127149500D01*
X154121288Y-127149500D01*
X153878712Y-127149500D01*
X153878711Y-127149500D01*
X153638214Y-127181161D01*
X153403895Y-127243947D01*
X153179794Y-127336773D01*
X153179785Y-127336777D01*
X152969706Y-127458067D01*
X152777263Y-127605733D01*
X152777256Y-127605739D01*
X152605739Y-127777256D01*
X152605733Y-127777263D01*
X152458067Y-127969706D01*
X152336777Y-128179785D01*
X152336773Y-128179794D01*
X152243947Y-128403895D01*
X152181161Y-128638214D01*
X152149500Y-128878711D01*
X99753367Y-128878711D01*
X100903234Y-127728844D01*
X101482577Y-127149500D01*
X104137554Y-124494522D01*
X104198875Y-124461039D01*
X104205789Y-124459739D01*
X104316243Y-124442246D01*
X104518412Y-124376557D01*
X104707816Y-124280051D01*
X104769839Y-124234989D01*
X104879786Y-124155109D01*
X104879788Y-124155106D01*
X104879792Y-124155104D01*
X105030104Y-124004792D01*
X105149683Y-123840204D01*
X105205011Y-123797540D01*
X105274624Y-123791561D01*
X105336420Y-123824166D01*
X105350313Y-123840199D01*
X105452560Y-123980931D01*
X105469896Y-124004792D01*
X105620213Y-124155109D01*
X105792179Y-124280048D01*
X105792181Y-124280049D01*
X105792184Y-124280051D01*
X105981588Y-124376557D01*
X106183757Y-124442246D01*
X106393713Y-124475500D01*
X106393714Y-124475500D01*
X106606286Y-124475500D01*
X106606287Y-124475500D01*
X106816243Y-124442246D01*
X107018412Y-124376557D01*
X107207816Y-124280051D01*
X107269839Y-124234989D01*
X107379786Y-124155109D01*
X107379788Y-124155106D01*
X107379792Y-124155104D01*
X107530104Y-124004792D01*
X107649991Y-123839779D01*
X107705320Y-123797115D01*
X107774933Y-123791136D01*
X107836729Y-123823741D01*
X107850627Y-123839781D01*
X107970272Y-124004459D01*
X107970276Y-124004464D01*
X108120535Y-124154723D01*
X108120540Y-124154727D01*
X108292442Y-124279620D01*
X108481782Y-124376095D01*
X108683871Y-124441757D01*
X108750000Y-124452231D01*
X108750000Y-123404145D01*
X108816657Y-123442630D01*
X108937465Y-123475000D01*
X109062535Y-123475000D01*
X109183343Y-123442630D01*
X109250000Y-123404145D01*
X109250000Y-124452230D01*
X109316126Y-124441757D01*
X109316129Y-124441757D01*
X109518217Y-124376095D01*
X109707557Y-124279620D01*
X109879459Y-124154727D01*
X109879464Y-124154723D01*
X110029721Y-124004466D01*
X110149371Y-123839781D01*
X110204701Y-123797115D01*
X110274314Y-123791136D01*
X110336110Y-123823741D01*
X110350008Y-123839781D01*
X110469890Y-124004785D01*
X110469894Y-124004790D01*
X110620213Y-124155109D01*
X110792179Y-124280048D01*
X110792181Y-124280049D01*
X110792184Y-124280051D01*
X110981588Y-124376557D01*
X111183757Y-124442246D01*
X111393713Y-124475500D01*
X111393714Y-124475500D01*
X111606286Y-124475500D01*
X111606287Y-124475500D01*
X111816243Y-124442246D01*
X112018412Y-124376557D01*
X112207816Y-124280051D01*
X112269839Y-124234989D01*
X112379786Y-124155109D01*
X112379788Y-124155106D01*
X112379792Y-124155104D01*
X112530104Y-124004792D01*
X112649683Y-123840204D01*
X112705011Y-123797540D01*
X112774624Y-123791561D01*
X112836420Y-123824166D01*
X112850313Y-123840199D01*
X112952560Y-123980931D01*
X112969896Y-124004792D01*
X113120213Y-124155109D01*
X113292179Y-124280048D01*
X113292181Y-124280049D01*
X113292184Y-124280051D01*
X113481588Y-124376557D01*
X113683757Y-124442246D01*
X113893713Y-124475500D01*
X113893714Y-124475500D01*
X114106286Y-124475500D01*
X114106287Y-124475500D01*
X114316243Y-124442246D01*
X114518412Y-124376557D01*
X114707816Y-124280051D01*
X114769839Y-124234989D01*
X114879786Y-124155109D01*
X114879788Y-124155106D01*
X114879792Y-124155104D01*
X115030104Y-124004792D01*
X115030106Y-124004788D01*
X115030109Y-124004786D01*
X115155048Y-123832820D01*
X115155047Y-123832820D01*
X115155051Y-123832816D01*
X115251557Y-123643412D01*
X115317246Y-123441243D01*
X115350500Y-123231287D01*
X115350500Y-122768713D01*
X115317246Y-122558757D01*
X115251557Y-122356588D01*
X115155051Y-122167184D01*
X115155049Y-122167181D01*
X115155048Y-122167179D01*
X115030109Y-121995213D01*
X114879786Y-121844890D01*
X114707820Y-121719951D01*
X114518414Y-121623444D01*
X114518413Y-121623443D01*
X114518412Y-121623443D01*
X114316243Y-121557754D01*
X114316241Y-121557753D01*
X114316240Y-121557753D01*
X114154957Y-121532208D01*
X114106287Y-121524500D01*
X113893713Y-121524500D01*
X113845042Y-121532208D01*
X113683760Y-121557753D01*
X113481585Y-121623444D01*
X113292179Y-121719951D01*
X113120213Y-121844890D01*
X112969894Y-121995209D01*
X112969890Y-121995214D01*
X112850318Y-122159793D01*
X112794989Y-122202459D01*
X112725375Y-122208438D01*
X112663580Y-122175833D01*
X112649682Y-122159793D01*
X112530109Y-121995214D01*
X112530105Y-121995209D01*
X112379786Y-121844890D01*
X112207820Y-121719951D01*
X112018414Y-121623444D01*
X112018413Y-121623443D01*
X112018412Y-121623443D01*
X111816243Y-121557754D01*
X111816241Y-121557753D01*
X111816240Y-121557753D01*
X111654957Y-121532208D01*
X111606287Y-121524500D01*
X111393713Y-121524500D01*
X111345042Y-121532208D01*
X111183760Y-121557753D01*
X110981585Y-121623444D01*
X110792179Y-121719951D01*
X110620213Y-121844890D01*
X110469894Y-121995209D01*
X110469890Y-121995214D01*
X110350008Y-122160218D01*
X110294678Y-122202884D01*
X110225065Y-122208863D01*
X110163270Y-122176257D01*
X110149372Y-122160218D01*
X110029727Y-121995540D01*
X110029723Y-121995535D01*
X109879464Y-121845276D01*
X109879459Y-121845272D01*
X109707557Y-121720379D01*
X109518215Y-121623903D01*
X109316124Y-121558241D01*
X109250000Y-121547768D01*
X109250000Y-122595854D01*
X109183343Y-122557370D01*
X109062535Y-122525000D01*
X108937465Y-122525000D01*
X108816657Y-122557370D01*
X108750000Y-122595854D01*
X108750000Y-121547768D01*
X108749999Y-121547768D01*
X108683875Y-121558241D01*
X108481784Y-121623903D01*
X108292442Y-121720379D01*
X108120540Y-121845272D01*
X108120535Y-121845276D01*
X107970276Y-121995535D01*
X107970272Y-121995540D01*
X107850627Y-122160218D01*
X107795297Y-122202884D01*
X107725684Y-122208863D01*
X107663889Y-122176257D01*
X107649991Y-122160218D01*
X107530109Y-121995214D01*
X107530105Y-121995209D01*
X107379786Y-121844890D01*
X107207820Y-121719951D01*
X107018414Y-121623444D01*
X107018413Y-121623443D01*
X107018412Y-121623443D01*
X106816243Y-121557754D01*
X106816241Y-121557753D01*
X106816240Y-121557753D01*
X106654957Y-121532208D01*
X106606287Y-121524500D01*
X106424500Y-121524500D01*
X106357461Y-121504815D01*
X106311706Y-121452011D01*
X106300500Y-121400500D01*
X106300500Y-109058374D01*
X106320185Y-108991335D01*
X106336814Y-108970698D01*
X108165576Y-107141935D01*
X108179396Y-107134389D01*
X108190146Y-107122879D01*
X108209433Y-107117987D01*
X108226897Y-107108452D01*
X108242605Y-107109575D01*
X108257872Y-107105704D01*
X108276741Y-107112016D01*
X108296589Y-107113436D01*
X108310052Y-107123160D01*
X108324132Y-107127871D01*
X108340424Y-107145098D01*
X108349926Y-107151961D01*
X108354754Y-107157971D01*
X108379660Y-107198350D01*
X108417947Y-107236637D01*
X108422171Y-107241895D01*
X108433024Y-107268211D01*
X108446666Y-107293194D01*
X108447843Y-107304142D01*
X108448810Y-107306487D01*
X108448360Y-107308955D01*
X108449500Y-107319552D01*
X108449500Y-109180448D01*
X108429815Y-109247487D01*
X108413181Y-109268129D01*
X108379661Y-109301648D01*
X108289093Y-109448481D01*
X108289091Y-109448486D01*
X108261719Y-109531088D01*
X108234826Y-109612247D01*
X108234826Y-109612248D01*
X108234825Y-109612248D01*
X108224500Y-109713315D01*
X108224500Y-110286669D01*
X108224501Y-110286687D01*
X108234825Y-110387752D01*
X108262607Y-110471589D01*
X108289092Y-110551516D01*
X108379660Y-110698350D01*
X108501650Y-110820340D01*
X108648484Y-110910908D01*
X108812247Y-110965174D01*
X108913323Y-110975500D01*
X109511676Y-110975499D01*
X109511684Y-110975498D01*
X109511687Y-110975498D01*
X109567030Y-110969844D01*
X109612753Y-110965174D01*
X109776516Y-110910908D01*
X109923350Y-110820340D01*
X110037675Y-110706014D01*
X110098994Y-110672532D01*
X110168686Y-110677516D01*
X110213034Y-110706017D01*
X110326961Y-110819944D01*
X110326965Y-110819947D01*
X110473688Y-110910448D01*
X110473699Y-110910453D01*
X110637347Y-110964680D01*
X110738351Y-110974999D01*
X111287500Y-110974999D01*
X111336640Y-110974999D01*
X111336654Y-110974998D01*
X111437652Y-110964680D01*
X111601300Y-110910453D01*
X111601311Y-110910448D01*
X111748034Y-110819947D01*
X111748038Y-110819944D01*
X111869944Y-110698038D01*
X111869947Y-110698034D01*
X111960448Y-110551311D01*
X111960453Y-110551300D01*
X112014680Y-110387652D01*
X112024999Y-110286654D01*
X112025000Y-110286641D01*
X112025000Y-110250000D01*
X111287500Y-110250000D01*
X111287500Y-110974999D01*
X110738351Y-110974999D01*
X110787499Y-110974998D01*
X110787500Y-110974998D01*
X110787500Y-109750000D01*
X111287500Y-109750000D01*
X112024999Y-109750000D01*
X112024999Y-109713360D01*
X112024998Y-109713345D01*
X112014680Y-109612347D01*
X111960453Y-109448699D01*
X111960448Y-109448688D01*
X111869947Y-109301965D01*
X111869944Y-109301961D01*
X111748038Y-109180055D01*
X111748034Y-109180052D01*
X111601311Y-109089551D01*
X111601300Y-109089546D01*
X111437652Y-109035319D01*
X111336654Y-109025000D01*
X111287500Y-109025000D01*
X111287500Y-109750000D01*
X110787500Y-109750000D01*
X110787500Y-109025000D01*
X110787499Y-109024999D01*
X110738361Y-109025000D01*
X110738343Y-109025001D01*
X110637347Y-109035319D01*
X110473699Y-109089546D01*
X110473688Y-109089551D01*
X110326965Y-109180052D01*
X110262181Y-109244836D01*
X110200857Y-109278320D01*
X110131166Y-109273335D01*
X110075232Y-109231464D01*
X110050816Y-109165999D01*
X110050500Y-109157154D01*
X110050500Y-107417416D01*
X110070185Y-107350377D01*
X110122989Y-107304622D01*
X110192147Y-107294678D01*
X110244983Y-107317390D01*
X110245503Y-107316548D01*
X110251205Y-107320065D01*
X110251421Y-107320158D01*
X110251642Y-107320332D01*
X110251650Y-107320340D01*
X110398484Y-107410908D01*
X110562247Y-107465174D01*
X110663323Y-107475500D01*
X111336676Y-107475499D01*
X111336684Y-107475498D01*
X111336687Y-107475498D01*
X111392030Y-107469844D01*
X111437753Y-107465174D01*
X111601516Y-107410908D01*
X111748350Y-107320340D01*
X111748351Y-107320338D01*
X111750585Y-107318961D01*
X111815682Y-107300500D01*
X114209318Y-107300500D01*
X114274415Y-107318961D01*
X114276648Y-107320338D01*
X114276650Y-107320340D01*
X114423484Y-107410908D01*
X114587247Y-107465174D01*
X114688323Y-107475500D01*
X115286676Y-107475499D01*
X115286684Y-107475498D01*
X115286687Y-107475498D01*
X115342030Y-107469844D01*
X115387753Y-107465174D01*
X115551516Y-107410908D01*
X115698350Y-107320340D01*
X115812675Y-107206014D01*
X115873994Y-107172532D01*
X115943686Y-107177516D01*
X115988034Y-107206017D01*
X116101961Y-107319944D01*
X116101965Y-107319947D01*
X116248688Y-107410448D01*
X116248699Y-107410453D01*
X116412347Y-107464680D01*
X116513351Y-107474999D01*
X117062500Y-107474999D01*
X117111640Y-107474999D01*
X117111654Y-107474998D01*
X117212652Y-107464680D01*
X117376300Y-107410453D01*
X117376311Y-107410448D01*
X117523034Y-107319947D01*
X117523038Y-107319944D01*
X117644944Y-107198038D01*
X117644947Y-107198034D01*
X117735448Y-107051311D01*
X117735453Y-107051300D01*
X117789680Y-106887652D01*
X117799999Y-106786654D01*
X117800000Y-106786641D01*
X117800000Y-106750000D01*
X117062500Y-106750000D01*
X117062500Y-107474999D01*
X116513351Y-107474999D01*
X116562499Y-107474998D01*
X116562500Y-107474998D01*
X116562500Y-106250000D01*
X117062500Y-106250000D01*
X117799999Y-106250000D01*
X117799999Y-106213360D01*
X117799998Y-106213345D01*
X117789680Y-106112347D01*
X117735453Y-105948699D01*
X117735448Y-105948688D01*
X117644947Y-105801965D01*
X117644944Y-105801961D01*
X117523038Y-105680055D01*
X117523034Y-105680052D01*
X117376311Y-105589551D01*
X117376300Y-105589546D01*
X117212652Y-105535319D01*
X117111654Y-105525000D01*
X117062500Y-105525000D01*
X117062500Y-106250000D01*
X116562500Y-106250000D01*
X116562500Y-105525000D01*
X116562499Y-105524999D01*
X116513361Y-105525000D01*
X116513343Y-105525001D01*
X116412347Y-105535319D01*
X116248699Y-105589546D01*
X116248688Y-105589551D01*
X116101965Y-105680052D01*
X116012181Y-105769836D01*
X115950857Y-105803320D01*
X115881166Y-105798336D01*
X115825232Y-105756464D01*
X115800816Y-105690999D01*
X115800500Y-105682154D01*
X115800500Y-101586302D01*
X115820185Y-101519263D01*
X115851609Y-101485988D01*
X115977510Y-101394517D01*
X116144517Y-101227510D01*
X116283343Y-101036433D01*
X116390568Y-100825992D01*
X116463553Y-100601368D01*
X116500500Y-100368097D01*
X116500500Y-100131902D01*
X120249500Y-100131902D01*
X120249500Y-100368097D01*
X120286446Y-100601368D01*
X120359433Y-100825996D01*
X120466657Y-101036433D01*
X120605483Y-101227510D01*
X120772490Y-101394517D01*
X120963567Y-101533343D01*
X121062991Y-101584002D01*
X121174003Y-101640566D01*
X121174005Y-101640566D01*
X121174008Y-101640568D01*
X121294412Y-101679689D01*
X121398631Y-101713553D01*
X121631903Y-101750500D01*
X121631908Y-101750500D01*
X121868097Y-101750500D01*
X122101368Y-101713553D01*
X122325992Y-101640568D01*
X122536433Y-101533343D01*
X122727510Y-101394517D01*
X122894517Y-101227510D01*
X122985986Y-101101613D01*
X123041316Y-101058949D01*
X123086304Y-101050500D01*
X126913696Y-101050500D01*
X126980735Y-101070185D01*
X127014013Y-101101613D01*
X127105483Y-101227510D01*
X127272490Y-101394517D01*
X127398388Y-101485987D01*
X127441051Y-101541313D01*
X127449500Y-101586302D01*
X127449500Y-105575500D01*
X127429815Y-105642539D01*
X127377011Y-105688294D01*
X127325500Y-105699500D01*
X124190682Y-105699500D01*
X124125585Y-105681039D01*
X124123351Y-105679661D01*
X124123350Y-105679660D01*
X124014056Y-105612247D01*
X123976518Y-105589093D01*
X123976513Y-105589091D01*
X123912756Y-105567964D01*
X123812753Y-105534826D01*
X123812751Y-105534825D01*
X123711678Y-105524500D01*
X123038330Y-105524500D01*
X123038312Y-105524501D01*
X122937247Y-105534825D01*
X122773484Y-105589092D01*
X122773481Y-105589093D01*
X122626648Y-105679661D01*
X122587681Y-105718629D01*
X122526358Y-105752114D01*
X122456666Y-105747130D01*
X122412319Y-105718629D01*
X122373351Y-105679661D01*
X122373350Y-105679660D01*
X122264056Y-105612247D01*
X122226518Y-105589093D01*
X122226513Y-105589091D01*
X122162756Y-105567964D01*
X122062753Y-105534826D01*
X122062751Y-105534825D01*
X121961678Y-105524500D01*
X121288330Y-105524500D01*
X121288312Y-105524501D01*
X121187247Y-105534825D01*
X121023484Y-105589092D01*
X121023481Y-105589093D01*
X120876648Y-105679661D01*
X120754661Y-105801648D01*
X120664093Y-105948481D01*
X120664091Y-105948486D01*
X120636719Y-106031088D01*
X120609826Y-106112247D01*
X120609826Y-106112248D01*
X120609825Y-106112248D01*
X120599500Y-106213315D01*
X120599500Y-106786669D01*
X120599501Y-106786687D01*
X120609825Y-106887752D01*
X120638902Y-106975498D01*
X120664020Y-107051300D01*
X120664092Y-107051515D01*
X120664093Y-107051518D01*
X120671398Y-107063361D01*
X120749999Y-107190794D01*
X120754661Y-107198351D01*
X120788181Y-107231871D01*
X120821666Y-107293194D01*
X120824500Y-107319552D01*
X120824500Y-109180448D01*
X120804815Y-109247487D01*
X120788181Y-109268129D01*
X120754661Y-109301648D01*
X120664093Y-109448481D01*
X120664091Y-109448486D01*
X120636719Y-109531088D01*
X120609826Y-109612247D01*
X120609826Y-109612248D01*
X120609825Y-109612248D01*
X120599500Y-109713315D01*
X120599500Y-110286669D01*
X120599501Y-110286687D01*
X120609825Y-110387752D01*
X120637607Y-110471589D01*
X120664092Y-110551516D01*
X120754660Y-110698350D01*
X120876650Y-110820340D01*
X121023484Y-110910908D01*
X121187247Y-110965174D01*
X121288323Y-110975500D01*
X121886676Y-110975499D01*
X121886684Y-110975498D01*
X121886687Y-110975498D01*
X121942030Y-110969844D01*
X121987753Y-110965174D01*
X122151516Y-110910908D01*
X122298350Y-110820340D01*
X122412675Y-110706014D01*
X122473994Y-110672532D01*
X122543686Y-110677516D01*
X122588034Y-110706017D01*
X122701961Y-110819944D01*
X122701965Y-110819947D01*
X122848688Y-110910448D01*
X122848699Y-110910453D01*
X123012347Y-110964680D01*
X123113351Y-110974999D01*
X123162499Y-110974998D01*
X123162500Y-110974998D01*
X123162500Y-109025000D01*
X123162499Y-109024999D01*
X123113361Y-109025000D01*
X123113343Y-109025001D01*
X123012347Y-109035319D01*
X122848699Y-109089546D01*
X122848688Y-109089551D01*
X122701965Y-109180052D01*
X122637181Y-109244836D01*
X122575857Y-109278320D01*
X122506166Y-109273335D01*
X122450232Y-109231464D01*
X122425816Y-109165999D01*
X122425500Y-109157154D01*
X122425500Y-107417416D01*
X122445185Y-107350377D01*
X122497989Y-107304622D01*
X122567147Y-107294678D01*
X122619983Y-107317390D01*
X122620503Y-107316548D01*
X122626205Y-107320065D01*
X122626421Y-107320158D01*
X122626642Y-107320332D01*
X122626650Y-107320340D01*
X122773484Y-107410908D01*
X122937247Y-107465174D01*
X123038323Y-107475500D01*
X123167058Y-107475499D01*
X123234098Y-107495183D01*
X123254740Y-107511818D01*
X124163181Y-108420259D01*
X124196666Y-108481582D01*
X124199500Y-108507940D01*
X124199500Y-109005041D01*
X124179815Y-109072080D01*
X124127011Y-109117835D01*
X124057853Y-109127779D01*
X124010404Y-109110580D01*
X123976309Y-109089551D01*
X123976300Y-109089546D01*
X123812652Y-109035319D01*
X123711654Y-109025000D01*
X123662500Y-109025000D01*
X123662500Y-110974999D01*
X123711640Y-110974999D01*
X123711654Y-110974998D01*
X123812652Y-110964680D01*
X123976300Y-110910453D01*
X123976307Y-110910450D01*
X124010402Y-110889420D01*
X124077795Y-110870979D01*
X124144458Y-110891901D01*
X124189228Y-110945543D01*
X124199500Y-110994958D01*
X124199500Y-121461267D01*
X124179815Y-121528306D01*
X124127011Y-121574061D01*
X124114506Y-121578972D01*
X124080671Y-121590184D01*
X124080663Y-121590187D01*
X123931342Y-121682289D01*
X123807289Y-121806342D01*
X123715187Y-121955663D01*
X123715185Y-121955668D01*
X123710325Y-121970334D01*
X123660001Y-122122203D01*
X123660001Y-122122204D01*
X123660000Y-122122204D01*
X123649500Y-122224983D01*
X123649500Y-123775001D01*
X123649501Y-123775018D01*
X123660000Y-123877796D01*
X123660001Y-123877799D01*
X123705894Y-124016294D01*
X123715186Y-124044334D01*
X123807288Y-124193656D01*
X123931344Y-124317712D01*
X124080666Y-124409814D01*
X124247203Y-124464999D01*
X124349991Y-124475500D01*
X125650008Y-124475499D01*
X125752797Y-124464999D01*
X125919334Y-124409814D01*
X126068656Y-124317712D01*
X126192712Y-124193656D01*
X126284814Y-124044334D01*
X126284814Y-124044331D01*
X126288178Y-124038879D01*
X126340126Y-123992154D01*
X126409088Y-123980931D01*
X126473170Y-124008774D01*
X126481398Y-124016294D01*
X126620213Y-124155109D01*
X126792179Y-124280048D01*
X126792181Y-124280049D01*
X126792184Y-124280051D01*
X126981588Y-124376557D01*
X127183757Y-124442246D01*
X127393713Y-124475500D01*
X127393714Y-124475500D01*
X127606286Y-124475500D01*
X127606287Y-124475500D01*
X127816243Y-124442246D01*
X128018412Y-124376557D01*
X128207816Y-124280051D01*
X128269839Y-124234989D01*
X128379786Y-124155109D01*
X128379788Y-124155106D01*
X128379792Y-124155104D01*
X128530104Y-124004792D01*
X128649683Y-123840204D01*
X128705011Y-123797540D01*
X128774624Y-123791561D01*
X128836420Y-123824166D01*
X128850313Y-123840199D01*
X128952560Y-123980931D01*
X128969896Y-124004792D01*
X129120213Y-124155109D01*
X129292179Y-124280048D01*
X129292181Y-124280049D01*
X129292184Y-124280051D01*
X129481588Y-124376557D01*
X129683757Y-124442246D01*
X129893713Y-124475500D01*
X129893714Y-124475500D01*
X130106286Y-124475500D01*
X130106287Y-124475500D01*
X130316243Y-124442246D01*
X130518412Y-124376557D01*
X130707816Y-124280051D01*
X130769839Y-124234989D01*
X130879786Y-124155109D01*
X130879788Y-124155106D01*
X130879792Y-124155104D01*
X131030104Y-124004792D01*
X131149991Y-123839779D01*
X131205320Y-123797115D01*
X131274933Y-123791136D01*
X131336729Y-123823741D01*
X131350627Y-123839781D01*
X131470272Y-124004459D01*
X131470276Y-124004464D01*
X131620535Y-124154723D01*
X131620540Y-124154727D01*
X131792442Y-124279620D01*
X131981782Y-124376095D01*
X132183871Y-124441757D01*
X132250000Y-124452231D01*
X132250000Y-123404145D01*
X132316657Y-123442630D01*
X132437465Y-123475000D01*
X132562535Y-123475000D01*
X132683343Y-123442630D01*
X132750000Y-123404145D01*
X132750000Y-124452230D01*
X132816126Y-124441757D01*
X132816129Y-124441757D01*
X133018217Y-124376095D01*
X133207557Y-124279620D01*
X133379459Y-124154727D01*
X133379464Y-124154723D01*
X133529721Y-124004466D01*
X133649371Y-123839781D01*
X133704701Y-123797115D01*
X133774314Y-123791136D01*
X133836110Y-123823741D01*
X133850008Y-123839781D01*
X133969890Y-124004785D01*
X133969894Y-124004790D01*
X134120213Y-124155109D01*
X134292179Y-124280048D01*
X134292181Y-124280049D01*
X134292184Y-124280051D01*
X134481588Y-124376557D01*
X134683757Y-124442246D01*
X134893713Y-124475500D01*
X134893714Y-124475500D01*
X135106286Y-124475500D01*
X135106287Y-124475500D01*
X135316243Y-124442246D01*
X135518412Y-124376557D01*
X135707816Y-124280051D01*
X135769839Y-124234989D01*
X135879786Y-124155109D01*
X135879788Y-124155106D01*
X135879792Y-124155104D01*
X136030104Y-124004792D01*
X136149683Y-123840204D01*
X136205011Y-123797540D01*
X136274624Y-123791561D01*
X136336420Y-123824166D01*
X136350313Y-123840199D01*
X136452560Y-123980931D01*
X136469896Y-124004792D01*
X136620213Y-124155109D01*
X136792179Y-124280048D01*
X136792181Y-124280049D01*
X136792184Y-124280051D01*
X136981588Y-124376557D01*
X137183757Y-124442246D01*
X137393713Y-124475500D01*
X137393714Y-124475500D01*
X137606286Y-124475500D01*
X137606287Y-124475500D01*
X137816243Y-124442246D01*
X138018412Y-124376557D01*
X138207816Y-124280051D01*
X138269839Y-124234989D01*
X138379786Y-124155109D01*
X138379788Y-124155106D01*
X138379792Y-124155104D01*
X138530104Y-124004792D01*
X138530106Y-124004788D01*
X138530109Y-124004786D01*
X138655048Y-123832820D01*
X138655047Y-123832820D01*
X138655051Y-123832816D01*
X138751557Y-123643412D01*
X138817246Y-123441243D01*
X138850500Y-123231287D01*
X138850500Y-122768713D01*
X138817246Y-122558757D01*
X138751557Y-122356588D01*
X138655051Y-122167184D01*
X138655049Y-122167181D01*
X138655048Y-122167179D01*
X138530109Y-121995213D01*
X138379786Y-121844890D01*
X138207820Y-121719951D01*
X138018414Y-121623444D01*
X138018413Y-121623443D01*
X138018412Y-121623443D01*
X137816243Y-121557754D01*
X137816241Y-121557753D01*
X137816240Y-121557753D01*
X137654957Y-121532208D01*
X137606287Y-121524500D01*
X137393713Y-121524500D01*
X137345042Y-121532208D01*
X137183760Y-121557753D01*
X136981585Y-121623444D01*
X136792179Y-121719951D01*
X136620213Y-121844890D01*
X136469894Y-121995209D01*
X136469890Y-121995214D01*
X136350318Y-122159793D01*
X136294989Y-122202459D01*
X136225375Y-122208438D01*
X136163580Y-122175833D01*
X136149682Y-122159793D01*
X136030109Y-121995214D01*
X136030105Y-121995209D01*
X135879786Y-121844890D01*
X135707820Y-121719951D01*
X135518414Y-121623444D01*
X135518413Y-121623443D01*
X135518412Y-121623443D01*
X135316243Y-121557754D01*
X135316241Y-121557753D01*
X135316240Y-121557753D01*
X135154957Y-121532208D01*
X135106287Y-121524500D01*
X134893713Y-121524500D01*
X134845042Y-121532208D01*
X134683760Y-121557753D01*
X134481585Y-121623444D01*
X134292179Y-121719951D01*
X134120213Y-121844890D01*
X133969894Y-121995209D01*
X133969890Y-121995214D01*
X133850008Y-122160218D01*
X133794678Y-122202884D01*
X133725065Y-122208863D01*
X133663270Y-122176257D01*
X133649372Y-122160218D01*
X133529727Y-121995540D01*
X133529723Y-121995535D01*
X133379464Y-121845276D01*
X133379459Y-121845272D01*
X133207557Y-121720379D01*
X133018215Y-121623903D01*
X132816124Y-121558241D01*
X132750000Y-121547768D01*
X132750000Y-122595854D01*
X132683343Y-122557370D01*
X132562535Y-122525000D01*
X132437465Y-122525000D01*
X132316657Y-122557370D01*
X132250000Y-122595854D01*
X132250000Y-121547768D01*
X132249999Y-121547768D01*
X132183875Y-121558241D01*
X131981784Y-121623903D01*
X131792442Y-121720379D01*
X131620540Y-121845272D01*
X131620535Y-121845276D01*
X131470276Y-121995535D01*
X131470272Y-121995540D01*
X131350627Y-122160218D01*
X131295297Y-122202884D01*
X131225684Y-122208863D01*
X131163889Y-122176257D01*
X131149991Y-122160218D01*
X131030109Y-121995214D01*
X131030105Y-121995209D01*
X130879794Y-121844898D01*
X130879792Y-121844896D01*
X130851613Y-121824422D01*
X130808949Y-121769094D01*
X130800500Y-121724106D01*
X130800500Y-110933375D01*
X130820185Y-110866336D01*
X130836814Y-110845699D01*
X134540577Y-107141935D01*
X134554397Y-107134389D01*
X134565148Y-107122878D01*
X134584436Y-107117986D01*
X134601898Y-107108452D01*
X134617606Y-107109575D01*
X134632874Y-107105704D01*
X134651743Y-107112016D01*
X134671590Y-107113436D01*
X134685053Y-107123160D01*
X134699134Y-107127871D01*
X134715424Y-107145096D01*
X134724928Y-107151961D01*
X134729748Y-107157961D01*
X134754660Y-107198350D01*
X134792953Y-107236643D01*
X134797172Y-107241895D01*
X134808026Y-107268214D01*
X134821666Y-107293194D01*
X134822843Y-107304143D01*
X134823810Y-107306488D01*
X134823360Y-107308956D01*
X134824500Y-107319552D01*
X134824500Y-109180448D01*
X134804815Y-109247487D01*
X134788181Y-109268129D01*
X134754661Y-109301648D01*
X134664093Y-109448481D01*
X134664091Y-109448486D01*
X134636719Y-109531088D01*
X134609826Y-109612247D01*
X134609826Y-109612248D01*
X134609825Y-109612248D01*
X134599500Y-109713315D01*
X134599500Y-110286669D01*
X134599501Y-110286687D01*
X134609825Y-110387752D01*
X134637607Y-110471589D01*
X134664092Y-110551516D01*
X134754660Y-110698350D01*
X134876650Y-110820340D01*
X135023484Y-110910908D01*
X135187247Y-110965174D01*
X135288323Y-110975500D01*
X135886676Y-110975499D01*
X135886684Y-110975498D01*
X135886687Y-110975498D01*
X135942030Y-110969844D01*
X135987753Y-110965174D01*
X136151516Y-110910908D01*
X136298350Y-110820340D01*
X136412675Y-110706014D01*
X136473994Y-110672532D01*
X136543686Y-110677516D01*
X136588034Y-110706017D01*
X136701961Y-110819944D01*
X136701965Y-110819947D01*
X136848688Y-110910448D01*
X136848699Y-110910453D01*
X137012347Y-110964680D01*
X137113351Y-110974999D01*
X137662500Y-110974999D01*
X137711640Y-110974999D01*
X137711654Y-110974998D01*
X137812652Y-110964680D01*
X137976300Y-110910453D01*
X137976311Y-110910448D01*
X138123034Y-110819947D01*
X138123038Y-110819944D01*
X138244944Y-110698038D01*
X138244947Y-110698034D01*
X138335448Y-110551311D01*
X138335453Y-110551300D01*
X138389680Y-110387652D01*
X138399999Y-110286654D01*
X138400000Y-110286641D01*
X138400000Y-110250000D01*
X137662500Y-110250000D01*
X137662500Y-110974999D01*
X137113351Y-110974999D01*
X137162499Y-110974998D01*
X137162500Y-110974998D01*
X137162500Y-109750000D01*
X137662500Y-109750000D01*
X138399999Y-109750000D01*
X138399999Y-109713360D01*
X138399998Y-109713345D01*
X138389680Y-109612347D01*
X138335453Y-109448699D01*
X138335448Y-109448688D01*
X138244947Y-109301965D01*
X138244944Y-109301961D01*
X138123038Y-109180055D01*
X138123034Y-109180052D01*
X137976311Y-109089551D01*
X137976300Y-109089546D01*
X137812652Y-109035319D01*
X137711654Y-109025000D01*
X137662500Y-109025000D01*
X137662500Y-109750000D01*
X137162500Y-109750000D01*
X137162500Y-109025000D01*
X137162499Y-109024999D01*
X137113361Y-109025000D01*
X137113343Y-109025001D01*
X137012347Y-109035319D01*
X136848699Y-109089546D01*
X136848688Y-109089551D01*
X136701965Y-109180052D01*
X136637181Y-109244836D01*
X136575857Y-109278320D01*
X136506166Y-109273335D01*
X136450232Y-109231464D01*
X136425816Y-109165999D01*
X136425500Y-109157154D01*
X136425500Y-107417416D01*
X136445185Y-107350377D01*
X136497989Y-107304622D01*
X136567147Y-107294678D01*
X136619983Y-107317390D01*
X136620503Y-107316548D01*
X136626205Y-107320065D01*
X136626421Y-107320158D01*
X136626642Y-107320332D01*
X136626650Y-107320340D01*
X136773484Y-107410908D01*
X136937247Y-107465174D01*
X137038323Y-107475500D01*
X137711676Y-107475499D01*
X137711684Y-107475498D01*
X137711687Y-107475498D01*
X137767030Y-107469844D01*
X137812753Y-107465174D01*
X137976516Y-107410908D01*
X138123350Y-107320340D01*
X138123351Y-107320338D01*
X138125585Y-107318961D01*
X138190682Y-107300500D01*
X140696818Y-107300500D01*
X140761915Y-107318961D01*
X140764148Y-107320338D01*
X140764150Y-107320340D01*
X140910984Y-107410908D01*
X141074747Y-107465174D01*
X141175823Y-107475500D01*
X141774176Y-107475499D01*
X141774184Y-107475498D01*
X141774187Y-107475498D01*
X141829530Y-107469844D01*
X141875253Y-107465174D01*
X142039016Y-107410908D01*
X142185850Y-107320340D01*
X142300175Y-107206014D01*
X142361494Y-107172532D01*
X142431186Y-107177516D01*
X142475534Y-107206017D01*
X142589461Y-107319944D01*
X142589465Y-107319947D01*
X142736188Y-107410448D01*
X142736199Y-107410453D01*
X142899847Y-107464680D01*
X143000851Y-107474999D01*
X143550000Y-107474999D01*
X143599140Y-107474999D01*
X143599154Y-107474998D01*
X143700152Y-107464680D01*
X143863800Y-107410453D01*
X143863811Y-107410448D01*
X144010534Y-107319947D01*
X144010538Y-107319944D01*
X144132444Y-107198038D01*
X144132447Y-107198034D01*
X144222948Y-107051311D01*
X144222953Y-107051300D01*
X144277180Y-106887652D01*
X144287499Y-106786654D01*
X144287500Y-106786641D01*
X144287500Y-106750000D01*
X143550000Y-106750000D01*
X143550000Y-107474999D01*
X143000851Y-107474999D01*
X143049999Y-107474998D01*
X143050000Y-107474998D01*
X143050000Y-106250000D01*
X143550000Y-106250000D01*
X144287499Y-106250000D01*
X144287499Y-106213360D01*
X144287498Y-106213345D01*
X144277180Y-106112347D01*
X144222953Y-105948699D01*
X144222948Y-105948688D01*
X144132447Y-105801965D01*
X144132444Y-105801961D01*
X144010538Y-105680055D01*
X144010534Y-105680052D01*
X143863811Y-105589551D01*
X143863800Y-105589546D01*
X143700152Y-105535319D01*
X143599154Y-105525000D01*
X143550000Y-105525000D01*
X143550000Y-106250000D01*
X143050000Y-106250000D01*
X143050000Y-105525000D01*
X143049999Y-105524999D01*
X143000861Y-105525000D01*
X143000843Y-105525001D01*
X142899847Y-105535319D01*
X142736199Y-105589546D01*
X142736188Y-105589551D01*
X142589465Y-105680052D01*
X142512181Y-105757336D01*
X142450857Y-105790820D01*
X142381166Y-105785836D01*
X142325232Y-105743964D01*
X142300816Y-105678499D01*
X142300500Y-105669654D01*
X142300500Y-101586302D01*
X142320185Y-101519263D01*
X142351609Y-101485988D01*
X142477510Y-101394517D01*
X142644517Y-101227510D01*
X142783343Y-101036433D01*
X142890568Y-100825992D01*
X142963553Y-100601368D01*
X143000500Y-100368097D01*
X143000500Y-100131902D01*
X142963553Y-99898631D01*
X142890566Y-99674003D01*
X142783342Y-99463566D01*
X142644517Y-99272490D01*
X142477510Y-99105483D01*
X142286433Y-98966657D01*
X142075996Y-98859433D01*
X141851368Y-98786446D01*
X141618097Y-98749500D01*
X141618092Y-98749500D01*
X141381908Y-98749500D01*
X141381903Y-98749500D01*
X141148631Y-98786446D01*
X140924003Y-98859433D01*
X140713566Y-98966657D01*
X140604550Y-99045862D01*
X140522490Y-99105483D01*
X140522488Y-99105485D01*
X140522487Y-99105485D01*
X140355485Y-99272487D01*
X140355485Y-99272488D01*
X140355483Y-99272490D01*
X140264014Y-99398386D01*
X140208684Y-99441051D01*
X140163696Y-99449500D01*
X136336304Y-99449500D01*
X136269265Y-99429815D01*
X136235986Y-99398386D01*
X136144517Y-99272490D01*
X135977510Y-99105483D01*
X135786433Y-98966657D01*
X135575996Y-98859433D01*
X135351368Y-98786446D01*
X135118097Y-98749500D01*
X135118092Y-98749500D01*
X134881908Y-98749500D01*
X134881903Y-98749500D01*
X134648631Y-98786446D01*
X134424003Y-98859433D01*
X134213566Y-98966657D01*
X134104550Y-99045862D01*
X134022490Y-99105483D01*
X134022488Y-99105485D01*
X134022487Y-99105485D01*
X133855485Y-99272487D01*
X133855485Y-99272488D01*
X133855483Y-99272490D01*
X133795862Y-99354550D01*
X133716657Y-99463566D01*
X133609433Y-99674003D01*
X133536446Y-99898631D01*
X133499500Y-100131902D01*
X133499500Y-100368097D01*
X133536446Y-100601368D01*
X133609433Y-100825996D01*
X133716657Y-101036433D01*
X133855483Y-101227510D01*
X134022490Y-101394517D01*
X134213567Y-101533343D01*
X134312991Y-101584002D01*
X134424003Y-101640566D01*
X134424005Y-101640566D01*
X134424008Y-101640568D01*
X134544412Y-101679689D01*
X134648631Y-101713553D01*
X134881903Y-101750500D01*
X134881908Y-101750500D01*
X135118097Y-101750500D01*
X135351368Y-101713553D01*
X135575992Y-101640568D01*
X135786433Y-101533343D01*
X135977510Y-101394517D01*
X136144517Y-101227510D01*
X136235986Y-101101613D01*
X136291316Y-101058949D01*
X136336304Y-101050500D01*
X140163696Y-101050500D01*
X140230735Y-101070185D01*
X140264013Y-101101613D01*
X140355483Y-101227510D01*
X140522490Y-101394517D01*
X140648388Y-101485987D01*
X140691051Y-101541313D01*
X140699500Y-101586302D01*
X140699500Y-105575500D01*
X140679815Y-105642539D01*
X140627011Y-105688294D01*
X140575500Y-105699500D01*
X138190682Y-105699500D01*
X138125585Y-105681039D01*
X138123351Y-105679661D01*
X138123350Y-105679660D01*
X138014056Y-105612247D01*
X137976518Y-105589093D01*
X137976513Y-105589091D01*
X137912756Y-105567964D01*
X137812753Y-105534826D01*
X137812751Y-105534825D01*
X137711684Y-105524500D01*
X137711677Y-105524500D01*
X137582940Y-105524500D01*
X137515901Y-105504815D01*
X137495259Y-105488181D01*
X136910292Y-104903213D01*
X136910288Y-104903210D01*
X136779185Y-104815609D01*
X136779172Y-104815602D01*
X136633501Y-104755264D01*
X136633489Y-104755261D01*
X136478845Y-104724500D01*
X136478842Y-104724500D01*
X135104279Y-104724500D01*
X134946594Y-104724500D01*
X134946589Y-104724500D01*
X134791946Y-104755260D01*
X134791938Y-104755262D01*
X134646260Y-104815604D01*
X134646250Y-104815609D01*
X134515147Y-104903210D01*
X134515143Y-104903213D01*
X130447665Y-108970693D01*
X129489711Y-109928647D01*
X129433960Y-109984398D01*
X129378209Y-110040148D01*
X129290609Y-110171250D01*
X129290602Y-110171263D01*
X129230264Y-110316934D01*
X129230261Y-110316946D01*
X129199500Y-110471589D01*
X129199500Y-121724106D01*
X129179815Y-121791145D01*
X129148387Y-121824422D01*
X129120208Y-121844896D01*
X129120206Y-121844898D01*
X129120205Y-121844898D01*
X128969894Y-121995209D01*
X128969890Y-121995214D01*
X128850318Y-122159793D01*
X128794989Y-122202459D01*
X128725375Y-122208438D01*
X128663580Y-122175833D01*
X128649682Y-122159793D01*
X128530109Y-121995214D01*
X128530105Y-121995209D01*
X128379786Y-121844890D01*
X128207820Y-121719951D01*
X128018414Y-121623444D01*
X128018413Y-121623443D01*
X128018412Y-121623443D01*
X127816243Y-121557754D01*
X127816241Y-121557753D01*
X127816240Y-121557753D01*
X127654957Y-121532208D01*
X127606287Y-121524500D01*
X127393713Y-121524500D01*
X127345042Y-121532208D01*
X127183760Y-121557753D01*
X126981585Y-121623444D01*
X126792179Y-121719951D01*
X126620215Y-121844889D01*
X126481398Y-121983706D01*
X126420075Y-122017190D01*
X126350383Y-122012206D01*
X126294450Y-121970334D01*
X126288178Y-121961120D01*
X126192712Y-121806344D01*
X126068657Y-121682289D01*
X126068656Y-121682288D01*
X125934436Y-121599501D01*
X125919336Y-121590187D01*
X125919335Y-121590186D01*
X125919334Y-121590186D01*
X125919328Y-121590184D01*
X125885494Y-121578972D01*
X125828050Y-121539199D01*
X125801228Y-121474683D01*
X125800500Y-121461267D01*
X125800500Y-108046155D01*
X125800499Y-108046153D01*
X125794860Y-108017805D01*
X125769737Y-107891503D01*
X125769735Y-107891498D01*
X125709397Y-107745827D01*
X125709390Y-107745814D01*
X125621790Y-107614712D01*
X125621789Y-107614711D01*
X125519257Y-107512179D01*
X125485774Y-107450859D01*
X125490758Y-107381167D01*
X125532629Y-107325233D01*
X125598093Y-107300816D01*
X125606940Y-107300500D01*
X127496818Y-107300500D01*
X127561915Y-107318961D01*
X127564148Y-107320338D01*
X127564150Y-107320340D01*
X127710984Y-107410908D01*
X127874747Y-107465174D01*
X127975823Y-107475500D01*
X128574176Y-107475499D01*
X128574184Y-107475498D01*
X128574187Y-107475498D01*
X128629530Y-107469844D01*
X128675253Y-107465174D01*
X128839016Y-107410908D01*
X128985850Y-107320340D01*
X129100175Y-107206014D01*
X129161494Y-107172532D01*
X129231186Y-107177516D01*
X129275534Y-107206017D01*
X129389461Y-107319944D01*
X129389465Y-107319947D01*
X129536188Y-107410448D01*
X129536199Y-107410453D01*
X129699847Y-107464680D01*
X129800851Y-107474999D01*
X130350000Y-107474999D01*
X130399140Y-107474999D01*
X130399154Y-107474998D01*
X130500152Y-107464680D01*
X130663800Y-107410453D01*
X130663811Y-107410448D01*
X130810534Y-107319947D01*
X130810538Y-107319944D01*
X130932444Y-107198038D01*
X130932447Y-107198034D01*
X131022948Y-107051311D01*
X131022953Y-107051300D01*
X131077180Y-106887652D01*
X131087499Y-106786654D01*
X131087500Y-106786641D01*
X131087500Y-106750000D01*
X130350000Y-106750000D01*
X130350000Y-107474999D01*
X129800851Y-107474999D01*
X129849999Y-107474998D01*
X129850000Y-107474998D01*
X129850000Y-106250000D01*
X130350000Y-106250000D01*
X131087499Y-106250000D01*
X131087499Y-106213360D01*
X131087498Y-106213345D01*
X131077180Y-106112347D01*
X131022953Y-105948699D01*
X131022948Y-105948688D01*
X130932447Y-105801965D01*
X130932444Y-105801961D01*
X130810538Y-105680055D01*
X130810534Y-105680052D01*
X130663811Y-105589551D01*
X130663800Y-105589546D01*
X130500152Y-105535319D01*
X130399154Y-105525000D01*
X130350000Y-105525000D01*
X130350000Y-106250000D01*
X129850000Y-106250000D01*
X129850000Y-105525000D01*
X129849999Y-105524999D01*
X129800861Y-105525000D01*
X129800843Y-105525001D01*
X129699847Y-105535319D01*
X129536199Y-105589546D01*
X129536188Y-105589551D01*
X129389465Y-105680052D01*
X129275534Y-105793983D01*
X129267587Y-105798322D01*
X129262163Y-105805568D01*
X129237405Y-105814802D01*
X129214211Y-105827467D01*
X129205181Y-105826821D01*
X129196699Y-105829985D01*
X129170878Y-105824368D01*
X129144519Y-105822483D01*
X129135465Y-105816664D01*
X129128426Y-105815133D01*
X129100172Y-105793982D01*
X129086819Y-105780629D01*
X129053334Y-105719306D01*
X129050500Y-105692948D01*
X129050500Y-101586302D01*
X129070185Y-101519263D01*
X129101609Y-101485988D01*
X129227510Y-101394517D01*
X129394517Y-101227510D01*
X129533343Y-101036433D01*
X129640568Y-100825992D01*
X129713553Y-100601368D01*
X129750500Y-100368097D01*
X129750500Y-100131902D01*
X129713553Y-99898631D01*
X129640566Y-99674003D01*
X129533342Y-99463566D01*
X129394517Y-99272490D01*
X129227510Y-99105483D01*
X129036433Y-98966657D01*
X128825996Y-98859433D01*
X128601368Y-98786446D01*
X128368097Y-98749500D01*
X128368092Y-98749500D01*
X128131908Y-98749500D01*
X128131903Y-98749500D01*
X127898631Y-98786446D01*
X127674003Y-98859433D01*
X127463566Y-98966657D01*
X127354550Y-99045862D01*
X127272490Y-99105483D01*
X127272488Y-99105485D01*
X127272487Y-99105485D01*
X127105485Y-99272487D01*
X127105485Y-99272488D01*
X127105483Y-99272490D01*
X127014014Y-99398386D01*
X126958684Y-99441051D01*
X126913696Y-99449500D01*
X123086304Y-99449500D01*
X123019265Y-99429815D01*
X122985986Y-99398386D01*
X122894517Y-99272490D01*
X122727510Y-99105483D01*
X122536433Y-98966657D01*
X122325996Y-98859433D01*
X122101368Y-98786446D01*
X121868097Y-98749500D01*
X121868092Y-98749500D01*
X121631908Y-98749500D01*
X121631903Y-98749500D01*
X121398631Y-98786446D01*
X121174003Y-98859433D01*
X120963566Y-98966657D01*
X120854550Y-99045862D01*
X120772490Y-99105483D01*
X120772488Y-99105485D01*
X120772487Y-99105485D01*
X120605485Y-99272487D01*
X120605485Y-99272488D01*
X120605483Y-99272490D01*
X120545862Y-99354550D01*
X120466657Y-99463566D01*
X120359433Y-99674003D01*
X120286446Y-99898631D01*
X120249500Y-100131902D01*
X116500500Y-100131902D01*
X116463553Y-99898631D01*
X116390566Y-99674003D01*
X116283342Y-99463566D01*
X116144517Y-99272490D01*
X115977510Y-99105483D01*
X115786433Y-98966657D01*
X115575996Y-98859433D01*
X115351368Y-98786446D01*
X115118097Y-98749500D01*
X115118092Y-98749500D01*
X114881908Y-98749500D01*
X114881903Y-98749500D01*
X114648631Y-98786446D01*
X114424003Y-98859433D01*
X114213566Y-98966657D01*
X114104550Y-99045862D01*
X114022490Y-99105483D01*
X114022488Y-99105485D01*
X114022487Y-99105485D01*
X113855485Y-99272487D01*
X113855485Y-99272488D01*
X113855483Y-99272490D01*
X113764014Y-99398386D01*
X113708684Y-99441051D01*
X113663696Y-99449500D01*
X109836304Y-99449500D01*
X109769265Y-99429815D01*
X109735986Y-99398386D01*
X109644517Y-99272490D01*
X109477510Y-99105483D01*
X109286433Y-98966657D01*
X109075996Y-98859433D01*
X108851368Y-98786446D01*
X108618097Y-98749500D01*
X108618092Y-98749500D01*
X108381908Y-98749500D01*
X108381903Y-98749500D01*
X108148631Y-98786446D01*
X107924003Y-98859433D01*
X107713566Y-98966657D01*
X107604550Y-99045862D01*
X107522490Y-99105483D01*
X107522488Y-99105485D01*
X107522487Y-99105485D01*
X107355485Y-99272487D01*
X107355485Y-99272488D01*
X107355483Y-99272490D01*
X107295862Y-99354550D01*
X107216657Y-99463566D01*
X107109433Y-99674003D01*
X107036446Y-99898631D01*
X106999500Y-100131902D01*
X106999500Y-100368097D01*
X107036446Y-100601368D01*
X107109433Y-100825996D01*
X107216657Y-101036433D01*
X107355483Y-101227510D01*
X107522490Y-101394517D01*
X107713567Y-101533343D01*
X107812991Y-101584002D01*
X107924003Y-101640566D01*
X107924005Y-101640566D01*
X107924008Y-101640568D01*
X108044412Y-101679689D01*
X108148631Y-101713553D01*
X108381903Y-101750500D01*
X108381908Y-101750500D01*
X108618097Y-101750500D01*
X108851368Y-101713553D01*
X109075992Y-101640568D01*
X109286433Y-101533343D01*
X109477510Y-101394517D01*
X109644517Y-101227510D01*
X109735986Y-101101613D01*
X109791316Y-101058949D01*
X109836304Y-101050500D01*
X113663696Y-101050500D01*
X113730735Y-101070185D01*
X113764013Y-101101613D01*
X113855483Y-101227510D01*
X114022490Y-101394517D01*
X114148388Y-101485987D01*
X114191051Y-101541313D01*
X114199500Y-101586302D01*
X114199500Y-105575500D01*
X114179815Y-105642539D01*
X114127011Y-105688294D01*
X114075500Y-105699500D01*
X111815682Y-105699500D01*
X111750585Y-105681039D01*
X111748351Y-105679661D01*
X111748350Y-105679660D01*
X111639056Y-105612247D01*
X111601518Y-105589093D01*
X111601513Y-105589091D01*
X111537756Y-105567964D01*
X111437753Y-105534826D01*
X111437751Y-105534825D01*
X111336684Y-105524500D01*
X111336677Y-105524500D01*
X111207940Y-105524500D01*
X111140901Y-105504815D01*
X111120259Y-105488181D01*
X110535292Y-104903213D01*
X110535288Y-104903210D01*
X110404185Y-104815609D01*
X110404172Y-104815602D01*
X110258501Y-104755264D01*
X110258489Y-104755261D01*
X110103845Y-104724500D01*
X110103842Y-104724500D01*
X108729278Y-104724500D01*
X108571593Y-104724500D01*
X108571590Y-104724500D01*
X108417006Y-104755248D01*
X108417007Y-104755249D01*
X108416944Y-104755261D01*
X108416931Y-104755265D01*
X108271263Y-104815602D01*
X108271250Y-104815609D01*
X108140148Y-104903209D01*
X108106720Y-104936638D01*
X108028647Y-105014711D01*
X108028645Y-105014713D01*
X105012181Y-108031176D01*
X104950858Y-108064661D01*
X104881166Y-108059677D01*
X104825233Y-108017805D01*
X104800816Y-107952341D01*
X104800500Y-107943495D01*
X104800500Y-98421155D01*
X104800499Y-98421153D01*
X104769738Y-98266510D01*
X104769737Y-98266503D01*
X104769735Y-98266498D01*
X104709397Y-98120827D01*
X104709390Y-98120814D01*
X104621789Y-97989711D01*
X104621786Y-97989707D01*
X104505970Y-97873891D01*
X104505947Y-97873870D01*
X103444258Y-96812181D01*
X103410773Y-96750858D01*
X103415757Y-96681166D01*
X103457629Y-96625233D01*
X103523093Y-96600816D01*
X103531939Y-96600500D01*
X107200024Y-96600500D01*
X107267063Y-96620185D01*
X107300342Y-96651615D01*
X107355483Y-96727510D01*
X107522490Y-96894517D01*
X107713567Y-97033343D01*
X107812991Y-97084002D01*
X107924003Y-97140566D01*
X107924005Y-97140566D01*
X107924008Y-97140568D01*
X108044412Y-97179689D01*
X108148631Y-97213553D01*
X108381903Y-97250500D01*
X108381908Y-97250500D01*
X108618097Y-97250500D01*
X108851368Y-97213553D01*
X109075992Y-97140568D01*
X109286433Y-97033343D01*
X109477510Y-96894517D01*
X109644517Y-96727510D01*
X109735986Y-96601613D01*
X109791316Y-96558949D01*
X109836304Y-96550500D01*
X113663696Y-96550500D01*
X113730735Y-96570185D01*
X113764013Y-96601613D01*
X113855483Y-96727510D01*
X114022490Y-96894517D01*
X114213567Y-97033343D01*
X114312991Y-97084002D01*
X114424003Y-97140566D01*
X114424005Y-97140566D01*
X114424008Y-97140568D01*
X114544412Y-97179689D01*
X114648631Y-97213553D01*
X114881903Y-97250500D01*
X114881908Y-97250500D01*
X115118097Y-97250500D01*
X115351368Y-97213553D01*
X115575992Y-97140568D01*
X115786433Y-97033343D01*
X115977510Y-96894517D01*
X116144517Y-96727510D01*
X116199658Y-96651615D01*
X116254988Y-96608949D01*
X116299976Y-96600500D01*
X120450024Y-96600500D01*
X120517063Y-96620185D01*
X120550342Y-96651615D01*
X120605483Y-96727510D01*
X120772490Y-96894517D01*
X120963567Y-97033343D01*
X121062991Y-97084002D01*
X121174003Y-97140566D01*
X121174005Y-97140566D01*
X121174008Y-97140568D01*
X121294412Y-97179689D01*
X121398631Y-97213553D01*
X121631903Y-97250500D01*
X121631908Y-97250500D01*
X121868097Y-97250500D01*
X122101368Y-97213553D01*
X122325992Y-97140568D01*
X122536433Y-97033343D01*
X122727510Y-96894517D01*
X122894517Y-96727510D01*
X122949658Y-96651615D01*
X123004988Y-96608949D01*
X123049976Y-96600500D01*
X126950024Y-96600500D01*
X127017063Y-96620185D01*
X127050342Y-96651615D01*
X127105483Y-96727510D01*
X127272490Y-96894517D01*
X127463567Y-97033343D01*
X127562991Y-97084002D01*
X127674003Y-97140566D01*
X127674005Y-97140566D01*
X127674008Y-97140568D01*
X127794412Y-97179689D01*
X127898631Y-97213553D01*
X128131903Y-97250500D01*
X128131908Y-97250500D01*
X128368097Y-97250500D01*
X128601368Y-97213553D01*
X128825992Y-97140568D01*
X129036433Y-97033343D01*
X129227510Y-96894517D01*
X129394517Y-96727510D01*
X129449658Y-96651615D01*
X129504988Y-96608949D01*
X129549976Y-96600500D01*
X133700024Y-96600500D01*
X133767063Y-96620185D01*
X133800342Y-96651615D01*
X133855483Y-96727510D01*
X134022490Y-96894517D01*
X134213567Y-97033343D01*
X134312991Y-97084002D01*
X134424003Y-97140566D01*
X134424005Y-97140566D01*
X134424008Y-97140568D01*
X134544412Y-97179689D01*
X134648631Y-97213553D01*
X134881903Y-97250500D01*
X134881908Y-97250500D01*
X135118097Y-97250500D01*
X135351368Y-97213553D01*
X135575992Y-97140568D01*
X135786433Y-97033343D01*
X135977510Y-96894517D01*
X136144517Y-96727510D01*
X136199658Y-96651615D01*
X136254988Y-96608949D01*
X136299976Y-96600500D01*
X140200024Y-96600500D01*
X140267063Y-96620185D01*
X140300342Y-96651615D01*
X140355483Y-96727510D01*
X140522490Y-96894517D01*
X140713567Y-97033343D01*
X140812991Y-97084002D01*
X140924003Y-97140566D01*
X140924005Y-97140566D01*
X140924008Y-97140568D01*
X141044412Y-97179689D01*
X141148631Y-97213553D01*
X141381903Y-97250500D01*
X141381908Y-97250500D01*
X141618097Y-97250500D01*
X141851368Y-97213553D01*
X142075992Y-97140568D01*
X142286433Y-97033343D01*
X142477510Y-96894517D01*
X142644517Y-96727510D01*
X142783343Y-96536433D01*
X142890568Y-96325992D01*
X142963553Y-96101368D01*
X143000500Y-95868097D01*
X143000500Y-95631902D01*
X142963553Y-95398631D01*
X142890566Y-95174003D01*
X142834002Y-95062991D01*
X142783343Y-94963567D01*
X142644517Y-94772490D01*
X142477510Y-94605483D01*
X142286433Y-94466657D01*
X142075996Y-94359433D01*
X141851368Y-94286446D01*
X141618097Y-94249500D01*
X141618092Y-94249500D01*
X141381908Y-94249500D01*
X141381903Y-94249500D01*
X141148631Y-94286446D01*
X140924003Y-94359433D01*
X140713566Y-94466657D01*
X140604550Y-94545862D01*
X140522490Y-94605483D01*
X140522488Y-94605485D01*
X140522487Y-94605485D01*
X140355485Y-94772487D01*
X140355485Y-94772488D01*
X140355483Y-94772490D01*
X140233016Y-94941051D01*
X140227687Y-94948386D01*
X140172357Y-94991051D01*
X140127369Y-94999500D01*
X136372631Y-94999500D01*
X136305592Y-94979815D01*
X136272313Y-94948386D01*
X136266984Y-94941051D01*
X136144517Y-94772490D01*
X135977510Y-94605483D01*
X135786433Y-94466657D01*
X135575996Y-94359433D01*
X135351368Y-94286446D01*
X135118097Y-94249500D01*
X135118092Y-94249500D01*
X134881908Y-94249500D01*
X134881903Y-94249500D01*
X134648631Y-94286446D01*
X134424003Y-94359433D01*
X134213566Y-94466657D01*
X134104550Y-94545862D01*
X134022490Y-94605483D01*
X134022488Y-94605485D01*
X134022487Y-94605485D01*
X133855485Y-94772487D01*
X133855485Y-94772488D01*
X133855483Y-94772490D01*
X133733016Y-94941051D01*
X133727687Y-94948386D01*
X133672357Y-94991051D01*
X133627369Y-94999500D01*
X129622631Y-94999500D01*
X129555592Y-94979815D01*
X129522313Y-94948386D01*
X129516984Y-94941051D01*
X129394517Y-94772490D01*
X129227510Y-94605483D01*
X129036433Y-94466657D01*
X128825996Y-94359433D01*
X128601368Y-94286446D01*
X128368097Y-94249500D01*
X128368092Y-94249500D01*
X128131908Y-94249500D01*
X128131903Y-94249500D01*
X127898631Y-94286446D01*
X127674003Y-94359433D01*
X127463566Y-94466657D01*
X127354550Y-94545862D01*
X127272490Y-94605483D01*
X127272488Y-94605485D01*
X127272487Y-94605485D01*
X127105485Y-94772487D01*
X127105485Y-94772488D01*
X127105483Y-94772490D01*
X126983016Y-94941051D01*
X126977687Y-94948386D01*
X126922357Y-94991051D01*
X126877369Y-94999500D01*
X123122631Y-94999500D01*
X123055592Y-94979815D01*
X123022313Y-94948386D01*
X123016984Y-94941051D01*
X122894517Y-94772490D01*
X122727510Y-94605483D01*
X122536433Y-94466657D01*
X122325996Y-94359433D01*
X122101368Y-94286446D01*
X121868097Y-94249500D01*
X121868092Y-94249500D01*
X121631908Y-94249500D01*
X121631903Y-94249500D01*
X121398631Y-94286446D01*
X121174003Y-94359433D01*
X120963566Y-94466657D01*
X120854550Y-94545862D01*
X120772490Y-94605483D01*
X120772488Y-94605485D01*
X120772487Y-94605485D01*
X120605485Y-94772487D01*
X120605485Y-94772488D01*
X120605483Y-94772490D01*
X120483016Y-94941051D01*
X120477687Y-94948386D01*
X120422357Y-94991051D01*
X120377369Y-94999500D01*
X116372631Y-94999500D01*
X116305592Y-94979815D01*
X116272313Y-94948386D01*
X116266984Y-94941051D01*
X116144517Y-94772490D01*
X115977510Y-94605483D01*
X115786433Y-94466657D01*
X115575996Y-94359433D01*
X115351368Y-94286446D01*
X115118097Y-94249500D01*
X115118092Y-94249500D01*
X114881908Y-94249500D01*
X114881903Y-94249500D01*
X114648631Y-94286446D01*
X114424003Y-94359433D01*
X114213566Y-94466657D01*
X114104550Y-94545862D01*
X114022490Y-94605483D01*
X114022488Y-94605485D01*
X114022487Y-94605485D01*
X113855485Y-94772487D01*
X113855485Y-94772488D01*
X113855483Y-94772490D01*
X113764014Y-94898386D01*
X113708684Y-94941051D01*
X113663696Y-94949500D01*
X109836304Y-94949500D01*
X109769265Y-94929815D01*
X109735986Y-94898386D01*
X109644517Y-94772490D01*
X109477510Y-94605483D01*
X109286433Y-94466657D01*
X109075996Y-94359433D01*
X108851368Y-94286446D01*
X108618097Y-94249500D01*
X108618092Y-94249500D01*
X108381908Y-94249500D01*
X108381903Y-94249500D01*
X108148631Y-94286446D01*
X107924003Y-94359433D01*
X107713566Y-94466657D01*
X107604550Y-94545862D01*
X107522490Y-94605483D01*
X107522488Y-94605485D01*
X107522487Y-94605485D01*
X107355485Y-94772487D01*
X107355485Y-94772488D01*
X107355483Y-94772490D01*
X107233016Y-94941051D01*
X107227687Y-94948386D01*
X107172357Y-94991051D01*
X107127369Y-94999500D01*
X102622631Y-94999500D01*
X102555592Y-94979815D01*
X102522313Y-94948386D01*
X102516984Y-94941051D01*
X102394517Y-94772490D01*
X102227510Y-94605483D01*
X102036433Y-94466657D01*
X101825996Y-94359433D01*
X101601368Y-94286446D01*
X101368097Y-94249500D01*
X101368092Y-94249500D01*
X101131908Y-94249500D01*
X101131903Y-94249500D01*
X100898631Y-94286446D01*
X100674003Y-94359433D01*
X100463566Y-94466657D01*
X100354550Y-94545862D01*
X100272490Y-94605483D01*
X100272488Y-94605485D01*
X100272487Y-94605485D01*
X100105485Y-94772487D01*
X100105485Y-94772488D01*
X100105483Y-94772490D01*
X100014014Y-94898386D01*
X99958684Y-94941051D01*
X99913696Y-94949500D01*
X96086304Y-94949500D01*
X96019265Y-94929815D01*
X95985986Y-94898386D01*
X95894517Y-94772490D01*
X95727510Y-94605483D01*
X95536433Y-94466657D01*
X95325996Y-94359433D01*
X95101368Y-94286446D01*
X94868097Y-94249500D01*
X94868092Y-94249500D01*
X94631908Y-94249500D01*
X94631903Y-94249500D01*
X94398631Y-94286446D01*
X94174003Y-94359433D01*
X93963566Y-94466657D01*
X93854550Y-94545862D01*
X93772490Y-94605483D01*
X93772488Y-94605485D01*
X93772487Y-94605485D01*
X93605485Y-94772487D01*
X93605485Y-94772488D01*
X93605483Y-94772490D01*
X93545862Y-94854550D01*
X93466657Y-94963566D01*
X93359433Y-95174003D01*
X93286446Y-95398631D01*
X93249500Y-95631902D01*
X87874463Y-95631902D01*
X88030289Y-95541936D01*
X88222738Y-95394265D01*
X88394265Y-95222738D01*
X88541936Y-95030289D01*
X88663224Y-94820212D01*
X88756054Y-94596100D01*
X88818838Y-94361789D01*
X88850500Y-94121288D01*
X88850500Y-93878712D01*
X88850500Y-93878711D01*
X152149500Y-93878711D01*
X152149500Y-94121288D01*
X152181161Y-94361785D01*
X152243947Y-94596104D01*
X152317008Y-94772488D01*
X152336776Y-94820212D01*
X152458064Y-95030289D01*
X152458066Y-95030292D01*
X152458067Y-95030293D01*
X152605733Y-95222736D01*
X152605739Y-95222743D01*
X152777256Y-95394260D01*
X152777262Y-95394265D01*
X152969711Y-95541936D01*
X153179788Y-95663224D01*
X153403900Y-95756054D01*
X153638211Y-95818838D01*
X153818586Y-95842584D01*
X153878711Y-95850500D01*
X153878712Y-95850500D01*
X154121289Y-95850500D01*
X154169388Y-95844167D01*
X154361789Y-95818838D01*
X154596100Y-95756054D01*
X154820212Y-95663224D01*
X155030289Y-95541936D01*
X155222738Y-95394265D01*
X155394265Y-95222738D01*
X155541936Y-95030289D01*
X155663224Y-94820212D01*
X155756054Y-94596100D01*
X155818838Y-94361789D01*
X155850500Y-94121288D01*
X155850500Y-93878712D01*
X155818838Y-93638211D01*
X155756054Y-93403900D01*
X155663224Y-93179788D01*
X155541936Y-92969711D01*
X155394265Y-92777262D01*
X155394260Y-92777256D01*
X155222743Y-92605739D01*
X155222736Y-92605733D01*
X155030293Y-92458067D01*
X155030292Y-92458066D01*
X155030289Y-92458064D01*
X154820212Y-92336776D01*
X154820205Y-92336773D01*
X154596104Y-92243947D01*
X154361785Y-92181161D01*
X154121289Y-92149500D01*
X154121288Y-92149500D01*
X153878712Y-92149500D01*
X153878711Y-92149500D01*
X153638214Y-92181161D01*
X153403895Y-92243947D01*
X153179794Y-92336773D01*
X153179785Y-92336777D01*
X152969706Y-92458067D01*
X152777263Y-92605733D01*
X152777256Y-92605739D01*
X152605739Y-92777256D01*
X152605733Y-92777263D01*
X152458067Y-92969706D01*
X152336777Y-93179785D01*
X152336773Y-93179794D01*
X152243947Y-93403895D01*
X152181161Y-93638214D01*
X152149500Y-93878711D01*
X88850500Y-93878711D01*
X88818838Y-93638211D01*
X88756054Y-93403900D01*
X88663224Y-93179788D01*
X88541936Y-92969711D01*
X88394265Y-92777262D01*
X88394260Y-92777256D01*
X88222743Y-92605739D01*
X88222736Y-92605733D01*
X88030293Y-92458067D01*
X88030292Y-92458066D01*
X88030289Y-92458064D01*
X87820212Y-92336776D01*
X87820205Y-92336773D01*
X87596104Y-92243947D01*
X87361785Y-92181161D01*
X87121289Y-92149500D01*
X87121288Y-92149500D01*
X86878712Y-92149500D01*
X86878711Y-92149500D01*
X86638214Y-92181161D01*
X86403895Y-92243947D01*
X86179794Y-92336773D01*
X86179785Y-92336777D01*
X85969706Y-92458067D01*
X85777263Y-92605733D01*
X85777256Y-92605739D01*
X85605739Y-92777256D01*
X85605733Y-92777263D01*
X85458067Y-92969706D01*
X85336777Y-93179785D01*
X85336773Y-93179794D01*
X85243947Y-93403895D01*
X85181161Y-93638214D01*
X85149500Y-93878711D01*
X83500500Y-93878711D01*
X83500500Y-93003750D01*
X83500726Y-92996263D01*
X83518271Y-92706205D01*
X83520076Y-92691340D01*
X83571780Y-92409202D01*
X83575364Y-92394664D01*
X83660699Y-92120812D01*
X83665997Y-92106842D01*
X83783727Y-91845258D01*
X83790680Y-91832012D01*
X83830959Y-91765381D01*
X83939075Y-91586534D01*
X83947567Y-91574230D01*
X84124481Y-91348417D01*
X84134396Y-91337226D01*
X84337226Y-91134396D01*
X84348417Y-91124481D01*
X84574230Y-90947567D01*
X84586534Y-90939075D01*
X84832012Y-90790680D01*
X84845258Y-90783727D01*
X85106842Y-90665997D01*
X85120812Y-90660699D01*
X85394668Y-90575362D01*
X85409198Y-90571780D01*
X85691344Y-90520075D01*
X85706201Y-90518271D01*
X85996264Y-90500726D01*
X86003751Y-90500500D01*
X86065892Y-90500500D01*
X154934108Y-90500500D01*
X154996249Y-90500500D01*
X155003736Y-90500726D01*
G37*
%TD.AperFunction*%
%TD*%
M02*
