%TF.GenerationSoftware,KiCad,Pcbnew,10.0.1-10.0.1~ubuntu22.04.1*%
%TF.CreationDate,2026-07-17T13:41:06+09:00*%
%TF.ProjectId,administrator-board,61646d69-6e69-4737-9472-61746f722d62,rev?*%
%TF.SameCoordinates,Original*%
%TF.FileFunction,Legend,Bot*%
%TF.FilePolarity,Positive*%
%FSLAX46Y46*%
G04 Gerber Fmt 4.6, Leading zero omitted, Abs format (unit mm)*
G04 Created by KiCad (PCBNEW 10.0.1-10.0.1~ubuntu22.04.1) date 2026-07-17 13:41:06*
%MOMM*%
%LPD*%
G01*
G04 APERTURE LIST*
%ADD10C,0.100000*%
G04 APERTURE END LIST*
D10*
X155067544Y-117172419D02*
X155067544Y-116172419D01*
X155067544Y-117124800D02*
X155162782Y-117172419D01*
X155162782Y-117172419D02*
X155353258Y-117172419D01*
X155353258Y-117172419D02*
X155448496Y-117124800D01*
X155448496Y-117124800D02*
X155496115Y-117077180D01*
X155496115Y-117077180D02*
X155543734Y-116981942D01*
X155543734Y-116981942D02*
X155543734Y-116696228D01*
X155543734Y-116696228D02*
X155496115Y-116600990D01*
X155496115Y-116600990D02*
X155448496Y-116553371D01*
X155448496Y-116553371D02*
X155353258Y-116505752D01*
X155353258Y-116505752D02*
X155162782Y-116505752D01*
X155162782Y-116505752D02*
X155067544Y-116553371D01*
X154210401Y-117124800D02*
X154305639Y-117172419D01*
X154305639Y-117172419D02*
X154496115Y-117172419D01*
X154496115Y-117172419D02*
X154591353Y-117124800D01*
X154591353Y-117124800D02*
X154638972Y-117029561D01*
X154638972Y-117029561D02*
X154638972Y-116648609D01*
X154638972Y-116648609D02*
X154591353Y-116553371D01*
X154591353Y-116553371D02*
X154496115Y-116505752D01*
X154496115Y-116505752D02*
X154305639Y-116505752D01*
X154305639Y-116505752D02*
X154210401Y-116553371D01*
X154210401Y-116553371D02*
X154162782Y-116648609D01*
X154162782Y-116648609D02*
X154162782Y-116743847D01*
X154162782Y-116743847D02*
X154638972Y-116839085D01*
X153781829Y-117124800D02*
X153686591Y-117172419D01*
X153686591Y-117172419D02*
X153496115Y-117172419D01*
X153496115Y-117172419D02*
X153400877Y-117124800D01*
X153400877Y-117124800D02*
X153353258Y-117029561D01*
X153353258Y-117029561D02*
X153353258Y-116981942D01*
X153353258Y-116981942D02*
X153400877Y-116886704D01*
X153400877Y-116886704D02*
X153496115Y-116839085D01*
X153496115Y-116839085D02*
X153638972Y-116839085D01*
X153638972Y-116839085D02*
X153734210Y-116791466D01*
X153734210Y-116791466D02*
X153781829Y-116696228D01*
X153781829Y-116696228D02*
X153781829Y-116648609D01*
X153781829Y-116648609D02*
X153734210Y-116553371D01*
X153734210Y-116553371D02*
X153638972Y-116505752D01*
X153638972Y-116505752D02*
X153496115Y-116505752D01*
X153496115Y-116505752D02*
X153400877Y-116553371D01*
X152924686Y-117172419D02*
X152924686Y-116505752D01*
X152924686Y-116172419D02*
X152972305Y-116220038D01*
X152972305Y-116220038D02*
X152924686Y-116267657D01*
X152924686Y-116267657D02*
X152877067Y-116220038D01*
X152877067Y-116220038D02*
X152924686Y-116172419D01*
X152924686Y-116172419D02*
X152924686Y-116267657D01*
X152019925Y-116505752D02*
X152019925Y-117315276D01*
X152019925Y-117315276D02*
X152067544Y-117410514D01*
X152067544Y-117410514D02*
X152115163Y-117458133D01*
X152115163Y-117458133D02*
X152210401Y-117505752D01*
X152210401Y-117505752D02*
X152353258Y-117505752D01*
X152353258Y-117505752D02*
X152448496Y-117458133D01*
X152019925Y-117124800D02*
X152115163Y-117172419D01*
X152115163Y-117172419D02*
X152305639Y-117172419D01*
X152305639Y-117172419D02*
X152400877Y-117124800D01*
X152400877Y-117124800D02*
X152448496Y-117077180D01*
X152448496Y-117077180D02*
X152496115Y-116981942D01*
X152496115Y-116981942D02*
X152496115Y-116696228D01*
X152496115Y-116696228D02*
X152448496Y-116600990D01*
X152448496Y-116600990D02*
X152400877Y-116553371D01*
X152400877Y-116553371D02*
X152305639Y-116505752D01*
X152305639Y-116505752D02*
X152115163Y-116505752D01*
X152115163Y-116505752D02*
X152019925Y-116553371D01*
X151543734Y-116505752D02*
X151543734Y-117172419D01*
X151543734Y-116600990D02*
X151496115Y-116553371D01*
X151496115Y-116553371D02*
X151400877Y-116505752D01*
X151400877Y-116505752D02*
X151258020Y-116505752D01*
X151258020Y-116505752D02*
X151162782Y-116553371D01*
X151162782Y-116553371D02*
X151115163Y-116648609D01*
X151115163Y-116648609D02*
X151115163Y-117172419D01*
X150258020Y-117124800D02*
X150353258Y-117172419D01*
X150353258Y-117172419D02*
X150543734Y-117172419D01*
X150543734Y-117172419D02*
X150638972Y-117124800D01*
X150638972Y-117124800D02*
X150686591Y-117029561D01*
X150686591Y-117029561D02*
X150686591Y-116648609D01*
X150686591Y-116648609D02*
X150638972Y-116553371D01*
X150638972Y-116553371D02*
X150543734Y-116505752D01*
X150543734Y-116505752D02*
X150353258Y-116505752D01*
X150353258Y-116505752D02*
X150258020Y-116553371D01*
X150258020Y-116553371D02*
X150210401Y-116648609D01*
X150210401Y-116648609D02*
X150210401Y-116743847D01*
X150210401Y-116743847D02*
X150686591Y-116839085D01*
X149353258Y-117172419D02*
X149353258Y-116172419D01*
X149353258Y-117124800D02*
X149448496Y-117172419D01*
X149448496Y-117172419D02*
X149638972Y-117172419D01*
X149638972Y-117172419D02*
X149734210Y-117124800D01*
X149734210Y-117124800D02*
X149781829Y-117077180D01*
X149781829Y-117077180D02*
X149829448Y-116981942D01*
X149829448Y-116981942D02*
X149829448Y-116696228D01*
X149829448Y-116696228D02*
X149781829Y-116600990D01*
X149781829Y-116600990D02*
X149734210Y-116553371D01*
X149734210Y-116553371D02*
X149638972Y-116505752D01*
X149638972Y-116505752D02*
X149448496Y-116505752D01*
X149448496Y-116505752D02*
X149353258Y-116553371D01*
X148115162Y-117172419D02*
X148115162Y-116172419D01*
X148115162Y-116553371D02*
X148019924Y-116505752D01*
X148019924Y-116505752D02*
X147829448Y-116505752D01*
X147829448Y-116505752D02*
X147734210Y-116553371D01*
X147734210Y-116553371D02*
X147686591Y-116600990D01*
X147686591Y-116600990D02*
X147638972Y-116696228D01*
X147638972Y-116696228D02*
X147638972Y-116981942D01*
X147638972Y-116981942D02*
X147686591Y-117077180D01*
X147686591Y-117077180D02*
X147734210Y-117124800D01*
X147734210Y-117124800D02*
X147829448Y-117172419D01*
X147829448Y-117172419D02*
X148019924Y-117172419D01*
X148019924Y-117172419D02*
X148115162Y-117124800D01*
X147305638Y-116505752D02*
X147067543Y-117172419D01*
X146829448Y-116505752D02*
X147067543Y-117172419D01*
X147067543Y-117172419D02*
X147162781Y-117410514D01*
X147162781Y-117410514D02*
X147210400Y-117458133D01*
X147210400Y-117458133D02*
X147305638Y-117505752D01*
X145686590Y-117172419D02*
X145686590Y-116172419D01*
X145115162Y-117172419D02*
X145543733Y-116600990D01*
X145115162Y-116172419D02*
X145686590Y-116743847D01*
X144258019Y-117172419D02*
X144258019Y-116648609D01*
X144258019Y-116648609D02*
X144305638Y-116553371D01*
X144305638Y-116553371D02*
X144400876Y-116505752D01*
X144400876Y-116505752D02*
X144591352Y-116505752D01*
X144591352Y-116505752D02*
X144686590Y-116553371D01*
X144258019Y-117124800D02*
X144353257Y-117172419D01*
X144353257Y-117172419D02*
X144591352Y-117172419D01*
X144591352Y-117172419D02*
X144686590Y-117124800D01*
X144686590Y-117124800D02*
X144734209Y-117029561D01*
X144734209Y-117029561D02*
X144734209Y-116934323D01*
X144734209Y-116934323D02*
X144686590Y-116839085D01*
X144686590Y-116839085D02*
X144591352Y-116791466D01*
X144591352Y-116791466D02*
X144353257Y-116791466D01*
X144353257Y-116791466D02*
X144258019Y-116743847D01*
X143781828Y-117172419D02*
X143781828Y-116505752D01*
X143781828Y-116600990D02*
X143734209Y-116553371D01*
X143734209Y-116553371D02*
X143638971Y-116505752D01*
X143638971Y-116505752D02*
X143496114Y-116505752D01*
X143496114Y-116505752D02*
X143400876Y-116553371D01*
X143400876Y-116553371D02*
X143353257Y-116648609D01*
X143353257Y-116648609D02*
X143353257Y-117172419D01*
X143353257Y-116648609D02*
X143305638Y-116553371D01*
X143305638Y-116553371D02*
X143210400Y-116505752D01*
X143210400Y-116505752D02*
X143067543Y-116505752D01*
X143067543Y-116505752D02*
X142972304Y-116553371D01*
X142972304Y-116553371D02*
X142924685Y-116648609D01*
X142924685Y-116648609D02*
X142924685Y-117172419D01*
X142019924Y-117172419D02*
X142019924Y-116648609D01*
X142019924Y-116648609D02*
X142067543Y-116553371D01*
X142067543Y-116553371D02*
X142162781Y-116505752D01*
X142162781Y-116505752D02*
X142353257Y-116505752D01*
X142353257Y-116505752D02*
X142448495Y-116553371D01*
X142019924Y-117124800D02*
X142115162Y-117172419D01*
X142115162Y-117172419D02*
X142353257Y-117172419D01*
X142353257Y-117172419D02*
X142448495Y-117124800D01*
X142448495Y-117124800D02*
X142496114Y-117029561D01*
X142496114Y-117029561D02*
X142496114Y-116934323D01*
X142496114Y-116934323D02*
X142448495Y-116839085D01*
X142448495Y-116839085D02*
X142353257Y-116791466D01*
X142353257Y-116791466D02*
X142115162Y-116791466D01*
X142115162Y-116791466D02*
X142019924Y-116743847D01*
X141115162Y-116505752D02*
X141115162Y-117315276D01*
X141115162Y-117315276D02*
X141162781Y-117410514D01*
X141162781Y-117410514D02*
X141210400Y-117458133D01*
X141210400Y-117458133D02*
X141305638Y-117505752D01*
X141305638Y-117505752D02*
X141448495Y-117505752D01*
X141448495Y-117505752D02*
X141543733Y-117458133D01*
X141115162Y-117124800D02*
X141210400Y-117172419D01*
X141210400Y-117172419D02*
X141400876Y-117172419D01*
X141400876Y-117172419D02*
X141496114Y-117124800D01*
X141496114Y-117124800D02*
X141543733Y-117077180D01*
X141543733Y-117077180D02*
X141591352Y-116981942D01*
X141591352Y-116981942D02*
X141591352Y-116696228D01*
X141591352Y-116696228D02*
X141543733Y-116600990D01*
X141543733Y-116600990D02*
X141496114Y-116553371D01*
X141496114Y-116553371D02*
X141400876Y-116505752D01*
X141400876Y-116505752D02*
X141210400Y-116505752D01*
X141210400Y-116505752D02*
X141115162Y-116553371D01*
X140210400Y-117172419D02*
X140210400Y-116648609D01*
X140210400Y-116648609D02*
X140258019Y-116553371D01*
X140258019Y-116553371D02*
X140353257Y-116505752D01*
X140353257Y-116505752D02*
X140543733Y-116505752D01*
X140543733Y-116505752D02*
X140638971Y-116553371D01*
X140210400Y-117124800D02*
X140305638Y-117172419D01*
X140305638Y-117172419D02*
X140543733Y-117172419D01*
X140543733Y-117172419D02*
X140638971Y-117124800D01*
X140638971Y-117124800D02*
X140686590Y-117029561D01*
X140686590Y-117029561D02*
X140686590Y-116934323D01*
X140686590Y-116934323D02*
X140638971Y-116839085D01*
X140638971Y-116839085D02*
X140543733Y-116791466D01*
X140543733Y-116791466D02*
X140305638Y-116791466D01*
X140305638Y-116791466D02*
X140210400Y-116743847D01*
X139877066Y-116505752D02*
X139496114Y-116505752D01*
X139734209Y-116172419D02*
X139734209Y-117029561D01*
X139734209Y-117029561D02*
X139686590Y-117124800D01*
X139686590Y-117124800D02*
X139591352Y-117172419D01*
X139591352Y-117172419D02*
X139496114Y-117172419D01*
X138734209Y-117172419D02*
X138734209Y-116648609D01*
X138734209Y-116648609D02*
X138781828Y-116553371D01*
X138781828Y-116553371D02*
X138877066Y-116505752D01*
X138877066Y-116505752D02*
X139067542Y-116505752D01*
X139067542Y-116505752D02*
X139162780Y-116553371D01*
X138734209Y-117124800D02*
X138829447Y-117172419D01*
X138829447Y-117172419D02*
X139067542Y-117172419D01*
X139067542Y-117172419D02*
X139162780Y-117124800D01*
X139162780Y-117124800D02*
X139210399Y-117029561D01*
X139210399Y-117029561D02*
X139210399Y-116934323D01*
X139210399Y-116934323D02*
X139162780Y-116839085D01*
X139162780Y-116839085D02*
X139067542Y-116791466D01*
X139067542Y-116791466D02*
X138829447Y-116791466D01*
X138829447Y-116791466D02*
X138734209Y-116743847D01*
X138305637Y-116886704D02*
X137829447Y-116886704D01*
X138400875Y-117172419D02*
X138067542Y-116172419D01*
X138067542Y-116172419D02*
X137734209Y-117172419D01*
X137400875Y-117172419D02*
X137400875Y-116172419D01*
X137305637Y-116791466D02*
X137019923Y-117172419D01*
X137019923Y-116505752D02*
X137400875Y-116886704D01*
X136210399Y-117124800D02*
X136305637Y-117172419D01*
X136305637Y-117172419D02*
X136496113Y-117172419D01*
X136496113Y-117172419D02*
X136591351Y-117124800D01*
X136591351Y-117124800D02*
X136638970Y-117029561D01*
X136638970Y-117029561D02*
X136638970Y-116648609D01*
X136638970Y-116648609D02*
X136591351Y-116553371D01*
X136591351Y-116553371D02*
X136496113Y-116505752D01*
X136496113Y-116505752D02*
X136305637Y-116505752D01*
X136305637Y-116505752D02*
X136210399Y-116553371D01*
X136210399Y-116553371D02*
X136162780Y-116648609D01*
X136162780Y-116648609D02*
X136162780Y-116743847D01*
X136162780Y-116743847D02*
X136638970Y-116839085D01*
X135734208Y-117172419D02*
X135734208Y-116505752D01*
X135734208Y-116696228D02*
X135686589Y-116600990D01*
X135686589Y-116600990D02*
X135638970Y-116553371D01*
X135638970Y-116553371D02*
X135543732Y-116505752D01*
X135543732Y-116505752D02*
X135448494Y-116505752D01*
X134686589Y-116505752D02*
X134686589Y-117172419D01*
X135115160Y-116505752D02*
X135115160Y-117029561D01*
X135115160Y-117029561D02*
X135067541Y-117124800D01*
X135067541Y-117124800D02*
X134972303Y-117172419D01*
X134972303Y-117172419D02*
X134829446Y-117172419D01*
X134829446Y-117172419D02*
X134734208Y-117124800D01*
X134734208Y-117124800D02*
X134686589Y-117077180D01*
M02*
